<svg width="409" height="380" viewBox="0 0 409 380" fill="none" xmlns="http://www.w3.org/2000/svg">
<g clip-path="url(#clip0_1739_14779)">
<path d="M59.8972 351.318C139.764 389.379 269.248 389.379 349.103 351.318C428.97 313.256 428.97 251.539 349.103 213.478C269.236 175.416 139.752 175.416 59.8972 213.478C-19.9696 251.539 -19.9696 313.256 59.8972 351.318Z" fill="#F5F5F5"/>
<path d="M348.836 323.187C363.545 323.187 375.47 317.505 375.47 310.496C375.47 303.487 363.545 297.805 348.836 297.805C334.127 297.805 322.202 303.487 322.202 310.496C322.202 317.505 334.127 323.187 348.836 323.187Z" fill="#EBEBEB"/>
<path d="M53.7783 312.314L63.1894 306.878C63.1894 306.878 70.9547 301.164 74.8026 290.571C77.7117 282.551 77.3176 276.454 75.2198 273.395C72.6469 269.628 66.0058 270.288 65.7508 278.228C65.2408 293.839 60.6744 304.653 53.7783 312.314Z" fill="#B357D4"/>
<path opacity="0.2" d="M53.7783 312.314L63.1894 306.878C63.1894 306.878 70.9547 301.164 74.8026 290.571C77.7117 282.551 77.3176 276.454 75.2198 273.395C72.6469 269.628 66.0058 270.288 65.7508 278.228C65.2408 293.839 60.6744 304.653 53.7783 312.314Z" fill="black"/>
<path d="M53.7785 312.895C53.5931 312.895 53.4192 312.802 53.3033 312.64C53.1179 312.374 53.1874 312.014 53.454 311.829C75.2432 296.75 71.0245 275.749 70.9781 275.541C70.9086 275.228 71.1056 274.915 71.4185 274.857C71.7315 274.787 72.0444 274.984 72.1023 275.297C72.1487 275.517 76.5529 297.249 54.1146 312.779C54.0103 312.86 53.8944 312.895 53.7785 312.895Z" fill="white"/>
<path d="M34.9443 323.186C34.9443 323.186 31.6644 320.52 32.4641 316.904C33.2522 313.288 35.3732 310.692 31.7339 306.033C28.0946 301.373 27.1559 295.161 31.4326 291.788C34.7357 289.181 39.8933 292.878 41.7593 285.97C43.1153 280.94 42.6517 269.802 49.0726 266.093C55.4934 262.385 59.4688 267.971 58.4837 275.516C57.6028 282.273 56.3627 288.787 57.3131 290.548C59.1907 294.014 62.4011 293.55 62.2504 299.901C62.1113 305.812 56.5249 310.703 56.5249 310.703L34.9443 323.186Z" fill="#B357D4"/>
<path d="M45.7113 317.543C45.4216 317.543 45.1666 317.323 45.1318 317.033C43.4744 303.299 47.4266 279.585 50.695 272.539C50.8341 272.249 51.1702 272.121 51.46 272.261C51.7497 272.4 51.8772 272.736 51.7381 273.025C48.5277 279.956 44.6914 303.762 46.2792 316.894C46.314 317.207 46.0938 317.496 45.7693 317.543C45.7577 317.543 45.7345 317.543 45.7113 317.543Z" fill="white"/>
<path d="M45.3984 306.855C45.3172 306.855 45.2245 306.832 45.1434 306.797C41.1216 304.827 38.5718 297.85 38.4675 297.548C38.3632 297.247 38.5139 296.911 38.8152 296.806C39.1166 296.702 39.4527 296.853 39.557 297.154C39.5802 297.224 42.0488 303.992 45.6533 305.754C45.9431 305.893 46.059 306.241 45.9199 306.53C45.8272 306.739 45.6186 306.855 45.3984 306.855Z" fill="white"/>
<path d="M45.3404 311.481C45.1086 311.481 44.8884 311.342 44.8073 311.122C44.6914 310.82 44.8305 310.484 45.1318 310.368C51.9004 307.656 56.1191 299.59 56.1655 299.508C56.3162 299.219 56.6639 299.114 56.942 299.265C57.2318 299.416 57.3361 299.763 57.197 300.042C57.0231 300.389 52.7348 308.572 45.5722 311.446C45.4795 311.469 45.41 311.481 45.3404 311.481Z" fill="white"/>
<path d="M281.928 249.136C281.928 249.136 276.863 240.942 276.376 232.018C275.889 223.093 277.848 219.396 280.537 218.33C283.226 217.264 283.423 220.544 284.814 222.479C286.205 224.415 289.009 223.314 290.041 217.275C291.072 211.237 294.885 201.014 302.755 199.067C311.448 196.912 306.788 207.111 304.598 211.086C302.419 215.062 300.715 220.486 302.152 221.958C303.59 223.43 305.826 220.706 307.959 223.233C310.544 226.281 302.512 237.245 297.899 239.911L281.928 249.136Z" fill="#B357D4"/>
<path d="M288.87 245.682C288.859 245.682 288.847 245.682 288.835 245.682C288.511 245.67 288.267 245.392 288.291 245.068C289.565 221.331 301.144 204.897 301.271 204.734C301.457 204.468 301.816 204.41 302.083 204.595C302.338 204.781 302.407 205.14 302.222 205.407C302.106 205.569 290.724 221.748 289.461 245.126C289.426 245.438 289.171 245.682 288.87 245.682Z" fill="white"/>
<path d="M289.531 238.845C289.438 238.845 289.334 238.822 289.253 238.776C286.008 236.979 284.211 231.648 284.13 231.428C284.026 231.126 284.188 230.802 284.501 230.697C284.802 230.593 285.139 230.767 285.231 231.068C285.243 231.115 286.958 236.191 289.809 237.767C290.087 237.918 290.192 238.277 290.041 238.555C289.937 238.729 289.728 238.845 289.531 238.845Z" fill="white"/>
<path d="M290.099 235.333C289.844 235.333 289.6 235.159 289.542 234.892C289.461 234.579 289.647 234.266 289.96 234.185C298.328 232.064 301.225 227.683 301.248 227.637C301.422 227.37 301.782 227.289 302.048 227.463C302.315 227.637 302.396 227.996 302.222 228.263C302.094 228.46 299.093 233.073 290.238 235.309C290.192 235.321 290.145 235.333 290.099 235.333Z" fill="white"/>
<path d="M155.852 231.112C155.852 231.112 144.737 228.4 144.157 207.596C143.531 185.135 146.881 158.93 133.773 156.797C120.664 154.664 113.305 170.74 113.479 189.411C113.629 205.811 120.236 241.393 155.852 248.37V231.112Z" fill="#B357D4"/>
<path opacity="0.2" d="M155.852 231.112C155.852 231.112 144.737 228.4 144.157 207.596C143.531 185.135 146.881 158.93 133.773 156.797C120.664 154.664 113.305 170.74 113.479 189.411C113.629 205.811 120.236 241.393 155.852 248.37V231.112Z" fill="black"/>
<path d="M155.852 246.227C155.817 246.227 155.782 246.227 155.747 246.215C147.727 244.755 141.213 240.35 136.357 233.107C121.962 211.63 126.494 171.529 127.989 164.529C128.059 164.216 128.36 164.019 128.673 164.076C128.986 164.146 129.183 164.447 129.125 164.76C127.653 171.691 123.156 211.306 137.331 232.458C142.002 239.423 148.272 243.665 155.967 245.067C156.28 245.125 156.489 245.427 156.431 245.74C156.362 246.029 156.118 246.227 155.852 246.227Z" fill="white"/>
<path d="M155.852 299.644C144.366 301.197 125.694 301.174 114.95 292.69C104.195 284.206 106.432 276.905 110.569 273.857C114.707 270.808 118.3 267.32 111.184 260.563C104.067 253.794 92.628 242.923 88.9308 226.616C85.2336 210.309 87.0532 200.109 94.3318 196.713C101.39 193.422 103.256 198.649 107.579 209.462C111.902 220.264 121.626 211.004 129.948 214.377C138.27 217.749 137.933 224.425 138.467 230.162C138.988 235.899 141.735 237.487 146.44 237.487C151.146 237.487 155.852 240.199 155.852 245.646V299.644Z" fill="#B357D4"/>
<path d="M155.851 280.718C155.805 280.718 155.747 280.706 155.7 280.695C155.202 280.556 143.322 277.102 126.018 261.212C107.59 244.291 98.8978 218.908 98.8051 218.653C98.7008 218.352 98.863 218.016 99.1644 217.923C99.4657 217.819 99.8018 217.981 99.8945 218.283C99.9757 218.538 108.587 243.641 126.795 260.354C143.855 276.036 155.886 279.547 156.002 279.582C156.315 279.675 156.489 279.988 156.407 280.301C156.338 280.544 156.106 280.718 155.851 280.718Z" fill="white"/>
<path d="M130.829 265.256C130.597 265.256 130.377 265.117 130.284 264.885C126.564 255.323 125.718 234.89 125.683 234.032C125.671 233.708 125.915 233.441 126.239 233.43C126.541 233.43 126.83 233.661 126.842 233.986C126.854 234.195 127.711 255.091 131.362 264.468C131.478 264.769 131.327 265.105 131.038 265.221C130.968 265.244 130.899 265.256 130.829 265.256Z" fill="white"/>
<path d="M130.724 279.001C128.928 279.001 127.676 278.862 127.525 278.839C127.212 278.804 126.98 278.514 127.015 278.19C127.05 277.877 127.34 277.633 127.664 277.68C127.769 277.691 138.559 278.908 143.508 273.855C143.728 273.623 144.099 273.623 144.331 273.843C144.562 274.064 144.562 274.435 144.342 274.666C140.715 278.375 134.502 279.001 130.724 279.001Z" fill="white"/>
<path d="M122.38 59.5388L121.139 52.3182L114.695 56.5601C114.046 55.32 113.223 54.3348 112.238 53.5815L115.321 45.2367L109.573 43.9502L105.331 52.04C103.928 52.2602 102.445 52.7354 100.915 53.4772L99.0837 47.3808L92.1992 52.7934L92.6512 59.9792C91.2604 61.5322 89.9855 63.2244 88.8497 65.0093L83.1706 64.7311L79.1836 73.667L84.063 75.7532C83.5531 77.6771 83.2169 79.5779 83.101 81.4207L76.9004 87.123L78.1405 94.3436L84.5846 90.1016C85.2336 91.3418 86.0565 92.3269 87.0417 93.0803L83.9587 101.425L89.7074 102.712L95.7805 96.7891C97.1829 96.5689 96.8468 93.9263 98.3767 93.1846L100.208 99.2809L107.092 93.8684L106.919 91.0404C108.309 89.4874 113.571 86.0683 114.707 84.295L116.133 81.9423L120.12 73.0064L118.265 69.6453L116.202 65.2642L122.38 59.5388ZM101.367 83.3562C96.0935 87.5055 94.4824 88.4095 93.5205 82.8695C92.5701 77.3294 95.653 68.8687 100.926 64.7195C106.2 60.5703 108.228 60.2573 109.19 65.809C110.152 71.3606 106.652 79.207 101.367 83.3562Z" fill="#E0E0E0"/>
<path d="M109.585 43.9502L117.095 48.2849L112.853 56.3631L105.331 52.04L109.585 43.9502Z" fill="#F5F5F5"/>
<path d="M128.65 56.6423L122.206 60.8958L114.695 56.5612L121.139 52.3076L128.65 56.6423Z" fill="#F5F5F5"/>
<path d="M127.618 77.3183L122.739 75.2321L115.229 70.8975L120.108 72.9837L127.618 77.3183Z" fill="#E0E0E0"/>
<path d="M83.959 101.4L91.4693 105.735L94.5523 97.3903L87.0419 93.0557L83.959 101.4Z" fill="#E0E0E0"/>
<path d="M107.718 103.593L100.196 99.2585L98.3652 93.1621L105.876 97.4968L107.718 103.593Z" fill="#E0E0E0"/>
<path d="M129.902 63.8736L128.65 56.6414L122.206 60.8834C121.557 59.6432 120.734 58.6581 119.749 57.9047L122.832 49.5599L117.083 48.2734L112.841 56.3633C111.439 56.5835 109.956 57.0587 108.426 57.8004L106.594 51.7041L99.7099 57.1166L100.162 64.3024C98.7712 65.8555 97.4963 67.5476 96.3604 69.3325L90.6813 69.0543L86.6944 77.9902L91.5738 80.0764C91.0638 82.0004 90.7277 83.9011 90.6118 85.744L84.4111 91.4462L85.6513 98.6668L92.0953 94.4249C92.7443 95.665 93.5672 96.6502 94.5524 97.4035L91.4694 105.748L97.2181 107.035L101.46 98.945C102.862 98.7248 104.346 98.2496 105.876 97.5078L107.719 103.604L114.603 98.1916L114.151 91.0058C115.542 89.4528 116.817 87.7606 117.953 85.9757L123.632 86.2539L127.619 77.318L122.739 75.2318C123.261 73.3079 123.585 71.4071 123.701 69.5643L129.902 63.8736ZM108.889 87.6911C103.616 91.8403 98.5625 90.7161 97.6006 85.1645C96.6502 79.6244 100.15 71.7664 105.424 67.6172C110.697 63.4679 115.751 64.5922 116.712 70.1438C117.663 75.6838 114.163 83.5419 108.889 87.6911Z" fill="#EBEBEB"/>
<path d="M106.594 51.7165L99.0837 47.3818L92.1992 52.7828L99.7095 57.1174L106.594 51.7165Z" fill="#F5F5F5"/>
<path d="M92.1992 52.7812L92.6512 59.9671L100.162 64.3017L99.7095 57.1159L92.1992 52.7812Z" fill="#E0E0E0"/>
<path d="M96.3602 69.3326L88.8499 64.9979L83.1592 64.7197L90.6811 69.0544L96.3602 69.3326Z" fill="#F5F5F5"/>
<path d="M83.1588 64.7197L79.1719 73.6556L86.6938 77.9903L90.6808 69.0544L83.1588 64.7197Z" fill="#E0E0E0"/>
<path d="M90.6114 85.7331L83.0895 81.3984L76.9004 87.1007L84.4107 91.4354L90.6114 85.7331Z" fill="#F5F5F5"/>
<path d="M85.6509 98.6558L78.1405 94.3212L76.9004 87.1006L84.4107 91.4352L85.6509 98.6558Z" fill="#E0E0E0"/>
<path d="M117.094 48.2849L109.584 43.9502L115.321 45.2367L122.843 49.5714L117.094 48.2849Z" fill="#F5F5F5"/>
<path d="M88.7104 26.7623V15.972L80.1222 19.8431C79.6007 17.8496 78.8126 16.1459 77.8042 14.7319L83.2168 3.81409L76.5989 0.000976562L69.8535 10.1422C68.1266 9.96839 66.249 10.1422 64.2671 10.687L63.3283 1.31065L53.9868 6.71159L53.048 17.1774C51.0661 18.9159 49.1885 20.9094 47.4616 23.0767L40.7162 20.7239L34.1099 32.1749L39.5224 36.834C38.5141 39.4186 37.7144 42.038 37.2044 44.6225L28.6162 50.6725V61.4628L37.2044 57.5918C37.726 59.5852 38.5141 61.289 39.5224 62.7029L34.1099 73.6207L40.7162 77.4339L47.4616 67.2926C49.1885 67.4664 51.0661 67.2926 53.048 66.7479L53.9868 76.1242L63.3283 70.7232L64.2671 60.2575C67.0487 59.3303 70.0273 57.1745 71.7658 55.0072L76.5989 56.7109L83.2052 45.26L79.1487 41.7598C80.157 39.1752 80.2729 35.0608 80.1106 32.8007L88.7104 26.7623ZM58.6575 53.7091C51.4833 57.8467 47.0327 54.9145 47.0327 46.6276C47.0327 38.3523 52.9552 28.1995 60.1295 24.0618C67.3037 19.9242 71.6499 22.9376 71.6499 31.2129C71.6383 39.4997 65.8202 49.5715 58.6575 53.7091Z" fill="#E0E0E0"/>
<path d="M84.1208 4.33564L76.5989 0.000976562L69.8535 10.1422L77.3754 14.4769L84.1208 4.33564Z" fill="#F5F5F5"/>
<path d="M96.2206 20.3063L88.7103 15.9717L80.1221 19.8427L87.6324 24.1774L96.2206 20.3063Z" fill="#F5F5F5"/>
<path d="M61.4968 80.4474L53.9865 76.1128L53.0361 66.748L60.5581 71.0827L61.4968 80.4474Z" fill="#E0E0E0"/>
<path d="M34.0986 73.6199L41.6206 77.9546L47.0215 67.0368L39.5112 62.7021L34.0986 73.6199Z" fill="#E0E0E0"/>
<path d="M96.2203 31.0973V20.307L87.6321 24.178C87.1106 22.1846 86.3225 20.4808 85.3141 19.0668L90.7267 8.14905L84.1204 4.33594L77.375 14.4772C75.6481 14.3033 73.7705 14.4772 71.7886 15.0219L70.8498 5.64561L61.5082 11.0466L60.5694 21.5123C58.5875 23.2508 56.71 25.2443 54.9831 27.4117L48.2377 25.0589L41.6314 36.5098L47.0439 41.169C46.0356 43.7536 45.2474 46.3729 44.7259 48.9575L36.1377 55.0075V65.7978L44.7259 61.9267C45.2474 63.9202 46.0356 65.6239 47.0439 67.0379L41.6314 77.9441L48.2377 81.7572L54.9831 71.616C56.71 71.7898 58.5875 71.616 60.5694 71.0712L61.5082 80.4476L70.8498 75.0466L71.7886 64.5808C73.7705 62.8423 75.6481 60.8488 77.375 58.6815L84.1204 61.0343L90.7267 49.5833L85.3141 44.9242C86.3225 42.3396 87.1222 39.7202 87.6321 37.1357L96.2203 31.0973ZM66.1674 58.0441C58.9932 62.1817 53.1866 58.8322 53.1866 50.5453C53.1866 42.2585 59.0048 32.1983 66.1674 28.0607C73.3416 23.9231 79.1482 27.2726 79.1482 35.5594C79.1598 43.8347 73.3416 53.9064 66.1674 58.0441Z" fill="#EBEBEB"/>
<path d="M47.4495 23.0774L54.9714 27.412L48.226 25.0593L40.7041 20.7246L47.4495 23.0774Z" fill="#F0F0F0"/>
<path d="M40.7103 20.7219L34.1035 32.1768L41.6229 36.5137L48.2297 25.0589L40.7103 20.7219Z" fill="#F5F5F5"/>
<path d="M34.0986 32.1748L41.6206 36.5095L47.0215 41.1687L39.5112 36.834L34.0986 32.1748Z" fill="#E0E0E0"/>
<path d="M37.1927 44.6221L44.703 48.9567L36.1148 55.0067L28.6045 50.6721L37.1927 44.6221Z" fill="#F5F5F5"/>
<path d="M28.6045 50.6729L36.1148 55.0075V65.7978L28.6045 61.4632V50.6729Z" fill="#E0E0E0"/>
<path d="M70.8498 5.64619L63.3279 1.31152L53.9863 6.71247L61.4967 11.0471L70.8498 5.64619Z" fill="#F5F5F5"/>
<path d="M166.792 315.175L275.761 252.253C276.874 251.615 276.874 250.572 275.761 249.935L265.678 244.105C264.565 243.468 262.769 243.468 261.668 244.105L152.664 307.027C151.551 307.665 151.551 308.708 152.664 309.345L162.77 315.187C163.894 315.812 165.691 315.812 166.792 315.175Z" fill="#E0E0E0"/>
<path d="M272.759 9.36055L174.511 66.0821C171.741 67.6815 169.492 71.5757 169.492 74.7746V307.815C169.492 311.014 171.741 312.312 174.511 310.712L272.759 253.991C275.529 252.392 277.778 248.497 277.778 245.298V12.2581C277.778 9.05921 275.529 7.76113 272.759 9.36055Z" fill="#455A64"/>
<path d="M174.511 66.0814L272.759 9.35991C275.24 7.93434 277.291 8.81518 277.697 11.307C277.314 8.31681 275.263 5.00207 272.759 3.56491L268.668 1.20054C265.898 -0.398879 261.401 -0.398879 258.631 1.20054L160.394 57.9337C159.003 58.7334 157.752 60.1126 156.848 61.6772L170.976 69.8366C171.868 68.2604 173.132 66.8811 174.511 66.0814Z" fill="#37474F"/>
<path d="M155.376 299.655C155.376 302.854 157.624 306.748 160.394 308.348L164.486 310.712C166.989 312.161 170.895 312.288 173.665 311.118C171.301 312.01 169.492 310.677 169.492 307.815V74.7743C169.492 73.1749 170.049 71.4016 170.964 69.8254L156.836 61.666C155.932 63.2423 155.364 65.0155 155.364 66.615L155.376 299.655Z" fill="#263238"/>
<path d="M177.212 97.1425L270.059 43.5387C271.728 42.5767 273.073 43.3532 273.073 45.2772V217.713C273.073 219.637 271.728 221.967 270.059 222.929L177.212 276.533C175.554 277.495 174.198 276.718 174.198 274.794V102.346C174.198 100.434 175.554 98.1045 177.212 97.1425Z" fill="white"/>
<path d="M223.641 46.5632C222.667 47.1311 221.879 48.4987 221.879 49.623C221.879 50.7472 222.667 51.2108 223.641 50.6429C224.614 50.075 225.402 48.7073 225.402 47.5831C225.402 46.4589 224.614 45.9953 223.641 46.5632Z" fill="#37474F"/>
<path d="M223.64 258.011C219.793 260.236 216.675 265.637 216.675 270.088C216.675 274.527 219.793 276.335 223.64 274.11C227.488 271.884 230.606 266.483 230.606 262.033C230.606 257.594 227.488 255.797 223.64 258.011Z" fill="#37474F"/>
<path d="M206.963 64.5035C205.016 65.6277 203.428 68.3629 203.428 70.623C203.428 72.8715 205.004 73.7871 206.963 72.6628C208.91 71.5386 210.498 68.8034 210.498 66.5433C210.498 64.2833 208.91 63.3676 206.963 64.5035Z" fill="#37474F"/>
<path d="M215.598 63.7392C215.598 65.2343 216.722 65.8138 218.113 65.0141L241.339 51.6045C242.73 50.8048 243.854 48.9388 243.854 47.4321C243.854 45.9254 242.73 45.3575 241.339 46.1572L218.113 59.5668C216.722 60.3665 215.598 62.2325 215.598 63.7392Z" fill="#37474F"/>
<path d="M163.187 104.607C164.752 105.511 166.015 107.701 166.015 109.498C166.015 111.294 164.752 112.024 163.187 111.132C161.623 110.228 160.359 108.037 160.359 106.241C160.359 104.433 161.623 103.702 163.187 104.607Z" fill="#37474F"/>
<path d="M163.187 126.362C164.752 127.266 166.015 129.457 166.015 131.253C166.015 133.049 164.752 133.78 163.187 132.887C161.623 131.983 160.359 129.793 160.359 127.996C160.359 126.2 161.623 125.47 163.187 126.362Z" fill="#37474F"/>
<path d="M162.318 105.036C163.883 105.94 165.146 108.13 165.146 109.927C165.146 111.723 163.883 112.453 162.318 111.561C160.754 110.657 159.49 108.467 159.49 106.67C159.49 104.874 160.754 104.143 162.318 105.036Z" fill="#455A64"/>
<path d="M162.318 126.802C163.883 127.706 165.146 129.896 165.146 131.693C165.146 133.489 163.883 134.219 162.318 133.327C160.754 132.423 159.49 130.232 159.49 128.436C159.49 126.639 160.754 125.898 162.318 126.802Z" fill="#455A64"/>
<path d="M291.906 50.7254C291.906 48.8015 290.561 48.025 288.892 48.9869L277.777 55.4078L196.045 102.591C194.376 103.553 193.031 105.882 193.031 107.806V280.242C193.031 282.166 194.376 282.943 196.045 281.981L277.801 234.775L288.881 228.377C290.538 227.415 291.894 225.086 291.894 223.162L291.906 50.7254Z" fill="white" stroke="#B357D4" stroke-width="1.159" stroke-miterlimit="10"/>
<path d="M194.701 282.976C194.318 282.976 193.947 282.884 193.623 282.698C192.869 282.258 192.452 281.389 192.452 280.241V107.805C192.452 105.672 193.901 103.157 195.755 102.091L277.488 54.9082L278.068 55.9165L196.335 103.099C194.863 103.946 193.611 106.113 193.611 107.817V280.253C193.611 280.96 193.831 281.481 194.202 281.702C194.585 281.922 195.141 281.841 195.755 281.493L277.511 234.287L278.091 235.295L196.335 282.501C195.767 282.814 195.211 282.976 194.701 282.976Z" fill="#B357D4" stroke="#B357D4" stroke-width="1.159" stroke-miterlimit="10"/>
<path d="M278.103 235.284L277.523 234.276L288.603 227.878C290.075 227.021 291.327 224.865 291.327 223.161V50.7133C291.327 50.0063 291.107 49.4848 290.736 49.2645C290.365 49.0443 289.797 49.1255 289.183 49.4732L278.068 55.894L277.488 54.8857L288.603 48.4648C289.588 47.8969 290.55 47.8158 291.315 48.2562C292.069 48.6966 292.486 49.5659 292.486 50.7017V223.15C292.486 225.282 291.037 227.797 289.183 228.863L278.103 235.284Z" fill="#B357D4" stroke="#B357D4" stroke-width="1.159" stroke-miterlimit="10"/>
<path d="M242.474 90.8028C252.871 84.7991 261.308 89.667 261.308 101.674C261.308 113.681 252.882 128.285 242.474 134.289C232.078 140.292 223.641 135.424 223.641 123.417C223.641 111.41 232.067 96.8064 242.474 90.8028Z" fill="#B357D4"/>
<path d="M242.474 100.249C245.847 98.3014 248.582 99.8776 248.582 103.772C248.582 107.666 245.847 112.406 242.474 114.354C239.101 116.301 236.366 114.724 236.366 110.83C236.366 106.936 239.09 102.196 242.474 100.249Z" fill="#B357D4"/>
<path d="M254.377 121.031C254.377 114.633 249.88 112.037 244.34 115.236L240.875 117.241C235.335 120.44 230.838 128.228 230.838 134.626V136.353C234.037 137.419 238.082 136.84 242.474 134.301C246.994 131.694 251.132 127.463 254.377 122.526V121.031Z" fill="#B357D4"/>
<path opacity="0.7" d="M242.474 100.249C245.847 98.3024 248.582 99.8786 248.582 103.773C248.582 107.667 245.847 112.407 242.474 114.355C239.101 116.302 236.366 114.725 236.366 110.831C236.366 106.937 239.09 102.197 242.474 100.249Z" fill="white"/>
<path opacity="0.7" d="M254.377 121.031C254.377 114.633 249.88 112.037 244.34 115.236L240.875 117.241C235.335 120.44 230.838 128.228 230.838 134.626V136.353C234.037 137.419 238.082 136.84 242.474 134.301C246.994 131.694 251.132 127.463 254.377 122.526V121.031Z" fill="white"/>
<path d="M206.035 160.772L230.27 146.783C231.383 146.145 232.275 146.667 232.275 147.942V148.742C232.275 150.028 231.371 151.581 230.27 152.219L206.035 166.208C204.923 166.845 204.03 166.324 204.03 165.049V164.249C204.019 162.974 204.923 161.421 206.035 160.772Z" fill="#B357D4"/>
<path opacity="0.1" d="M206.035 160.772L230.27 146.783C231.383 146.145 232.275 146.667 232.275 147.942V148.742C232.275 150.028 231.371 151.581 230.27 152.219L206.035 166.208C204.923 166.845 204.03 166.324 204.03 165.049V164.249C204.019 162.974 204.923 161.421 206.035 160.772Z" fill="black"/>
<path d="M205.027 177.671L278.345 135.345C278.902 135.02 279.354 135.287 279.354 135.924V144.478C279.354 145.115 278.902 145.892 278.345 146.216L205.027 188.543C204.471 188.867 204.019 188.601 204.019 187.963V179.41C204.03 178.761 204.471 177.984 205.027 177.671Z" fill="#B357D4"/>
<path opacity="0.2" d="M205.027 177.671L278.345 135.345C278.902 135.02 279.354 135.287 279.354 135.924V144.478C279.354 145.115 278.902 145.892 278.345 146.216L205.027 188.543C204.471 188.867 204.019 188.601 204.019 187.963V179.41C204.03 178.761 204.471 177.984 205.027 177.671Z" fill="white"/>
<path d="M206.035 198.834L230.27 184.845C231.383 184.208 232.275 184.729 232.275 186.004V186.804C232.275 188.079 231.371 189.644 230.27 190.281L206.035 204.27C204.923 204.908 204.03 204.386 204.03 203.111V202.311C204.019 201.025 204.923 199.472 206.035 198.834Z" fill="#B357D4"/>
<path opacity="0.1" d="M206.035 198.834L230.27 184.845C231.383 184.208 232.275 184.729 232.275 186.004V186.804C232.275 188.079 231.371 189.644 230.27 190.281L206.035 204.27C204.923 204.908 204.03 204.386 204.03 203.111V202.311C204.019 201.025 204.923 199.472 206.035 198.834Z" fill="black"/>
<path d="M205.027 215.72L278.345 173.393C278.902 173.069 279.354 173.336 279.354 173.973V182.526C279.354 183.164 278.902 183.94 278.345 184.265L205.027 226.592C204.471 226.916 204.019 226.65 204.019 226.012V217.459C204.03 216.821 204.471 216.033 205.027 215.72Z" fill="#B357D4"/>
<path opacity="0.2" d="M205.027 215.72L278.345 173.393C278.902 173.069 279.354 173.336 279.354 173.973V182.526C279.354 183.164 278.902 183.94 278.345 184.265L205.027 226.592C204.471 226.916 204.019 226.65 204.019 226.012V217.459C204.03 216.821 204.471 216.033 205.027 215.72Z" fill="white"/>
<path d="M234.28 220.577L263.221 203.864C264.333 203.226 265.226 203.748 265.226 205.023V213.982C265.226 215.257 264.322 216.821 263.221 217.459L234.28 234.172C233.168 234.809 232.275 234.288 232.275 233.013V224.054C232.275 222.767 233.168 221.214 234.28 220.577Z" fill="#B357D4"/>
<path opacity="0.1" d="M234.28 220.577L263.221 203.864C264.333 203.226 265.226 203.748 265.226 205.023V213.982C265.226 215.257 264.322 216.821 263.221 217.459L234.28 234.172C233.168 234.809 232.275 234.288 232.275 233.013V224.054C232.275 222.767 233.168 221.214 234.28 220.577Z" fill="black"/>
<path d="M303.368 182.81C303.368 182.81 289.124 163.165 288.266 160.836C287.606 159.074 288.313 156.455 288.475 155.238C288.637 154.021 288.869 151.309 289.078 150.555C289.437 149.234 287.722 149.512 286.771 150.706C285.786 151.935 285.473 154.322 284.986 154.716C284.5 155.11 280.698 149.582 278.705 147.02C276.723 144.459 275.483 142.918 274.277 143.868C273.408 144.552 274.057 146.047 275.494 148.214C276.931 150.393 277.569 151.402 277.789 151.865C278.009 152.329 276.827 152.375 276.19 153.349C275.691 154.114 276.155 155.354 275.494 155.945C274.834 156.536 274.219 157.602 274.938 158.808C275.865 160.337 277.708 162.516 279.84 164C281.973 165.472 282.831 165.993 284.082 167.998C285.334 170.003 296.681 190.483 297.446 191.712C298.211 192.94 299.683 195.444 301.919 195.513C304.156 195.583 322.468 179.82 323.407 179.032C326.421 176.517 327.371 176.146 327.893 178.418C328.055 179.125 328.159 179.936 328.275 180.852C328.634 183.726 330.593 193.995 330.593 193.995C330.593 193.995 339.854 198.48 347.48 196.266C355.106 194.053 357.667 190.865 357.667 190.865L353.854 184.653C354.897 182.092 359.684 171.707 361.191 164.44L337.315 160.581C336.829 160.476 336.04 160.279 335.044 160.013C333.734 159.665 330.442 158.506 327.893 160.72C319.675 167.883 303.368 182.81 303.368 182.81Z" fill="#FFA8A7"/>
<path d="M350.702 303.275L346.425 309.221C346.425 309.221 348.407 310.38 352.637 310.542C356.462 310.693 357.516 309.43 357.656 309.128C358.305 307.737 357.296 305.234 357.018 303.09L350.702 303.275Z" fill="#37474F"/>
<path d="M346.657 306.359C346.657 306.359 341.476 306.023 337.883 305.582C334.302 305.13 331.463 306.88 332.309 308.352C333.155 309.824 335.125 311.053 338.196 312.084C340.827 312.965 343.991 313.614 346.738 314.437C349.555 315.283 351.363 316.245 352.95 315.7C354.735 315.086 355.489 314.379 355.338 313.081C355.187 311.783 353.901 307.611 353.901 307.611L346.657 306.359Z" fill="#37474F"/>
<path d="M357.655 297.297C357.655 297.297 357.006 302.698 356.96 303.857C356.914 305.016 351.686 305.386 350.701 303.265L350.539 296.659L357.655 297.297Z" fill="#F28F8F"/>
<path d="M352.394 300.623L354.26 308.817C354.26 308.817 354.433 309.814 350.168 310.451C345.903 311.089 339.204 308.214 338.068 307.635C336.932 307.055 336.793 305.897 340.989 306.128C345.185 306.36 346.668 306.372 346.668 306.372L345.312 302.744L352.394 300.623Z" fill="#FFA8A7"/>
<path d="M361.191 164.452L364.146 163.641C364.146 163.641 370.336 183.193 371.008 185.071C371.692 186.948 372.457 188.965 371.135 191.294C369.547 194.064 361.191 205.226 361.191 205.226L355.883 200.033L361.898 189.011L356.578 178.221L361.191 164.452Z" fill="#F28F8F"/>
<path d="M330.802 139.046C330.802 139.046 328.438 135.256 330.93 130.62C333.862 125.161 340.433 122.484 348.245 123.516C351.861 123.991 356.115 126.958 358.456 131.478C361.029 136.45 361.261 146.464 361.898 150.254L330.802 139.046Z" fill="#37474F"/>
<path d="M330.616 141.179C330.616 141.179 328.761 144.714 329.086 145.038C329.41 145.363 330.651 145.618 330.651 145.618L330.616 141.179Z" fill="#FFA8A7"/>
<path d="M336.26 130.005C334.244 131.327 330.767 133.726 330.616 141.676C330.465 149.836 331.613 152.455 332.818 153.405C333.629 154.043 338.393 153.718 340.433 153.243C342.472 152.768 348.36 149.859 350.47 145.443C352.961 140.251 352.451 132.648 348.754 130.434C343.539 127.328 337.964 128.893 336.26 130.005Z" fill="#FFA8A7"/>
<path d="M357.655 190.89C361.225 196.453 364.633 201.355 365.351 207.602C366.881 220.803 361.862 235.894 360.796 245.652C360.796 245.652 364.169 250.033 364.169 255.191C364.169 259.224 357.655 297.298 357.655 297.298C357.655 297.298 352.927 298.735 350.527 296.672L346.054 226.633L348.406 218.103L357.655 190.89Z" fill="#B357D4"/>
<path opacity="0.2" d="M357.655 190.89C361.225 196.453 364.633 201.355 365.351 207.602C366.881 220.803 361.862 235.894 360.796 245.652C360.796 245.652 364.169 250.033 364.169 255.191C364.169 259.224 357.655 297.298 357.655 297.298C357.655 297.298 352.927 298.735 350.527 296.672L346.054 226.633L348.406 218.103L357.655 190.89Z" fill="black"/>
<path d="M346.065 226.62L348.418 218.09C348.418 218.09 354.943 216.514 361.179 213.025C361.179 213.025 358.768 217.418 351.837 219.817L348.233 230.781L347.92 255.862L346.065 226.62Z" fill="#B357D4"/>
<path opacity="0.3" d="M346.065 226.62L348.418 218.09C348.418 218.09 354.943 216.514 361.179 213.025C361.179 213.025 358.768 217.418 351.837 219.817L348.233 230.781L347.92 255.862L346.065 226.62Z" fill="black"/>
<path d="M357.655 190.89C359.568 194.007 364.134 199.35 363.172 204.473C361.99 210.685 358.652 215.055 348.418 218.091L338.822 252.838C338.822 252.838 343.817 257.509 345.347 261.96C346.877 266.41 352.394 300.624 352.394 300.624C352.394 300.624 350.69 303.406 345.3 302.733C345.3 302.733 326.513 259.827 325.18 257.057C323.859 254.299 322.99 252.224 323.592 247.727C324.195 243.23 330.593 194.007 330.593 194.007L357.655 190.89Z" fill="#B357D4"/>
<path opacity="0.2" d="M357.655 190.89C359.568 194.007 364.134 199.35 363.172 204.473C361.99 210.685 358.652 215.055 348.418 218.091L338.822 252.838C338.822 252.838 343.817 257.509 345.347 261.96C346.877 266.41 352.394 300.624 352.394 300.624C352.394 300.624 350.69 303.406 345.3 302.733C345.3 302.733 326.513 259.827 325.18 257.057C323.859 254.299 322.99 252.224 323.592 247.727C324.195 243.23 330.593 194.007 330.593 194.007L357.655 190.89Z" fill="black"/>
<path d="M361.191 164.452L337.315 160.592C336.829 160.488 336.04 160.291 335.044 160.024C335.044 160.024 334.024 174.999 327.904 178.429C328.043 179.148 328.171 179.948 328.287 180.863C328.646 183.738 330.605 194.006 330.605 194.006C330.605 194.006 339.865 198.492 347.491 196.278C355.118 194.064 357.679 190.877 357.679 190.877L353.866 184.665C354.886 182.103 359.684 171.73 361.191 164.452Z" fill="#B357D4"/>
<path opacity="0.7" d="M361.191 164.452L337.315 160.592C336.829 160.488 336.04 160.291 335.044 160.024C335.044 160.024 334.024 174.999 327.904 178.429C328.043 179.148 328.171 179.948 328.287 180.863C328.646 183.738 330.605 194.006 330.605 194.006C330.605 194.006 339.865 198.492 347.491 196.278C355.118 194.064 357.679 190.877 357.679 190.877L353.866 184.665C354.886 182.103 359.684 171.73 361.191 164.452Z" fill="white"/>
<path d="M354.886 182.23C354.793 182.451 347.213 186.519 344.965 187.133C348.511 186.959 351.467 186.125 353.854 184.676L354.886 182.23Z" fill="#B357D4"/>
<path d="M335.658 130.412C335.658 130.412 334.545 137.945 337.246 142.373C337.246 142.373 338.254 139.371 340.804 139.95C343.365 140.53 343.481 143.856 341.696 145.745C339.911 147.634 337.929 146.951 337.929 146.951C337.929 146.951 337.524 152.398 337.315 156.964C337.107 161.369 335.878 171.487 341.024 175.555C346.158 179.623 359.046 181.002 365.085 172.553C368.446 167.859 363.984 159.561 361.909 150.254C359.997 141.7 358.931 129.021 349.844 126.981C340.757 124.941 335.658 130.412 335.658 130.412Z" fill="#37474F"/>
<path d="M368.968 27.4684L367.056 28.5694C367.207 27.8624 367.323 27.167 367.323 26.4948C367.323 22.6122 364.599 21.0475 361.238 22.983C360.264 23.551 359.349 24.3623 358.537 25.301C358.537 25.2895 358.537 25.2779 358.537 25.2779C358.537 20.0624 354.875 17.9414 350.355 20.5491C345.835 23.1569 342.172 29.5082 342.172 34.7237C342.172 34.9903 342.184 35.2453 342.207 35.4887C341.245 35.3148 340.109 35.5582 338.881 36.2652C335.52 38.2007 332.796 42.9179 332.796 46.8005C332.796 47.3337 332.854 47.8204 332.947 48.2609L331.927 48.852C329.157 50.4514 326.908 53.5807 326.908 55.8291C326.908 58.0776 329.157 58.6107 331.927 57.0113L368.968 35.6277C371.738 34.0283 373.987 30.899 373.987 28.6506C373.987 26.4021 371.738 25.869 368.968 27.4684Z" fill="#EBEBEB"/>
</g>
<defs>
<clipPath id="clip0_1739_14779">
<rect width="409" height="379.863" fill="white"/>
</clipPath>
</defs>
</svg>
