<svg width="76" height="76" viewBox="0 0 76 76" fill="none"
    xmlns="http://www.w3.org/2000/svg">
    <path d="M67.8921 61.6144C61.2694 69.7079 51.9049 74.7976 41.7689 75.8127C31.633 76.8278 21.5159 73.6891 13.5465 67.057C12.2941 66.0084 11.1086 64.8753 9.99749 63.6649C3.68457 56.881 0.105228 47.8173 1.7581e-05 38.3489V37.998C-0.00504729 32.7361 1.08429 27.5362 3.19241 22.7591C6.32474 15.8792 11.2728 10.0807 17.4524 6.04841C23.6321 2.01607 30.7852 -0.0818097 38.0673 0.00244146C45.0618 -0.0171467 51.9344 1.9179 57.9751 5.60766L30.3323 39.0613L34.5731 41.6112L67.8921 61.6144Z" fill="url(#paint0_linear_2284_3648)"/>
    <path d="M76 37.9777L34.3748 38.7182L60.6717 8.50907C64.975 12.1036 68.5479 16.5624 71.1803 21.6232C73.8127 26.6839 75.4514 32.2445 76 37.9777Z" fill="url(#paint1_linear_2284_3648)"/>
    <defs>
        <linearGradient id="paint0_linear_2284_3648" x1="59.0661" y1="6.156" x2="24.6373" y2="47.652" gradientUnits="userSpaceOnUse">
            <stop stop-color="#C27AC0"/>
            <stop offset="1" stop-color="#9452A5"/>
        </linearGradient>
        <linearGradient id="paint1_linear_2284_3648" x1="71.6142" y1="14.0545" x2="51.346" y2="74.0913" gradientUnits="userSpaceOnUse">
            <stop stop-color="#C27AC0"/>
            <stop offset="1" stop-color="#9452A5"/>
        </linearGradient>
    </defs>
</svg>
