<svg width="472" height="457" viewBox="0 0 472 457" fill="none" xmlns="http://www.w3.org/2000/svg">
<g clip-path="url(#clip0_1716_23095)">
<path d="M235.61 456.95C365.734 456.95 471.22 396.047 471.22 320.92C471.22 245.792 365.734 184.89 235.61 184.89C105.486 184.89 0 245.792 0 320.92C0 396.047 105.486 456.95 235.61 456.95Z" fill="#F0F0F0"/>
<path d="M370.92 368.12C355.47 359.2 355.47 344.74 370.92 335.82C386.37 326.9 411.42 326.9 426.87 335.82C442.32 344.74 442.32 359.2 426.87 368.12C411.42 377.04 386.37 377.04 370.92 368.12Z" fill="#E0E0E0"/>
<path d="M56.6798 369.35L16.0398 345.89C13.7498 344.57 13.7498 342.42 16.0398 341.1L252.43 204.62C254.72 203.3 258.44 203.3 260.73 204.62L301.37 228.08C303.66 229.4 303.66 231.55 301.37 232.87L64.9798 369.35C62.6898 370.68 58.9698 370.68 56.6798 369.35Z" fill="#E0E0E0"/>
<path d="M202.76 327.54L237.7 307.34C241.3 305.26 243.1 302.54 243.1 299.81C243.1 297.08 243.12 294.95 243.12 294.95L206.87 274.51C204.95 273.4 203.39 270.7 203.39 268.49V225.42L142.37 260.68V303.75C142.37 305.97 143.93 308.66 145.85 309.77L176.69 327.54C183.88 331.69 195.56 331.69 202.76 327.54Z" fill="#B357D4"/>
<g opacity="0.6">
<path d="M202.76 327.54L237.7 307.34C241.3 305.26 243.1 302.54 243.1 299.81C243.1 297.08 243.12 294.95 243.12 294.95L206.87 274.51C204.95 273.4 203.39 270.7 203.39 268.49V225.42L142.37 260.68V303.75C142.37 305.97 143.93 308.66 145.85 309.77L176.69 327.54C183.88 331.69 195.56 331.69 202.76 327.54Z" fill="black"/>
</g>
<path opacity="0.3" d="M157.02 311.37V316.21L145.84 309.76C143.93 308.66 142.37 305.96 142.37 303.74V260.67L154 253.96C154.24 256.91 154.5 259.96 154.74 262.94L146.59 267.66V301.31C146.59 303.54 148.14 306.23 150.06 307.33L157.02 311.37Z" fill="black"/>
<path d="M146.57 301.32C146.57 303.54 148.13 306.23 150.05 307.34L176.67 322.67C183.87 326.83 195.55 326.83 202.76 322.67L237.71 302.47C244.91 298.31 244.91 291.57 237.71 287.41L211.07 272.06C209.15 270.95 207.59 268.25 207.59 266.04V232.38L146.57 267.64V301.32Z" fill="#B357D4"/>
<path opacity="0.3" d="M146.57 301.32C146.57 303.54 148.13 306.23 150.05 307.34L176.67 322.67C183.87 326.83 195.55 326.83 202.76 322.67L237.71 302.47C244.91 298.31 244.91 291.57 237.71 287.41L211.07 272.06C209.15 270.95 207.59 268.25 207.59 266.04V232.38L146.57 267.64V301.32Z" fill="black"/>
<path opacity="0.5" d="M218.16 276.17L211.08 272.08C209.16 270.97 207.6 268.27 207.6 266.06V232.4L146.58 267.66V301.32C146.58 303.54 148.14 306.23 150.06 307.34L157.02 311.36L218.16 276.17Z" fill="black"/>
<path d="M243.11 294.95C243.11 294.95 243.11 297.08 243.11 299.81C243.11 302.54 241.3 305.25 237.71 307.34L202.77 327.53C199.32 329.54 194.84 330.54 190.32 330.62V325.78C194.84 325.72 199.32 324.68 202.77 322.69L237.71 302.48C241.3 300.41 243.11 297.68 243.11 294.95Z" fill="#B357D4"/>
<path opacity="0.5" d="M243.11 294.95C243.11 294.95 243.11 297.08 243.11 299.81C243.11 302.54 241.3 305.25 237.71 307.34L202.77 327.53C199.32 329.54 194.84 330.54 190.32 330.62V325.78C194.84 325.72 199.32 324.68 202.77 322.69L237.71 302.48C241.3 300.41 243.11 297.68 243.11 294.95Z" fill="black"/>
<path d="M48.5898 343.15C50.8398 344.45 54.6098 344.38 57.0198 342.99C87.0198 325.67 263.02 224.06 293.02 206.74C295.42 205.35 297.37 201.98 297.37 199.21V8.31036C297.37 5.54036 295.54 2.24036 293.29 0.940359C291.04 -0.359641 287.27 -0.289641 284.86 1.10036L48.8598 137.34C46.4598 138.73 44.5098 142.1 44.5098 144.87V335.78C44.5098 338.55 46.3398 341.85 48.5898 343.15Z" fill="#B357D4"/>
<path d="M57.0199 342.99L293.02 206.74C295.42 205.35 297.37 201.98 297.37 199.21V8.30028C297.37 5.53028 295.42 4.40028 293.02 5.79028L57.0199 142.04C54.6199 143.43 52.6699 146.8 52.6699 149.57V340.48C52.6699 343.26 54.6199 344.38 57.0199 342.99Z" fill="#B357D4"/>
<path opacity="0.5" d="M57.0199 342.99L293.02 206.74C295.42 205.35 297.37 201.98 297.37 199.21V8.30028C297.37 5.53028 295.42 4.40028 293.02 5.79028L57.0199 142.04C54.6199 143.43 52.6699 146.8 52.6699 149.57V340.48C52.6699 343.26 54.6199 344.38 57.0199 342.99Z" fill="black"/>
<path d="M56.3798 347.96C53.9698 349.02 50.6398 348.98 48.5898 347.8C46.3398 346.49 44.5098 343.2 44.5098 340.41V323.03L52.6598 327.75V345.13C52.6598 347.65 54.2698 348.8 56.3798 347.96Z" fill="#B357D4"/>
<path opacity="0.5" d="M56.3798 347.96C53.9698 349.02 50.6398 348.98 48.5898 347.8C46.3398 346.49 44.5098 343.2 44.5098 340.41V323.03L52.6598 327.75V345.13C52.6598 347.65 54.2698 348.8 56.3798 347.96Z" fill="black"/>
<path d="M52.6602 327.74L52.6702 345.12C52.6702 347.89 54.6202 349.02 57.0202 347.63L293.02 211.38C295.42 209.99 297.37 206.62 297.37 203.85V186.44L52.6602 327.74Z" fill="#B357D4"/>
<path opacity="0.3" d="M52.6699 327.71V345.12C52.6699 347.89 54.6199 349.02 57.0199 347.63L293.02 211.38C295.42 209.99 297.37 206.62 297.37 203.85V186.44L52.6699 327.71Z" fill="black"/>
<path d="M60.8193 305.93V152.27C60.8193 150.61 61.9893 148.58 63.4293 147.75L286.589 18.9203C288.029 18.0903 289.199 18.7603 289.199 20.4303L289.209 174.09C289.209 175.75 288.039 177.78 286.599 178.61L63.4293 307.44C61.9893 308.27 60.8193 307.6 60.8193 305.93Z" fill="#B357D4"/>
<path d="M60.8193 305.93V152.27C60.8193 150.61 61.9893 148.58 63.4293 147.75L286.589 18.9203C288.029 18.0903 289.199 18.7603 289.199 20.4303L289.209 174.09C289.209 175.75 288.039 177.78 286.599 178.61L63.4293 307.44C61.9893 308.27 60.8193 307.6 60.8193 305.93Z" fill="#263238"/>
<path d="M175.01 262.62C172.76 263.92 170.93 267.08 170.93 269.69C170.93 272.29 172.76 273.35 175.01 272.04C177.26 270.74 179.09 267.58 179.09 264.97C179.09 262.37 177.27 261.32 175.01 262.62Z" fill="#B357D4"/>
<path opacity="0.7" d="M53.9495 145.271C53.1695 146.641 52.6895 148.181 52.6695 149.571V327.741L44.5195 323.021V144.861C44.5195 143.471 45.0195 141.931 45.7995 140.561L53.9495 145.271Z" fill="black"/>
<path opacity="0.3" d="M297.32 7.59016C297.01 5.35016 295.2 4.54016 293.01 5.79016L57.0198 142.04C55.8298 142.73 54.7498 143.9 53.9498 145.27L45.7998 140.56C46.5898 139.21 47.6698 138.02 48.8698 137.33L284.86 1.09016C287.27 -0.299843 291.03 -0.369843 293.29 0.940157C295.34 2.12016 297.04 4.99016 297.32 7.59016Z" fill="black"/>
<path d="M310.05 31.0794C309.48 30.7394 308.71 30.7494 307.83 31.2594L85.1496 159.839C83.4696 160.809 82.0996 163.169 82.0996 165.109V317.829C82.0996 319.009 82.6096 320.059 83.3796 320.479C83.8796 320.749 86.4896 322.269 87.2696 322.689C87.7696 322.959 88.3796 322.969 89.0396 322.589L311.72 193.949C313.4 192.979 314.77 190.619 314.77 188.679V35.2194C314.77 34.2194 314.41 33.5194 313.83 33.2194C313.28 32.9294 310.61 31.4194 310.05 31.0794Z" fill="#B357D4"/>
<path d="M88.039 322.38C87.189 322.38 86.499 321.33 86.499 320.04V167.32C86.499 165.57 87.779 163.35 89.299 162.48L311.979 33.89C312.379 33.66 312.759 33.54 313.089 33.54C313.829 33.54 314.279 34.17 314.279 35.21V188.67C314.279 190.42 312.999 192.64 311.479 193.51L88.789 322.16C88.529 322.31 88.279 322.38 88.039 322.38Z" fill="#FAFAFA"/>
<path d="M313.089 34.04C313.689 34.04 313.779 34.78 313.779 35.21V188.67C313.779 190.26 312.609 192.28 311.229 193.08L88.5493 321.72C88.3593 321.83 88.1893 321.88 88.0393 321.88C87.4793 321.88 86.9993 321.02 86.9993 320.04V167.32C86.9993 165.73 88.1693 163.71 89.5493 162.91L312.229 34.33C312.629 34.09 312.919 34.04 313.089 34.04ZM313.089 33.04C312.679 33.04 312.219 33.17 311.729 33.46L89.0393 162.05C87.3593 163.02 85.9893 165.38 85.9893 167.33V320.05C85.9893 321.59 86.8393 322.89 88.0293 322.89C88.3493 322.89 88.6793 322.8 89.0393 322.6L311.719 193.96C313.399 192.99 314.769 190.63 314.769 188.69V35.22C314.769 33.84 314.089 33.04 313.089 33.04Z" fill="#E0E0E0"/>
<path d="M83.3796 320.48C83.7096 320.66 86.0796 322.01 87.1196 322.6C86.4196 322.1 86.0496 321.24 85.9996 320.04V177.29L82.0996 175.01V317.84C82.0996 319.01 82.6096 320.07 83.3796 320.48Z" fill="#F0F0F0"/>
<path d="M314.769 35.1997C314.759 33.2797 313.399 32.4997 311.729 33.4597L89.0393 162.05C87.3593 163.02 85.9893 165.38 85.9893 167.33V177.29L314.769 45.1997V35.1997Z" fill="#B357D4"/>
<g opacity="0.4">
<path d="M311.73 33.4597L89.0395 162.05C88.2095 162.54 87.4395 163.36 86.8895 164.31L83.0195 162.07C83.5695 161.13 84.3195 160.31 85.1395 159.85L307.84 31.2497C308.71 30.7397 309.49 30.7297 310.05 31.0697C310.6 31.4097 313.13 32.8397 313.77 33.1897C313.23 32.9297 312.51 33.0097 311.73 33.4597Z" fill="white"/>
</g>
<path opacity="0.15" d="M82.0996 175.019V165.119C82.0996 164.129 82.4596 163.039 83.0296 162.069L86.9096 164.299C86.3396 165.259 85.9996 166.339 85.9996 167.329V177.289L82.0996 175.019Z" fill="black"/>
<path d="M267.81 150.319L134.44 227.319C133.21 228.029 132.21 229.759 132.21 231.179V269.419C132.21 270.839 133.21 272.559 134.44 273.269L138.34 275.509C139.57 276.219 141.56 276.219 142.79 275.509L276.15 198.519C277.38 197.809 278.38 196.079 278.38 194.659L278.4 156.409C278.4 154.989 277.4 153.269 276.17 152.559L272.27 150.319C271.03 149.599 269.04 149.609 267.81 150.319Z" fill="#B357D4"/>
<path opacity="0.5" d="M278.37 156.05C278.22 154.9 277.28 154.48 276.16 155.12L142.79 232.12C142.17 232.47 141.62 233.09 141.22 233.79L132.87 228.97C133.27 228.28 133.83 227.67 134.43 227.33L267.81 150.33C269.03 149.62 271.03 149.61 272.26 150.32L276.16 152.56C277.29 153.2 278.23 154.71 278.37 156.05Z" fill="white"/>
<path d="M142.41 275.68C141.18 276.2 139.45 276.14 138.34 275.51L134.44 273.27C133.21 272.56 132.21 270.83 132.21 269.41V231.18C132.21 230.46 132.47 229.67 132.87 228.97L141.22 233.79C140.81 234.49 140.56 235.27 140.56 235.98V274.22C140.56 275.49 141.36 276.08 142.41 275.68Z" fill="#263238"/>
<path d="M142.79 232.12L276.16 155.12C277.39 154.41 278.39 154.99 278.38 156.41L278.36 194.66C278.36 196.08 277.36 197.81 276.13 198.52L142.79 275.5C141.56 276.21 140.56 275.63 140.56 274.21V235.97C140.56 234.56 141.56 232.83 142.79 232.12Z" fill="#B357D4"/>
<path d="M232.45 170.729L134.43 227.32C133.82 227.67 133.27 228.28 132.87 228.96L141.22 233.779C141.62 233.079 142.18 232.459 142.79 232.109L240.79 175.529L232.45 170.729Z" fill="#455A64"/>
<path d="M240.79 175.539L142.79 232.119C141.56 232.829 140.56 234.559 140.56 235.979V274.219C140.56 275.639 141.56 276.209 142.79 275.509L240.79 218.929V175.539Z" fill="#37474F"/>
<path d="M165.39 227.47L215.96 198.27C218.06 197.06 219.76 197.92 219.76 200.19C219.76 202.46 218.06 205.28 215.96 206.49L165.4 235.68C163.3 236.89 161.6 236.03 161.6 233.76C161.59 231.5 163.29 228.68 165.39 227.47Z" fill="#B357D4"/>
<path d="M175.749 237.129C175.809 237.099 175.859 237.109 175.899 237.159C175.939 237.209 175.96 237.279 175.96 237.389V243.079C175.96 243.649 175.91 244.199 175.82 244.719C175.73 245.239 175.589 245.719 175.399 246.159C175.209 246.599 174.979 246.989 174.699 247.339C174.419 247.679 174.089 247.959 173.719 248.169C173.339 248.389 173.02 248.489 172.74 248.469C172.46 248.449 172.229 248.329 172.039 248.099C171.849 247.879 171.709 247.559 171.619 247.149C171.529 246.739 171.479 246.249 171.479 245.669V239.979C171.479 239.879 171.499 239.779 171.539 239.679C171.579 239.579 171.629 239.519 171.689 239.479L172.32 239.109C172.38 239.079 172.429 239.079 172.469 239.139C172.509 239.189 172.529 239.269 172.529 239.369V244.999C172.529 245.379 172.559 245.689 172.619 245.919C172.679 246.159 172.759 246.329 172.859 246.439C172.959 246.549 173.09 246.599 173.24 246.599C173.39 246.589 173.549 246.539 173.719 246.439C173.889 246.339 174.049 246.209 174.199 246.039C174.349 245.879 174.479 245.679 174.579 245.449C174.679 245.219 174.769 244.949 174.829 244.649C174.889 244.349 174.919 244.009 174.919 243.629V238.009C174.919 237.909 174.939 237.809 174.979 237.709C175.019 237.609 175.07 237.549 175.13 237.509L175.749 237.129Z" fill="#FAFAFA"/>
<path d="M179.669 242.519C179.669 242.419 179.649 242.349 179.609 242.299C179.569 242.259 179.509 242.229 179.419 242.229C179.329 242.229 179.209 242.239 179.059 242.269C178.909 242.299 178.719 242.339 178.479 242.379C178.249 242.419 178.059 242.409 177.909 242.359C177.759 242.309 177.639 242.219 177.549 242.079C177.459 241.949 177.399 241.769 177.359 241.559C177.319 241.349 177.309 241.099 177.309 240.819C177.309 240.539 177.349 240.249 177.419 239.939C177.489 239.629 177.599 239.329 177.739 239.039C177.879 238.749 178.049 238.489 178.239 238.239C178.439 237.999 178.659 237.799 178.919 237.649C179.179 237.499 179.399 237.419 179.599 237.409C179.799 237.389 179.969 237.429 180.109 237.519C180.249 237.609 180.359 237.729 180.439 237.909C180.519 238.079 180.559 238.279 180.569 238.489C180.579 238.589 180.559 238.689 180.509 238.789C180.469 238.889 180.409 238.959 180.359 238.989L179.759 239.339C179.679 239.389 179.619 239.389 179.579 239.369C179.539 239.339 179.499 239.309 179.449 239.269C179.399 239.229 179.339 239.209 179.259 239.209C179.179 239.199 179.069 239.249 178.909 239.339C178.749 239.429 178.619 239.549 178.499 239.699C178.379 239.849 178.319 240.039 178.319 240.249C178.319 240.349 178.329 240.429 178.359 240.479C178.389 240.529 178.439 240.559 178.519 240.569C178.599 240.579 178.709 240.569 178.859 240.549C178.999 240.529 179.189 240.489 179.419 240.439C179.879 240.349 180.209 240.429 180.399 240.699C180.589 240.959 180.689 241.379 180.689 241.929C180.689 242.209 180.649 242.499 180.569 242.809C180.489 243.119 180.379 243.419 180.229 243.709C180.079 243.999 179.899 244.279 179.679 244.529C179.459 244.779 179.219 244.979 178.949 245.139C178.669 245.299 178.429 245.379 178.219 245.389C178.009 245.399 177.829 245.349 177.689 245.249C177.539 245.149 177.429 245.009 177.349 244.819C177.269 244.629 177.229 244.429 177.219 244.209C177.209 244.109 177.229 244.009 177.279 243.909C177.319 243.809 177.369 243.739 177.429 243.709L178.029 243.359C178.109 243.319 178.169 243.309 178.209 243.359C178.249 243.399 178.289 243.449 178.339 243.509C178.389 243.569 178.459 243.599 178.549 243.609C178.639 243.619 178.769 243.579 178.949 243.479C179.029 243.429 179.109 243.379 179.189 243.309C179.269 243.239 179.349 243.169 179.419 243.089C179.489 243.009 179.549 242.919 179.599 242.819C179.649 242.719 179.669 242.619 179.669 242.519Z" fill="#FAFAFA"/>
<path d="M181.71 239.8C181.71 239.28 181.75 238.77 181.84 238.26C181.93 237.75 182.06 237.28 182.22 236.84C182.39 236.41 182.59 236.02 182.83 235.69C183.07 235.36 183.33 235.11 183.62 234.94C183.91 234.77 184.18 234.71 184.41 234.77C184.65 234.82 184.85 234.96 185.02 235.19C185.19 235.41 185.32 235.71 185.41 236.09C185.5 236.47 185.55 236.89 185.55 237.37V237.99C185.55 238.09 185.53 238.19 185.49 238.29C185.45 238.39 185.4 238.45 185.34 238.49L182.73 240C182.73 240.21 182.76 240.39 182.81 240.52C182.86 240.65 182.93 240.75 183.01 240.82C183.09 240.88 183.19 240.91 183.3 240.9C183.41 240.89 183.52 240.85 183.64 240.79C183.81 240.69 183.94 240.59 184.05 240.47C184.15 240.35 184.24 240.23 184.31 240.09C184.37 239.98 184.41 239.91 184.45 239.86C184.49 239.81 184.54 239.77 184.6 239.73L185.23 239.37C185.29 239.34 185.34 239.34 185.38 239.39C185.42 239.44 185.44 239.52 185.44 239.62C185.43 239.75 185.39 239.94 185.32 240.19C185.24 240.44 185.13 240.7 184.98 240.98C184.83 241.26 184.64 241.54 184.42 241.8C184.2 242.07 183.94 242.28 183.65 242.45C183.36 242.62 183.09 242.68 182.86 242.64C182.62 242.6 182.42 242.46 182.25 242.22C182.08 241.98 181.96 241.66 181.87 241.25C181.76 240.84 181.71 240.35 181.71 239.8ZM183.63 236.61C183.48 236.7 183.35 236.81 183.24 236.95C183.13 237.09 183.04 237.24 182.97 237.41C182.9 237.58 182.84 237.75 182.8 237.92C182.76 238.1 182.74 238.26 182.72 238.4L184.49 237.38C184.48 237.25 184.46 237.11 184.43 236.98C184.4 236.84 184.35 236.73 184.29 236.64C184.22 236.55 184.14 236.5 184.03 236.48C183.93 236.47 183.79 236.51 183.63 236.61Z" fill="#FAFAFA"/>
<path d="M188.689 233.829C188.379 234.009 188.149 234.259 188.009 234.589C187.869 234.919 187.799 235.359 187.799 235.909V239.519C187.799 239.619 187.779 239.719 187.739 239.819C187.699 239.919 187.649 239.979 187.589 240.019L186.999 240.359C186.939 240.389 186.889 240.379 186.849 240.329C186.809 240.279 186.789 240.199 186.789 240.099V233.629C186.789 233.529 186.809 233.429 186.849 233.329C186.889 233.229 186.939 233.169 186.999 233.129L187.589 232.789C187.649 232.759 187.699 232.759 187.739 232.819C187.779 232.869 187.799 232.949 187.799 233.049V233.369C187.939 233.069 188.079 232.809 188.229 232.609C188.379 232.399 188.579 232.219 188.839 232.079L189.189 231.879C189.249 231.849 189.299 231.859 189.339 231.909C189.379 231.959 189.399 232.039 189.399 232.139V233.059C189.399 233.159 189.379 233.259 189.339 233.359C189.299 233.459 189.249 233.519 189.189 233.559L188.689 233.829Z" fill="#FAFAFA"/>
<path d="M196.15 233.34C196.21 233.31 196.26 233.32 196.3 233.37C196.34 233.42 196.36 233.5 196.36 233.6V234.59C196.36 234.69 196.34 234.79 196.3 234.89C196.26 234.99 196.21 235.05 196.15 235.09L192.73 237.07C192.67 237.1 192.62 237.09 192.58 237.04C192.54 236.99 192.52 236.91 192.52 236.81V227.84C192.52 227.74 192.54 227.64 192.58 227.54C192.62 227.44 192.67 227.38 192.73 227.34L193.36 226.97C193.42 226.94 193.47 226.95 193.51 227C193.55 227.05 193.57 227.12 193.57 227.23V234.84L196.15 233.34Z" fill="#FAFAFA"/>
<path d="M199.22 225.939C199.51 225.769 199.77 225.699 200 225.729C200.23 225.749 200.43 225.849 200.6 226.039C200.77 226.219 200.91 226.459 201.01 226.779C201.11 227.089 201.17 227.459 201.19 227.869C201.19 227.949 201.2 228.049 201.2 228.189C201.2 228.319 201.2 228.449 201.2 228.579C201.2 228.709 201.2 228.839 201.2 228.959C201.2 229.079 201.2 229.189 201.19 229.279C201.17 229.719 201.11 230.149 201.01 230.579C200.91 231.009 200.78 231.409 200.61 231.779C200.44 232.149 200.24 232.479 200.01 232.769C199.78 233.059 199.52 233.289 199.23 233.449C198.94 233.609 198.68 233.689 198.45 233.659C198.22 233.639 198.02 233.539 197.85 233.359C197.68 233.189 197.55 232.939 197.45 232.629C197.35 232.319 197.29 231.949 197.27 231.539C197.26 231.459 197.26 231.359 197.26 231.229C197.26 231.109 197.26 230.979 197.26 230.849C197.26 230.719 197.26 230.589 197.26 230.459C197.26 230.329 197.27 230.219 197.27 230.129C197.29 229.689 197.35 229.259 197.45 228.829C197.55 228.399 197.69 227.999 197.86 227.619C198.03 227.239 198.23 226.909 198.46 226.619C198.67 226.329 198.93 226.109 199.22 225.939ZM200.16 228.519C200.14 228.239 200.11 228.029 200.05 227.869C199.99 227.719 199.92 227.609 199.83 227.549C199.74 227.489 199.65 227.469 199.54 227.489C199.44 227.509 199.33 227.549 199.22 227.609C199.11 227.669 199.01 227.759 198.9 227.859C198.8 227.959 198.7 228.089 198.61 228.259C198.52 228.419 198.45 228.619 198.39 228.839C198.33 229.059 198.29 229.319 198.28 229.619C198.28 229.699 198.27 229.789 198.27 229.909C198.27 230.019 198.27 230.139 198.27 230.259C198.27 230.379 198.27 230.499 198.27 230.609C198.27 230.719 198.28 230.809 198.28 230.879C198.3 231.159 198.33 231.369 198.39 231.529C198.45 231.689 198.52 231.789 198.61 231.849C198.7 231.909 198.79 231.929 198.9 231.909C199 231.889 199.11 231.849 199.22 231.789C199.33 231.729 199.44 231.649 199.54 231.539C199.64 231.439 199.74 231.309 199.83 231.139C199.92 230.979 199.99 230.779 200.05 230.559C200.11 230.339 200.15 230.079 200.16 229.779C200.16 229.709 200.17 229.619 200.17 229.499C200.17 229.379 200.17 229.259 200.17 229.139C200.17 229.019 200.17 228.899 200.17 228.789C200.17 228.679 200.17 228.589 200.16 228.519Z" fill="#FAFAFA"/>
<path d="M204.24 231.789C204.35 231.729 204.46 231.629 204.58 231.509C204.69 231.379 204.8 231.229 204.89 231.049C204.98 230.869 205.06 230.659 205.12 230.419C205.18 230.189 205.21 229.939 205.21 229.669V229.159C205.17 229.269 205.11 229.389 205.05 229.529C204.98 229.669 204.9 229.809 204.8 229.939C204.7 230.079 204.59 230.209 204.46 230.339C204.33 230.469 204.19 230.579 204.03 230.669C203.77 230.819 203.53 230.869 203.32 230.809C203.11 230.749 202.93 230.609 202.78 230.399C202.63 230.189 202.51 229.909 202.43 229.559C202.34 229.219 202.3 228.829 202.28 228.409C202.28 228.269 202.27 228.109 202.27 227.929C202.27 227.749 202.27 227.579 202.28 227.439C202.29 227.009 202.34 226.569 202.43 226.129C202.52 225.689 202.63 225.269 202.78 224.889C202.93 224.499 203.11 224.159 203.32 223.859C203.53 223.559 203.77 223.329 204.03 223.179C204.19 223.089 204.34 223.029 204.46 223.009C204.59 222.989 204.7 222.999 204.8 223.019C204.9 223.049 204.98 223.089 205.05 223.149C205.12 223.209 205.17 223.269 205.21 223.329V222.999C205.21 222.899 205.23 222.799 205.27 222.699C205.31 222.599 205.36 222.539 205.42 222.499L206.01 222.159C206.07 222.129 206.12 222.139 206.16 222.189C206.2 222.239 206.22 222.319 206.22 222.419V228.929C206.22 230.049 206.04 230.999 205.69 231.769C205.34 232.539 204.85 233.109 204.23 233.459C203.97 233.609 203.72 233.689 203.49 233.699C203.26 233.699 203.07 233.649 202.9 233.539C202.73 233.429 202.6 233.269 202.5 233.059C202.4 232.849 202.35 232.609 202.34 232.339C202.33 232.239 202.35 232.139 202.4 232.039C202.44 231.939 202.49 231.869 202.55 231.839L203.08 231.529C203.15 231.489 203.21 231.499 203.27 231.549C203.32 231.609 203.37 231.659 203.4 231.719C203.47 231.839 203.56 231.909 203.68 231.949C203.81 231.989 203.99 231.939 204.24 231.789ZM203.3 226.939C203.28 227.209 203.28 227.469 203.3 227.719C203.33 228.299 203.44 228.679 203.61 228.839C203.79 228.999 204 229.009 204.26 228.859C204.52 228.709 204.73 228.449 204.9 228.079C205.07 227.709 205.18 227.269 205.2 226.749C205.21 226.609 205.22 226.429 205.22 226.209C205.22 225.999 205.21 225.819 205.2 225.689C205.17 225.219 205.07 224.899 204.9 224.719C204.73 224.539 204.51 224.529 204.26 224.679C204 224.829 203.79 225.079 203.61 225.449C203.44 225.829 203.33 226.319 203.3 226.939Z" fill="#FAFAFA"/>
<path d="M208.539 218.06C208.599 218.03 208.649 218.03 208.689 218.08C208.729 218.13 208.749 218.21 208.749 218.31V219.39C208.749 219.49 208.729 219.59 208.689 219.69C208.649 219.79 208.599 219.85 208.539 219.89L207.869 220.28C207.809 220.31 207.759 220.3 207.719 220.25C207.679 220.2 207.659 220.12 207.659 220.02V218.94C207.659 218.84 207.679 218.74 207.719 218.64C207.759 218.54 207.809 218.48 207.869 218.44L208.539 218.06ZM208.709 227.45C208.709 227.55 208.689 227.65 208.649 227.75C208.609 227.85 208.559 227.91 208.499 227.95L207.909 228.29C207.849 228.32 207.799 228.31 207.759 228.26C207.719 228.21 207.699 228.14 207.699 228.03V221.56C207.699 221.46 207.719 221.36 207.759 221.26C207.799 221.16 207.849 221.1 207.909 221.06L208.499 220.72C208.559 220.69 208.609 220.7 208.649 220.75C208.689 220.8 208.709 220.87 208.709 220.98V227.45Z" fill="#FAFAFA"/>
<path d="M213.989 224.4C213.989 224.5 213.969 224.6 213.929 224.7C213.889 224.8 213.839 224.86 213.779 224.9L213.189 225.24C213.129 225.27 213.079 225.26 213.039 225.21C212.999 225.16 212.979 225.08 212.979 224.98V221.45C212.979 220.89 212.909 220.49 212.759 220.24C212.609 219.99 212.389 219.95 212.089 220.13C211.809 220.29 211.599 220.58 211.439 221.01C211.279 221.43 211.199 221.93 211.199 222.48V226.01C211.199 226.11 211.179 226.21 211.139 226.31C211.099 226.41 211.049 226.47 210.989 226.51L210.399 226.85C210.339 226.88 210.289 226.87 210.249 226.82C210.209 226.77 210.189 226.69 210.189 226.59V220.12C210.189 220.02 210.209 219.92 210.249 219.82C210.289 219.72 210.339 219.66 210.399 219.62L210.989 219.28C211.049 219.25 211.099 219.25 211.139 219.31C211.179 219.36 211.199 219.44 211.199 219.54V219.86C211.339 219.54 211.489 219.25 211.679 218.99C211.859 218.73 212.079 218.52 212.329 218.38C212.649 218.2 212.909 218.13 213.129 218.18C213.339 218.23 213.519 218.37 213.639 218.59C213.769 218.81 213.859 219.1 213.919 219.46C213.969 219.82 213.999 220.22 213.999 220.66V224.4H213.989Z" fill="#FAFAFA"/>
<path d="M264.44 195.29L254.73 200.9L256.24 187.28C255.08 186.67 254.34 185.15 254.34 182.98C254.34 179.11 256.69 174.62 259.59 172.94C262.49 171.26 264.84 173.04 264.84 176.91C264.84 179.08 264.1 181.45 262.94 183.4L264.44 195.29Z" fill="#455A64"/>
<path d="M264.44 195.289L255.89 190.359L254.72 200.899L264.44 195.289Z" fill="#37474F"/>
<path d="M259.58 172.94C257.68 174.04 256.02 176.34 255.1 178.89L262.93 183.41C264.09 181.45 264.83 179.09 264.83 176.92C264.83 173.05 262.48 171.27 259.58 172.94Z" fill="#37474F"/>
<path d="M212.36 127.6C209.04 125.68 204.45 125.95 199.37 128.88C189.23 134.73 181.01 148.97 181.01 160.68C181.01 166.55 183.08 170.67 186.43 172.58C187.3 173.08 192.02 175.82 192.9 176.33C196.22 178.25 200.81 177.98 205.88 175.05C216.02 169.2 224.24 154.96 224.24 143.25C224.24 137.4 222.19 133.29 218.87 131.37" fill="#B357D4"/>
<path d="M205.88 132.65C195.74 138.51 187.52 152.74 187.52 164.45C187.52 176.16 195.74 180.9 205.88 175.05C216.02 169.2 224.25 154.96 224.24 143.25C224.23 131.54 216.01 126.79 205.88 132.65Z" fill="#B357D4"/>
<path d="M216.009 158.62V159.96C213.399 164.42 209.819 168.31 205.869 170.58C201.919 172.86 198.349 173.11 195.729 171.65V168.88C195.729 163.53 199.36 157.25 203.99 154.57L206.66 153.04C209.03 151.67 211.319 151.5 213.119 152.54C214.969 153.6 216.009 155.81 216.009 158.62Z" fill="#B357D4"/>
<path opacity="0.4" d="M212.36 127.6L218.87 131.37C215.55 129.45 210.96 129.72 205.89 132.65C199.25 136.49 193.44 143.92 190.21 151.88L183.7 148.11C186.92 140.15 192.74 132.72 199.38 128.89C204.45 125.95 209.04 125.67 212.36 127.6Z" fill="white"/>
<path opacity="0.2" d="M192.66 176.18C191.51 175.52 187.24 173.03 186.43 172.57C183.09 170.66 181.01 166.54 181.01 160.67L187.52 164.44C187.52 170.16 189.48 174.21 192.66 176.18Z" fill="black"/>
<path opacity="0.1" d="M183.69 148.1L190.2 151.87C188.5 156.07 187.52 160.41 187.52 164.44L181.01 160.67C181.01 156.63 182 152.29 183.69 148.1Z" fill="black"/>
<path d="M203.57 152.41C202.93 152.41 202.34 152.26 201.8 151.95C200.56 151.24 199.88 149.82 199.88 147.97C199.88 144.58 202.18 140.59 205.12 138.89C206.72 137.96 208.28 137.85 209.53 138.56C210.77 139.27 211.45 140.69 211.45 142.54C211.45 145.93 209.15 149.92 206.21 151.62C205.3 152.15 204.4 152.41 203.57 152.41Z" fill="white"/>
<path d="M213.13 152.539C211.33 151.499 209.03 151.669 206.67 153.039L204 154.569C199.37 157.249 195.74 163.539 195.74 168.879V171.649C198.35 173.099 201.93 172.859 205.88 170.579C209.82 168.309 213.4 164.419 216.02 159.959V158.619C216.01 155.809 214.97 153.599 213.13 152.539Z" fill="white"/>
<path d="M418.71 325.54C418.71 325.54 420.04 313.86 425.85 304.8C431.66 295.74 439.64 290.08 447.09 289.49C454.54 288.9 460.55 295.75 452.58 300.46C444.61 305.17 430.45 309.97 423.94 327.57L418.71 325.54Z" fill="#B357D4"/>
<path opacity="0.1" d="M418.71 325.54C418.71 325.54 420.04 313.86 425.85 304.8C431.66 295.74 439.64 290.08 447.09 289.49C454.54 288.9 460.55 295.75 452.58 300.46C444.61 305.17 430.45 309.97 423.94 327.57L418.71 325.54Z" fill="black"/>
<path d="M420.9 322.51C420.87 322.51 420.85 322.5 420.82 322.49C420.62 322.41 420.52 322.18 420.6 321.97C428.46 302.61 443.42 294.53 450.24 292.96C450.45 292.91 450.67 293.04 450.72 293.26C450.77 293.47 450.64 293.69 450.42 293.74C443.74 295.28 429.08 303.22 421.34 322.27C421.27 322.44 421.08 322.54 420.9 322.51Z" fill="white"/>
<path d="M460.68 322.74C460.01 324.26 458.35 325.05 456.8 325.67C455.26 326.29 453.58 326.96 452.75 328.4C451.07 331.3 453.83 335.39 452.02 338.21C451.26 339.4 449.85 340.02 448.47 340.27C447.32 340.49 446.15 340.48 444.98 340.58C444.42 340.57 443.86 340.53 443.32 340.45C441.72 340.22 439.98 340.14 438.52 340.96C436.21 342.26 435.5 345.17 434.1 347.42C432.42 350.11 429.45 351.87 426.33 352.3C425.29 352.44 423.36 352.62 422.31 352.03C422.23 351.98 422.16 351.94 422.09 351.89C422.08 351.89 422.08 351.88 422.07 351.87C421.92 351.71 421.74 351.5 421.66 351.38C421.64 351.36 421.63 351.34 421.62 351.31C421.21 349.8 421.88 348.24 421.91 346.68C421.91 346.58 421.91 346.49 421.91 346.4C421.85 344.59 421.79 342.79 421.75 340.99C421.67 337.67 421.63 334.35 421.65 331.03C421.67 328.87 421.41 326.51 422.33 324.48C423.34 322.25 425.85 322.2 426.8 320C427.18 319.13 427.38 318.19 427.75 317.31C428.85 314.72 431.51 312.85 434.33 312.72C438.72 312.5 442.65 316.05 447.04 315.73C448.17 315.64 449.28 315.3 450.4 315.09C453.95 314.42 458.06 315.44 460.06 318.44C460.89 319.7 461.3 321.36 460.68 322.74Z" fill="#B357D4"/>
<path d="M421.26 344.41C421.25 344.41 421.24 344.41 421.23 344.4C421.03 344.35 420.91 344.14 420.97 343.94C427.03 321.2 451 317.91 456.6 318.31C456.8 318.33 456.96 318.5 456.95 318.71C456.94 318.92 456.76 319.07 456.55 319.06C451.07 318.66 427.63 321.88 421.69 344.13C421.64 344.33 421.45 344.45 421.26 344.41Z" fill="white"/>
<path d="M447.889 332.89C447.819 332.88 447.749 332.84 447.689 332.79C447.629 332.73 441.519 326.7 431.379 328.2C431.179 328.23 430.989 328.09 430.949 327.88C430.919 327.68 431.059 327.49 431.269 327.45C441.799 325.9 448.159 332.19 448.219 332.26C448.369 332.41 448.359 332.64 448.219 332.79C448.129 332.87 448.009 332.91 447.889 332.89Z" fill="white"/>
<path d="M363.68 50.9004L366.86 52.1204V45.1104C366.86 39.5504 371.29 38.2204 376.11 41.0004C380.92 43.7804 384.82 50.5404 384.82 56.0904V57.1104C385.91 56.6704 387.32 56.8404 388.86 57.7304C392.32 59.7304 395.13 64.5904 395.13 68.5904V69.0504L399.57 71.6104C401.85 72.9304 403.7 76.1304 403.7 78.7604C403.7 81.3904 401.85 82.4604 399.57 81.1404L363.67 60.4204C361.39 59.1004 359.54 55.9004 359.54 53.2704C359.55 50.6504 361.39 49.5804 363.68 50.9004Z" fill="#E6E6E6"/>
<path d="M406.27 45.3602L412.04 48.6902C412.01 48.4302 411.99 48.1802 411.99 47.9302V46.2602C411.99 43.2902 414.08 42.0802 416.65 43.5702C417.69 44.1702 418.65 45.1302 419.43 46.2402C419.85 42.5002 422.79 41.1102 426.35 43.1602C430.2 45.3802 433.33 50.8002 433.33 55.2502V57.7502C433.33 58.9002 433.12 59.8702 432.74 60.6502L437.53 63.4202C438.96 64.2502 440.12 66.2502 440.12 67.9002C440.12 69.5502 438.96 70.2202 437.53 69.3902L406.27 51.3402C404.84 50.5202 403.68 48.5102 403.68 46.8602C403.68 45.2002 404.84 44.5302 406.27 45.3602Z" fill="#E6E6E6"/>
<path d="M383.93 197.12C379.73 204.22 375.69 210.39 372.85 213.35C367.46 215.86 354.8 219.71 349.85 220.35C348.97 220.46 348.09 220.24 347.36 219.76C345.41 218.48 343.91 218.28 341.85 217.57C340.24 217.01 339.56 216.25 339.26 216.54C338.87 216.92 338.45 217.98 339.43 219.09C339.92 219.65 340.82 220.25 341.97 220.99C341.97 220.99 338.43 221.93 335.27 221.1C330.98 219.97 328.96 222.04 331.86 226.69C332.9 228.36 336.99 231.03 345.27 230.31C347.66 230.1 351.1 229.9 354.07 229.27C362.02 227.57 370.85 225.93 376.28 224.31C377.65 223.9 380.1 222.32 381.55 220.65C390.68 210.24 393.71 202.82 397.71 196.08L397.36 185.06C390.9 184.87 387.44 191.18 383.93 197.12Z" fill="#FFA8A7"/>
<path d="M398.489 184.87C398.489 184.87 392.839 183.67 388.589 189.1C384.139 194.79 376.279 208.45 376.279 208.45C376.279 208.45 378.859 215.3 385.799 216.43L396.949 201.37C396.949 201.37 402.229 190.95 398.489 184.87Z" fill="#455A64"/>
<path d="M422.599 338.43H415.329V351.39H422.599V338.43Z" fill="#FFA8A7"/>
<path d="M397.4 337.74L390.14 338L389.77 324.28L397.4 324.02V337.74Z" fill="#FFA8A7"/>
<path d="M423.62 226.24C423.62 233.47 422.56 291.64 422.56 291.64C422.73 293.72 424.6 297.55 424.2 305.54C423.65 316.39 422.92 344.91 422.92 344.91C422.92 344.91 419.39 347.06 414.83 345.08C414.83 345.08 408.94 305.12 407.64 294.37C406.5 284.98 403.59 253.85 403.59 253.85L399.65 290.59C399.65 290.59 400.99 296.19 400.55 302.62C400.21 307.59 397.87 333.5 397.87 333.5C397.87 333.5 394.45 335.92 389.48 334.17C389.48 334.17 385.35 295.16 385.26 290.59C385.16 285.39 387.68 226.17 387.68 226.17L423.62 226.24Z" fill="#37474F"/>
<path d="M415.329 347.65V346.57C414.629 346.89 413.019 353.31 410.139 356.05C407.849 358.23 404.719 360.74 403.929 363.17C403.099 365.7 408.279 367.09 410.429 366.69C412.919 366.23 417.229 364.41 418.309 362.71C419.389 361.02 419.899 358.52 420.779 357.28C421.659 356.04 423.689 354.66 424.159 353.22C424.419 352.43 424.109 350.71 423.739 349.25C423.399 347.91 423.039 346.44 422.599 346.57C422.599 346.73 422.599 347.4 422.599 347.4C422.069 348.01 420.609 348.61 418.969 348.68C417.899 348.71 415.319 348.49 415.329 347.65Z" fill="#263238"/>
<path d="M390.06 335.66C389.68 335.67 389.38 336.23 388.54 337.17C387.53 338.3 385.89 339.53 384.26 340.37C381.54 341.79 376.25 343.97 373.85 345.09C372.35 345.79 372.42 347.67 373.97 348.74C375.52 349.81 379.25 350.58 383.73 349.54C386.17 348.97 389.349 346.62 391.359 346.75C393.369 346.88 397.139 346.85 398.619 345.78C400.109 344.71 399.51 342.44 399.09 340.48C398.63 338.34 398.06 335.01 397.38 335.16V335.9C396.51 337.28 391.999 337.84 390.079 336.82L390.06 335.66Z" fill="#263238"/>
<path d="M403.58 253.84C403.58 253.84 397.77 252.14 393.46 247.8C393.46 247.8 395.41 251.61 401.22 255.15L399.98 287.96L403.58 253.84Z" fill="#263238"/>
<path d="M419.549 185.95C419.549 185.95 425.529 187.33 425.119 198.17L423.859 215.43L423.889 241.33C418.549 247.39 394.849 246.94 386.739 240.85C386.739 240.85 387.659 210.2 388.209 198.41C388.599 190.03 390.529 185.8 398.769 184.88L408.899 185.33L419.549 185.95Z" fill="#B357D4"/>
<path d="M411.919 163.43C411.919 169.65 407.079 174.7 401.099 174.7C395.119 174.7 391.589 169.52 390.279 163.43C387.889 152.3 395.119 152.16 401.099 152.16C407.079 152.16 411.919 157.2 411.919 163.43Z" fill="#263238"/>
<path d="M417.44 167.99C417.44 167.99 415.78 176.11 415.12 177.44C414.45 178.77 413.08 179.15 413.08 179.15L413.2 173.44L417.44 167.99Z" fill="#263238"/>
<path d="M415.35 156.35C415.35 156.35 416.54 156.05 417.8 158.03C418.88 159.72 419.13 163.53 417.43 167.99L414.3 168.36L415.35 156.35Z" fill="#263238"/>
<path d="M416.5 157.999L420.33 158.069C420.42 156.969 419.64 156.059 418.58 156.039C417.53 156.019 416.6 156.899 416.5 157.999Z" fill="#263238"/>
<path d="M416.969 157.09L419.809 154.36C419.109 153.55 417.909 153.5 417.119 154.25C416.339 155.01 416.269 156.28 416.969 157.09Z" fill="#263238"/>
<path d="M413.37 168.36C414 168.75 414.89 167.5 415.66 166.65C416.43 165.81 418.86 165.01 420.12 167.77C421.4 170.59 419.23 173.26 417.43 174.16C414.2 175.76 413.18 173.43 413.18 173.43L412.92 186.29C408.37 193.32 398.08 193.07 401.78 185.95L401.79 182.04C401.79 182.04 398.69 182.53 397.17 182.29C394.65 181.88 393.07 179.82 392.3 176.98C391.07 172.42 390.61 168.74 391.65 159.77C392.79 149.94 403.77 149.84 409.69 153.72C415.63 157.62 413.37 168.36 413.37 168.36Z" fill="#FFA8A7"/>
<path d="M399.69 158.24C402.31 157.98 404.9 157.44 407.53 157.25C408.1 157.21 408.68 157.18 409.23 157.33C411.24 157.87 410.98 160.21 411.3 161.85C411.85 164.67 412.31 169.44 413.37 169.46C413.69 169.47 414.88 167.39 415.66 166.66C416.17 166.18 416.25 165.15 416.36 164.51C416.56 163.34 416.67 162.16 416.76 160.98C416.84 159.98 416.94 158.97 416.93 157.96C416.93 156.84 416.95 155.69 416.67 154.59C416.42 153.59 415.95 152.85 415.27 152.07C415.2 152 415.14 151.92 415.07 151.85C413.78 150.46 412.13 149.41 410.38 148.69C407.87 147.65 405.14 147.24 402.44 146.96C399.74 146.68 397.01 146.53 394.35 145.99C394.19 145.96 394.03 145.93 393.88 145.98C393.65 146.07 393.55 146.34 393.5 146.58C393.26 147.81 393.82 149.16 394.86 149.87C393.05 150.01 390.97 149.07 389.22 148.6C388.93 148.52 388.59 148.45 388.33 148.6C388.15 148.71 388.04 148.91 387.98 149.11C387.83 149.57 387.86 150.08 387.93 150.56C388.12 151.99 388.61 153.4 389.49 154.54C390.76 156.18 392.84 157.66 394.89 158.07C396.52 158.4 398.03 158.41 399.69 158.24Z" fill="#263238"/>
<path d="M401.8 182.049C401.8 182.049 407.42 180.869 409.39 179.779C410.71 179.049 411.79 177.789 412.11 176.979C412.11 176.979 411.74 178.719 410.57 180.279C409.13 182.189 401.81 183.6 401.81 183.6L401.8 182.049Z" fill="#F28F8F"/>
<path d="M403.149 166.901C403.149 167.571 403.649 168.121 404.279 168.121C404.899 168.121 405.409 167.571 405.409 166.901C405.409 166.231 404.909 165.681 404.279 165.681C403.649 165.681 403.149 166.231 403.149 166.901Z" fill="#263238"/>
<path d="M404.96 162.04L407.37 163.43C407.73 162.71 407.47 161.81 406.81 161.43C406.14 161.05 405.31 161.32 404.96 162.04Z" fill="#263238"/>
<path d="M402.299 175L399.729 176C399.979 176.77 400.769 177.16 401.479 176.89C402.189 176.62 402.559 175.77 402.299 175Z" fill="#F28F8F"/>
<path d="M392.81 163.07L395.01 161.31C394.56 160.65 393.71 160.52 393.1 161C392.49 161.49 392.37 162.42 392.81 163.07Z" fill="#263238"/>
<path d="M393.779 166.56C393.779 167.23 394.279 167.78 394.909 167.78C395.529 167.78 396.039 167.23 396.039 166.56C396.039 165.89 395.539 165.34 394.909 165.34C394.279 165.34 393.779 165.89 393.779 166.56Z" fill="#263238"/>
<path d="M399.81 165.62L399.68 172.74L395.64 171.81L399.81 165.62Z" fill="#F28F8F"/>
<path d="M303.869 225.17L310.139 221.55L312.619 218.55L306.359 222.16L303.869 225.17Z" fill="#B357D4"/>
<path opacity="0.4" d="M303.869 225.17L310.139 221.55L312.619 218.55L306.359 222.16L303.869 225.17Z" fill="black"/>
<path d="M320.92 235.01L327.19 231.39L332.42 226.76L326.16 230.38L320.92 235.01Z" fill="#B357D4"/>
<path opacity="0.4" d="M320.92 235.01L327.19 231.39L332.42 226.76L326.16 230.38L320.92 235.01Z" fill="black"/>
<path d="M374.18 247.51C375.55 249.26 376.55 251.82 376.77 254.33C375.4 252.58 374.4 250.01 374.18 247.51ZM388.75 247.7C386.64 233.35 378.93 219.15 369.74 213.85C365.33 211.3 361.25 211.21 357.98 213.12C357.02 213.68 353.48 215.72 352.08 216.52C351.97 216.58 351.85 216.64 351.75 216.72C351.49 216.86 351.24 217.03 350.99 217.2C350.52 217.53 350.06 217.9 349.63 218.32C349.57 218.37 349.51 218.44 349.43 218.51C349.24 218.7 349.06 218.9 348.89 219.11C348.67 219.36 348.46 219.61 348.26 219.88C347.85 220.42 347.46 221.01 347.11 221.65C346.94 221.96 346.76 222.29 346.6 222.63L295.08 192.89L288.82 196.5V200.49L289.35 200.8L289.84 201.09V201.93L288.81 202.53V204.85L296.38 220.87L303.86 225.2L306.35 222.19L312.95 226.14L316.74 232.64L320.91 235.05L326.14 230.41L332.57 234.12L334.73 243.02L345.49 249.23C346.03 251.51 346.72 253.74 347.53 255.92C347.6 256.15 347.68 256.37 347.78 256.62C351.36 266.03 357.05 274.08 363.47 277.79C364.29 278.26 365.09 278.65 365.89 278.95C366.34 279.14 366.79 279.28 367.24 279.4C367.64 279.51 368.04 279.61 368.44 279.67C369.77 279.91 371.05 279.9 372.25 279.66C372.42 279.62 372.6 279.58 372.77 279.54C373.02 279.49 373.26 279.42 373.5 279.32C373.68 279.25 373.87 279.18 374.06 279.1C374.26 279.03 374.45 278.94 374.64 278.83C374.82 278.75 375 278.66 375.17 278.55C375.26 278.5 375.35 278.45 375.44 278.4C375.48 278.39 375.52 278.36 375.56 278.33C376.99 277.51 380.52 275.47 381.47 274.93C386.23 272.17 389.31 265.19 389.31 255.33C389.32 252.79 389.13 250.24 388.75 247.7Z" fill="#B357D4"/>
<path d="M372.349 259.61C369.879 258.18 367.869 253.94 367.869 250.14C367.869 246.34 369.869 244.41 372.349 245.83C374.819 247.26 376.819 251.5 376.819 255.3C376.819 259.11 374.819 261.04 372.349 259.61ZM382.489 251.3C380.379 236.96 372.669 222.76 363.479 217.46C359.219 215 355.289 214.82 352.079 216.51C351.969 216.57 351.849 216.63 351.749 216.71C351.489 216.85 351.239 217.02 350.989 217.19C350.519 217.52 350.059 217.89 349.629 218.31C349.569 218.36 349.509 218.43 349.429 218.5C349.239 218.69 349.059 218.89 348.889 219.1C348.669 219.35 348.459 219.6 348.259 219.87C347.849 220.41 347.459 221 347.109 221.64C346.939 221.95 346.759 222.28 346.599 222.62C345.749 224.37 345.069 226.4 344.619 228.71L288.829 196.49V200.48L289.359 200.79L289.849 201.08V201.92L288.819 202.52V204.84L296.389 220.86L303.869 225.19L306.359 222.18L312.959 226.13L316.749 232.63L320.919 235.04L326.149 230.4L332.579 234.11L334.739 243.01L345.499 249.22C346.039 251.5 346.729 253.73 347.539 255.91C347.609 256.14 347.689 256.36 347.789 256.61C351.369 266.02 357.059 274.07 363.479 277.78C364.299 278.25 365.099 278.64 365.899 278.94C366.349 279.13 366.799 279.27 367.249 279.39C367.649 279.5 368.049 279.6 368.449 279.66C369.779 279.9 371.059 279.89 372.259 279.65C372.429 279.61 372.609 279.57 372.779 279.53C373.029 279.48 373.269 279.41 373.509 279.31C373.689 279.24 373.879 279.17 374.069 279.09C374.269 279.02 374.459 278.93 374.649 278.82C374.829 278.74 375.009 278.65 375.179 278.54C375.269 278.49 375.359 278.44 375.449 278.39C375.489 278.38 375.529 278.35 375.569 278.32C380.129 275.44 383.059 268.56 383.059 258.93C383.059 256.4 382.859 253.85 382.489 251.3Z" fill="#B357D4"/>
<path opacity="0.4" d="M376.819 255.3C376.819 259.1 374.819 261.04 372.349 259.61C369.869 258.18 367.869 253.95 367.869 250.14C367.869 246.34 369.869 244.4 372.349 245.83C373.009 246.21 373.639 246.79 374.179 247.51C374.399 250.01 375.399 252.58 376.769 254.33C376.809 254.66 376.819 254.99 376.819 255.3Z" fill="black"/>
<path opacity="0.4" d="M389.319 255.29C389.319 265.16 386.239 272.14 381.479 274.89C380.519 275.43 376.999 277.47 375.569 278.29C380.129 275.41 383.059 268.53 383.059 258.9C383.059 256.39 382.849 253.84 382.479 251.29C380.369 236.95 372.659 222.75 363.469 217.45C359.209 214.99 355.279 214.81 352.069 216.5C353.469 215.7 357.009 213.65 357.969 213.1C361.239 211.19 365.319 211.28 369.729 213.83C378.919 219.13 386.629 233.33 388.739 247.68C389.129 250.24 389.319 252.79 389.319 255.29Z" fill="white"/>
<path d="M383.059 258.91C383.059 268.54 380.129 275.42 375.569 278.3C376.999 277.48 380.529 275.44 381.479 274.9C386.239 272.14 389.319 265.16 389.319 255.3C389.319 254.94 389.309 254.57 389.299 254.2C387.149 255.44 384.969 256.7 383.039 257.81C383.049 258.18 383.059 258.55 383.059 258.91Z" fill="#B357D4"/>
<path opacity="0.1" d="M383.059 258.91C383.059 268.54 380.129 275.42 375.569 278.3C376.999 277.48 380.529 275.44 381.479 274.9C386.239 272.14 389.319 265.16 389.319 255.3C389.319 254.94 389.309 254.57 389.299 254.2C387.149 255.44 384.969 256.7 383.039 257.81C383.049 258.18 383.059 258.55 383.059 258.91Z" fill="black"/>
<path opacity="0.15" d="M344.839 232.811V234.851L288.819 202.501L289.849 201.911V201.061L344.839 232.811Z" fill="black"/>
<path opacity="0.15" d="M344.839 233.65V234.85L288.819 202.5L289.849 201.91V201.9L344.839 233.65Z" fill="black"/>
<path opacity="0.15" d="M371.599 274.079C379.408 271.682 382.102 257.892 377.617 243.277C373.131 228.663 363.165 218.758 355.356 221.155C347.547 223.551 344.853 237.342 349.338 251.956C353.823 266.571 363.79 276.475 371.599 274.079Z" stroke="black" stroke-miterlimit="10"/>
<path opacity="0.4" d="M346.599 222.61C345.749 224.36 345.069 226.39 344.619 228.7L288.829 196.48L295.089 192.87L346.599 222.61Z" fill="white"/>
<path d="M419.07 225.74C422 220.21 425.33 207.79 426.99 201.52C429.35 192.62 425.53 187.02 421.2 186.79C418.48 187.2 409.56 219.68 409.56 219.68C408.57 220.47 394.99 227.35 390.62 229.08C389.85 229.39 388.99 229.37 388.2 229.09C386.1 228.33 384.68 228.47 382.63 228.26C381.02 228.1 380.21 227.53 380.01 227.87C379.75 228.31 379.63 229.42 380.8 230.24C381.39 230.65 382.36 231.02 383.6 231.46C383.6 231.46 381.28 232.26 378.19 232.2C374 232.11 372.48 233.93 375.74 238.18C377.78 240.84 381.06 241.68 388.44 239.13C390.57 238.39 393.45 236.96 396.13 235.99C401.68 233.97 403.1 233.76 407.36 232.32C413.49 230.26 417.77 228.2 419.07 225.74Z" fill="#FFA8A7"/>
<path d="M419.55 185.95C422.1 186.3 424.58 186.88 426.06 188.94C427.54 191 428.78 193.91 427.3 201.9C425.82 209.89 422.76 218.37 422.76 218.37C422.76 218.37 416.82 220.91 410.51 214.47L414.85 197.69C414.85 197.69 415.59 186.79 419.55 185.95Z" fill="#455A64"/>
</g>
<defs>
<clipPath id="clip0_1716_23095">
<rect width="471.22" height="456.94" fill="white"/>
</clipPath>
</defs>
</svg>
