<svg width="500" height="500" viewBox="0 0 500 500" fill="none" xmlns="http://www.w3.org/2000/svg">
<path d="M97.2573 429.454C183.32 474.414 322.855 474.415 408.917 429.455C494.98 384.494 494.98 311.6 408.917 266.64C322.854 221.68 183.319 221.68 97.2563 266.639C11.1943 311.599 11.1943 384.494 97.2573 429.454Z" fill="#F5F5F5"/>
<path d="M354.662 388.636C377.246 388.636 395.554 378.066 395.554 365.027C395.554 351.988 377.246 341.418 354.662 341.418C332.078 341.418 313.77 351.988 313.77 365.027C313.77 378.066 332.078 388.636 354.662 388.636Z" fill="#E0E0E0"/>
<path d="M105.596 352.701C104.99 345.763 98.7164 331.83 90.7295 323.45C82.7425 315.07 70.8475 309.472 63.0465 312.925C55.7815 316.141 57.4505 325.896 67.1065 331.612C76.7625 337.329 91.1355 344.314 96.1145 355.22L105.705 368.296L105.596 352.701Z" fill="#B357D4"/>
<path opacity="0.1" d="M105.596 352.701C104.99 345.763 98.7164 331.83 90.7295 323.45C82.7425 315.07 70.8475 309.472 63.0465 312.925C55.7815 316.141 57.4505 325.896 67.1065 331.612C76.7625 337.329 91.1355 344.314 96.1145 355.22L105.705 368.296L105.596 352.701Z" fill="black"/>
<path d="M106.939 362.151C106.716 362.152 106.511 362.006 106.447 361.783C99.7319 338.504 78.8899 320.927 67.0499 317.675C66.7789 317.601 66.6199 317.32 66.6939 317.05C66.7679 316.78 67.0419 316.615 67.3199 316.694C79.3849 320.007 100.608 337.869 107.425 361.501C107.503 361.771 107.347 362.052 107.078 362.13C107.03 362.144 106.984 362.151 106.939 362.151Z" fill="white"/>
<path d="M104.731 377.619C103.276 373.816 97.9486 367.796 89.7796 363.153C80.7426 358.016 69.7196 356.255 66.8326 351.894C63.3646 346.656 67.5466 341.055 76.3966 341.376C85.2466 341.697 101.685 352.298 105.717 370.068L104.731 377.619Z" fill="#B357D4"/>
<path d="M106.067 373.378C105.873 373.379 105.688 373.269 105.601 373.081C96.5651 353.425 80.4621 347.656 73.2101 347.351C72.9291 347.34 72.7111 347.102 72.7231 346.821C72.7341 346.539 72.9611 346.322 73.2531 346.334C81.2721 346.67 97.3031 352.592 106.526 372.655C106.643 372.91 106.531 373.213 106.276 373.33C106.208 373.362 106.137 373.377 106.067 373.378Z" fill="white"/>
<path d="M377.172 343.705C377.02 338.123 378.572 328.759 384.073 319.414C389.96 309.414 397.73 302.713 404.26 304.75C410.342 306.647 409.004 314.901 399.861 323.89C393.445 330.197 386.949 338.203 383.982 347.345L378.837 359.126L377.172 343.705Z" fill="#B357D4"/>
<path d="M377.172 343.705C377.02 338.123 378.572 328.759 384.073 319.414C389.96 309.414 397.73 302.713 404.26 304.75C410.342 306.647 409.004 314.901 399.861 323.89C393.445 330.197 386.949 338.203 383.982 347.345L378.837 359.126L377.172 343.705Z" fill="#B357D4"/>
<g opacity="0.1">
<path d="M377.172 343.705C377.02 338.123 378.572 328.759 384.073 319.414C389.96 309.414 397.73 302.713 404.26 304.75C410.342 306.647 409.004 314.901 399.861 323.89C393.445 330.197 386.949 338.203 383.982 347.345L378.837 359.126L377.172 343.705Z" fill="black"/>
</g>
<path d="M378.188 347.863C378.349 347.846 378.489 347.73 378.53 347.564C382.447 331.62 392.375 314.841 401.624 308.538C401.805 308.414 401.851 308.168 401.729 307.988C401.604 307.806 401.359 307.761 401.179 307.883C391.787 314.285 381.72 331.262 377.762 347.374C377.71 347.586 377.839 347.801 378.051 347.853C378.097 347.865 378.143 347.868 378.188 347.863Z" fill="white"/>
<path d="M377.116 361.784C377.116 361.784 381.022 365.692 387.979 367.223C394.936 368.754 398.236 365.58 398.236 365.58C398.236 365.58 395.863 358.827 391.985 356.742C391.985 356.742 398.665 358.524 403.877 362.469C403.877 362.469 408.162 362.79 410.26 356.346C410.26 356.346 407.953 352.255 399.555 349.619C399.555 349.619 404.82 348.623 412.181 350.975C412.728 351.231 415.622 342.91 416.578 339.049C417.534 335.188 415.962 335.135 412.966 334.141C409.97 333.147 399.635 332.018 397.63 333.578C395.625 335.139 394.315 340.806 394.315 340.806C394.315 340.806 392.685 337.458 393.295 334.593C393.295 334.593 390.3 333.374 386.809 334.362C383.318 335.35 383.436 337.03 383.288 339.518C383.129 342.179 383.287 343.961 383.871 346.989C383.871 346.989 381.631 344.805 381.997 337.268C381.997 337.268 377.139 340.948 375.081 344.237C373.021 347.522 372.961 356.445 377.116 361.784Z" fill="#B357D4"/>
<path d="M377.092 362.178C377.239 362.187 377.385 362.113 377.461 361.975C383.831 350.538 405.719 338.111 413.355 337.093C413.571 337.064 413.724 336.865 413.695 336.648C413.666 336.431 413.465 336.281 413.25 336.308C405.488 337.343 383.241 349.969 376.77 361.59C376.663 361.781 376.732 362.022 376.923 362.128C376.978 362.158 377.035 362.174 377.092 362.178Z" fill="white"/>
<path d="M111.001 385.284L108.28 383.713C106.07 382.437 104.278 379.333 104.278 376.78V138.286C104.278 135.734 106.07 132.63 108.28 131.354L218.274 67.8476C220.484 66.5716 224.068 66.5716 226.279 67.8476L229.003 69.4196C231.214 70.6956 233.006 73.7996 233.006 76.3516V314.846C233.006 317.398 231.214 320.502 229.004 321.778L119.007 385.284C116.795 386.561 113.211 386.561 111.001 385.284Z" fill="#37474F"/>
<path d="M120.367 142.955L105.449 134.342C104.725 135.597 104.277 137.01 104.277 138.286V376.78C104.277 379.332 106.069 382.436 108.279 383.713L111 385.284C113.211 386.56 116.794 386.56 119.005 385.284L120.367 384.498V142.955Z" fill="#263238"/>
<path d="M115.003 144.481V382.975C115.003 385.527 116.795 386.562 119.006 385.286L229.003 321.78C231.213 320.504 233.005 317.4 233.005 314.848V76.3535C233.005 73.8015 231.213 72.7665 229.002 74.0425L119.005 137.549C116.795 138.825 115.003 141.929 115.003 144.481Z" fill="#455A64"/>
<path d="M123.797 159.555L223.816 101.814C225.711 100.72 227.247 101.607 227.247 103.795V294.062C227.247 296.25 225.711 298.91 223.816 300.004L123.798 357.745C121.903 358.839 120.367 357.952 120.367 355.764L120.366 165.498C120.367 163.309 121.902 160.649 123.797 159.555Z" fill="#FAFAFA"/>
<g opacity="0.4">
<path d="M174.362 174.551C185.575 168.076 194.666 173.325 194.666 186.272C194.666 199.22 185.575 214.965 174.362 221.439C163.149 227.912 154.058 222.665 154.058 209.716C154.058 196.768 163.149 181.024 174.362 174.551Z" fill="#B357D4"/>
<path d="M214.374 243.796C214.374 222.524 199.438 213.08 181.019 223.717L169.501 230.365C151.082 241.001 136.146 266.867 136.146 288.139V293.864L214.374 248.729V243.796Z" fill="#B357D4"/>
</g>
<path d="M174.003 111.987C175.484 111.132 176.685 111.825 176.685 113.536C176.685 115.246 175.484 117.326 174.003 118.181C172.522 119.036 171.321 118.343 171.321 116.633C171.321 114.922 172.522 112.842 174.003 111.987Z" fill="#263238"/>
<path d="M166.26 125.384C171.709 122.372 181.43 116.586 186.802 113.426C187.714 112.89 188.453 113.259 188.453 114.252C188.453 115.245 187.71 116.478 186.794 117.007L166.217 128.891C165.301 129.42 164.558 129.044 164.558 128.051C164.558 127.06 165.334 125.896 166.26 125.384Z" fill="#263238"/>
<path d="M161.061 128.389C161.893 127.909 162.567 128.298 162.567 129.258C162.567 130.218 161.893 131.386 161.061 131.866C160.229 132.346 159.555 131.957 159.555 130.996C159.555 130.036 160.23 128.869 161.061 128.389Z" fill="#263238"/>
<path d="M174.004 334.951C176.966 333.241 179.368 334.627 179.368 338.048C179.368 341.469 176.967 345.628 174.004 347.338C171.042 349.048 168.64 347.662 168.64 344.241C168.64 340.821 171.042 336.662 174.004 334.951Z" fill="#263238"/>
<path d="M265.214 268.143L253.152 261.18C253.152 261.18 253.14 261.18 253.127 261.18L253.002 261.105L252.989 261.13C246.991 257.743 238.768 258.243 229.658 263.504C221.136 268.415 213.363 276.613 207.502 286.098C200.729 297.02 196.468 309.666 196.468 321C196.468 331.572 200.167 338.995 206.153 342.469V342.482L206.191 342.494L218.438 349.489C224.486 353.345 233.025 353.003 242.497 347.534C260.832 336.948 275.696 311.205 275.697 290.033C275.698 279.012 271.664 271.413 265.214 268.143Z" fill="#B357D4"/>
<path opacity="0.1" d="M218.199 349.354L206.188 342.491L206.15 342.478V342.465C200.163 338.996 196.469 331.568 196.469 320.997C196.469 309.662 200.727 297.026 207.503 286.104L220.316 293.493C213.54 304.414 209.294 317.039 209.294 328.362C209.294 338.47 212.675 345.697 218.199 349.354Z" fill="black"/>
<path opacity="0.4" d="M264.966 268.007C259.054 265.139 251.164 265.865 242.497 270.863C233.968 275.798 226.19 284.001 220.316 293.495L207.503 286.106C213.364 276.612 221.142 268.421 229.659 263.511C238.764 258.251 246.993 257.75 252.992 261.131L253.004 261.106L253.129 261.181C253.142 261.181 253.154 261.181 253.154 261.181L264.966 268.007Z" fill="white"/>
<path d="M259.785 281.495L255.188 278.842L237.176 321.288L240.248 323.061L259.785 281.495Z" fill="white"/>
<path d="M233.645 311.812L229.048 309.158L224.112 319.609L228.709 322.262L233.645 311.812Z" fill="white"/>
<path d="M241.431 335.507L228.709 322.261L233.645 311.811L240.247 323.06L259.784 281.494L267.025 288.56L241.431 335.507Z" fill="#F5F5F5"/>
<path d="M224.112 319.609L228.709 322.262L241.431 335.508L236.837 332.882L224.112 319.609Z" fill="#E0E0E0"/>
<path d="M358.956 163.923C369.806 163.923 378.601 155.127 378.601 144.278V143.119C378.601 133.924 371.147 126.469 361.951 126.469H355.96C346.765 126.469 339.31 133.923 339.31 143.119V144.278C339.311 155.128 348.107 163.923 358.956 163.923Z" fill="#263238"/>
<path d="M338.737 358.184C336.457 360.681 333.941 362.682 331.241 364.704C330.837 365.006 330.419 365.326 330.2 365.781C329.846 366.516 329.297 368.336 332.649 369.505C335.924 370.648 340.008 370.38 342.991 368.513C345.744 366.79 345.867 363.205 348.464 361.161C350.389 359.646 352.792 359.257 354.348 357.279C355.431 355.901 355.149 354.067 354.584 351.797C353.968 349.319 353.684 347.444 352.863 347.634L352.998 348.774C351.975 350.407 346.671 350.889 344.31 349.762C344.31 349.762 340.225 356.555 338.737 358.184Z" fill="#263238"/>
<path d="M336.412 360.502C336.412 360.499 336.412 360.488 336.412 360.484C337.209 359.754 337.99 359.001 338.738 358.182C339.697 357.132 341.736 353.939 343.066 351.802C343.875 350.502 344.463 348.948 344.278 347.235C344.093 345.522 343.618 341.127 343.618 341.127L352.022 340.533L352.999 348.773C353.202 350.641 351.659 352.298 348.924 354.654C346.19 357.01 342.716 362.506 340.241 363.889C337.765 365.272 335.995 365.22 334.939 364.513C333.852 363.786 333.745 363.227 336.412 360.502Z" fill="#B16668"/>
<path d="M370.694 358.935V357.672C370.196 359.154 367.885 365.531 364.381 368.728C361.595 371.269 357.795 374.204 356.828 377.037C355.823 379.983 362.117 380.973 364.719 380.512C367.743 379.976 371.656 378.261 373.785 375.644C375.282 373.804 376.236 371.624 377.305 370.177C378.374 368.73 380.839 367.115 381.417 365.441C381.735 364.521 381.357 362.507 380.911 360.805C380.502 359.243 380.058 357.526 379.525 357.673C379.523 357.863 379.525 358.636 379.525 358.636C378.884 359.347 377.11 360.052 375.109 360.129C373.818 360.177 370.683 359.921 370.694 358.935Z" fill="#263238"/>
<path d="M361.861 370.963C362.725 370.192 363.594 369.438 364.383 368.719C366.831 366.485 368.697 362.698 369.769 360.114C370.381 358.639 370.696 357.064 370.696 355.466V350.432H379.528V358.626V358.846L379.484 358.868C379.059 360.703 375.006 365.585 372.703 368.768C371.16 370.902 368.226 373.617 364.722 374.085C361.4 374.529 359.702 373.482 361.861 370.963Z" fill="#B16668"/>
<path d="M377.77 221.678C384.617 236.632 377.523 289.312 377.523 289.312C377.729 291.739 380.504 296.514 381.537 307.195C382.758 319.815 379.621 351.503 379.621 351.503C379.621 351.503 375.532 354.177 370.695 351.858C370.695 351.858 362.278 304.133 360.695 291.585C359.314 280.634 356.662 254.895 356.662 254.895L349.78 291.819C349.78 291.819 352.017 297.829 352.469 302.503C353.184 309.884 352.647 344.023 352.647 344.023C352.647 344.023 349.628 346.32 343.844 345.468C343.844 345.468 333.825 298.734 333.05 289.851C332.587 284.545 338.635 219.49 338.635 219.49L377.77 221.678Z" fill="#B357D4"/>
<path opacity="0.6" d="M377.77 221.678C384.617 236.632 377.523 289.312 377.523 289.312C377.729 291.739 380.504 296.514 381.537 307.195C382.758 319.815 379.621 351.503 379.621 351.503C379.621 351.503 375.532 354.177 370.695 351.858C370.695 351.858 362.278 304.133 360.695 291.585C359.314 280.634 356.662 254.895 356.662 254.895L349.78 291.819C349.78 291.819 352.017 297.829 352.469 302.503C353.184 309.884 352.647 344.023 352.647 344.023C352.647 344.023 349.628 346.32 343.844 345.468C343.844 345.468 333.825 298.734 333.05 289.851C332.587 284.545 338.635 219.49 338.635 219.49L377.77 221.678Z" fill="black"/>
<path opacity="0.3" d="M356.662 254.896L354.439 242.667C354.439 242.667 345.035 240.719 340.77 236.709C340.77 236.709 345.245 242.275 351.891 244.098L354.388 254.792L350.456 288.194L356.662 254.896Z" fill="black"/>
<path d="M388.93 215.178C388.86 214.197 387.022 203.726 385.757 197.869L373.447 201.642L375.635 212.417L386.007 220.741C389.255 220.096 389 216.159 388.93 215.178Z" fill="#B16668"/>
<path d="M329.393 193.102L323.574 203.769L332.626 211.528L340.916 198.382L329.393 193.102Z" fill="#B16668"/>
<path d="M351.226 169.326C345.456 169.385 339.101 171.484 336.914 176.009C334.728 180.534 328.673 193.016 328.673 193.016C328.673 193.016 334.06 200.336 342.15 199.81L351.226 169.326Z" fill="#B357D4"/>
<path opacity="0.6" d="M351.226 169.326C345.456 169.385 339.101 171.484 336.914 176.009C334.728 180.534 328.673 193.016 328.673 193.016C328.673 193.016 334.06 200.336 342.15 199.81L351.226 169.326Z" fill="black"/>
<path d="M363.174 169.532L367.976 169.726C373.203 170.984 375.087 174.569 377.283 179.206C378.955 182.736 378.974 186.829 377.698 190.52L371.581 208.216C371.581 208.216 374.445 215.139 377.77 221.68C362.419 230.248 343.251 225.744 338.635 219.492C338.44 218.166 338.705 212.188 338.333 205.386C337.936 198.133 336.94 189.944 338.08 185.46C340.197 177.138 344.162 169.326 352.055 169.326L363.174 169.532Z" fill="#F5F5F5"/>
<path d="M367.975 169.725C373.214 170.466 380.906 171.522 383.558 183.974C386.246 196.594 386.763 199.598 386.763 199.598C386.763 199.598 382.182 204.168 373.491 204.127C373.491 204.127 365.826 179.346 367.975 169.725Z" fill="#B357D4"/>
<path opacity="0.6" d="M367.975 169.725C373.214 170.466 380.906 171.522 383.558 183.974C386.246 196.594 386.763 199.598 386.763 199.598C386.763 199.598 382.182 204.168 373.491 204.127C373.491 204.127 365.826 179.346 367.975 169.725Z" fill="black"/>
<path d="M373.26 203.358C372.296 200.05 371.272 196.273 370.31 192.211C370.31 192.211 370.349 201.057 371.859 207.409L373.26 203.358Z" fill="#EBEBEB"/>
<path d="M345.765 134.414C343.69 135.64 341.125 140.86 341.378 151.801C341.593 161.074 344.598 163.364 346.107 164.025C347.616 164.685 350.527 164.284 353.357 163.812V169.377C353.357 169.377 349.446 173.919 349.693 176.472C349.939 179.024 355.34 179.627 359 177.134C362.66 174.641 365.006 170.847 365.006 170.847V157.395C365.006 157.395 366.916 159.946 370.041 157.871C373.166 155.796 373.284 150.66 371.468 148.816C369.652 146.972 365.736 147.556 365.006 150.104C365.006 150.104 360.493 150.269 354.484 146.967C348.473 143.664 346.164 138.01 345.765 134.414Z" fill="#B16668"/>
<path d="M351.731 149.471C351.697 150.139 352.192 150.705 352.835 150.736C353.478 150.767 354.027 150.25 354.06 149.581C354.094 148.913 353.599 148.346 352.956 148.316C352.313 148.286 351.765 148.803 351.731 149.471Z" fill="#263238"/>
<path d="M351.42 157.332L348.712 158.196C348.937 158.971 349.725 159.406 350.473 159.168C351.221 158.929 351.645 158.107 351.42 157.332Z" fill="#9A4A4D"/>
<path d="M342.17 145.892L344.529 144.257C344.099 143.583 343.221 143.403 342.57 143.855C341.919 144.306 341.74 145.218 342.17 145.892Z" fill="#263238"/>
<path d="M342.714 148.629C342.68 149.297 343.175 149.863 343.818 149.894C344.461 149.925 345.01 149.408 345.043 148.739C345.076 148.071 344.582 147.505 343.939 147.474C343.297 147.444 342.748 147.961 342.714 148.629Z" fill="#263238"/>
<path d="M348.215 147.961L348.03 154.98L344.336 153.836L348.215 147.961Z" fill="#9A4A4D"/>
<path d="M353.356 163.811C356.338 163.42 362.473 161.657 363.43 159.232C363.43 159.232 363.111 160.756 361.279 162.327C359.446 163.898 353.357 165.667 353.357 165.667V163.811H353.356Z" fill="#9A4A4D"/>
<path d="M304.551 192.445L338.405 201.361L348.398 243.376L316.212 234.028L304.551 192.445Z" fill="#B357D4"/>
<path opacity="0.15" d="M319.311 220.246C318.997 221.104 317.144 223.486 313.203 223.298L312.716 221.56L319.311 220.246Z" fill="black"/>
<path opacity="0.15" d="M326.877 221.561C327.026 222.68 329.329 224.755 333.22 226.052C337.648 227.528 344.443 226.747 344.443 226.747L343.834 224.657L326.877 221.561Z" fill="black"/>
<path opacity="0.15" d="M314.462 198.528C314.462 198.528 314.337 197.95 314.183 197.237C314.029 196.524 316.015 196.493 318.621 197.169L323.609 198.463C326.214 199.139 328.451 200.264 328.605 200.978L328.884 202.269L314.462 198.528Z" fill="black"/>
<path d="M312.116 193.658C312.018 193.212 312.823 193.096 313.914 193.397L315.889 193.943C315.889 193.943 315.3 191.151 319.683 192.127C324.066 193.103 325.023 196.274 325.023 196.274C325.023 196.274 325.967 196.542 327.132 196.873C328.297 197.204 329.352 197.832 329.49 198.275L329.739 199.078L312.3 194.487C312.3 194.487 312.214 194.104 312.116 193.658Z" fill="#37474F"/>
<path d="M314.517 195.054C316.115 195.439 316.779 195.652 317.018 196.751C317.291 198.007 317.402 198.928 317.402 198.928L325.121 200.968C325.121 200.968 324.748 199.378 324.629 198.759C324.51 198.139 324.773 197.766 326.001 198.091L326.105 197.599L314.011 194.52L314.517 195.054Z" fill="#37474F"/>
<path d="M314.251 198.651C314.251 198.651 314.126 198.073 313.972 197.36C313.818 196.647 315.804 196.616 318.41 197.292L323.398 198.586C326.003 199.261 328.24 200.387 328.394 201.101L328.673 202.392L314.251 198.651Z" fill="#37474F"/>
<path d="M386.006 220.74L375.634 212.416C375.634 212.416 352.715 216.499 350.021 216.711C347.328 216.923 344.337 215.021 343.31 212.377C342.283 209.733 340.475 210.062 340.475 210.062C340.475 210.062 341.272 213.413 341.527 214.483C341.781 215.553 335.326 216.432 331.747 215.22C328.167 214.008 322.984 215.768 326.195 220.643C329.406 225.518 335.648 226.08 339.985 226.084C341.184 226.085 343.314 225.994 345.408 225.722C346.811 225.54 348.207 225.398 349.618 225.298C358.492 224.663 381.972 222.006 386.006 220.74Z" fill="#B16668"/>
<path d="M307.995 204.73C307.995 204.73 309.208 209.055 309.497 210.088C309.787 211.12 313.723 212.995 316.211 213.679C318.699 214.363 321.421 215.173 320.244 218.652C319.158 221.86 315.063 222.593 312.978 222.502C310.893 222.411 308.039 220.419 306.914 217.207C305.48 213.11 306.253 208.733 305.683 206.34C305.115 203.947 306.748 203.303 307.995 204.73Z" fill="#B16668"/>
<path d="M376.137 185.46C369.989 185.46 365.005 180.476 365.005 174.328V158.703C371.153 158.703 376.137 163.687 376.137 169.835V185.46Z" fill="#263238"/>
</svg>
