<?xml version="1.0" encoding="UTF-8"?>
<svg
  xmlns="http://www.w3.org/2000/svg"
  xmlns:xlink="http://www.w3.org/1999/xlink"
  width="0"
  height="0"
>
  <defs>
    <symbol viewBox="0 0 15 15" fill="none" id="view-horizontal">
      <path
        fill-rule="evenodd"
        clip-rule="evenodd"
        d="M1.5 2H13.5C13.7761 2 14 2.22386 14 2.5V7H1V2.5C1 2.22386 1.22386 2 1.5 2ZM1 8V12.5C1 12.7761 1.22386 13 1.5 13H13.5C13.7761 13 14 12.7761 14 12.5V8H1ZM0 2.5C0 1.67157 0.671573 1 1.5 1H13.5C14.3284 1 15 1.67157 15 2.5V12.5C15 13.3284 14.3284 14 13.5 14H1.5C0.671573 14 0 13.3284 0 12.5V2.5Z"
        fill="currentColor"
      ></path>
    </symbol>
    <symbol viewBox="0 0 15 15" fill="none" id="update">
      <path
        fill-rule="evenodd"
        clip-rule="evenodd"
        d="M1.90321 7.29677C1.90321 10.341 4.11041 12.4147 6.58893 12.8439C6.87255 12.893 7.06266 13.1627 7.01355 13.4464C6.96444 13.73 6.69471 13.9201 6.41109 13.871C3.49942 13.3668 0.86084 10.9127 0.86084 7.29677C0.860839 5.76009 1.55996 4.55245 2.37639 3.63377C2.96124 2.97568 3.63034 2.44135 4.16846 2.03202L2.53205 2.03202C2.25591 2.03202 2.03205 1.80816 2.03205 1.53202C2.03205 1.25588 2.25591 1.03202 2.53205 1.03202L5.53205 1.03202C5.80819 1.03202 6.03205 1.25588 6.03205 1.53202L6.03205 4.53202C6.03205 4.80816 5.80819 5.03202 5.53205 5.03202C5.25591 5.03202 5.03205 4.80816 5.03205 4.53202L5.03205 2.68645L5.03054 2.68759L5.03045 2.68766L5.03044 2.68767L5.03043 2.68767C4.45896 3.11868 3.76059 3.64538 3.15554 4.3262C2.44102 5.13021 1.90321 6.10154 1.90321 7.29677ZM13.0109 7.70321C13.0109 4.69115 10.8505 2.6296 8.40384 2.17029C8.12093 2.11718 7.93465 1.84479 7.98776 1.56188C8.04087 1.27898 8.31326 1.0927 8.59616 1.14581C11.4704 1.68541 14.0532 4.12605 14.0532 7.70321C14.0532 9.23988 13.3541 10.4475 12.5377 11.3662C11.9528 12.0243 11.2837 12.5586 10.7456 12.968L12.3821 12.968C12.6582 12.968 12.8821 13.1918 12.8821 13.468C12.8821 13.7441 12.6582 13.968 12.3821 13.968L9.38205 13.968C9.10591 13.968 8.88205 13.7441 8.88205 13.468L8.88205 10.468C8.88205 10.1918 9.10591 9.96796 9.38205 9.96796C9.65819 9.96796 9.88205 10.1918 9.88205 10.468L9.88205 12.3135L9.88362 12.3123C10.4551 11.8813 11.1535 11.3546 11.7585 10.6738C12.4731 9.86976 13.0109 8.89844 13.0109 7.70321Z"
        fill="currentColor"
      ></path>
    </symbol>
    <symbol viewBox="0 0 24 24" fill="none" id="undo">
      <path
        d="M10.4 9.4C8.7 9.7 7.2 10.3 5.8 11.4L3 8.5V15.5H10L7.3 12.8C11 10.2 16.1 11 18.8 14.7C19 15 19.2 15.2 19.3 15.5L21.1 14.6C18.9 10.8 14.7 8.7 10.4 9.4Z"
        fill="currentColor"
      ></path>
    </symbol>
    <symbol viewBox="0 0 15 15" fill="none" id="underline">
      <path
        fill-rule="evenodd"
        clip-rule="evenodd"
        d="M5.00001 2.75C5.00001 2.47386 4.77615 2.25 4.50001 2.25C4.22387 2.25 4.00001 2.47386 4.00001 2.75V8.05C4.00001 9.983 5.56702 11.55 7.50001 11.55C9.43301 11.55 11 9.983 11 8.05V2.75C11 2.47386 10.7762 2.25 10.5 2.25C10.2239 2.25 10 2.47386 10 2.75V8.05C10 9.43071 8.88072 10.55 7.50001 10.55C6.1193 10.55 5.00001 9.43071 5.00001 8.05V2.75ZM3.49998 13.1001C3.27906 13.1001 3.09998 13.2791 3.09998 13.5001C3.09998 13.721 3.27906 13.9001 3.49998 13.9001H11.5C11.7209 13.9001 11.9 13.721 11.9 13.5001C11.9 13.2791 11.7209 13.1001 11.5 13.1001H3.49998Z"
        fill="currentColor"
      ></path>
    </symbol>
    <symbol viewBox="0 0 120 98" id="twitter-logo">
      <title>twitter_buttn</title>
      <desc>Created with Sketch.</desc>
      <defs></defs>
      <g
        id="Page-1"
        stroke="none"
        stroke-width="1"
        fill="none"
        fillRule="evenodd"
      >
        <g id="Artboard-1" transform="translate(-332.000000, -286.000000)">
          <g id="twitter_buttn" transform="translate(332.000000, 273.000000)">
            <path d="M0,0 L120,0 L120,120 L0,120 L0,0 Z" id="Shape"></path>
            <path
              d="M120,24.8777205 C115.584769,26.8358023 110.839899,28.1591865 105.859761,28.7543802 C110.943048,25.7073046 114.846483,20.8825487 116.684736,15.1338381 C111.928015,17.954863 106.659058,20.0038041 101.051245,21.1081605 C96.560079,16.3233476 90.161747,13.3333333 83.0808735,13.3333333 C69.4840338,13.3333333 58.4606606,24.3562676 58.4606606,37.9522294 C58.4606606,39.8817806 58.6788105,41.7608545 59.0984308,43.562676 C38.6371118,42.5360108 20.4964337,32.7346282 8.35378031,17.8398625 C6.2346099,21.4759867 5.02052014,25.7051099 5.02052014,30.2169063 C5.02052014,38.7581111 9.36727752,46.2937196 15.9732251,50.7085117 C11.9372325,50.580782 8.14133655,49.4733531 4.82168331,47.6293939 C4.81992758,47.7321043 4.81992758,47.8352537 4.81992758,47.9388419 C4.81992758,59.8672958 13.3062658,69.8179158 24.5688577,72.0793006 C22.5027982,72.6420132 20.3278832,72.9426826 18.0823,72.9426826 C16.4959947,72.9426826 14.9535828,72.788617 13.4506749,72.5011156 C16.5833425,82.2823073 25.6754088,89.4000512 36.4485899,89.598888 C28.0228245,96.201763 17.4072205,100.137679 5.87292878,100.137679 C3.88587732,100.137679 1.92603972,100.021361 0,99.7939939 C10.8952047,106.77918 23.8362778,110.854676 37.739493,110.854676 C83.0233732,110.854676 107.786239,73.3403563 107.786239,40.8070522 C107.786239,39.7395662 107.762537,38.6777863 107.715132,37.6221515 C112.524964,34.1510662 116.699221,29.8148433 120,24.8777205"
              id="Fill-1"
              fill="#FFFFFF"
            ></path>
          </g>
        </g>
      </g>
    </symbol>
    <symbol viewBox="0 0 15 15" fill="none" id="trash">
      <path
        fill-rule="evenodd"
        clip-rule="evenodd"
        d="M5.5 1C5.22386 1 5 1.22386 5 1.5C5 1.77614 5.22386 2 5.5 2H9.5C9.77614 2 10 1.77614 10 1.5C10 1.22386 9.77614 1 9.5 1H5.5ZM3 3.5C3 3.22386 3.22386 3 3.5 3H5H10H11.5C11.7761 3 12 3.22386 12 3.5C12 3.77614 11.7761 4 11.5 4H11V12C11 12.5523 10.5523 13 10 13H5C4.44772 13 4 12.5523 4 12V4L3.5 4C3.22386 4 3 3.77614 3 3.5ZM5 4H10V12H5V4Z"
        fill="currentColor"
      ></path>
    </symbol>
    <symbol viewBox="0 0 22.507 26.258" fill="currentColor" id="thumbs-up">
      <path
        d="M22.507,11.254a1.881,1.881,0,0,0-1.876-1.876H10.916l1.238-5.964.038-.431a2.177,2.177,0,0,0-.619-1.5L10.091,0,.825,9.265A2.823,2.823,0,0,0,0,11.254V23.445a2.81,2.81,0,0,0,2.813,2.813h12.66a2.83,2.83,0,0,0,2.588-1.707L22.3,14.63a2.736,2.736,0,0,0,.206-1.032Z"
      ></path>
    </symbol>
    <symbol viewBox="0 0 25.414 29.731" fill="currentColor" id="thumbs-down">
      <path
        d="M0,15.61a1.957,1.957,0,0,0,1.951,1.951H12.058l-1.288,6.2-.039.449a2.265,2.265,0,0,0,.644,1.561l1.541,1.541,9.639-9.639a2.937,2.937,0,0,0,.859-2.068V2.927A2.923,2.923,0,0,0,20.488,0H7.317A2.944,2.944,0,0,0,4.624,1.776L.215,12.1A2.846,2.846,0,0,0,0,13.171Z"
        transform="translate(1 1)"
      ></path>
    </symbol>
    <symbol viewBox="0 0 15 15" fill="none" id="text-align-right">
      <path
        fill-rule="evenodd"
        clip-rule="evenodd"
        d="M2 4.5C2 4.22386 2.22386 4 2.5 4H12.5C12.7761 4 13 4.22386 13 4.5C13 4.77614 12.7761 5 12.5 5H2.5C2.22386 5 2 4.77614 2 4.5ZM7 7.5C7 7.22386 7.22386 7 7.5 7H12.5C12.7761 7 13 7.22386 13 7.5C13 7.77614 12.7761 8 12.5 8H7.5C7.22386 8 7 7.77614 7 7.5ZM4 10.5C4 10.2239 4.22386 10 4.5 10H12.5C12.7761 10 13 10.2239 13 10.5C13 10.7761 12.7761 11 12.5 11H4.5C4.22386 11 4 10.7761 4 10.5Z"
        fill="currentColor"
      ></path>
    </symbol>
    <symbol viewBox="0 0 15 15" fill="none" id="text-align-left">
      <path
        fill-rule="evenodd"
        clip-rule="evenodd"
        d="M2 4.5C2 4.22386 2.22386 4 2.5 4H12.5C12.7761 4 13 4.22386 13 4.5C13 4.77614 12.7761 5 12.5 5H2.5C2.22386 5 2 4.77614 2 4.5ZM2 7.5C2 7.22386 2.22386 7 2.5 7H7.5C7.77614 7 8 7.22386 8 7.5C8 7.77614 7.77614 8 7.5 8H2.5C2.22386 8 2 7.77614 2 7.5ZM2 10.5C2 10.2239 2.22386 10 2.5 10H10.5C10.7761 10 11 10.2239 11 10.5C11 10.7761 10.7761 11 10.5 11H2.5C2.22386 11 2 10.7761 2 10.5Z"
        fill="currentColor"
      ></path>
    </symbol>
    <symbol viewBox="0 0 15 15" fill="none" id="text-align-justify">
      <path
        fill-rule="evenodd"
        clip-rule="evenodd"
        d="M2.5 4C2.22386 4 2 4.22386 2 4.5C2 4.77614 2.22386 5 2.5 5H12.5C12.7761 5 13 4.77614 13 4.5C13 4.22386 12.7761 4 12.5 4H2.5ZM2 7.5C2 7.22386 2.22386 7 2.5 7H12.5C12.7761 7 13 7.22386 13 7.5C13 7.77614 12.7761 8 12.5 8H2.5C2.22386 8 2 7.77614 2 7.5ZM2 10.5C2 10.2239 2.22386 10 2.5 10H12.5C12.7761 10 13 10.2239 13 10.5C13 10.7761 12.7761 11 12.5 11H2.5C2.22386 11 2 10.7761 2 10.5Z"
        fill="currentColor"
      ></path>
    </symbol>
    <symbol viewBox="0 0 15 15" fill="none" id="text-align-center">
      <path
        fill-rule="evenodd"
        clip-rule="evenodd"
        d="M2 4.5C2 4.22386 2.22386 4 2.5 4H12.5C12.7761 4 13 4.22386 13 4.5C13 4.77614 12.7761 5 12.5 5H2.5C2.22386 5 2 4.77614 2 4.5ZM4 7.5C4 7.22386 4.22386 7 4.5 7H10.5C10.7761 7 11 7.22386 11 7.5C11 7.77614 10.7761 8 10.5 8H4.5C4.22386 8 4 7.77614 4 7.5ZM3 10.5C3 10.2239 3.22386 10 3.5 10H11.5C11.7761 10 12 10.2239 12 10.5C12 10.7761 11.7761 11 11.5 11H3.5C3.22386 11 3 10.7761 3 10.5Z"
        fill="currentColor"
      ></path>
    </symbol>
    <symbol viewBox="0 0 15 15" fill="none" id="table">
      <path
        fill-rule="evenodd"
        clip-rule="evenodd"
        d="M8 2H12.5C12.7761 2 13 2.22386 13 2.5V5H8V2ZM7 5V2H2.5C2.22386 2 2 2.22386 2 2.5V5H7ZM2 6V9H7V6H2ZM8 6H13V9H8V6ZM8 10H13V12.5C13 12.7761 12.7761 13 12.5 13H8V10ZM2 12.5V10H7V13H2.5C2.22386 13 2 12.7761 2 12.5ZM1 2.5C1 1.67157 1.67157 1 2.5 1H12.5C13.3284 1 14 1.67157 14 2.5V12.5C14 13.3284 13.3284 14 12.5 14H2.5C1.67157 14 1 13.3284 1 12.5V2.5Z"
        fill="currentColor"
      ></path>
    </symbol>
    <symbol viewBox="0 0 24 24" fill="none" id="superscript">
      <path
        d="M10.4 12L14 15.6L12.6 17L9 13.4L5.4 17L4 15.6L7.6 12L4 8.40002L5.4 7.00002L9 10.6L12.6 7.00002L14 8.40002L10.4 12ZM19.3123 8.67402L20.3805 7.52752C20.5765 7.32611 20.7514 7.12013 20.9173 6.91872C21.077 6.72455 21.2214 6.51826 21.3493 6.30172C21.469 6.10155 21.567 5.88923 21.6418 5.66832C21.7128 5.45341 21.7488 5.22846 21.7484 5.00211C21.7514 4.72074 21.6994 4.44149 21.5953 4.18005C21.4968 3.93431 21.3427 3.71471 21.1451 3.53845C20.9353 3.3549 20.6899 3.21654 20.4242 3.13199C19.7861 2.94194 19.1044 2.95756 18.4757 3.17664C18.1887 3.28509 17.9282 3.45384 17.712 3.67151C17.5032 3.88009 17.3413 4.13084 17.2372 4.40699C17.1371 4.67348 17.0844 4.95537 17.0813 5.23999L17.0777 5.47699H18.617L18.6234 5.25002C18.625 5.12336 18.643 4.99744 18.6772 4.87544C18.7105 4.76837 18.7637 4.66851 18.8339 4.58107C18.905 4.50071 18.9935 4.43772 19.0928 4.39697C19.3173 4.30798 19.5665 4.3028 19.7946 4.38239C19.8768 4.41847 19.9501 4.47197 20.0096 4.53918C20.0704 4.61092 20.1171 4.69347 20.1473 4.78251C20.1829 4.89075 20.2014 5.00393 20.202 5.11789C20.2008 5.20748 20.1901 5.2967 20.17 5.38401C20.1409 5.48829 20.0993 5.58866 20.046 5.68294C19.9687 5.81915 19.8807 5.94897 19.7827 6.07117C19.6483 6.24582 19.505 6.41343 19.3534 6.57334L17.1971 8.92644V10H22V8.67402H19.3123Z"
        fill="currentColor"
      ></path>
    </symbol>
    <symbol viewBox="0 0 15 15" fill="none" id="sun">
      <path
        fill-rule="evenodd"
        clip-rule="evenodd"
        d="M7.5 0C7.77614 0 8 0.223858 8 0.5V2.5C8 2.77614 7.77614 3 7.5 3C7.22386 3 7 2.77614 7 2.5V0.5C7 0.223858 7.22386 0 7.5 0ZM2.1967 2.1967C2.39196 2.00144 2.70854 2.00144 2.90381 2.1967L4.31802 3.61091C4.51328 3.80617 4.51328 4.12276 4.31802 4.31802C4.12276 4.51328 3.80617 4.51328 3.61091 4.31802L2.1967 2.90381C2.00144 2.70854 2.00144 2.39196 2.1967 2.1967ZM0.5 7C0.223858 7 0 7.22386 0 7.5C0 7.77614 0.223858 8 0.5 8H2.5C2.77614 8 3 7.77614 3 7.5C3 7.22386 2.77614 7 2.5 7H0.5ZM2.1967 12.8033C2.00144 12.608 2.00144 12.2915 2.1967 12.0962L3.61091 10.682C3.80617 10.4867 4.12276 10.4867 4.31802 10.682C4.51328 10.8772 4.51328 11.1938 4.31802 11.3891L2.90381 12.8033C2.70854 12.9986 2.39196 12.9986 2.1967 12.8033ZM12.5 7C12.2239 7 12 7.22386 12 7.5C12 7.77614 12.2239 8 12.5 8H14.5C14.7761 8 15 7.77614 15 7.5C15 7.22386 14.7761 7 14.5 7H12.5ZM10.682 4.31802C10.4867 4.12276 10.4867 3.80617 10.682 3.61091L12.0962 2.1967C12.2915 2.00144 12.608 2.00144 12.8033 2.1967C12.9986 2.39196 12.9986 2.70854 12.8033 2.90381L11.3891 4.31802C11.1938 4.51328 10.8772 4.51328 10.682 4.31802ZM8 12.5C8 12.2239 7.77614 12 7.5 12C7.22386 12 7 12.2239 7 12.5V14.5C7 14.7761 7.22386 15 7.5 15C7.77614 15 8 14.7761 8 14.5V12.5ZM10.682 10.682C10.8772 10.4867 11.1938 10.4867 11.3891 10.682L12.8033 12.0962C12.9986 12.2915 12.9986 12.608 12.8033 12.8033C12.608 12.9986 12.2915 12.9986 12.0962 12.8033L10.682 11.3891C10.4867 11.1938 10.4867 10.8772 10.682 10.682ZM5.5 7.5C5.5 6.39543 6.39543 5.5 7.5 5.5C8.60457 5.5 9.5 6.39543 9.5 7.5C9.5 8.60457 8.60457 9.5 7.5 9.5C6.39543 9.5 5.5 8.60457 5.5 7.5ZM7.5 4.5C5.84315 4.5 4.5 5.84315 4.5 7.5C4.5 9.15685 5.84315 10.5 7.5 10.5C9.15685 10.5 10.5 9.15685 10.5 7.5C10.5 5.84315 9.15685 4.5 7.5 4.5Z"
        fill="currentColor"
      ></path>
    </symbol>
    <symbol viewBox="0 0 24 24" fill="none" id="subscript">
      <path
        d="M10.4 12L14 15.6L12.6 17L9 13.4L5.4 17L4 15.6L7.6 12L4 8.4L5.4 7L9 10.6L12.6 7L14 8.4L10.4 12ZM18.3123 19.674L19.3805 18.5275C19.5765 18.3261 19.7514 18.1201 19.9173 17.9187C20.077 17.7245 20.2215 17.5182 20.3493 17.3017C20.469 17.1015 20.567 16.8892 20.6418 16.6683C20.7128 16.4534 20.7488 16.2284 20.7484 16.0021C20.7514 15.7207 20.6994 15.4415 20.5953 15.18C20.4968 14.9343 20.3427 14.7147 20.1451 14.5384C19.9353 14.3549 19.6899 14.2165 19.4242 14.132C18.7861 13.9419 18.1044 13.9575 17.4757 14.1766C17.1887 14.2851 16.9283 14.4538 16.712 14.6715C16.5032 14.8801 16.3413 15.1308 16.2372 15.407C16.1371 15.6735 16.0844 15.9553 16.0813 16.24L16.0777 16.477H17.617L17.6234 16.25C17.625 16.1234 17.643 15.9975 17.6772 15.8755C17.7105 15.7684 17.7637 15.6685 17.8339 15.5811C17.905 15.5007 17.9935 15.4378 18.0928 15.397C18.3174 15.308 18.5665 15.3028 18.7946 15.3824C18.8768 15.4185 18.9501 15.472 19.0096 15.5392C19.0704 15.611 19.1171 15.6935 19.1473 15.7825C19.1829 15.8908 19.2014 16.0039 19.202 16.1179C19.2008 16.2075 19.1901 16.2967 19.17 16.384C19.1409 16.4883 19.0993 16.5887 19.046 16.683C18.9687 16.8192 18.8806 16.949 18.7827 17.0712C18.6483 17.2458 18.505 17.4135 18.3534 17.5734L16.197 19.9265V21H21V19.674H18.3123Z"
        fill="currentColor"
      ></path>
    </symbol>
    <symbol viewBox="0 0 15 15" fill="none" id="strikethrough">
      <path
        fill-rule="evenodd"
        clip-rule="evenodd"
        d="M5.00003 3.25C5.00003 2.97386 4.77617 2.75 4.50003 2.75C4.22389 2.75 4.00003 2.97386 4.00003 3.25V7.10003H2.49998C2.27906 7.10003 2.09998 7.27912 2.09998 7.50003C2.09998 7.72094 2.27906 7.90003 2.49998 7.90003H4.00003V8.55C4.00003 10.483 5.56703 12.05 7.50003 12.05C9.43303 12.05 11 10.483 11 8.55V7.90003H12.5C12.7209 7.90003 12.9 7.72094 12.9 7.50003C12.9 7.27912 12.7209 7.10003 12.5 7.10003H11V3.25C11 2.97386 10.7762 2.75 10.5 2.75C10.2239 2.75 10 2.97386 10 3.25V7.10003H5.00003V3.25ZM5.00003 7.90003V8.55C5.00003 9.93071 6.11932 11.05 7.50003 11.05C8.88074 11.05 10 9.93071 10 8.55V7.90003H5.00003Z"
        fill="currentColor"
      ></path>
    </symbol>
    <symbol viewBox="0 0 24 24" fill="currentColor" id="split-cells-horizontal">
      <path
        d="M20 3C20.5523 3 21 3.44772 21 4V20C21 20.5523 20.5523 21 20 21H4C3.44772 21 3 20.5523 3 20V4C3 3.44772 3.44772 3 4 3H20ZM11 5H5V19H11V15H13V19H19V5H13V9H11V5ZM15 9L18 12L15 15V13H9V15L6 12L9 9V11H15V9Z"
        fill="currentColor"
      ></path>
    </symbol>
    <symbol viewBox="0 0 29.698 29.698" id="search">
      <g transform="translate(0 0)">
        <path d="M0,0H29.7V29.7H0Z" fill="none"></path>
      </g>
      <g transform="translate(3.712 3.712)">
        <path
          d="M18.468,16.612H17.49l-.346-.334a8.066,8.066,0,1,0-.866.866l.334.346v.978l5.259,5.259a1.307,1.307,0,0,0,1.844,0h0a1.307,1.307,0,0,0,0-1.844Zm-7.425,0a5.568,5.568,0,1,1,5.568-5.568A5.561,5.561,0,0,1,11.043,16.612Z"
          transform="translate(-2.999 -2.999)"
          fill="currentColor"
        ></path>
      </g>
    </symbol>
    <symbol viewBox="0 0 45 45" stroke="currentColor" id="rings">
      <g
        fill="none"
        fillRule="evenodd"
        transform="translate(1 1)"
        stroke-width="2"
      >
        <circle cx="22" cy="22" r="6" stroke-opacity="0">
          <animate
            attributeName="r"
            begin="1.5s"
            dur="3s"
            values="6;22"
            calcMode="linear"
            repeatCount="indefinite"
          ></animate>
          <animate
            attributeName="stroke-opacity"
            begin="1.5s"
            dur="3s"
            values="1;0"
            calcMode="linear"
            repeatCount="indefinite"
          ></animate>
          <animate
            attributeName="stroke-width"
            begin="1.5s"
            dur="3s"
            values="2;0"
            calcMode="linear"
            repeatCount="indefinite"
          ></animate>
        </circle>
        <circle cx="22" cy="22" r="6" stroke-opacity="0">
          <animate
            attributeName="r"
            begin="3s"
            dur="3s"
            values="6;22"
            calcMode="linear"
            repeatCount="indefinite"
          ></animate>
          <animate
            attributeName="stroke-opacity"
            begin="3s"
            dur="3s"
            values="1;0"
            calcMode="linear"
            repeatCount="indefinite"
          ></animate>
          <animate
            attributeName="stroke-width"
            begin="3s"
            dur="3s"
            values="2;0"
            calcMode="linear"
            repeatCount="indefinite"
          ></animate>
        </circle>
        <circle cx="22" cy="22" r="8">
          <animate
            attributeName="r"
            begin="0s"
            dur="1.5s"
            values="6;1;2;3;4;5;6"
            calcMode="linear"
            repeatCount="indefinite"
          ></animate>
        </circle>
      </g>
    </symbol>
    <symbol viewBox="0 0 15 15" fill="none" id="reset">
      <path
        fill-rule="evenodd"
        clip-rule="evenodd"
        d="M4.85355 2.14645C5.04882 2.34171 5.04882 2.65829 4.85355 2.85355L3.70711 4H9C11.4853 4 13.5 6.01472 13.5 8.5C13.5 10.9853 11.4853 13 9 13H5C4.72386 13 4.5 12.7761 4.5 12.5C4.5 12.2239 4.72386 12 5 12H9C10.933 12 12.5 10.433 12.5 8.5C12.5 6.567 10.933 5 9 5H3.70711L4.85355 6.14645C5.04882 6.34171 5.04882 6.65829 4.85355 6.85355C4.65829 7.04882 4.34171 7.04882 4.14645 6.85355L2.14645 4.85355C1.95118 4.65829 1.95118 4.34171 2.14645 4.14645L4.14645 2.14645C4.34171 1.95118 4.65829 1.95118 4.85355 2.14645Z"
        fill="currentColor"
      ></path>
    </symbol>
    <symbol viewBox="0 0 24 24" fill="none" id="redo">
      <path
        d="M13.6 9.4C15.3 9.7 16.8 10.3 18.2 11.4L21 8.5V15.5H14L16.7 12.8C13 10.1 7.9 11 5.3 14.7C5.1 15 4.9 15.2 4.8 15.5L3 14.6C5.1 10.8 9.3 8.7 13.6 9.4Z"
        fill="currentColor"
      ></path>
    </symbol>
    <symbol viewBox="0 0 15 15" fill="none" id="quote">
      <path
        fill-rule="evenodd"
        clip-rule="evenodd"
        d="M9.42503 3.44136C10.0561 3.23654 10.7837 3.2402 11.3792 3.54623C12.7532 4.25224 13.3477 6.07191 12.7946 8C12.5465 8.8649 12.1102 9.70472 11.1861 10.5524C10.262 11.4 8.98034 11.9 8.38571 11.9C8.17269 11.9 8 11.7321 8 11.525C8 11.3179 8.17644 11.15 8.38571 11.15C9.06497 11.15 9.67189 10.7804 10.3906 10.236C10.9406 9.8193 11.3701 9.28633 11.608 8.82191C12.0628 7.93367 12.0782 6.68174 11.3433 6.34901C10.9904 6.73455 10.5295 6.95946 9.97725 6.95946C8.7773 6.95946 8.0701 5.99412 8.10051 5.12009C8.12957 4.28474 8.66032 3.68954 9.42503 3.44136ZM3.42503 3.44136C4.05614 3.23654 4.78366 3.2402 5.37923 3.54623C6.7532 4.25224 7.34766 6.07191 6.79462 8C6.54654 8.8649 6.11019 9.70472 5.1861 10.5524C4.26201 11.4 2.98034 11.9 2.38571 11.9C2.17269 11.9 2 11.7321 2 11.525C2 11.3179 2.17644 11.15 2.38571 11.15C3.06497 11.15 3.67189 10.7804 4.39058 10.236C4.94065 9.8193 5.37014 9.28633 5.60797 8.82191C6.06282 7.93367 6.07821 6.68174 5.3433 6.34901C4.99037 6.73455 4.52948 6.95946 3.97725 6.95946C2.7773 6.95946 2.0701 5.99412 2.10051 5.12009C2.12957 4.28474 2.66032 3.68954 3.42503 3.44136Z"
        fill="currentColor"
      ></path>
    </symbol>
    <symbol viewBox="0 0 15 15" fill="none" id="question-mark-circled">
      <path
        fill-rule="evenodd"
        clip-rule="evenodd"
        d="M0.877075 7.49972C0.877075 3.84204 3.84222 0.876892 7.49991 0.876892C11.1576 0.876892 14.1227 3.84204 14.1227 7.49972C14.1227 11.1574 11.1576 14.1226 7.49991 14.1226C3.84222 14.1226 0.877075 11.1574 0.877075 7.49972ZM7.49991 1.82689C4.36689 1.82689 1.82708 4.36671 1.82708 7.49972C1.82708 10.6327 4.36689 13.1726 7.49991 13.1726C10.6329 13.1726 13.1727 10.6327 13.1727 7.49972C13.1727 4.36671 10.6329 1.82689 7.49991 1.82689ZM8.24993 10.5C8.24993 10.9142 7.91414 11.25 7.49993 11.25C7.08571 11.25 6.74993 10.9142 6.74993 10.5C6.74993 10.0858 7.08571 9.75 7.49993 9.75C7.91414 9.75 8.24993 10.0858 8.24993 10.5ZM6.05003 6.25C6.05003 5.57211 6.63511 4.925 7.50003 4.925C8.36496 4.925 8.95003 5.57211 8.95003 6.25C8.95003 6.74118 8.68002 6.99212 8.21447 7.27494C8.16251 7.30651 8.10258 7.34131 8.03847 7.37854L8.03841 7.37858C7.85521 7.48497 7.63788 7.61119 7.47449 7.73849C7.23214 7.92732 6.95003 8.23198 6.95003 8.7C6.95004 9.00376 7.19628 9.25 7.50004 9.25C7.8024 9.25 8.04778 9.00601 8.05002 8.70417L8.05056 8.7033C8.05924 8.6896 8.08493 8.65735 8.15058 8.6062C8.25207 8.52712 8.36508 8.46163 8.51567 8.37436L8.51571 8.37433C8.59422 8.32883 8.68296 8.27741 8.78559 8.21506C9.32004 7.89038 10.05 7.35382 10.05 6.25C10.05 4.92789 8.93511 3.825 7.50003 3.825C6.06496 3.825 4.95003 4.92789 4.95003 6.25C4.95003 6.55376 5.19628 6.8 5.50003 6.8C5.80379 6.8 6.05003 6.55376 6.05003 6.25Z"
        fill="currentColor"
      ></path>
    </symbol>
    <symbol viewBox="0 0 23.774 23.774" fill="currentColor" id="plus">
      <path
        d="M28.774,18.585H18.585V28.774h-3.4V18.585H5v-3.4H15.189V5h3.4V15.189H28.774Z"
        transform="translate(-5 -5)"
      ></path>
    </symbol>
    <symbol viewBox="0 0 15 15" fill="none" id="pencil-2">
      <path
        fill-rule="evenodd"
        clip-rule="evenodd"
        d="M12.1464 1.14645C12.3417 0.951184 12.6583 0.951184 12.8535 1.14645L14.8535 3.14645C15.0488 3.34171 15.0488 3.65829 14.8535 3.85355L10.9109 7.79618C10.8349 7.87218 10.7471 7.93543 10.651 7.9835L6.72359 9.94721C6.53109 10.0435 6.29861 10.0057 6.14643 9.85355C5.99425 9.70137 5.95652 9.46889 6.05277 9.27639L8.01648 5.34897C8.06455 5.25283 8.1278 5.16507 8.2038 5.08907L12.1464 1.14645ZM12.5 2.20711L8.91091 5.79618L7.87266 7.87267L8.12731 8.12732L10.2038 7.08907L13.7929 3.5L12.5 2.20711ZM9.99998 2L8.99998 3H4.9C4.47171 3 4.18056 3.00039 3.95552 3.01877C3.73631 3.03668 3.62421 3.06915 3.54601 3.10899C3.35785 3.20487 3.20487 3.35785 3.10899 3.54601C3.06915 3.62421 3.03669 3.73631 3.01878 3.95552C3.00039 4.18056 3 4.47171 3 4.9V11.1C3 11.5283 3.00039 11.8194 3.01878 12.0445C3.03669 12.2637 3.06915 12.3758 3.10899 12.454C3.20487 12.6422 3.35785 12.7951 3.54601 12.891C3.62421 12.9309 3.73631 12.9633 3.95552 12.9812C4.18056 12.9996 4.47171 13 4.9 13H11.1C11.5283 13 11.8194 12.9996 12.0445 12.9812C12.2637 12.9633 12.3758 12.9309 12.454 12.891C12.6422 12.7951 12.7951 12.6422 12.891 12.454C12.9309 12.3758 12.9633 12.2637 12.9812 12.0445C12.9996 11.8194 13 11.5283 13 11.1V6.99998L14 5.99998V11.1V11.1207C14 11.5231 14 11.8553 13.9779 12.1259C13.9549 12.407 13.9057 12.6653 13.782 12.908C13.5903 13.2843 13.2843 13.5903 12.908 13.782C12.6653 13.9057 12.407 13.9549 12.1259 13.9779C11.8553 14 11.5231 14 11.1207 14H11.1H4.9H4.87934C4.47686 14 4.14468 14 3.87409 13.9779C3.59304 13.9549 3.33469 13.9057 3.09202 13.782C2.7157 13.5903 2.40973 13.2843 2.21799 12.908C2.09434 12.6653 2.04506 12.407 2.0221 12.1259C1.99999 11.8553 1.99999 11.5231 2 11.1207V11.1206V11.1V4.9V4.87935V4.87932V4.87931C1.99999 4.47685 1.99999 4.14468 2.0221 3.87409C2.04506 3.59304 2.09434 3.33469 2.21799 3.09202C2.40973 2.71569 2.7157 2.40973 3.09202 2.21799C3.33469 2.09434 3.59304 2.04506 3.87409 2.0221C4.14468 1.99999 4.47685 1.99999 4.87932 2H4.87935H4.9H9.99998Z"
        fill="currentColor"
      ></path>
    </symbol>
    <symbol viewBox="0 0 15 15" fill="none" id="pencil-1">
      <path
        fill-rule="evenodd"
        clip-rule="evenodd"
        d="M11.8536 1.14645C11.6583 0.951184 11.3417 0.951184 11.1465 1.14645L3.71455 8.57836C3.62459 8.66832 3.55263 8.77461 3.50251 8.89155L2.04044 12.303C1.9599 12.491 2.00189 12.709 2.14646 12.8536C2.29103 12.9981 2.50905 13.0401 2.69697 12.9596L6.10847 11.4975C6.2254 11.4474 6.3317 11.3754 6.42166 11.2855L13.8536 3.85355C14.0488 3.65829 14.0488 3.34171 13.8536 3.14645L11.8536 1.14645ZM4.42166 9.28547L11.5 2.20711L12.7929 3.5L5.71455 10.5784L4.21924 11.2192L3.78081 10.7808L4.42166 9.28547Z"
        fill="currentColor"
      ></path>
    </symbol>
    <symbol viewBox="0 0 24 24" fill="none" id="ordered-list">
      <path
        d="M2.5 16H4.5V16.5H3.5V17.5H4.5V18H2.5V19H5.5V15H2.5V16ZM3.5 9H4.5V5H2.5V6H3.5V9ZM2.5 11H4.3L2.5 13.1V14H5.5V13H3.7L5.5 10.9V10H2.5V11ZM7.5 6V8H21.5V6H7.5ZM7.5 18H21.5V16H7.5V18ZM7.5 13H21.5V11H7.5V13Z"
        fill="currentColor"
      ></path>
    </symbol>
    <symbol viewBox="0 0 15 15" fill="none" id="moon">
      <path
        fill-rule="evenodd"
        clip-rule="evenodd"
        d="M2.89998 0.499976C2.89998 0.279062 2.72089 0.0999756 2.49998 0.0999756C2.27906 0.0999756 2.09998 0.279062 2.09998 0.499976V1.09998H1.49998C1.27906 1.09998 1.09998 1.27906 1.09998 1.49998C1.09998 1.72089 1.27906 1.89998 1.49998 1.89998H2.09998V2.49998C2.09998 2.72089 2.27906 2.89998 2.49998 2.89998C2.72089 2.89998 2.89998 2.72089 2.89998 2.49998V1.89998H3.49998C3.72089 1.89998 3.89998 1.72089 3.89998 1.49998C3.89998 1.27906 3.72089 1.09998 3.49998 1.09998H2.89998V0.499976ZM5.89998 3.49998C5.89998 3.27906 5.72089 3.09998 5.49998 3.09998C5.27906 3.09998 5.09998 3.27906 5.09998 3.49998V4.09998H4.49998C4.27906 4.09998 4.09998 4.27906 4.09998 4.49998C4.09998 4.72089 4.27906 4.89998 4.49998 4.89998H5.09998V5.49998C5.09998 5.72089 5.27906 5.89998 5.49998 5.89998C5.72089 5.89998 5.89998 5.72089 5.89998 5.49998V4.89998H6.49998C6.72089 4.89998 6.89998 4.72089 6.89998 4.49998C6.89998 4.27906 6.72089 4.09998 6.49998 4.09998H5.89998V3.49998ZM1.89998 6.49998C1.89998 6.27906 1.72089 6.09998 1.49998 6.09998C1.27906 6.09998 1.09998 6.27906 1.09998 6.49998V7.09998H0.499976C0.279062 7.09998 0.0999756 7.27906 0.0999756 7.49998C0.0999756 7.72089 0.279062 7.89998 0.499976 7.89998H1.09998V8.49998C1.09998 8.72089 1.27906 8.89997 1.49998 8.89997C1.72089 8.89997 1.89998 8.72089 1.89998 8.49998V7.89998H2.49998C2.72089 7.89998 2.89998 7.72089 2.89998 7.49998C2.89998 7.27906 2.72089 7.09998 2.49998 7.09998H1.89998V6.49998ZM8.54406 0.98184L8.24618 0.941586C8.03275 0.917676 7.90692 1.1655 8.02936 1.34194C8.17013 1.54479 8.29981 1.75592 8.41754 1.97445C8.91878 2.90485 9.20322 3.96932 9.20322 5.10022C9.20322 8.37201 6.82247 11.0878 3.69887 11.6097C3.45736 11.65 3.20988 11.6772 2.96008 11.6906C2.74563 11.702 2.62729 11.9535 2.77721 12.1072C2.84551 12.1773 2.91535 12.2458 2.98667 12.3128L3.05883 12.3795L3.31883 12.6045L3.50684 12.7532L3.62796 12.8433L3.81491 12.9742L3.99079 13.089C4.11175 13.1651 4.23536 13.2375 4.36157 13.3059L4.62496 13.4412L4.88553 13.5607L5.18837 13.6828L5.43169 13.7686C5.56564 13.8128 5.70149 13.8529 5.83857 13.8885C5.94262 13.9155 6.04767 13.9401 6.15405 13.9622C6.27993 13.9883 6.40713 14.0109 6.53544 14.0298L6.85241 14.0685L7.11934 14.0892C7.24637 14.0965 7.37436 14.1002 7.50322 14.1002C11.1483 14.1002 14.1032 11.1453 14.1032 7.50023C14.1032 7.25044 14.0893 7.00389 14.0623 6.76131L14.0255 6.48407C13.991 6.26083 13.9453 6.04129 13.8891 5.82642C13.8213 5.56709 13.7382 5.31398 13.6409 5.06881L13.5279 4.80132L13.4507 4.63542L13.3766 4.48666C13.2178 4.17773 13.0353 3.88295 12.8312 3.60423L12.6782 3.40352L12.4793 3.16432L12.3157 2.98361L12.1961 2.85951L12.0355 2.70246L11.8134 2.50184L11.4925 2.24191L11.2483 2.06498L10.9562 1.87446L10.6346 1.68894L10.3073 1.52378L10.1938 1.47176L9.95488 1.3706L9.67791 1.2669L9.42566 1.1846L9.10075 1.09489L8.83599 1.03486L8.54406 0.98184ZM10.4032 5.30023C10.4032 4.27588 10.2002 3.29829 9.83244 2.40604C11.7623 3.28995 13.1032 5.23862 13.1032 7.50023C13.1032 10.593 10.596 13.1002 7.50322 13.1002C6.63646 13.1002 5.81597 12.9036 5.08355 12.5522C6.5419 12.0941 7.81081 11.2082 8.74322 10.0416C8.87963 10.2284 9.10028 10.3497 9.34928 10.3497C9.76349 10.3497 10.0993 10.0139 10.0993 9.59971C10.0993 9.24256 9.84965 8.94373 9.51535 8.86816C9.57741 8.75165 9.63653 8.63334 9.6926 8.51332C9.88358 8.63163 10.1088 8.69993 10.35 8.69993C11.0403 8.69993 11.6 8.14028 11.6 7.44993C11.6 6.75976 11.0406 6.20024 10.3505 6.19993C10.3853 5.90487 10.4032 5.60464 10.4032 5.30023Z"
        fill="currentColor"
      ></path>
    </symbol>
    <symbol viewBox="0 0 24 24" fill="currentColor" id="merge-cells-horizontal">
      <path
        d="M20 3C20.5523 3 21 3.44772 21 4V20C21 20.5523 20.5523 21 20 21H4C3.44772 21 3 20.5523 3 20V4C3 3.44772 3.44772 3 4 3H20ZM11 5H5V10.999H7V9L10 12L7 15V13H5V19H11V17H13V19H19V13H17V15L14 12L17 9V10.999H19V5H13V7H11V5ZM13 13V15H11V13H13ZM13 9V11H11V9H13Z"
      ></path>
    </symbol>
    <symbol viewBox="0 0 15 15" fill="none" id="magnifying-glass">
      <path
        fill-rule="evenodd"
        clip-rule="evenodd"
        d="M10 6.5C10 8.433 8.433 10 6.5 10C4.567 10 3 8.433 3 6.5C3 4.567 4.567 3 6.5 3C8.433 3 10 4.567 10 6.5ZM9.30884 10.0159C8.53901 10.6318 7.56251 11 6.5 11C4.01472 11 2 8.98528 2 6.5C2 4.01472 4.01472 2 6.5 2C8.98528 2 11 4.01472 11 6.5C11 7.56251 10.6318 8.53901 10.0159 9.30884L12.8536 12.1464C13.0488 12.3417 13.0488 12.6583 12.8536 12.8536C12.6583 13.0488 12.3417 13.0488 12.1464 12.8536L9.30884 10.0159Z"
        fill="currentColor"
      ></path>
    </symbol>
    <symbol viewBox="0 0 18 18" id="logout">
      <path
        id="ic_power_settings_new_24px"
        d="M13,3H11V13h2Zm4.83,2.17L16.41,6.59A6.92,6.92,0,0,1,19,12,7,7,0,1,1,7.58,6.58L6.17,5.17A8.992,8.992,0,1,0,21,12,8.932,8.932,0,0,0,17.83,5.17Z"
        transform="translate(-3 -3)"
        fill="currentColor"
      ></path>
    </symbol>
    <symbol viewBox="0 0 51 38" id="login">
      <g id="Group_415" data-name="Group 415" transform="translate(-76 -307)">
        <rect
          id="Rectangle_1615"
          data-name="Rectangle 1615"
          width="51"
          height="38"
          transform="translate(76 307)"
          fill="currentColor"
          opacity="0.002"
        ></rect>
        <path
          id="Path_7"
          data-name="Path 7"
          d="M24.613,17.711a6.8,6.8,0,0,0,6.747-6.856,6.748,6.748,0,1,0-13.493,0A6.8,6.8,0,0,0,24.613,17.711ZM9.433,14.284V9.142H6.06v5.142H1v3.428H6.06v5.142H9.433V17.711h5.06V14.284Zm15.18,6.856c-4.5,0-13.493,2.3-13.493,6.856v3.428H38.107V28C38.107,23.436,29.117,21.139,24.613,21.139Z"
          transform="translate(81.85 308.289)"
          fill="currentColor"
        ></path>
      </g>
    </symbol>
    <symbol viewBox="0 0 26 26" fill="currentColor" id="login-2">
      <path
        d="M16.0397 5.66805L18.9916 8.61996L16.6511 10.9605L25.3585 10.9605L25.3585 15.1352L16.6511 15.1352L18.9916 17.4757L16.0397 20.4276L8.65993 13.0478L16.0397 5.66805Z"
        fill="currentColor"
      ></path>
      <path
        d="M8.65993 25.5717H0.310665L0.310661 0.523926L8.65993 0.523926V4.69856L4.48529 4.69856L4.4853 21.3971H8.65993V25.5717Z"
        fill="currentColor"
      ></path>
    </symbol>
    <symbol viewBox="0 0 15 15" fill="none" id="lock-open-1">
      <path
        fill-rule="evenodd"
        clip-rule="evenodd"
        d="M7.4986 0C6.3257 0 5.36107 0.38943 4.73753 1.19361C4.23745 1.83856 4 2.68242 4 3.63325H5C5 2.84313 5.19691 2.23312 5.5278 1.80636C5.91615 1.30552 6.55152 1 7.4986 1C8.35683 1 8.96336 1.26502 9.35846 1.68623C9.75793 2.11211 10 2.76044 10 3.63601V6H3C2.44772 6 2 6.44772 2 7V13C2 13.5523 2.44772 14 3 14H12C12.5523 14 13 13.5523 13 13V7C13 6.44771 12.5523 6 12 6H11V3.63601C11 2.58135 10.7065 1.66167 10.0878 1.0021C9.46477 0.337871 8.57061 0 7.4986 0ZM3 7H12V13H3V7Z"
        fill="currentColor"
      ></path>
    </symbol>
    <symbol viewBox="0 0 15 15" fill="none" id="lock-closed">
      <path
        fill-rule="evenodd"
        clip-rule="evenodd"
        d="M5 4.63601C5 3.76031 5.24219 3.1054 5.64323 2.67357C6.03934 2.24705 6.64582 1.9783 7.5014 1.9783C8.35745 1.9783 8.96306 2.24652 9.35823 2.67208C9.75838 3.10299 10 3.75708 10 4.63325V5.99999H5V4.63601ZM4 5.99999V4.63601C4 3.58148 4.29339 2.65754 4.91049 1.99307C5.53252 1.32329 6.42675 0.978302 7.5014 0.978302C8.57583 0.978302 9.46952 1.32233 10.091 1.99162C10.7076 2.65557 11 3.57896 11 4.63325V5.99999H12C12.5523 5.99999 13 6.44771 13 6.99999V13C13 13.5523 12.5523 14 12 14H3C2.44772 14 2 13.5523 2 13V6.99999C2 6.44771 2.44772 5.99999 3 5.99999H4ZM3 6.99999H12V13H3V6.99999Z"
        fill="currentColor"
      ></path>
    </symbol>
    <symbol viewBox="0 0 15 15" fill="none" id="list-bullet">
      <path
        fill-rule="evenodd"
        clip-rule="evenodd"
        d="M1.5 5.25C1.91421 5.25 2.25 4.91421 2.25 4.5C2.25 4.08579 1.91421 3.75 1.5 3.75C1.08579 3.75 0.75 4.08579 0.75 4.5C0.75 4.91421 1.08579 5.25 1.5 5.25ZM4 4.5C4 4.22386 4.22386 4 4.5 4H13.5C13.7761 4 14 4.22386 14 4.5C14 4.77614 13.7761 5 13.5 5H4.5C4.22386 5 4 4.77614 4 4.5ZM4.5 7C4.22386 7 4 7.22386 4 7.5C4 7.77614 4.22386 8 4.5 8H13.5C13.7761 8 14 7.77614 14 7.5C14 7.22386 13.7761 7 13.5 7H4.5ZM4.5 10C4.22386 10 4 10.2239 4 10.5C4 10.7761 4.22386 11 4.5 11H13.5C13.7761 11 14 10.7761 14 10.5C14 10.2239 13.7761 10 13.5 10H4.5ZM2.25 7.5C2.25 7.91421 1.91421 8.25 1.5 8.25C1.08579 8.25 0.75 7.91421 0.75 7.5C0.75 7.08579 1.08579 6.75 1.5 6.75C1.91421 6.75 2.25 7.08579 2.25 7.5ZM1.5 11.25C1.91421 11.25 2.25 10.9142 2.25 10.5C2.25 10.0858 1.91421 9.75 1.5 9.75C1.08579 9.75 0.75 10.0858 0.75 10.5C0.75 10.9142 1.08579 11.25 1.5 11.25Z"
        fill="currentColor"
      ></path>
    </symbol>
    <symbol viewBox="0 0 15 15" fill="none" id="link-2">
      <path
        fill-rule="evenodd"
        clip-rule="evenodd"
        d="M8.51194 3.00541C9.18829 2.54594 10.0435 2.53694 10.6788 2.95419C10.8231 3.04893 10.9771 3.1993 11.389 3.61119C11.8009 4.02307 11.9513 4.17714 12.046 4.32141C12.4633 4.95675 12.4543 5.81192 11.9948 6.48827C11.8899 6.64264 11.7276 6.80811 11.3006 7.23511L10.6819 7.85383C10.4867 8.04909 10.4867 8.36567 10.6819 8.56093C10.8772 8.7562 11.1938 8.7562 11.389 8.56093L12.0077 7.94221L12.0507 7.89929C12.4203 7.52976 12.6568 7.2933 12.822 7.0502C13.4972 6.05623 13.5321 4.76252 12.8819 3.77248C12.7233 3.53102 12.4922 3.30001 12.1408 2.94871L12.0961 2.90408L12.0515 2.85942C11.7002 2.508 11.4692 2.27689 11.2277 2.11832C10.2377 1.46813 8.94398 1.50299 7.95001 2.17822C7.70691 2.34336 7.47044 2.57991 7.1009 2.94955L7.058 2.99247L6.43928 3.61119C6.24401 3.80645 6.24401 4.12303 6.43928 4.31829C6.63454 4.51355 6.95112 4.51355 7.14638 4.31829L7.7651 3.69957C8.1921 3.27257 8.35757 3.11027 8.51194 3.00541ZM4.31796 7.14672C4.51322 6.95146 4.51322 6.63487 4.31796 6.43961C4.12269 6.24435 3.80611 6.24435 3.61085 6.43961L2.99213 7.05833L2.94922 7.10124C2.57957 7.47077 2.34303 7.70724 2.17788 7.95035C1.50265 8.94432 1.4678 10.238 2.11799 11.2281C2.27656 11.4695 2.50766 11.7005 2.8591 12.0518L2.90374 12.0965L2.94837 12.1411C3.29967 12.4925 3.53068 12.7237 3.77214 12.8822C4.76219 13.5324 6.05589 13.4976 7.04986 12.8223C7.29296 12.6572 7.52943 12.4206 7.89896 12.051L7.89897 12.051L7.94188 12.0081L8.5606 11.3894C8.75586 11.1941 8.75586 10.8775 8.5606 10.6823C8.36533 10.487 8.04875 10.487 7.85349 10.6823L7.23477 11.301C6.80777 11.728 6.6423 11.8903 6.48794 11.9951C5.81158 12.4546 4.95642 12.4636 4.32107 12.0464C4.17681 11.9516 4.02274 11.8012 3.61085 11.3894C3.19896 10.9775 3.0486 10.8234 2.95385 10.6791C2.53661 10.0438 2.54561 9.18863 3.00507 8.51227C3.10993 8.35791 3.27224 8.19244 3.69924 7.76544L4.31796 7.14672ZM9.62172 6.08558C9.81698 5.89032 9.81698 5.57373 9.62172 5.37847C9.42646 5.18321 9.10988 5.18321 8.91461 5.37847L5.37908 8.91401C5.18382 9.10927 5.18382 9.42585 5.37908 9.62111C5.57434 9.81637 5.89092 9.81637 6.08619 9.62111L9.62172 6.08558Z"
        fill="currentColor"
      ></path>
    </symbol>
    <symbol viewBox="0 0 15 15" fill="none" id="link-1">
      <path
        fill-rule="evenodd"
        clip-rule="evenodd"
        d="M4.62471 4.00001L4.56402 4.00001C4.04134 3.99993 3.70687 3.99988 3.4182 4.055C2.2379 4.28039 1.29846 5.17053 1.05815 6.33035C0.999538 6.61321 0.999604 6.93998 0.999703 7.43689L0.999711 7.50001L0.999703 7.56313C0.999604 8.06004 0.999538 8.38681 1.05815 8.66967C1.29846 9.8295 2.2379 10.7196 3.4182 10.945C3.70688 11.0001 4.04135 11.0001 4.56403 11L4.62471 11H5.49971C5.77585 11 5.99971 10.7762 5.99971 10.5C5.99971 10.2239 5.77585 10 5.49971 10H4.62471C4.02084 10 3.78907 9.99777 3.60577 9.96277C2.80262 9.8094 2.19157 9.21108 2.03735 8.46678C2.00233 8.29778 1.99971 8.08251 1.99971 7.50001C1.99971 6.91752 2.00233 6.70225 2.03735 6.53324C2.19157 5.78895 2.80262 5.19062 3.60577 5.03725C3.78907 5.00225 4.02084 5.00001 4.62471 5.00001H5.49971C5.77585 5.00001 5.99971 4.77615 5.99971 4.50001C5.99971 4.22387 5.77585 4.00001 5.49971 4.00001H4.62471ZM10.3747 5.00001C10.9786 5.00001 11.2104 5.00225 11.3937 5.03725C12.1968 5.19062 12.8079 5.78895 12.9621 6.53324C12.9971 6.70225 12.9997 6.91752 12.9997 7.50001C12.9997 8.08251 12.9971 8.29778 12.9621 8.46678C12.8079 9.21108 12.1968 9.8094 11.3937 9.96277C11.2104 9.99777 10.9786 10 10.3747 10H9.49971C9.22357 10 8.99971 10.2239 8.99971 10.5C8.99971 10.7762 9.22357 11 9.49971 11H10.3747L10.4354 11C10.9581 11.0001 11.2925 11.0001 11.5812 10.945C12.7615 10.7196 13.701 9.8295 13.9413 8.66967C13.9999 8.38681 13.9998 8.06005 13.9997 7.56314L13.9997 7.50001L13.9997 7.43688C13.9998 6.93998 13.9999 6.61321 13.9413 6.33035C13.701 5.17053 12.7615 4.28039 11.5812 4.055C11.2925 3.99988 10.9581 3.99993 10.4354 4.00001L10.3747 4.00001H9.49971C9.22357 4.00001 8.99971 4.22387 8.99971 4.50001C8.99971 4.77615 9.22357 5.00001 9.49971 5.00001H10.3747ZM5.00038 7C4.72424 7 4.50038 7.22386 4.50038 7.5C4.50038 7.77614 4.72424 8 5.00038 8H10.0004C10.2765 8 10.5004 7.77614 10.5004 7.5C10.5004 7.22386 10.2765 7 10.0004 7H5.00038Z"
        fill="currentColor"
      ></path>
    </symbol>
    <symbol viewBox="0 0 24 24" fill="currentColor" id="layout-row-fill">
      <path
        d="M19 12H5V19H19V12ZM4 3H20C20.5523 3 21 3.44772 21 4V20C21 20.5523 20.5523 21 20 21H4C3.44772 21 3 20.5523 3 20V4C3 3.44772 3.44772 3 4 3Z"
        fill="currentColor"
      ></path>
    </symbol>
    <symbol viewBox="0 0 24 24" fill="currentColor" id="layout-column-fill">
      <path
        d="M12 5V19H19V5H12ZM4 3H20C20.5523 3 21 3.44772 21 4V20C21 20.5523 20.5523 21 20 21H4C3.44772 21 3 20.5523 3 20V4C3 3.44772 3.44772 3 4 3Z"
        fill="currentColor"
      ></path>
    </symbol>
    <symbol viewBox="0 0 15 15" fill="none" id="laptop">
      <path
        fill-rule="evenodd"
        clip-rule="evenodd"
        d="M2 4.25C2 4.11193 2.11193 4 2.25 4H12.75C12.8881 4 13 4.11193 13 4.25V11.5H2V4.25ZM2.25 3C1.55964 3 1 3.55964 1 4.25V12H0V12.5C0 12.7761 0.223858 13 0.5 13H14.5C14.7761 13 15 12.7761 15 12.5V12H14V4.25C14 3.55964 13.4404 3 12.75 3H2.25Z"
        fill="currentColor"
      ></path>
    </symbol>
    <symbol viewBox="0 0 24 24" fill="currentColor" id="insert-row-top">
      <path
        d="M20 13C20.5523 13 21 13.4477 21 14V20C21 20.5523 20.5523 21 20 21H4C3.44772 21 3 20.5523 3 20V14C3 13.4477 3.44772 13 4 13H20ZM19 15H5V19H19V15ZM12 1C14.7614 1 17 3.23858 17 6C17 8.76142 14.7614 11 12 11C9.23858 11 7 8.76142 7 6C7 3.23858 9.23858 1 12 1ZM13 3H11V4.999L9 5V7L11 6.999V9H13V6.999L15 7V5L13 4.999V3Z"
        fill="currentColor"
      ></path>
    </symbol>
    <symbol viewBox="0 0 24 24" fill="currentColor" id="insert-row-bottom">
      <path
        d="M12 13C14.7614 13 17 15.2386 17 18C17 20.7614 14.7614 23 12 23C9.23858 23 7 20.7614 7 18C7 15.2386 9.23858 13 12 13ZM13 15H11V16.999L9 17V19L11 18.999V21H13V18.999L15 19V17L13 16.999V15ZM20 3C20.5523 3 21 3.44772 21 4V10C21 10.5523 20.5523 11 20 11H4C3.44772 11 3 10.5523 3 10V4C3 3.44772 3.44772 3 4 3H20ZM5 5V9H19V5H5Z"
        fill="currentColor"
      ></path>
    </symbol>
    <symbol viewBox="0 0 24 24" fill="currentColor" id="insert-column-right">
      <path
        d="M10 3C10.5523 3 11 3.44772 11 4V20C11 20.5523 10.5523 21 10 21H4C3.44772 21 3 20.5523 3 20V4C3 3.44772 3.44772 3 4 3H10ZM9 5H5V19H9V5ZM18 7C20.7614 7 23 9.23858 23 12C23 14.7614 20.7614 17 18 17C15.2386 17 13 14.7614 13 12C13 9.23858 15.2386 7 18 7ZM19 9H17V10.999L15 11V13L17 12.999V15H19V12.999L21 13V11L19 10.999V9Z"
        fill="currentColor"
      ></path>
    </symbol>
    <symbol viewBox="0 0 24 24" fill="currentColor" id="insert-column-left">
      <path
        d="M20 3C20.5523 3 21 3.44772 21 4V20C21 20.5523 20.5523 21 20 21H14C13.4477 21 13 20.5523 13 20V4C13 3.44772 13.4477 3 14 3H20ZM19 5H15V19H19V5ZM6 7C8.76142 7 11 9.23858 11 12C11 14.7614 8.76142 17 6 17C3.23858 17 1 14.7614 1 12C1 9.23858 3.23858 7 6 7ZM7 9H5V10.999L3 11V13L5 12.999V15H7V12.999L9 13V11L7 10.999V9Z"
        fill="currentColor"
      ></path>
    </symbol>
    <symbol viewBox="0 0 24 24" id="indent-increase">
      <path d="M0 0h24v24H0z" fill="none"></path>
      <path
        d="M3 21h18v-2H3v2zM3 8v8l4-4-4-4zm8 9h10v-2H11v2zM3 3v2h18V3H3zm8 6h10V7H11v2zm0 4h10v-2H11v2z"
        fill="currentColor"
      ></path>
    </symbol>
    <symbol viewBox="0 0 24 24" id="indent-decrease">
      <path d="M0 0h24v24H0z" fill="none"></path>
      <path
        d="M11 17h10v-2H11v2zm-8-5l4 4V8l-4 4zm0 9h18v-2H3v2zM3 3v2h18V3H3zm8 6h10V7H11v2zm0 4h10v-2H11v2z"
        fill="currentColor"
      ></path>
    </symbol>
    <symbol viewBox="0 0 24 24" fill="none" id="image-manager">
      <path
        d="M20 6H13L11 4H4C2.9 4 2 4.9 2 6V18C2 19.1 2.9 20 4 20H20C21.1 20 22 19.1 22 18V8C22 6.9 21.1 6 20 6ZM20 18H4V6H10.2L12.2 8H20V18ZM18 16L14.2 11H14L11.1 14.8L9 12.1L6 16H18ZM10 9.5C10 8.7 9.3 8 8.5 8C7.7 8 7 8.7 7 9.5C7 10.3 7.7 11 8.5 11C9.3 11 10 10.3 10 9.5Z"
        fill="currentColor"
      ></path>
    </symbol>
    <symbol viewBox="0 0 33.282 36.035" id="groups">
      <g transform="translate(0 0)">
        <rect
          width="32.471"
          height="36.035"
          transform="translate(0.405 0)"
          fill="none"
        ></rect>
        <g transform="translate(0 9.697)">
          <path
            d="M16.641,15.361a14.714,14.714,0,0,1,5.88,1.248,4.139,4.139,0,0,1,2.441,3.786v2.247H8.32V20.408a4.11,4.11,0,0,1,2.441-3.786A14.478,14.478,0,0,1,16.641,15.361Zm-11.094.347a2.773,2.773,0,1,0-2.773-2.773A2.782,2.782,0,0,0,5.547,15.707Zm1.567,1.525a9.683,9.683,0,0,0-1.567-.139,9.639,9.639,0,0,0-3.855.8A2.789,2.789,0,0,0,0,20.464v2.177H6.24V20.408A6.239,6.239,0,0,1,7.114,17.233Zm20.621-1.525a2.773,2.773,0,1,0-2.773-2.773A2.782,2.782,0,0,0,27.735,15.707Zm5.547,4.757A2.789,2.789,0,0,0,31.59,17.9a9.427,9.427,0,0,0-5.422-.666,6.239,6.239,0,0,1,.874,3.176v2.233h6.24ZM16.641,6a4.16,4.16,0,1,1-4.16,4.16A4.155,4.155,0,0,1,16.641,6Z"
            transform="translate(0 -6)"
            fill="currentColor"
          ></path>
        </g>
      </g>
    </symbol>
    <symbol viewBox="0 0 24 24" id="grid-on">
      <path d="M0 0h24v24H0z" fill="none"></path>
      <path
        d="M20 2H4c-1.1 0-2 .9-2 2v16c0 1.1.9 2 2 2h16c1.1 0 2-.9 2-2V4c0-1.1-.9-2-2-2zM8 20H4v-4h4v4zm0-6H4v-4h4v4zm0-6H4V4h4v4zm6 12h-4v-4h4v4zm0-6h-4v-4h4v4zm0-6h-4V4h4v4zm6 12h-4v-4h4v4zm0-6h-4v-4h4v4zm0-6h-4V4h4v4z"
        fill="currentColor"
      ></path>
    </symbol>
    <symbol viewBox="0 0 24 24" id="grid-off">
      <path d="M0 0h24v24H0z" fill="none"></path>
      <path
        d="M8 4v1.45l2 2V4h4v4h-3.45l2 2H14v1.45l2 2V10h4v4h-3.45l2 2H20v1.45l2 2V4c0-1.1-.9-2-2-2H4.55l2 2H8zm8 0h4v4h-4V4zM1.27 1.27L0 2.55l2 2V20c0 1.1.9 2 2 2h15.46l2 2 1.27-1.27L1.27 1.27zM10 12.55L11.45 14H10v-1.45zm-6-6L5.45 8H4V6.55zM8 20H4v-4h4v4zm0-6H4v-4h3.45l.55.55V14zm6 6h-4v-4h3.45l.55.54V20zm2 0v-1.46L17.46 20H16z"
        fill="currentColor"
      ></path>
    </symbol>
    <symbol viewBox="0 0 118 120" id="google-logo">
      <title>google_buttn</title>
      <desc>Created with Sketch.</desc>
      <defs></defs>
      <g
        id="Page-1"
        stroke="none"
        stroke-width="1"
        fill="none"
        fillRule="evenodd"
      >
        <g id="Artboard-1" transform="translate(-332.000000, -639.000000)">
          <g id="google_buttn" transform="translate(332.000000, 639.000000)">
            <g id="logo_googleg_48dp">
              <path
                d="M117.6,61.3636364 C117.6,57.1090909 117.218182,53.0181818 116.509091,49.0909091 L60,49.0909091 L60,72.3 L92.2909091,72.3 C90.9,79.8 86.6727273,86.1545455 80.3181818,90.4090909 L80.3181818,105.463636 L99.7090909,105.463636 C111.054545,95.0181818 117.6,79.6363636 117.6,61.3636364 L117.6,61.3636364 Z"
                id="Shape"
                fill="#4285F4"
              ></path>
              <path
                d="M60,120 C76.2,120 89.7818182,114.627273 99.7090909,105.463636 L80.3181818,90.4090909 C74.9454545,94.0090909 68.0727273,96.1363636 60,96.1363636 C44.3727273,96.1363636 31.1454545,85.5818182 26.4272727,71.4 L6.38181818,71.4 L6.38181818,86.9454545 C16.2545455,106.554545 36.5454545,120 60,120 L60,120 Z"
                id="Shape"
                fill="#34A853"
              ></path>
              <path
                d="M26.4272727,71.4 C25.2272727,67.8 24.5454545,63.9545455 24.5454545,60 C24.5454545,56.0454545 25.2272727,52.2 26.4272727,48.6 L26.4272727,33.0545455 L6.38181818,33.0545455 C2.31818182,41.1545455 0,50.3181818 0,60 C0,69.6818182 2.31818182,78.8454545 6.38181818,86.9454545 L26.4272727,71.4 L26.4272727,71.4 Z"
                id="Shape"
                fill="#FBBC05"
              ></path>
              <path
                d="M60,23.8636364 C68.8090909,23.8636364 76.7181818,26.8909091 82.9363636,32.8363636 L100.145455,15.6272727 C89.7545455,5.94545455 76.1727273,0 60,0 C36.5454545,0 16.2545455,13.4454545 6.38181818,33.0545455 L26.4272727,48.6 C31.1454545,34.4181818 44.3727273,23.8636364 60,23.8636364 L60,23.8636364 Z"
                id="Shape"
                fill="#EA4335"
              ></path>
              <path d="M0,0 L120,0 L120,120 L0,120 L0,0 Z" id="Shape"></path>
            </g>
          </g>
        </g>
      </g>
    </symbol>
    <symbol viewBox="0 0 15 15" fill="none" id="github-logo">
      <path
        fill-rule="evenodd"
        clip-rule="evenodd"
        d="M7.49933 0.25C3.49635 0.25 0.25 3.49593 0.25 7.50024C0.25 10.703 2.32715 13.4206 5.2081 14.3797C5.57084 14.446 5.70302 14.2222 5.70302 14.0299C5.70302 13.8576 5.69679 13.4019 5.69323 12.797C3.67661 13.235 3.25112 11.825 3.25112 11.825C2.92132 10.9874 2.44599 10.7644 2.44599 10.7644C1.78773 10.3149 2.49584 10.3238 2.49584 10.3238C3.22353 10.375 3.60629 11.0711 3.60629 11.0711C4.25298 12.1788 5.30335 11.8588 5.71638 11.6732C5.78225 11.205 5.96962 10.8854 6.17658 10.7043C4.56675 10.5209 2.87415 9.89918 2.87415 7.12104C2.87415 6.32925 3.15677 5.68257 3.62053 5.17563C3.54576 4.99226 3.29697 4.25521 3.69174 3.25691C3.69174 3.25691 4.30015 3.06196 5.68522 3.99973C6.26337 3.83906 6.8838 3.75895 7.50022 3.75583C8.1162 3.75895 8.73619 3.83906 9.31523 3.99973C10.6994 3.06196 11.3069 3.25691 11.3069 3.25691C11.7026 4.25521 11.4538 4.99226 11.3795 5.17563C11.8441 5.68257 12.1245 6.32925 12.1245 7.12104C12.1245 9.9063 10.4292 10.5192 8.81452 10.6985C9.07444 10.9224 9.30633 11.3648 9.30633 12.0413C9.30633 13.0102 9.29742 13.7922 9.29742 14.0299C9.29742 14.2239 9.42828 14.4496 9.79591 14.3788C12.6746 13.4179 14.75 10.7025 14.75 7.50024C14.75 3.49593 11.5036 0.25 7.49933 0.25Z"
        fill="currentColor"
      ></path>
    </symbol>
    <symbol
      enable-background="new 0 0 24 24"
      viewBox="0 0 24 24"
      id="format-color-text"
    >
      <path
        d="M 5.49 17 h 2.42 l 1.27 -3.58 h 5.65 L 16.09 17 h 2.42 L 13.25 3 h -2.5 L 5.49 17 z m 4.42 -5.61 l 2.03 -5.79 h 0.12 l 2.03 5.79 H 9.91 z"
        fill="currentColor"
      ></path>
    </symbol>
    <symbol
      enable-background="new 0 0 24 24"
      viewBox="0 0 24 24"
      id="format-color-fill"
    >
      <g>
        <rect fill="none" height="24" width="24"></rect>
      </g>
      <g>
        <path
          d="M16.56,8.94L7.62,0L6.21,1.41l2.38,2.38L3.44,8.94c-0.59,0.59-0.59,1.54,0,2.12l5.5,5.5C9.23,16.85,9.62,17,10,17 s0.77-0.15,1.06-0.44l5.5-5.5C17.15,10.48,17.15,9.53,16.56,8.94z M5.21,10L10,5.21L14.79,10H5.21z M19,11.5c0,0-2,2.17-2,3.5 c0,1.1,0.9,2,2,2s2-0.9,2-2C21,13.67,19,11.5,19,11.5z M2,20h20v4H2V20z"
          fill="currentColor"
        ></path>
      </g>
    </symbol>
    <symbol viewBox="0 0 24 24" id="format-clear">
      <path d="M0 0h24v24H0z" fill="none"></path>
      <path
        d="M3.27 5L2 6.27l6.97 6.97L6.5 19h3l1.57-3.66L16.73 21 18 19.73 3.55 5.27 3.27 5zM6 5v.18L8.82 8h2.4l-.72 1.68 2.1 2.1L14.21 8H20V5H6z"
        fill="currentColor"
      ></path>
    </symbol>
    <symbol viewBox="0 0 15 15" fill="none" id="font-size">
      <path
        fill-rule="evenodd"
        clip-rule="evenodd"
        d="M2.78233 2.21707C2.70732 2.14206 2.60557 2.09991 2.49949 2.09991C2.3934 2.09991 2.29166 2.14206 2.21664 2.21707L0.216645 4.21707C0.0604351 4.37328 0.0604351 4.62655 0.216645 4.78276C0.372855 4.93897 0.626121 4.93897 0.78233 4.78276L2.09949 3.4656L2.09949 11.5342L0.78233 10.2171C0.62612 10.0609 0.372854 10.0609 0.216645 10.2171C0.0604349 10.3733 0.0604349 10.6265 0.216645 10.7828L2.21664 12.7828C2.29166 12.8578 2.3934 12.8999 2.49949 12.8999C2.60557 12.8999 2.70731 12.8578 2.78233 12.7828L4.78233 10.7828C4.93854 10.6265 4.93854 10.3733 4.78233 10.2171C4.62612 10.0609 4.37285 10.0609 4.21664 10.2171L2.89949 11.5342L2.89949 3.4656L4.21664 4.78276C4.37285 4.93897 4.62612 4.93897 4.78233 4.78276C4.93854 4.62655 4.93854 4.37328 4.78233 4.21707L2.78233 2.21707ZM10.5 2.74997C10.7107 2.74997 10.8988 2.88211 10.9703 3.08036L13.9703 11.3999C14.064 11.6597 13.9293 11.9462 13.6696 12.0399C13.4098 12.1336 13.1233 11.9989 13.0296 11.7392L12.0477 9.016H8.95228L7.97033 11.7392C7.87666 11.9989 7.59013 12.1336 7.33036 12.0399C7.07059 11.9462 6.93595 11.6597 7.02962 11.3999L10.0296 3.08036C10.1011 2.88211 10.2892 2.74997 10.5 2.74997ZM10.5 4.72396L11.7412 8.166H9.25879L10.5 4.72396Z"
        fill="currentColor"
      ></path>
    </symbol>
    <symbol viewBox="0 0 15 15" fill="none" id="font-italic">
      <path
        fill-rule="evenodd"
        clip-rule="evenodd"
        d="M5.67494 3.50017C5.67494 3.25164 5.87641 3.05017 6.12494 3.05017H10.6249C10.8735 3.05017 11.0749 3.25164 11.0749 3.50017C11.0749 3.7487 10.8735 3.95017 10.6249 3.95017H9.00587L7.2309 11.05H8.87493C9.12345 11.05 9.32493 11.2515 9.32493 11.5C9.32493 11.7486 9.12345 11.95 8.87493 11.95H4.37493C4.1264 11.95 3.92493 11.7486 3.92493 11.5C3.92493 11.2515 4.1264 11.05 4.37493 11.05H5.99397L7.76894 3.95017H6.12494C5.87641 3.95017 5.67494 3.7487 5.67494 3.50017Z"
        fill="currentColor"
      ></path>
    </symbol>
    <symbol viewBox="0 0 15 15" fill="none" id="font-bold">
      <path
        d="M5.10505 12C4.70805 12 4.4236 11.912 4.25171 11.736C4.0839 11.5559 4 11.2715 4 10.8827V4.11733C4 3.72033 4.08595 3.43588 4.25784 3.26398C4.43383 3.08799 4.71623 3 5.10505 3C6.42741 3 8.25591 3 9.02852 3C10.1373 3 11.0539 3.98153 11.0539 5.1846C11.0539 6.08501 10.6037 6.81855 9.70327 7.23602C10.8657 7.44851 11.5176 8.62787 11.5176 9.48128C11.5176 10.5125 10.9902 12 9.27734 12C8.77742 12 6.42626 12 5.10505 12ZM8.37891 8.00341H5.8V10.631H8.37891C8.9 10.631 9.6296 10.1211 9.6296 9.29877C9.6296 8.47643 8.9 8.00341 8.37891 8.00341ZM5.8 4.36903V6.69577H8.17969C8.53906 6.69577 9.27734 6.35939 9.27734 5.50002C9.27734 4.64064 8.48047 4.36903 8.17969 4.36903H5.8Z"
        fill="currentColor"
      ></path>
    </symbol>
    <symbol viewBox="0 0 15 15" fill="none" id="file-text">
      <path
        fill-rule="evenodd"
        clip-rule="evenodd"
        d="M3 2.5C3 2.22386 3.22386 2 3.5 2H9.08579C9.21839 2 9.34557 2.05268 9.43934 2.14645L11.8536 4.56066C11.9473 4.65443 12 4.78161 12 4.91421V12.5C12 12.7761 11.7761 13 11.5 13H3.5C3.22386 13 3 12.7761 3 12.5V2.5ZM3.5 1C2.67157 1 2 1.67157 2 2.5V12.5C2 13.3284 2.67157 14 3.5 14H11.5C12.3284 14 13 13.3284 13 12.5V4.91421C13 4.51639 12.842 4.13486 12.5607 3.85355L10.1464 1.43934C9.86514 1.15804 9.48361 1 9.08579 1H3.5ZM4.5 4C4.22386 4 4 4.22386 4 4.5C4 4.77614 4.22386 5 4.5 5H7.5C7.77614 5 8 4.77614 8 4.5C8 4.22386 7.77614 4 7.5 4H4.5ZM4.5 7C4.22386 7 4 7.22386 4 7.5C4 7.77614 4.22386 8 4.5 8H10.5C10.7761 8 11 7.77614 11 7.5C11 7.22386 10.7761 7 10.5 7H4.5ZM4.5 10C4.22386 10 4 10.2239 4 10.5C4 10.7761 4.22386 11 4.5 11H10.5C10.7761 11 11 10.7761 11 10.5C11 10.2239 10.7761 10 10.5 10H4.5Z"
        fill="currentColor"
      ></path>
    </symbol>
    <symbol viewBox="0 0 120 120" id="facebook-logo">
      <title>facebook_buttn</title>
      <desc>Created with Sketch.</desc>
      <defs></defs>
      <g
        id="Page-1"
        stroke="none"
        stroke-width="1"
        fill="none"
        fillRule="evenodd"
      >
        <g id="Artboard-1" transform="translate(-332.000000, -456.000000)">
          <g id="facebook_buttn" transform="translate(332.000000, 456.000000)">
            <path d="M0,0 L120,0 L120,120 L0,120 L0,0 Z" id="Shape"></path>
            <path
              d="M113.377146,0 L6.62285402,0 C2.96477253,0 0,2.96432291 0,6.62285402 L0,113.377146 C0,117.034778 2.96477253,120 6.62285402,120 L64.0955585,120 L64.0955585,73.5298658 L48.45744,73.5298658 L48.45744,55.419305 L64.0955585,55.419305 L64.0955585,42.0634409 C64.0955585,26.5638044 73.5622382,18.1240492 87.388851,18.1240492 C94.011705,18.1240492 99.7043021,18.6172788 101.362938,18.837591 L101.362938,35.0354823 L91.7735131,35.0399784 C84.2536737,35.0399784 82.7978149,38.6130823 82.7978149,43.8565123 L82.7978149,55.419305 L100.731676,55.419305 L98.3963671,73.5298658 L82.7978149,73.5298658 L82.7978149,120 L113.377146,120 C117.034778,120 120,117.034778 120,113.377146 L120,6.62285402 C120,2.96432291 117.034778,0 113.377146,0"
              id="Imported-Layers-Copy"
              fill="#FFFFFF"
            ></path>
          </g>
        </g>
      </g>
    </symbol>
    <symbol viewBox="0 0 15 15" fill="none" id="eye-open">
      <path
        fill-rule="evenodd"
        clip-rule="evenodd"
        d="M7.5 11C4.80285 11 2.52952 9.62184 1.09622 7.50001C2.52952 5.37816 4.80285 4 7.5 4C10.1971 4 12.4705 5.37816 13.9038 7.50001C12.4705 9.62183 10.1971 11 7.5 11ZM7.5 3C4.30786 3 1.65639 4.70638 0.0760002 7.23501C-0.0253338 7.39715 -0.0253334 7.60288 0.0760014 7.76501C1.65639 10.2936 4.30786 12 7.5 12C10.6921 12 13.3436 10.2936 14.924 7.76501C15.0253 7.60288 15.0253 7.39715 14.924 7.23501C13.3436 4.70638 10.6921 3 7.5 3ZM7.5 9.5C8.60457 9.5 9.5 8.60457 9.5 7.5C9.5 6.39543 8.60457 5.5 7.5 5.5C6.39543 5.5 5.5 6.39543 5.5 7.5C5.5 8.60457 6.39543 9.5 7.5 9.5Z"
        fill="currentColor"
      ></path>
    </symbol>
    <symbol viewBox="0 0 15 15" fill="none" id="eye-none">
      <path
        fill-rule="evenodd"
        clip-rule="evenodd"
        d="M13.3536 2.35355C13.5488 2.15829 13.5488 1.84171 13.3536 1.64645C13.1583 1.45118 12.8417 1.45118 12.6464 1.64645L10.6828 3.61012C9.70652 3.21671 8.63759 3 7.5 3C4.30786 3 1.65639 4.70638 0.0760002 7.23501C-0.0253338 7.39715 -0.0253334 7.60288 0.0760014 7.76501C0.902945 9.08812 2.02314 10.1861 3.36061 10.9323L1.64645 12.6464C1.45118 12.8417 1.45118 13.1583 1.64645 13.3536C1.84171 13.5488 2.15829 13.5488 2.35355 13.3536L4.31723 11.3899C5.29348 11.7833 6.36241 12 7.5 12C10.6921 12 13.3436 10.2936 14.924 7.76501C15.0253 7.60288 15.0253 7.39715 14.924 7.23501C14.0971 5.9119 12.9769 4.81391 11.6394 4.06771L13.3536 2.35355ZM9.90428 4.38861C9.15332 4.1361 8.34759 4 7.5 4C4.80285 4 2.52952 5.37816 1.09622 7.50001C1.87284 8.6497 2.89609 9.58106 4.09974 10.1931L9.90428 4.38861ZM5.09572 10.6114L10.9003 4.80685C12.1039 5.41894 13.1272 6.35031 13.9038 7.50001C12.4705 9.62183 10.1971 11 7.5 11C6.65241 11 5.84668 10.8639 5.09572 10.6114Z"
        fill="currentColor"
      ></path>
    </symbol>
    <symbol viewBox="0 0 15 15" fill="none" id="exit">
      <path
        fill-rule="evenodd"
        clip-rule="evenodd"
        d="M3 1C2.44771 1 2 1.44772 2 2V13C2 13.5523 2.44772 14 3 14H10.5C10.7761 14 11 13.7761 11 13.5C11 13.2239 10.7761 13 10.5 13H3V2L10.5 2C10.7761 2 11 1.77614 11 1.5C11 1.22386 10.7761 1 10.5 1H3ZM12.6036 4.89645C12.4083 4.70118 12.0917 4.70118 11.8964 4.89645C11.7012 5.09171 11.7012 5.40829 11.8964 5.60355L13.2929 7H6.5C6.22386 7 6 7.22386 6 7.5C6 7.77614 6.22386 8 6.5 8H13.2929L11.8964 9.39645C11.7012 9.59171 11.7012 9.90829 11.8964 10.1036C12.0917 10.2988 12.4083 10.2988 12.6036 10.1036L14.8536 7.85355C15.0488 7.65829 15.0488 7.34171 14.8536 7.14645L12.6036 4.89645Z"
        fill="currentColor"
      ></path>
    </symbol>
    <symbol viewBox="0 0 15 15" fill="none" id="envelope-closed">
      <path
        fill-rule="evenodd"
        clip-rule="evenodd"
        d="M1 2C0.447715 2 0 2.44772 0 3V12C0 12.5523 0.447715 13 1 13H14C14.5523 13 15 12.5523 15 12V3C15 2.44772 14.5523 2 14 2H1ZM1 3L14 3V3.92494C13.9174 3.92486 13.8338 3.94751 13.7589 3.99505L7.5 7.96703L1.24112 3.99505C1.16621 3.94751 1.0826 3.92486 1 3.92494V3ZM1 4.90797V12H14V4.90797L7.74112 8.87995C7.59394 8.97335 7.40606 8.97335 7.25888 8.87995L1 4.90797Z"
        fill="currentColor"
      ></path>
    </symbol>
    <symbol viewBox="0 0 15 15" fill="none" id="download">
      <path
        fill-rule="evenodd"
        clip-rule="evenodd"
        d="M7.50005 1.04999C7.74858 1.04999 7.95005 1.25146 7.95005 1.49999V8.41359L10.1819 6.18179C10.3576 6.00605 10.6425 6.00605 10.8182 6.18179C10.994 6.35753 10.994 6.64245 10.8182 6.81819L7.81825 9.81819C7.64251 9.99392 7.35759 9.99392 7.18185 9.81819L4.18185 6.81819C4.00611 6.64245 4.00611 6.35753 4.18185 6.18179C4.35759 6.00605 4.64251 6.00605 4.81825 6.18179L7.05005 8.41359V1.49999C7.05005 1.25146 7.25152 1.04999 7.50005 1.04999ZM2.5 10C2.77614 10 3 10.2239 3 10.5V12C3 12.5539 3.44565 13 3.99635 13H11.0012C11.5529 13 12 12.5528 12 12V10.5C12 10.2239 12.2239 10 12.5 10C12.7761 10 13 10.2239 13 10.5V12C13 13.1041 12.1062 14 11.0012 14H3.99635C2.89019 14 2 13.103 2 12V10.5C2 10.2239 2.22386 10 2.5 10Z"
        fill="currentColor"
      ></path>
    </symbol>
    <symbol id="dots" data-name="Group 199" viewBox="0 0 13.523 3.265">
      <circle
        id="Ellipse_49"
        data-name="Ellipse 49"
        cx="1.632"
        cy="1.632"
        r="1.632"
        transform="translate(3.264) rotate(90)"
        fill="#949494"
      ></circle>
      <circle
        id="Ellipse_50"
        data-name="Ellipse 50"
        cx="1.632"
        cy="1.632"
        r="1.632"
        transform="translate(8.394) rotate(90)"
        fill="#949494"
      ></circle>
      <circle
        id="Ellipse_51"
        data-name="Ellipse 51"
        cx="1.632"
        cy="1.632"
        r="1.632"
        transform="translate(13.523) rotate(90)"
        fill="#949494"
      ></circle>
    </symbol>
    <symbol viewBox="0 0 15 15" fill="none" id="dots-horizontal">
      <path
        fill-rule="evenodd"
        clip-rule="evenodd"
        d="M3.625 7.5C3.625 8.12132 3.12132 8.625 2.5 8.625C1.87868 8.625 1.375 8.12132 1.375 7.5C1.375 6.87868 1.87868 6.375 2.5 6.375C3.12132 6.375 3.625 6.87868 3.625 7.5ZM8.625 7.5C8.625 8.12132 8.12132 8.625 7.5 8.625C6.87868 8.625 6.375 8.12132 6.375 7.5C6.375 6.87868 6.87868 6.375 7.5 6.375C8.12132 6.375 8.625 6.87868 8.625 7.5ZM12.5 8.625C13.1213 8.625 13.625 8.12132 13.625 7.5C13.625 6.87868 13.1213 6.375 12.5 6.375C11.8787 6.375 11.375 6.87868 11.375 7.5C11.375 8.12132 11.8787 8.625 12.5 8.625Z"
        fill="currentColor"
      ></path>
    </symbol>
    <symbol viewBox="0 0 15 15" fill="none" id="divider-horizontal">
      <path
        fill-rule="evenodd"
        clip-rule="evenodd"
        d="M2 7.5C2 7.22386 2.22386 7 2.5 7H12.5C12.7761 7 13 7.22386 13 7.5C13 7.77614 12.7761 8 12.5 8H2.5C2.22386 8 2 7.77614 2 7.5Z"
        fill="currentColor"
      ></path>
    </symbol>
    <symbol viewBox="0 0 24 24" fill="currentColor" id="delete-row">
      <path
        d="M20 5C20.5523 5 21 5.44772 21 6V12C21 12.5523 20.5523 13 20 13C20.628 13.8355 21 14.8743 21 16C21 18.7614 18.7614 21 16 21C13.2386 21 11 18.7614 11 16C11 14.8743 11.372 13.8355 11.9998 12.9998L4 13C3.44772 13 3 12.5523 3 12V6C3 5.44772 3.44772 5 4 5H20ZM13 15V17H19V15H13ZM19 7H5V11H19V7Z"
        fill="currentColor"
      ></path>
    </symbol>
    <symbol viewBox="0 0 24 24" fill="currentColor" id="delete-column">
      <path
        d="M12 3C12.5523 3 13 3.44772 13 4L12.9998 11.9998C13.8355 11.372 14.8743 11 16 11C18.7614 11 21 13.2386 21 16C21 18.7614 18.7614 21 16 21C14.9681 21 14.0092 20.6874 13.2129 20.1518L13 20C13 20.5523 12.5523 21 12 21H6C5.44772 21 5 20.5523 5 20V4C5 3.44772 5.44772 3 6 3H12ZM11 5H7V19H11V5ZM19 15H13V17H19V15Z"
        fill="currentColor"
      ></path>
    </symbol>
    <symbol
      fill="none"
      stroke="currentColor"
      stroke-linecap="round"
      stroke-linejoin="round"
      stroke-width="2"
      viewBox="0 0 24 24"
      id="curly-braces"
    >
      <path
        d="M10 4H9a2 2 0 0 0-2 2v2.93a2 2 0 0 1-.89 1.664L4 12m6 8H9a2 2 0 0 1-2-2v-2.93a2 2 0 0 0-.89-1.664L4 12m10-8h1a2 2 0 0 1 2 2v2.93a2 2 0 0 0 .89 1.664L20 12m-6 8h1a2 2 0 0 0 2-2v-2.93a2 2 0 0 1 .89-1.664L20 12"
      ></path>
    </symbol>
    <symbol viewBox="0 0 15 15" fill="none" id="cross-2">
      <path
        fill-rule="evenodd"
        clip-rule="evenodd"
        d="M11.7816 4.03157C12.0062 3.80702 12.0062 3.44295 11.7816 3.2184C11.5571 2.99385 11.193 2.99385 10.9685 3.2184L7.50005 6.68682L4.03164 3.2184C3.80708 2.99385 3.44301 2.99385 3.21846 3.2184C2.99391 3.44295 2.99391 3.80702 3.21846 4.03157L6.68688 7.49999L3.21846 10.9684C2.99391 11.193 2.99391 11.557 3.21846 11.7816C3.44301 12.0061 3.80708 12.0061 4.03164 11.7816L7.50005 8.31316L10.9685 11.7816C11.193 12.0061 11.5571 12.0061 11.7816 11.7816C12.0062 11.557 12.0062 11.193 11.7816 10.9684L8.31322 7.49999L11.7816 4.03157Z"
        fill="currentColor"
      ></path>
    </symbol>
    <symbol viewBox="0 0 15 15" fill="none" id="cross-1">
      <path
        fill-rule="evenodd"
        clip-rule="evenodd"
        d="M12.8536 2.85355C13.0488 2.65829 13.0488 2.34171 12.8536 2.14645C12.6583 1.95118 12.3417 1.95118 12.1464 2.14645L7.5 6.79289L2.85355 2.14645C2.65829 1.95118 2.34171 1.95118 2.14645 2.14645C1.95118 2.34171 1.95118 2.65829 2.14645 2.85355L6.79289 7.5L2.14645 12.1464C1.95118 12.3417 1.95118 12.6583 2.14645 12.8536C2.34171 13.0488 2.65829 13.0488 2.85355 12.8536L7.5 8.20711L12.1464 12.8536C12.3417 13.0488 12.6583 13.0488 12.8536 12.8536C13.0488 12.6583 13.0488 12.3417 12.8536 12.1464L8.20711 7.5L12.8536 2.85355Z"
        fill="currentColor"
      ></path>
    </symbol>
    <symbol viewBox="0 0 24 24" fill="none" id="cogs">
      <path
        d="M18.877 12.907C18.9623 12.3054 18.9623 11.6947 18.877 11.093L20.829 9.56702C20.9145 9.49715 20.9725 9.39931 20.9928 9.2908C21.0131 9.18228 20.9944 9.07008 20.94 8.97402L19.089 5.77402C19.048 5.7027 18.9886 5.64366 18.917 5.60304C18.8454 5.56242 18.7643 5.5417 18.682 5.54302C18.6284 5.54227 18.5751 5.55177 18.525 5.57102L16.225 6.49602C15.747 6.12505 15.2213 5.81999 14.662 5.58902L14.31 3.13702C14.2947 3.02829 14.2402 2.92888 14.1568 2.85745C14.0734 2.78601 13.9668 2.74746 13.857 2.74902H10.157C10.047 2.74722 9.9402 2.78566 9.85659 2.85711C9.77298 2.92857 9.71836 3.02811 9.70301 3.13702L9.34701 5.58802C8.78878 5.82381 8.26315 6.13032 7.78301 6.50002L5.48301 5.57502C5.42962 5.55652 5.37352 5.54706 5.31701 5.54702C5.23583 5.54653 5.15598 5.56767 5.08568 5.60827C5.01538 5.64887 4.95716 5.70746 4.91701 5.77802L3.06601 8.97802C3.00933 9.07348 2.98933 9.18631 3.00976 9.29544C3.03018 9.40457 3.08964 9.50253 3.17701 9.57102L5.12901 11.097C5.08847 11.3964 5.06643 11.698 5.06301 12C5.0656 12.3034 5.08698 12.6063 5.12701 12.907L3.17501 14.433C3.08954 14.5029 3.03152 14.6007 3.01121 14.7093C2.9909 14.8178 3.0096 14.93 3.06401 15.026L4.91501 18.226C4.95606 18.2973 5.01545 18.3564 5.08702 18.397C5.15859 18.4376 5.23973 18.4584 5.32201 18.457C5.37565 18.4578 5.42894 18.4483 5.47901 18.429L7.77901 17.504C8.25725 17.8752 8.78331 18.1803 9.34301 18.411L9.70001 20.864C9.71536 20.9729 9.76998 21.0725 9.85359 21.1439C9.9372 21.2154 10.044 21.2538 10.154 21.252H13.854C13.9638 21.2536 14.0704 21.215 14.1538 21.1436C14.2372 21.0722 14.2917 20.9728 14.307 20.864L14.659 18.412C15.2166 18.1776 15.7418 17.8728 16.222 17.505L18.522 18.43C18.5757 18.4485 18.6322 18.458 18.689 18.458C18.7702 18.4585 18.85 18.4374 18.9203 18.3968C18.9906 18.3562 19.0489 18.2976 19.089 18.227L20.94 15.027C20.9944 14.931 21.0131 14.8188 20.9928 14.7102C20.9725 14.6017 20.9145 14.5039 20.829 14.434L18.877 12.907ZM18.787 14.936L17.933 16.412L15.816 15.56L15.143 16.068C14.7847 16.3418 14.3937 16.5699 13.979 16.747L13.184 17.07L12.854 19.339H11.154L10.834 17.07L10.041 16.748C9.63251 16.5762 9.24716 16.3538 8.89401 16.086L8.20001 15.56L6.06701 16.42L5.21301 14.945L7.01901 13.534L6.91901 12.687C6.89101 12.395 6.87301 12.187 6.87301 12C6.87301 11.813 6.89101 11.6 6.91801 11.328L7.02401 10.474L5.21701 9.06402L6.07101 7.58902L8.18801 8.44002L8.86101 7.93202C9.21929 7.6582 9.6103 7.43011 10.025 7.25302L10.825 6.93002L11.156 4.66102H12.856L13.177 6.93002L13.969 7.25202C14.3778 7.42348 14.7635 7.64555 15.117 7.91302L15.801 8.43902L17.934 7.58002L18.787 9.05302L16.987 10.474L17.087 11.321C17.1177 11.546 17.1331 11.7729 17.133 12C17.133 12.193 17.115 12.4 17.088 12.672L16.982 13.525L18.787 14.936ZM12 14.544C11.4969 14.5436 11.0053 14.3941 10.5872 14.1143C10.1691 13.8345 9.84333 13.4371 9.65109 12.9722C9.45885 12.5073 9.40875 11.9958 9.50714 11.5025C9.60553 11.0091 9.84798 10.556 10.2038 10.2004C10.5597 9.84485 11.013 9.60276 11.5064 9.50476C11.9999 9.40676 12.5113 9.45726 12.976 9.64987C13.4408 9.84247 13.838 10.1685 14.1174 10.5869C14.3969 11.0052 14.546 11.497 14.546 12C14.5439 12.6744 14.2749 13.3206 13.7979 13.7973C13.3208 14.274 12.6744 14.5424 12 14.544V14.544Z"
        fill="currentColor"
      ></path>
    </symbol>
    <symbol viewBox="0 0 15 15" fill="none" id="code">
      <path
        fill-rule="evenodd"
        clip-rule="evenodd"
        d="M9.96424 2.68571C10.0668 2.42931 9.94209 2.13833 9.6857 2.03577C9.4293 1.93322 9.13832 2.05792 9.03576 2.31432L5.03576 12.3143C4.9332 12.5707 5.05791 12.8617 5.3143 12.9642C5.5707 13.0668 5.86168 12.9421 5.96424 12.6857L9.96424 2.68571ZM3.85355 5.14646C4.04882 5.34172 4.04882 5.6583 3.85355 5.85356L2.20711 7.50001L3.85355 9.14646C4.04882 9.34172 4.04882 9.6583 3.85355 9.85356C3.65829 10.0488 3.34171 10.0488 3.14645 9.85356L1.14645 7.85356C0.951184 7.6583 0.951184 7.34172 1.14645 7.14646L3.14645 5.14646C3.34171 4.9512 3.65829 4.9512 3.85355 5.14646ZM11.1464 5.14646C11.3417 4.9512 11.6583 4.9512 11.8536 5.14646L13.8536 7.14646C14.0488 7.34172 14.0488 7.6583 13.8536 7.85356L11.8536 9.85356C11.6583 10.0488 11.3417 10.0488 11.1464 9.85356C10.9512 9.6583 10.9512 9.34172 11.1464 9.14646L12.7929 7.50001L11.1464 5.85356C10.9512 5.6583 10.9512 5.34172 11.1464 5.14646Z"
        fill="currentColor"
      ></path>
    </symbol>
    <symbol viewBox="0 0 15 15" fill="none" id="clock">
      <path
        fill-rule="evenodd"
        clip-rule="evenodd"
        d="M7.50009 0.877014C3.84241 0.877014 0.877258 3.84216 0.877258 7.49984C0.877258 11.1575 3.8424 14.1227 7.50009 14.1227C11.1578 14.1227 14.1229 11.1575 14.1229 7.49984C14.1229 3.84216 11.1577 0.877014 7.50009 0.877014ZM1.82726 7.49984C1.82726 4.36683 4.36708 1.82701 7.50009 1.82701C10.6331 1.82701 13.1729 4.36683 13.1729 7.49984C13.1729 10.6328 10.6331 13.1727 7.50009 13.1727C4.36708 13.1727 1.82726 10.6328 1.82726 7.49984ZM8 4.50001C8 4.22387 7.77614 4.00001 7.5 4.00001C7.22386 4.00001 7 4.22387 7 4.50001V7.50001C7 7.63262 7.05268 7.7598 7.14645 7.85357L9.14645 9.85357C9.34171 10.0488 9.65829 10.0488 9.85355 9.85357C10.0488 9.65831 10.0488 9.34172 9.85355 9.14646L8 7.29291V4.50001Z"
        fill="currentColor"
      ></path>
    </symbol>
    <symbol viewBox="0 0 15 15" fill="none" id="chevron-up">
      <path
        fill-rule="evenodd"
        clip-rule="evenodd"
        d="M3.13523 8.84197C3.3241 9.04343 3.64052 9.05363 3.84197 8.86477L7.5 5.43536L11.158 8.86477C11.3595 9.05363 11.6759 9.04343 11.8648 8.84197C12.0536 8.64051 12.0434 8.32409 11.842 8.13523L7.84197 4.38523C7.64964 4.20492 7.35036 4.20492 7.15803 4.38523L3.15803 8.13523C2.95657 8.32409 2.94637 8.64051 3.13523 8.84197Z"
        fill="currentColor"
      ></path>
    </symbol>
    <symbol viewBox="0 0 15 15" fill="none" id="chevron-left">
      <path
        fill-rule="evenodd"
        clip-rule="evenodd"
        d="M8.84182 3.13514C9.04327 3.32401 9.05348 3.64042 8.86462 3.84188L5.43521 7.49991L8.86462 11.1579C9.05348 11.3594 9.04327 11.6758 8.84182 11.8647C8.64036 12.0535 8.32394 12.0433 8.13508 11.8419L4.38508 7.84188C4.20477 7.64955 4.20477 7.35027 4.38508 7.15794L8.13508 3.15794C8.32394 2.95648 8.64036 2.94628 8.84182 3.13514Z"
        fill="currentColor"
      ></path>
    </symbol>
    <symbol viewBox="0 0 15 15" fill="none" id="chevron-down">
      <path
        fill-rule="evenodd"
        clip-rule="evenodd"
        d="M3.13523 6.15803C3.3241 5.95657 3.64052 5.94637 3.84197 6.13523L7.5 9.56464L11.158 6.13523C11.3595 5.94637 11.6759 5.95657 11.8648 6.15803C12.0536 6.35949 12.0434 6.67591 11.842 6.86477L7.84197 10.6148C7.64964 10.7951 7.35036 10.7951 7.15803 10.6148L3.15803 6.86477C2.95657 6.67591 2.94637 6.35949 3.13523 6.15803Z"
        fill="currentColor"
      ></path>
    </symbol>
    <symbol viewBox="0 0 43 43" id="checked">
      <g id="Group_420" data-name="Group 420" transform="translate(-445 -839)">
        <circle
          id="Ellipse_12"
          data-name="Ellipse 12"
          cx="21.5"
          cy="21.5"
          r="21.5"
          transform="translate(445 839)"
          fill="#fdd261"
        ></circle>
        <g id="check_black_24dp" transform="translate(450.401 844.402)">
          <path
            id="Path_224"
            data-name="Path 224"
            d="M0,0H33.2V33.2H0Z"
            fill="none"
          ></path>
          <path
            id="Path_225"
            data-name="Path 225"
            d="M11.923,23.426,5.572,16.4,3.41,18.773,11.923,28.2,30.2,7.967,28.05,5.59Z"
            fill="#fff"
          ></path>
        </g>
      </g>
    </symbol>
    <symbol viewBox="0 0 15 15" fill="none" id="check">
      <path
        fill-rule="evenodd"
        clip-rule="evenodd"
        d="M11.4669 3.72684C11.7558 3.91574 11.8369 4.30308 11.648 4.59198L7.39799 11.092C7.29783 11.2452 7.13556 11.3467 6.95402 11.3699C6.77247 11.3931 6.58989 11.3355 6.45446 11.2124L3.70446 8.71241C3.44905 8.48022 3.43023 8.08494 3.66242 7.82953C3.89461 7.57412 4.28989 7.55529 4.5453 7.78749L6.75292 9.79441L10.6018 3.90792C10.7907 3.61902 11.178 3.53795 11.4669 3.72684Z"
        fill="currentColor"
      ></path>
    </symbol>
    <symbol
      enable-background="new 0 0 24 24"
      viewBox="0 0 24 24"
      id="check-list"
    >
      <rect fill="none" height="24" width="24"></rect>
      <path
        d="M22,7h-9v2h9V7z M22,15h-9v2h9V15z M5.54,11L2,7.46l1.41-1.41l2.12,2.12l4.24-4.24l1.41,1.41L5.54,11z M5.54,19L2,15.46 l1.41-1.41l2.12,2.12l4.24-4.24l1.41,1.41L5.54,19z"
        fill="currentColor"
      ></path>
    </symbol>
    <symbol viewBox="0 0 24.468 24.468" id="cancel">
      <path
        id="Path_1123"
        data-name="Path 1123"
        d="M14.234,2A12.234,12.234,0,1,0,26.468,14.234,12.223,12.223,0,0,0,14.234,2Zm6.117,16.626-1.725,1.725-4.392-4.392L9.842,20.351,8.117,18.626l4.392-4.392L8.117,9.842,9.842,8.117l4.392,4.392,4.392-4.392,1.725,1.725-4.392,4.392Z"
        transform="translate(-2 -2)"
        fill="currentColor"
      ></path>
    </symbol>
    <symbol viewBox="0 0 15 15" fill="none" id="camera">
      <path
        fill-rule="evenodd"
        clip-rule="evenodd"
        d="M2 3C1.44772 3 1 3.44772 1 4V11C1 11.5523 1.44772 12 2 12H13C13.5523 12 14 11.5523 14 11V4C14 3.44772 13.5523 3 13 3H2ZM0 4C0 2.89543 0.895431 2 2 2H13C14.1046 2 15 2.89543 15 4V11C15 12.1046 14.1046 13 13 13H2C0.895431 13 0 12.1046 0 11V4ZM2 4.25C2 4.11193 2.11193 4 2.25 4H4.75C4.88807 4 5 4.11193 5 4.25V5.75454C5 5.89261 4.88807 6.00454 4.75 6.00454H2.25C2.11193 6.00454 2 5.89261 2 5.75454V4.25ZM12.101 7.58421C12.101 9.02073 10.9365 10.1853 9.49998 10.1853C8.06346 10.1853 6.89893 9.02073 6.89893 7.58421C6.89893 6.14769 8.06346 4.98315 9.49998 4.98315C10.9365 4.98315 12.101 6.14769 12.101 7.58421ZM13.101 7.58421C13.101 9.57302 11.4888 11.1853 9.49998 11.1853C7.51117 11.1853 5.89893 9.57302 5.89893 7.58421C5.89893 5.5954 7.51117 3.98315 9.49998 3.98315C11.4888 3.98315 13.101 5.5954 13.101 7.58421Z"
        fill="currentColor"
      ></path>
    </symbol>
    <symbol viewBox="0 0 24 24" fill="currentColor" id="brush">
      <path
        d="M 10.6 8 l 5.4 5.425 l -4 4 q -0.6 0.6 -1.413 0.6 t -1.412 -0.6 L 8.5 18 h -5 l 3.15 -3.125 q -0.6 -0.6 -0.625 -1.438 T 6.6 12 l 4 -4 Z M 12 6.575 L 16 2.6 q 0.6 -0.6 1.413 -0.6 t 1.412 0.6 l 2.6 2.575 q 0.6 0.6 0.6 1.413 T 21.425 8 l -4 4 L 12 6.575 Z"
        fill="currentColor"
      ></path>
    </symbol>
    <symbol viewBox="0 0 15 15" fill="none" id="avatar">
      <path
        fill-rule="evenodd"
        clip-rule="evenodd"
        d="M0.877014 7.49988C0.877014 3.84219 3.84216 0.877045 7.49985 0.877045C11.1575 0.877045 14.1227 3.84219 14.1227 7.49988C14.1227 11.1575 11.1575 14.1227 7.49985 14.1227C3.84216 14.1227 0.877014 11.1575 0.877014 7.49988ZM7.49985 1.82704C4.36683 1.82704 1.82701 4.36686 1.82701 7.49988C1.82701 8.97196 2.38774 10.3131 3.30727 11.3213C4.19074 9.94119 5.73818 9.02499 7.50023 9.02499C9.26206 9.02499 10.8093 9.94097 11.6929 11.3208C12.6121 10.3127 13.1727 8.97172 13.1727 7.49988C13.1727 4.36686 10.6328 1.82704 7.49985 1.82704ZM10.9818 11.9787C10.2839 10.7795 8.9857 9.97499 7.50023 9.97499C6.01458 9.97499 4.71624 10.7797 4.01845 11.9791C4.97952 12.7272 6.18765 13.1727 7.49985 13.1727C8.81227 13.1727 10.0206 12.727 10.9818 11.9787ZM5.14999 6.50487C5.14999 5.207 6.20212 4.15487 7.49999 4.15487C8.79786 4.15487 9.84999 5.207 9.84999 6.50487C9.84999 7.80274 8.79786 8.85487 7.49999 8.85487C6.20212 8.85487 5.14999 7.80274 5.14999 6.50487ZM7.49999 5.10487C6.72679 5.10487 6.09999 5.73167 6.09999 6.50487C6.09999 7.27807 6.72679 7.90487 7.49999 7.90487C8.27319 7.90487 8.89999 7.27807 8.89999 6.50487C8.89999 5.73167 8.27319 5.10487 7.49999 5.10487Z"
        fill="currentColor"
      ></path>
    </symbol>
    <symbol viewBox="0 0 15 15" fill="none" id="arrow-right">
      <path
        fill-rule="evenodd"
        clip-rule="evenodd"
        d="M8.14645 3.14645C8.34171 2.95118 8.65829 2.95118 8.85355 3.14645L12.8536 7.14645C13.0488 7.34171 13.0488 7.65829 12.8536 7.85355L8.85355 11.8536C8.65829 12.0488 8.34171 12.0488 8.14645 11.8536C7.95118 11.6583 7.95118 11.3417 8.14645 11.1464L11.2929 8H2.5C2.22386 8 2 7.77614 2 7.5C2 7.22386 2.22386 7 2.5 7H11.2929L8.14645 3.85355C7.95118 3.65829 7.95118 3.34171 8.14645 3.14645Z"
        fill="currentColor"
      ></path>
    </symbol>
    <symbol viewBox="0 0 15 15" fill="none" id="arrow-left">
      <path
        fill-rule="evenodd"
        clip-rule="evenodd"
        d="M6.85355 3.14645C7.04882 3.34171 7.04882 3.65829 6.85355 3.85355L3.70711 7H12.5C12.7761 7 13 7.22386 13 7.5C13 7.77614 12.7761 8 12.5 8H3.70711L6.85355 11.1464C7.04882 11.3417 7.04882 11.6583 6.85355 11.8536C6.65829 12.0488 6.34171 12.0488 6.14645 11.8536L2.14645 7.85355C1.95118 7.65829 1.95118 7.34171 2.14645 7.14645L6.14645 3.14645C6.34171 2.95118 6.65829 2.95118 6.85355 3.14645Z"
        fill="currentColor"
      ></path>
    </symbol>
    <symbol viewBox="0 0 15 15" fill="none" id="archive">
      <path
        fill-rule="evenodd"
        clip-rule="evenodd"
        d="M3.30902 1C2.93025 1 2.58398 1.214 2.41459 1.55279L1.05279 4.27639C1.01807 4.34582 1 4.42238 1 4.5V13C1 13.5523 1.44772 14 2 14H13C13.5523 14 14 13.5523 14 13V4.5C14 4.42238 13.9819 4.34582 13.9472 4.27639L12.5854 1.55281C12.416 1.21403 12.0698 1.00003 11.691 1.00003L7.5 1.00001L3.30902 1ZM3.30902 2L7 2.00001V4H2.30902L3.30902 2ZM8 4V2.00002L11.691 2.00003L12.691 4H8ZM7.5 5H13V13H2V5H7.5ZM5.5 7C5.22386 7 5 7.22386 5 7.5C5 7.77614 5.22386 8 5.5 8H9.5C9.77614 8 10 7.77614 10 7.5C10 7.22386 9.77614 7 9.5 7H5.5Z"
        fill="currentColor"
      ></path>
    </symbol>
    <symbol viewBox="0 0 15 15" fill="none" id="align-right">
      <path
        fill-rule="evenodd"
        clip-rule="evenodd"
        d="M14.4999 1C14.2237 1 13.9999 1.22386 13.9999 1.5L13.9999 6L2.99988 6C2.44759 6 1.99988 6.44772 1.99988 7L1.99988 8C1.99988 8.55228 2.44759 9 2.99988 9L13.9999 9L13.9999 13.5C13.9999 13.7761 14.2237 14 14.4999 14C14.776 14 14.9999 13.7761 14.9999 13.5L14.9999 9L14.9999 6L14.9999 1.5C14.9999 1.22386 14.776 1 14.4999 1Z"
        fill="currentColor"
      ></path>
    </symbol>
    <symbol viewBox="0 0 15 15" fill="none" id="align-left">
      <path
        fill-rule="evenodd"
        clip-rule="evenodd"
        d="M0.499995 0.999995C0.223855 0.999995 -5.58458e-07 1.22385 -5.46388e-07 1.49999L-2.18554e-08 13.4999C-9.78492e-09 13.776 0.223855 13.9999 0.499995 13.9999C0.776136 13.9999 0.999991 13.776 0.999991 13.4999L0.999991 8.99993L12 8.99993C12.5523 8.99993 13 8.55222 13 7.99993L13 6.99994C13 6.44766 12.5523 5.99995 12 5.99995L0.999991 5.99995L0.999991 1.49999C0.999991 1.22385 0.776135 0.999995 0.499995 0.999995Z"
        fill="currentColor"
      ></path>
    </symbol>
    <symbol viewBox="0 0 15 15" fill="none" id="align-center-vertically">
      <path
        fill-rule="evenodd"
        clip-rule="evenodd"
        d="M6.99988 1C6.44759 1 5.99988 1.44772 5.99988 2V7H1.49988C1.22374 7 0.999878 7.22386 0.999878 7.5C0.999878 7.77614 1.22374 8 1.49988 8H5.99988V13C5.99988 13.5523 6.44759 14 6.99988 14H7.99988C8.55216 14 8.99988 13.5523 8.99988 13V8H13.4999C13.776 8 13.9999 7.77614 13.9999 7.5C13.9999 7.22386 13.776 7 13.4999 7H8.99988V2C8.99988 1.44772 8.55216 1 7.99988 1L6.99988 1Z"
        fill="currentColor"
      ></path>
    </symbol>
    <symbol viewBox="0 0 15 15" fill="none" id="align-center-horizontally">
      <path
        fill-rule="evenodd"
        clip-rule="evenodd"
        d="M1.99988 6C1.44759 6 0.999877 6.44772 0.999877 7L0.999877 8C0.999877 8.55228 1.44759 9 1.99988 9L6.99988 9L6.99988 13.5C6.99988 13.7761 7.22374 14 7.49988 14C7.77602 14 7.99988 13.7761 7.99988 13.5L7.99988 9L12.9999 9C13.5522 9 13.9999 8.55228 13.9999 8L13.9999 7C13.9999 6.44772 13.5522 6 12.9999 6L7.99988 6L7.99988 1.5C7.99988 1.22386 7.77602 1 7.49988 1C7.22373 1 6.99988 1.22386 6.99988 1.5L6.99988 6L1.99988 6Z"
        fill="currentColor"
      ></path>
    </symbol>
    <symbol viewBox="0 0 15 15" fill="none" id="align-bottom">
      <path
        fill-rule="evenodd"
        clip-rule="evenodd"
        d="M9 3C9 2.44772 8.55229 2 8 2H7C6.44772 2 6 2.44772 6 3L6 14H1.5C1.22386 14 1 14.2239 1 14.5C1 14.7761 1.22386 15 1.5 15L6 15H9H13.5C13.7761 15 14 14.7761 14 14.5C14 14.2239 13.7761 14 13.5 14H9V3Z"
        fill="currentColor"
      ></path>
    </symbol>
    <symbol viewBox="0 0 24 24" id="add-photo">
      <path d="M0 0h24v24H0z" fill="none"></path>
      <path
        d="M19 7v2.99s-1.99.01-2 0V7h-3s.01-1.99 0-2h3V2h2v3h3v2h-3zm-3 4V8h-3V5H5c-1.1 0-2 .9-2 2v12c0 1.1.9 2 2 2h12c1.1 0 2-.9 2-2v-8h-3zM5 19l3-4 2 3 3-4 4 5H5z"
        fill="currentColor"
      ></path>
    </symbol>
  </defs>
</svg>
