<svg width="502" height="110" viewBox="0 0 502 110" fill="none"
  xmlns="http://www.w3.org/2000/svg">
  <g clip-path="url(#clip0_1_12)">
    <path d="M176.531 33.4185L155.446 87.1736H142.641L120.787 33.4185H134.915L149.154 71.8335L163.06 33.4185H176.531Z" fill="#00737F"/>
    <path d="M213.281 67.8738L223.477 71.1028C222.024 75.7566 219.295 79.587 215.307 82.6032C211.32 85.6194 206.407 87.1275 200.578 87.1275C193.361 87.1275 187.236 84.6664 182.203 79.735C177.17 74.8129 174.653 68.2161 174.653 59.9631C174.653 52.1913 177.096 45.8073 181.99 40.8112C186.885 35.815 192.658 33.3169 199.32 33.3169C207.091 33.3169 213.161 35.6947 217.537 40.4503C221.904 45.2059 224.097 51.6084 224.097 59.6578C224.097 61.8136 223.995 63.0904 223.782 63.5067H186.727C186.866 67.3279 188.273 70.4829 190.946 72.9809C193.62 75.479 196.831 76.7281 200.578 76.7281C207.101 76.7188 211.338 73.7674 213.281 67.8738ZM187.051 54.6524H211.93C211.792 51.4604 210.663 48.7865 208.544 46.64C206.425 44.4935 203.391 43.411 199.44 43.411C195.832 43.411 192.917 44.5398 190.697 46.7973C188.467 49.0456 187.255 51.6732 187.051 54.6524Z" fill="#00737F"/>
    <path d="M260.116 33.6407V46.455C258.663 46.2422 257.294 46.1312 255.989 46.1312C246.506 46.1312 241.768 51.3031 241.768 61.6563V87.1923H229.167V33.4187H241.435V42.4395C242.666 39.6176 244.655 37.3879 247.412 35.7595C250.16 34.1311 253.278 33.3169 256.748 33.3169C257.904 33.3169 259.033 33.4279 260.116 33.6407Z" fill="#00737F"/>
    <path d="M261.984 71.8244C261.984 67.5221 263.391 64.0711 266.203 61.4712C269.016 58.8714 272.708 57.2245 277.287 56.5306L290.296 54.5506C292.794 54.2083 294.043 52.987 294.043 50.9052C294.043 48.6107 293.247 46.7603 291.647 45.3354C290.046 43.9106 287.659 43.1982 284.467 43.1982C281.414 43.1982 278.981 44.0494 277.186 45.7518C275.382 47.4542 274.336 49.6562 274.068 52.3578L263.039 49.8598C263.52 45.2799 265.713 41.3755 269.599 38.1465C273.485 34.9175 278.407 33.3076 284.375 33.3076C291.73 33.3076 297.161 35.0748 300.668 38.6184C304.174 42.1619 305.923 46.7048 305.923 52.2561C305.923 52.2561 306.117 84.1853 306.117 87.1923H294.682C294.672 83.991 294.737 82.2886 294.774 79.1151C291.443 84.4629 286.244 87.1275 279.166 87.1275C274.031 87.1275 269.886 85.6194 266.731 82.6032C263.567 79.5777 261.984 75.9879 261.984 71.8244ZM281.451 77.6533C285.198 77.6533 288.233 76.6263 290.555 74.5816C292.877 72.5368 294.043 69.1875 294.043 64.5337V62.2484L280.822 64.2284C276.307 64.9963 274.058 67.2816 274.058 71.1027C274.058 72.9069 274.715 74.452 276.038 75.7381C277.352 77.0149 279.156 77.6533 281.451 77.6533Z" fill="#00737F"/>
    <path d="M337.242 44.4565C333.356 44.4565 330.062 45.8629 327.351 48.6755C324.649 51.4882 323.289 55.3186 323.289 60.176C323.289 65.1074 324.659 68.9933 327.397 71.8337C330.136 74.6834 333.485 76.099 337.445 76.099C340.989 76.099 343.811 75.146 345.929 73.24C348.048 71.3341 349.455 69.1598 350.148 66.7358L360.761 70.5847C359.373 75.0997 356.681 78.9856 352.693 82.2424C348.705 85.5084 343.616 87.1368 337.445 87.1368C330.016 87.1368 323.789 84.5739 318.765 79.4297C313.732 74.2948 311.215 67.8738 311.215 60.176C311.215 52.4042 313.695 45.9831 318.654 40.9222C323.613 35.8613 329.775 33.3262 337.131 33.3262C343.441 33.3262 348.594 34.9546 352.591 38.2206C356.579 41.4866 359.16 45.4003 360.344 49.9801L349.519 53.9308C348.825 51.2939 347.493 49.0549 345.513 47.2137C343.542 45.3725 340.785 44.4565 337.242 44.4565Z" fill="#00737F"/>
    <path d="M378.358 87.1275H366.284V11.7686H378.358V87.1275Z" fill="#00737F"/>
    <path d="M389.174 25.1935C387.647 23.6668 386.889 21.8257 386.889 19.6792C386.889 17.5327 387.647 15.673 389.174 14.1094C390.701 12.5457 392.542 11.7686 394.688 11.7686C396.909 11.7686 398.778 12.5365 400.314 14.0631C401.84 15.5897 402.599 17.4679 402.599 19.6792C402.599 21.8349 401.831 23.6668 400.314 25.1935C398.787 26.7201 396.909 27.488 394.688 27.488C392.542 27.488 390.701 26.7201 389.174 25.1935ZM400.73 87.1275H388.758V33.4186H400.73V87.1275Z" fill="#00737F"/>
    <path d="M423.213 56.3176V87.1921H411.139V33.4185H422.898V41.6436C424.49 38.868 426.627 36.8048 429.301 35.4539C431.975 34.1031 434.833 33.4277 437.887 33.4277C443.854 33.4277 448.397 35.2966 451.524 39.053C454.642 42.8002 456.206 47.6205 456.206 53.5234V87.1458H444.132V55.5867C444.132 52.1911 443.299 49.4617 441.634 47.417C439.968 45.3723 437.332 44.3453 433.723 44.3453C430.392 44.3453 427.811 45.474 425.97 47.7316C424.138 49.9891 423.213 52.848 423.213 56.3176Z" fill="#00737F"/>
    <path d="M461.202 71.8245L471.713 68.91C471.916 71.3433 472.925 73.3881 474.729 75.0535C476.533 76.7189 478.957 77.5515 482.02 77.5515C484.379 77.5515 486.239 76.9964 487.589 75.8862C488.94 74.7759 489.616 73.3881 489.616 71.7227C489.616 68.8082 487.636 66.9393 483.685 66.1066L476.191 64.4412C471.824 63.4697 468.456 61.6656 466.097 59.0287C463.737 56.3918 462.553 53.2739 462.553 49.6655C462.553 45.2245 464.357 41.3941 467.965 38.1651C471.574 34.936 475.978 33.3262 481.187 33.3262C484.518 33.3262 487.469 33.8165 490.032 34.788C492.595 35.7595 494.593 37.027 496.018 38.5907C497.443 40.1543 498.535 41.6624 499.293 43.115C500.052 44.5768 500.542 46.0294 500.755 47.4912L490.55 50.4057C490.272 48.4627 489.384 46.7141 487.895 45.1504C486.405 43.5868 484.166 42.8096 481.178 42.8096C479.096 42.8096 477.356 43.3833 475.978 44.5306C474.59 45.6778 473.896 47.0471 473.896 48.6385C473.896 51.4882 475.599 53.2553 478.994 53.9493L486.701 55.5129C491.42 56.5491 495.028 58.4273 497.526 61.1382C500.024 63.8491 501.273 67.1058 501.273 70.9177C501.273 75.1552 499.589 78.9116 496.222 82.2146C492.854 85.5084 488.154 87.1553 482.121 87.1553C478.652 87.1553 475.543 86.6372 472.804 85.5917C470.066 84.5554 467.91 83.2139 466.356 81.5855C464.792 79.9571 463.58 78.3287 462.71 76.6911C461.85 75.035 461.341 73.4251 461.202 71.8245Z" fill="#00737F"/>
    <path d="M107.88 67.7443L104.716 70.2146L94.1406 78.449L53.9399 109.777V88.1268L80.9655 67.0689L53.9399 43.7071V21.1318L94.705 56.3641L103.772 64.2007L107.88 67.7443Z" fill="#00737F"/>
    <path d="M57.3081 0V1.32306V17.3941L107.88 59.5932V40.5523" fill="#00737F"/>
    <path d="M53.9402 65.7829L27.2569 42.7173L53.9402 21.9276V0L13.906 31.1891L3.20125 39.5345L0 42.0326L4.16348 45.6225L13.3416 53.5608L53.9402 88.6451V65.7829Z" fill="#00737F"/>
    <path d="M51.22 109.777V108.436V92.161L0 49.4067V68.6975" fill="#00737F"/>
  </g>
  <defs>
    <clipPath id="clip0_1_12">
      <rect width="501.283" height="109.777" fill="white"/>
    </clipPath>
  </defs>
</svg>
