<svg xmlns="http://www.w3.org/2000/svg" width="147.053" height="146.894" viewBox="0 0 147.053 146.894">
  <g id="add_a_photo_black_24dp" transform="translate(0 -0.143)">
    <rect id="Rectangle_98" data-name="Rectangle 98" width="146.894" height="146.894" transform="translate(0.159 0.143)" fill="none"/>
    <path id="Path_217" data-name="Path 217" d="M18.4,19.4V1H30.669V19.4h18.4V31.669h-18.4v18.4H18.4v-18.4H0V19.4ZM36.8,56.2V37.8H55.2V19.4H98.141l11.225,12.268H128.81a12.3,12.3,0,0,1,12.268,12.268v73.606A12.3,12.3,0,0,1,128.81,129.81H30.669A12.3,12.3,0,0,1,18.4,117.543V56.2Zm42.937,55.2A30.669,30.669,0,1,0,49.071,80.74,30.68,30.68,0,0,0,79.74,111.409ZM60.112,80.74A19.628,19.628,0,1,0,79.74,61.112,19.607,19.607,0,0,0,60.112,80.74Z" transform="translate(0 5.118)" fill="#bfbfbf" opacity="0.3"/>
  </g>
</svg>
