<svg id="Component_204_1" data-name="Component 204 – 1" xmlns="http://www.w3.org/2000/svg" xmlns:xlink="http://www.w3.org/1999/xlink" width="288" height="83" viewBox="0 0 288 83">
  <defs>
    <linearGradient id="linear-gradient" x1="0.87" y1="0.081" x2="0.429" y2="0.676" gradientUnits="objectBoundingBox">
      <stop offset="0" stop-color="#c27ac0"/>
      <stop offset="1" stop-color="#9452a5"/>
    </linearGradient>
    <linearGradient id="linear-gradient-2" x1="0.904" y1="0.193" x2="-0.001" y2="2.002" xlink:href="#linear-gradient"/>
  </defs>
  <g id="Group_419" data-name="Group 419" transform="translate(8160 -1246)">
    <rect id="Rectangle_6" data-name="Rectangle 6" width="288" height="83" rx="10" transform="translate(-8160 1246)" fill="#fff"/>
  </g>
  <g id="Component_200_1" data-name="Component 200 – 1" transform="translate(8 9.356)">
    <path id="Path_1" data-name="Path 1" d="M167.9,330.53a35.18,35.18,0,0,1-48.619,4.653,32.93,32.93,0,0,1-3.175-2.9,31.548,31.548,0,0,1-8.944-21.643v-.3a31,31,0,0,1,2.856-13.028,34.142,34.142,0,0,1,31.2-19.455,35.143,35.143,0,0,1,17.81,4.792l-24.73,28.6,3.794,2.18Z" transform="translate(-107.165 -277.853)" fill="url(#linear-gradient)"/>
    <path id="Path_2" data-name="Path 2" d="M177.129,311.219H139.89L163.848,285.8A36.939,36.939,0,0,1,177.129,311.219Z" transform="matrix(1, -0.017, 0.017, 1, -112.969, -275.738)" fill="url(#linear-gradient-2)"/>
  </g>
  <text id="edulinks" transform="translate(86.131 55.844)" fill="#9452a5" font-size="52" font-family="Helvetica"><tspan x="0" y="0">edulinks</tspan></text>
</svg>
