<svg width="442" height="100" viewBox="0 0 442 100" fill="none"
    xmlns="http://www.w3.org/2000/svg">
    <rect width="442" height="100" rx="12" fill="white"/>
    <path d="M75.8921 73.6144C69.2694 81.7079 59.9049 86.7976 49.7689 87.8127C39.633 88.8278 29.5159 85.6891 21.5465 79.057C20.2941 78.0084 19.1086 76.8753 17.9975 75.6649C11.6846 68.881 8.10523 59.8173 8.00002 50.3489V49.998C7.99495 44.7361 9.08429 39.5362 11.1924 34.7591C14.3247 27.8792 19.2728 22.0807 25.4524 18.0484C31.6321 14.0161 38.7852 11.9182 46.0673 12.0024C53.0618 11.9829 59.9344 13.9179 65.9751 17.6077L38.3323 51.0613L42.5731 53.6112L75.8921 73.6144Z" fill="url(#paint0_linear_2283_3642)"/>
    <path d="M84 49.9777L42.3748 50.7182L68.6717 20.5091C72.975 24.1036 76.5479 28.5624 79.1803 33.6232C81.8127 38.6839 83.4514 44.2445 84 49.9777Z" fill="url(#paint1_linear_2283_3642)"/>
    <path d="M96.9318 70.5V29.7727H121.511V34.1477H101.864V47.9091H120.239V52.2841H101.864V66.125H121.83V70.5H96.9318ZM139.609 70.5H127.041V29.7727H140.166C144.116 29.7727 147.497 30.5881 150.308 32.2188C153.118 33.8362 155.273 36.1629 156.771 39.1989C158.269 42.2216 159.018 45.8409 159.018 50.0568C159.018 54.2992 158.262 57.9517 156.751 61.0142C155.239 64.0634 153.039 66.41 150.149 68.054C147.258 69.6847 143.745 70.5 139.609 70.5ZM131.972 66.125H139.291C142.658 66.125 145.449 65.4754 147.663 64.1761C149.877 62.8769 151.527 61.0275 152.614 58.6278C153.702 56.2282 154.245 53.3712 154.245 50.0568C154.245 46.7689 153.708 43.9384 152.634 41.5653C151.56 39.179 149.956 37.3494 147.822 36.0767C145.687 34.7907 143.029 34.1477 139.847 34.1477H131.972V66.125ZM190.658 29.7727H195.59V56.7386C195.59 59.5227 194.933 62.0085 193.621 64.196C192.322 66.3703 190.485 68.0871 188.112 69.3466C185.739 70.5928 182.955 71.2159 179.76 71.2159C176.565 71.2159 173.781 70.5928 171.408 69.3466C169.035 68.0871 167.192 66.3703 165.879 64.196C164.58 62.0085 163.931 59.5227 163.931 56.7386V29.7727H168.862V56.3409C168.862 58.3295 169.3 60.0994 170.175 61.6506C171.05 63.1884 172.296 64.4015 173.914 65.2898C175.544 66.1648 177.493 66.6023 179.76 66.6023C182.027 66.6023 183.976 66.1648 185.607 65.2898C187.237 64.4015 188.484 63.1884 189.345 61.6506C190.22 60.0994 190.658 58.3295 190.658 56.3409V29.7727ZM202.078 70.5V29.7727H207.01V66.125H225.942V70.5H202.078ZM235.15 29.7727V70.5H230.218V29.7727H235.15ZM273.974 29.7727V70.5H269.201L247.008 38.5227H246.611V70.5H241.679V29.7727H246.451L268.724 61.8295H269.122V29.7727H273.974ZM280.483 70.5V29.7727H285.415V49.9773H285.892L304.187 29.7727H310.63L293.528 48.1477L310.63 70.5H304.665L290.505 51.5682L285.415 57.2955V70.5H280.483ZM335.927 39.9545C335.688 37.9394 334.72 36.375 333.023 35.2614C331.326 34.1477 329.245 33.5909 326.779 33.5909C324.976 33.5909 323.398 33.8826 322.046 34.4659C320.707 35.0492 319.66 35.8513 318.904 36.8722C318.162 37.893 317.79 39.053 317.79 40.3523C317.79 41.4394 318.049 42.3741 318.566 43.1562C319.096 43.9252 319.772 44.5682 320.594 45.0852C321.416 45.589 322.278 46.0066 323.18 46.3381C324.081 46.6562 324.91 46.9148 325.665 47.1136L329.802 48.2273C330.862 48.5057 332.042 48.8902 333.342 49.3807C334.654 49.8712 335.907 50.5407 337.1 51.3892C338.306 52.2244 339.301 53.2983 340.083 54.6108C340.865 55.9233 341.256 57.5341 341.256 59.4432C341.256 61.6439 340.68 63.6326 339.526 65.4091C338.386 67.1856 336.716 68.5975 334.515 69.6449C332.327 70.6922 329.669 71.2159 326.54 71.2159C323.624 71.2159 321.098 70.7453 318.964 69.804C316.842 68.8627 315.172 67.5502 313.952 65.8665C312.746 64.1828 312.063 62.2273 311.904 60H316.995C317.127 61.5379 317.645 62.8106 318.546 63.8182C319.461 64.8125 320.614 65.5549 322.006 66.0455C323.412 66.5227 324.923 66.7614 326.54 66.7614C328.423 66.7614 330.113 66.4564 331.611 65.8466C333.109 65.2235 334.296 64.3617 335.171 63.2614C336.046 62.1477 336.484 60.8485 336.484 59.3636C336.484 58.0114 336.106 56.911 335.35 56.0625C334.594 55.214 333.6 54.5246 332.367 53.9943C331.134 53.464 329.802 53 328.37 52.6023L323.359 51.1705C320.177 50.2557 317.658 48.9498 315.802 47.2528C313.946 45.5559 313.018 43.3352 313.018 40.5909C313.018 38.3106 313.634 36.322 314.867 34.625C316.113 32.9148 317.784 31.589 319.878 30.6477C321.986 29.6932 324.34 29.2159 326.938 29.2159C329.563 29.2159 331.896 29.6866 333.938 30.6278C335.98 31.5559 337.597 32.8286 338.79 34.446C339.997 36.0634 340.633 37.8996 340.699 39.9545H335.927ZM348.789 70.8182C347.808 70.8182 346.966 70.4669 346.263 69.7642C345.561 69.0616 345.209 68.2197 345.209 67.2386C345.209 66.2576 345.561 65.4157 346.263 64.7131C346.966 64.0104 347.808 63.6591 348.789 63.6591C349.77 63.6591 350.612 64.0104 351.315 64.7131C352.017 65.4157 352.369 66.2576 352.369 67.2386C352.369 67.8883 352.203 68.4848 351.871 69.0284C351.553 69.572 351.122 70.0095 350.579 70.3409C350.048 70.6591 349.452 70.8182 348.789 70.8182ZM390.362 29.7727V70.5H385.59L363.396 38.5227H362.999V70.5H358.067V29.7727H362.84L385.112 61.8295H385.51V29.7727H390.362ZM424.712 42.5C424.274 41.161 423.698 39.9612 422.982 38.9006C422.279 37.8267 421.437 36.9119 420.456 36.1562C419.488 35.4006 418.388 34.8239 417.155 34.4261C415.922 34.0284 414.57 33.8295 413.098 33.8295C410.685 33.8295 408.491 34.4527 406.516 35.6989C404.54 36.9451 402.969 38.7812 401.803 41.2074C400.636 43.6335 400.053 46.6098 400.053 50.1364C400.053 53.6629 400.643 56.6392 401.823 59.0653C403.003 61.4915 404.6 63.3277 406.615 64.5739C408.63 65.8201 410.897 66.4432 413.416 66.4432C415.75 66.4432 417.805 65.946 419.581 64.9517C421.371 63.9441 422.763 62.5256 423.757 60.696C424.765 58.8532 425.269 56.6856 425.269 54.1932L426.78 54.5114H414.53V50.1364H430.041V54.5114C430.041 57.8655 429.325 60.7822 427.894 63.2614C426.475 65.7405 424.513 67.6629 422.007 69.0284C419.515 70.3807 416.651 71.0568 413.416 71.0568C409.81 71.0568 406.642 70.2083 403.911 68.5114C401.193 66.8144 399.072 64.4015 397.547 61.2727C396.036 58.1439 395.28 54.4318 395.28 50.1364C395.28 46.9148 395.711 44.018 396.573 41.446C397.448 38.8608 398.681 36.66 400.271 34.8438C401.862 33.0275 403.745 31.6354 405.919 30.6676C408.093 29.6998 410.486 29.2159 413.098 29.2159C415.246 29.2159 417.248 29.5407 419.104 30.1903C420.973 30.8267 422.637 31.7348 424.095 32.9148C425.567 34.0814 426.793 35.4801 427.774 37.1108C428.755 38.7282 429.431 40.5246 429.803 42.5H424.712Z" fill="#9452A5"/>
    <defs>
        <linearGradient id="paint0_linear_2283_3642" x1="67.0661" y1="18.156" x2="32.6373" y2="59.652" gradientUnits="userSpaceOnUse">
            <stop stop-color="#C27AC0"/>
            <stop offset="1" stop-color="#9452A5"/>
        </linearGradient>
        <linearGradient id="paint1_linear_2283_3642" x1="79.6142" y1="26.0545" x2="59.346" y2="86.0913" gradientUnits="userSpaceOnUse">
            <stop stop-color="#C27AC0"/>
            <stop offset="1" stop-color="#9452A5"/>
        </linearGradient>
    </defs>
</svg>
