<svg width="260" height="260" viewBox="0 0 260 260" fill="none" xmlns="http://www.w3.org/2000/svg">
<path d="M130 160C132.833 160 135.21 159.04 137.13 157.12C139.05 155.2 140.007 152.827 140 150C139.993 147.173 139.033 144.8 137.12 142.88C135.207 140.96 132.833 140 130 140C127.167 140 124.793 140.96 122.88 142.88C120.967 144.8 120.007 147.173 120 150C119.993 152.827 120.953 155.203 122.88 157.13C124.807 159.057 127.18 160.013 130 160ZM120 120H140V60H120V120ZM30 230V50C30 44.5 31.96 39.7933 35.88 35.88C39.8 31.9667 44.5067 30.0067 50 30H210C215.5 30 220.21 31.96 224.13 35.88C228.05 39.8 230.007 44.5067 230 50V170C230 175.5 228.043 180.21 224.13 184.13C220.217 188.05 215.507 190.007 210 190H70L30 230ZM61.5 170H210V50H50V181.25L61.5 170Z" fill="#C81E1E"/>
</svg>
