<svg width="500" height="500" viewBox="0 0 500 500" fill="none" xmlns="http://www.w3.org/2000/svg">
<path d="M466.888 316.204H303.025V221.359H466.888V316.204ZM304.025 315.204H465.888V222.359H304.025V315.204Z" fill="#E0E0E0"/>
<path d="M433.088 271.93H324.953V275.102H433.088V271.93Z" fill="#F0F0F0"/>
<path d="M440.535 283.752H324.953V287.213H440.535V283.752Z" fill="#F0F0F0"/>
<path d="M440.535 295.711H324.953V299.172H440.535V295.711Z" fill="#F0F0F0"/>
<path d="M362.745 254.76H324.953V262.989H362.745V254.76Z" fill="#F0F0F0"/>
<path d="M466.388 221.857H303.525V236.956H466.388V221.857Z" fill="#E0E0E0"/>
<path d="M453.856 234.702C453.648 234.503 455.747 231.972 458.542 229.049C461.339 226.125 463.774 223.917 463.982 224.116C464.19 224.315 462.091 226.846 459.294 229.769C456.499 232.692 454.064 234.901 453.856 234.702Z" fill="white"/>
<path d="M463.983 234.702C463.775 234.901 461.34 232.692 458.544 229.769C455.746 226.845 453.648 224.314 453.856 224.116C454.064 223.918 456.498 226.125 459.295 229.049C462.092 231.972 464.191 234.503 463.983 234.702Z" fill="white"/>
<path d="M265.226 34.0547H102.362V127.9H265.226V34.0547Z" fill="#E6E6E6"/>
<path d="M231.924 84.125H123.79V87.297H231.924V84.125Z" fill="#F0F0F0"/>
<path d="M239.372 95.9473H123.79V99.4073H239.372V95.9473Z" fill="#F0F0F0"/>
<path d="M239.372 107.906H123.79V111.366H239.372V107.906Z" fill="#F0F0F0"/>
<path d="M161.582 66.957H123.79V75.186H161.582V66.957Z" fill="#F0F0F0"/>
<path d="M265.226 34.0547H102.362V49.1527H265.226V34.0547Z" fill="#E0E0E0"/>
<path d="M252.135 46.8259C251.927 46.6269 254.026 44.0959 256.821 41.1729C259.618 38.2489 262.053 36.0409 262.261 36.2389C262.469 36.4379 260.37 38.9679 257.573 41.8919C254.779 44.8149 252.343 47.0239 252.135 46.8259Z" fill="white"/>
<path d="M262.262 46.825C262.054 47.024 259.619 44.815 256.823 41.892C254.025 38.968 251.928 36.437 252.135 36.239C252.343 36.04 254.778 38.249 257.574 41.173C260.372 44.095 262.47 46.626 262.262 46.825Z" fill="white"/>
<path d="M203.544 208.39H39.6807V113.545H203.544V208.39ZM40.6807 207.39H202.544V114.545H40.6807V207.39Z" fill="#E0E0E0"/>
<path d="M169.742 164.115H61.6074V167.287H169.742V164.115Z" fill="#F0F0F0"/>
<path d="M177.19 175.938H61.6074V179.397H177.19V175.938Z" fill="#F0F0F0"/>
<path d="M177.19 187.896H61.6074V191.356H177.19V187.896Z" fill="#F0F0F0"/>
<path d="M99.3994 146.945H61.6074V155.175H99.3994V146.945Z" fill="#F0F0F0"/>
<path d="M203.044 114.045H40.1807V129.144H203.044V114.045Z" fill="#E0E0E0"/>
<path d="M392.656 230.125H200.352V402.281H392.656V230.125Z" fill="#E6E6E6"/>
<path d="M210.019 175.893H59.3809V332.402H210.019V175.893Z" fill="#F0F0F0"/>
<path d="M210.019 175.893H59.3809V192.946H210.019V175.893Z" fill="#E0E0E0"/>
<path d="M71.8211 184.245C71.8211 186.071 70.4051 187.551 68.6581 187.551C66.9111 187.551 65.4951 186.071 65.4951 184.245C65.4951 182.419 66.9111 180.939 68.6581 180.939C70.4051 180.939 71.8211 182.419 71.8211 184.245Z" fill="white"/>
<path d="M84.6492 184.245C84.6492 186.071 83.2332 187.551 81.4862 187.551C79.7392 187.551 78.3232 186.071 78.3232 184.245C78.3232 182.419 79.7392 180.939 81.4862 180.939C83.2332 180.939 84.6492 182.419 84.6492 184.245Z" fill="white"/>
<path d="M97.4783 184.245C97.4783 186.071 96.0623 187.551 94.3153 187.551C92.5683 187.551 91.1523 186.071 91.1523 184.245C91.1523 182.419 92.5683 180.939 94.3153 180.939C96.0623 180.939 97.4783 182.419 97.4783 184.245Z" fill="white"/>
<path d="M445.385 68.2852H253.081V259.946H445.385V68.2852Z" fill="#F0F0F0"/>
<path d="M445.385 68.2852H253.081V90.7352H445.385V68.2852Z" fill="#E0E0E0"/>
<path d="M269.458 79.2797C269.458 81.6837 267.594 83.6327 265.294 83.6327C262.995 83.6327 261.131 81.6837 261.131 79.2797C261.131 76.8757 262.995 74.9277 265.294 74.9277C267.593 74.9277 269.458 76.8767 269.458 79.2797Z" fill="white"/>
<path d="M285.128 76.3368C286.827 78.0368 286.887 80.7328 285.261 82.3578C283.635 83.9838 280.939 83.9238 279.24 82.2248C277.541 80.5248 277.48 77.8288 279.106 76.2028C280.731 74.5768 283.427 74.6368 285.128 76.3368Z" fill="white"/>
<path d="M303.236 79.2797C303.236 81.6837 301.372 83.6327 299.072 83.6327C296.772 83.6327 294.909 81.6837 294.909 79.2797C294.909 76.8757 296.772 74.9277 299.072 74.9277C301.372 74.9277 303.236 76.8767 303.236 79.2797Z" fill="white"/>
<path d="M403.842 453.13C403.842 453.273 334.403 453.391 248.765 453.391C163.098 453.391 93.6729 453.274 93.6729 453.13C93.6729 452.986 163.097 452.869 248.765 452.869C334.403 452.87 403.842 452.987 403.842 453.13Z" fill="#263238"/>
<path d="M336.179 330.713C320.731 319.92 317.226 299.887 317.837 281.879C317.939 278.873 317.608 275.704 319.038 273.066C320.469 270.429 323.805 268.627 326.496 269.893C328.728 270.944 329.701 273.54 330.95 275.688C332.611 278.545 335.087 280.91 338 282.421C339.914 283.414 342.282 284.022 344.172 282.98C346.765 281.549 347.07 277.967 347.052 274.977C347.017 269.405 346.983 263.832 346.948 258.261C346.929 255.272 346.921 252.219 347.85 249.382C348.78 246.545 350.834 243.909 353.678 243.112C356.523 242.316 360.039 243.955 360.64 246.882C360.89 248.1 360.642 249.364 360.725 250.605C360.808 251.846 361.386 253.219 362.565 253.565C363.758 253.916 364.955 253.068 365.848 252.193C368.934 249.175 371.028 245.286 372.985 241.419C374.942 237.552 376.841 233.593 379.641 230.3C382.441 227.007 386.314 224.399 390.595 224.156C394.877 223.914 399.439 226.556 400.521 230.76C401.606 234.975 399.147 239.251 396.471 242.663C392.501 247.725 387.805 252.202 382.576 255.908C381.634 256.577 380.612 257.3 380.252 258.407C379.603 260.4 381.491 262.38 383.459 263.035C385.687 263.777 388.105 263.546 390.436 263.82C392.767 264.094 395.293 265.123 396.174 267.326C397.399 270.382 394.843 273.585 392.328 275.682C387.293 279.883 381.543 283.202 375.409 285.449C373.21 286.254 370.895 286.96 369.122 288.505C367.349 290.051 366.278 292.737 367.35 294.843C368.422 296.951 371.172 297.625 373.476 297.197C375.779 296.77 377.841 295.519 380.037 294.691C384.145 293.14 389.451 293.423 392.083 296.974C393.812 299.308 393.965 302.558 393.09 305.34C392.216 308.122 390.442 310.519 388.558 312.729C381.973 320.455 373.543 326.674 364.012 329.979C354.482 333.283 345.651 334.177 336.179 330.713Z" fill="#B357D4"/>
<path d="M396.202 226.659C396.209 226.666 396.11 226.763 395.912 226.943C395.691 227.14 395.397 227.402 395.024 227.735C394.241 228.427 393.086 229.448 391.635 230.803C388.73 233.504 384.649 237.568 380.216 243.128C377.991 245.899 375.68 249.036 373.259 252.449C370.844 255.868 368.286 259.537 365.742 263.495C363.198 267.451 360.651 271.691 358.366 276.272C357.214 278.557 356.186 280.949 355.137 283.387C354.094 285.825 353.036 288.298 351.965 290.801C347.717 300.826 343.981 310.518 341.311 319.571C338.626 328.616 337.028 336.999 336.329 344.102C335.612 351.208 335.759 357.008 336.049 360.988C336.205 362.978 336.358 364.523 336.498 365.565C336.556 366.065 336.601 366.458 336.636 366.754C336.664 367.022 336.674 367.161 336.665 367.163C336.655 367.164 336.627 367.029 336.58 366.763C336.533 366.47 336.469 366.078 336.388 365.581C336.212 364.542 336.025 362.999 335.835 361.006C335.48 357.023 335.272 351.202 335.942 344.065C336.594 336.931 338.159 328.506 340.827 319.425C343.477 310.337 347.209 300.616 351.461 290.583C352.533 288.079 353.593 285.604 354.637 283.166C355.685 280.734 356.724 278.322 357.886 276.026C360.191 271.422 362.757 267.172 365.32 263.215C367.881 259.254 370.457 255.589 372.889 252.18C375.33 248.774 377.665 245.643 379.915 242.88C384.399 237.334 388.538 233.298 391.492 230.644C392.967 229.311 394.144 228.315 394.952 227.65C395.341 227.335 395.645 227.087 395.875 226.9C396.085 226.733 396.196 226.651 396.202 226.659Z" fill="#263238"/>
<path d="M358.043 276.003C358.006 276.009 357.904 275.555 357.751 274.728C357.594 273.902 357.406 272.7 357.196 271.21C356.773 268.233 356.33 264.103 355.858 259.547C355.386 254.988 354.885 250.876 354.419 247.914C354.19 246.433 353.992 245.235 353.845 244.409C353.702 243.582 353.641 243.12 353.678 243.111C353.715 243.103 353.847 243.549 354.054 244.364C354.266 245.178 354.523 246.368 354.801 247.846C355.368 250.802 355.933 254.924 356.404 259.487C356.858 263.984 357.268 268.052 357.582 271.161C357.732 272.564 357.86 273.747 357.963 274.696C358.05 275.532 358.082 275.998 358.043 276.003Z" fill="#263238"/>
<path d="M396.48 268.82C396.481 268.858 395.934 268.922 394.947 269.004C393.961 269.092 392.533 269.211 390.774 269.415C387.253 269.795 382.409 270.49 377.097 271.491C371.786 272.502 367.018 273.621 363.593 274.53C361.876 274.972 360.497 275.368 359.542 275.636C358.588 275.907 358.055 276.04 358.042 276.004C358.03 275.967 358.542 275.765 359.478 275.429C360.416 275.098 361.782 274.644 363.49 274.151C366.898 273.142 371.669 271.959 376.996 270.944C382.323 269.941 387.195 269.304 390.736 269.024C392.506 268.87 393.942 268.809 394.935 268.789C395.929 268.772 396.478 268.781 396.48 268.82Z" fill="#263238"/>
<path d="M341.3 318.716C341.282 318.724 341.193 318.563 341.036 318.247C340.858 317.871 340.641 317.412 340.379 316.856C339.814 315.646 339.041 313.874 338.115 311.671C336.261 307.268 333.89 301.105 331.367 294.269C328.842 287.43 326.532 281.253 324.772 276.818C323.91 274.662 323.2 272.888 322.672 271.57C322.446 270.998 322.261 270.526 322.108 270.138C321.985 269.809 321.928 269.632 321.946 269.623C321.964 269.616 322.053 269.777 322.21 270.093C322.388 270.469 322.605 270.927 322.867 271.483C323.432 272.693 324.205 274.465 325.131 276.668C326.986 281.071 329.356 287.234 331.88 294.073C334.404 300.91 336.714 307.086 338.474 311.522C339.337 313.677 340.046 315.452 340.574 316.769C340.8 317.341 340.985 317.814 341.138 318.201C341.261 318.532 341.318 318.708 341.3 318.716Z" fill="#263238"/>
<path d="M392.378 302.255C392.383 302.274 392.208 302.345 391.871 302.464C391.472 302.598 390.981 302.762 390.388 302.961C389.018 303.405 387.168 304.005 384.918 304.733C380.3 306.231 373.945 308.373 366.927 310.749C359.906 313.127 353.526 315.212 348.875 316.614C346.55 317.316 344.663 317.865 343.352 318.217C342.746 318.376 342.246 318.507 341.839 318.615C341.491 318.7 341.306 318.735 341.301 318.717C341.296 318.699 341.471 318.627 341.808 318.507C342.206 318.374 342.697 318.21 343.291 318.011C344.661 317.567 346.51 316.968 348.76 316.238C353.378 314.741 359.734 312.598 366.754 310.221C373.773 307.844 380.152 305.759 384.803 304.357C387.128 303.655 389.015 303.106 390.327 302.753C390.933 302.594 391.432 302.462 391.84 302.356C392.187 302.272 392.372 302.237 392.378 302.255Z" fill="#263238"/>
<path d="M371.541 59.6799L366.388 61.5229L364.185 54.7939C360.121 42.3819 347.151 35.7409 335.288 39.9849C323.418 44.2309 317.072 57.7819 321.136 70.1939L323.339 76.9229L318.169 78.7719C314.149 80.2099 311.973 84.8439 313.35 89.0509L327.686 132.842C329.084 137.113 333.523 139.39 337.543 137.952L390.917 118.859C395.002 117.398 397.18 112.753 395.781 108.483L381.445 64.6919C380.066 60.4849 375.625 58.2179 371.541 59.6799ZM330.86 66.7139C328.633 59.9119 332.109 52.4839 338.617 50.1559C345.119 47.8299 352.223 51.4729 354.45 58.2749L356.653 65.0049L333.063 73.4429L330.86 66.7139ZM360.869 105.567L364.53 116.75C364.684 117.223 364.414 117.706 363.957 117.87L358.835 119.702C358.443 119.842 357.941 119.635 357.787 119.162L354.126 107.979C350.159 107.811 346.477 105.182 345.099 100.975C343.329 95.5659 346.098 89.6519 351.289 87.7949C356.477 85.9389 362.131 88.8389 363.902 94.2489C365.279 98.4559 363.91 102.893 360.869 105.567Z" fill="#B357D4"/>
<path d="M366.164 61.4024C366.213 61.5374 356.614 65.1314 344.726 69.4274C332.835 73.7254 323.159 77.0993 323.11 76.9643C323.061 76.8293 332.658 73.2363 344.55 68.9383C356.436 64.6423 366.115 61.2674 366.164 61.4024Z" fill="#263238"/>
<path d="M377.498 63.2442C377.507 63.2412 377.546 63.3302 377.613 63.5062C377.689 63.7102 377.785 63.9682 377.904 64.2902C378.161 65.0192 378.518 66.0332 378.972 67.3212C379.891 69.9982 381.199 73.8072 382.809 78.4992C384.414 83.2362 386.321 88.8582 388.436 95.0992C389.481 98.2322 390.622 101.487 391.717 104.925C392.223 106.653 392.643 108.5 392.467 110.413C392.378 111.362 392.12 112.317 391.658 113.181C391.187 114.039 390.53 114.794 389.768 115.409C388.231 116.638 386.431 117.356 384.693 118C382.948 118.627 381.227 119.245 379.538 119.852C376.158 121.061 372.898 122.228 369.791 123.341C363.583 125.551 357.989 127.543 353.277 129.221C348.597 130.867 344.798 132.203 342.129 133.142C340.838 133.584 339.82 133.933 339.09 134.183C338.764 134.289 338.502 134.374 338.295 134.441C338.114 134.497 338.021 134.521 338.018 134.512C338.015 134.504 338.103 134.463 338.277 134.391C338.48 134.311 338.736 134.21 339.054 134.084C339.778 133.812 340.784 133.432 342.061 132.951C344.717 131.974 348.497 130.585 353.154 128.874C357.854 127.166 363.435 125.139 369.63 122.89C372.733 121.768 375.99 120.592 379.366 119.372C381.054 118.763 382.772 118.143 384.515 117.514C386.24 116.875 387.991 116.166 389.441 115.004C390.16 114.424 390.766 113.724 391.202 112.934C391.628 112.138 391.868 111.257 391.953 110.364C392.122 108.567 391.725 106.772 391.229 105.07C390.152 101.666 389.011 98.3822 387.982 95.2532C385.907 89.0002 384.037 83.3642 382.461 78.6172C380.917 73.9032 379.662 70.0762 378.781 67.3872C378.366 66.0862 378.04 65.0612 377.806 64.3252C377.706 63.9962 377.627 63.7332 377.565 63.5242C377.511 63.3412 377.489 63.2472 377.498 63.2442Z" fill="#263238"/>
<path d="M349.342 49.455C349.316 49.499 348.811 49.186 347.828 48.79C346.843 48.414 345.352 47.975 343.463 47.915C341.586 47.846 339.302 48.136 337.022 49.132C334.75 50.116 332.512 51.863 330.91 54.24C329.276 56.608 328.561 59.348 328.56 61.833C328.539 64.329 329.069 66.552 329.578 68.376C330.105 70.202 330.644 71.651 330.999 72.657C331.358 73.663 331.552 74.222 331.517 74.236C331.485 74.248 331.228 73.715 330.81 72.731C330.397 71.745 329.804 70.313 329.226 68.482C328.666 66.653 328.086 64.402 328.08 61.83C328.053 59.272 328.785 56.398 330.478 53.947C332.14 51.483 334.469 49.686 336.832 48.691C339.203 47.686 341.558 47.428 343.481 47.546C345.417 47.655 346.93 48.162 347.908 48.603C348.392 48.84 348.762 49.034 348.995 49.197C349.233 49.352 349.352 49.439 349.342 49.455Z" fill="#263238"/>
<path d="M349.796 88.5846C349.79 88.5716 349.963 88.4856 350.303 88.3326C350.64 88.1756 351.156 87.9746 351.846 87.7776C352.531 87.5626 353.409 87.4066 354.445 87.3456C355.478 87.2946 356.695 87.4016 357.953 87.8686C360.508 88.7666 362.863 91.3786 364.019 94.8396C364.575 96.5876 364.624 98.6176 364.065 100.581C363.469 102.536 362.375 104.411 360.795 105.987L360.861 105.722C362.189 109.367 363.635 113.334 365.141 117.461L365.232 117.712L364.979 117.797C364.254 118.04 363.476 118.301 362.693 118.563C361.008 119.127 359.347 119.683 357.717 120.229L357.471 120.311L357.39 120.064C356.02 115.918 354.519 112.009 353.429 108.273L353.645 108.443C351.598 108.306 349.758 107.447 348.293 106.327C346.822 105.196 345.695 103.792 344.935 102.315C344.188 100.833 343.812 99.2596 343.875 97.8106C343.912 96.3626 344.246 95.0516 344.714 93.9466C345.647 91.7176 347.037 90.3156 348.067 89.5506C349.116 88.7836 349.796 88.5846 349.796 88.5846C349.82 88.6296 349.161 88.8806 348.16 89.6716C347.179 90.4616 345.853 91.8656 344.981 94.0556C344.11 96.1926 343.732 99.2646 345.29 102.132C346.037 103.549 347.138 104.896 348.561 105.975C349.978 107.043 351.746 107.848 353.67 107.966L353.839 107.976L353.886 108.136C354.989 111.846 356.498 115.739 357.88 119.902L357.552 119.738C359.181 119.192 360.842 118.634 362.527 118.069C363.31 117.807 364.087 117.546 364.813 117.303L364.651 117.638C363.156 113.507 361.718 109.536 360.399 105.889L360.345 105.742L360.464 105.624C361.96 104.145 363.05 102.311 363.624 100.451C364.17 98.5736 364.138 96.6446 363.62 94.9606C362.527 91.6016 360.28 89.0476 357.843 88.1506C356.64 87.6806 355.462 87.5526 354.45 87.5796C353.436 87.6156 352.569 87.7446 351.885 87.9326C350.513 88.2866 349.814 88.6286 349.796 88.5846Z" fill="#263238"/>
<path d="M318.891 377.318L219.01 376.856C206.997 376.801 197.302 367.02 197.353 355.007L198.412 104.603C198.463 92.5827 208.25 82.8817 220.269 82.9377L320.15 83.3987C332.163 83.4547 341.857 93.2357 341.806 105.248L340.747 355.652C340.698 367.672 330.911 377.374 318.891 377.318Z" fill="#455A64"/>
<path d="M320.008 92.0412L300.643 91.9522C298.046 91.9402 295.931 94.1322 295.92 96.8462L295.904 100.359C295.893 103.074 293.778 105.265 291.181 105.253L253.434 105.079C250.837 105.067 248.741 102.856 248.752 100.141L248.767 96.6282C248.778 93.9132 246.682 91.7022 244.085 91.6902L237.274 91.6582L220.325 91.5802C211.908 91.5412 205.053 98.3352 205.017 106.753L203.984 351.165C203.948 359.579 210.738 366.429 219.151 366.468L318.833 366.928C327.25 366.967 334.104 360.173 334.141 351.755L335.174 107.342C335.21 98.9302 328.421 92.0812 320.008 92.0412Z" fill="white"/>
<path d="M306.593 334.324L232.469 333.982C231.702 333.978 231.083 333.143 231.088 332.116L231.17 312.724C231.174 311.697 231.8 310.868 232.567 310.871L306.691 311.214C307.459 311.218 308.078 312.053 308.073 313.08L307.991 332.471C307.987 333.498 307.361 334.328 306.593 334.324Z" fill="#B357D4"/>
<path d="M255.08 324.707C254.228 324.703 253.393 324.398 252.973 323.958L253.21 323.497C253.614 323.896 254.336 324.192 255.082 324.195C256.146 324.2 256.61 323.756 256.613 323.196C256.619 321.637 253.117 322.579 253.125 320.477C253.129 319.641 253.781 318.921 255.226 318.928C255.867 318.931 256.532 319.121 256.985 319.439L256.781 319.917C256.295 319.598 255.727 319.442 255.224 319.439C254.185 319.434 253.72 319.895 253.718 320.463C253.712 322.022 257.214 321.096 257.205 323.166C257.202 324.002 256.533 324.713 255.08 324.707ZM258.508 324.674L258.531 318.992L259.132 318.995L259.108 324.676L258.508 324.674ZM265.137 319.022L265.729 319.025L265.705 324.707L265.21 324.704L261.577 320.077L261.558 324.688L260.957 324.685L260.981 319.003L261.476 319.005L265.117 323.633L265.137 319.022ZM271.565 323.808L271.573 321.893L272.15 321.895L272.141 324.063C271.603 324.539 270.839 324.779 270.052 324.775C268.323 324.767 267.062 323.536 267.069 321.872C267.076 320.208 268.347 318.988 270.084 318.996C270.944 319 271.69 319.28 272.191 319.826L271.816 320.206C271.339 319.733 270.772 319.535 270.106 319.532C268.702 319.526 267.667 320.519 267.661 321.875C267.655 323.222 268.682 324.233 270.078 324.24C270.622 324.242 271.126 324.123 271.565 323.808ZM278.251 324.813C276.798 324.806 275.917 323.958 275.924 322.327L275.937 319.072L276.538 319.075L276.524 322.305C276.519 323.653 277.149 324.272 278.253 324.277C279.365 324.283 280.001 323.669 280.007 322.321L280.02 319.091L280.605 319.093L280.591 322.348C280.584 323.98 279.704 324.82 278.251 324.813ZM284.541 319.111C285.986 319.118 286.86 319.853 286.854 321.07C286.849 322.28 285.97 323.006 284.525 322.999L282.999 322.992L282.991 324.786L282.391 324.783L282.415 319.102L284.541 319.111ZM284.511 322.472C285.647 322.477 286.25 321.96 286.254 321.067C286.258 320.158 285.659 319.636 284.523 319.631L283.013 319.624L283.001 322.465L284.511 322.472Z" fill="#E8E8E3"/>
<path d="M247.24 163.868L221.523 163.75L221.502 168.469L247.219 168.587L247.24 163.868Z" fill="#B357D4"/>
<path opacity="0.1" d="M247.24 163.868L221.523 163.75L221.502 168.469L247.219 168.587L247.24 163.868Z" fill="black"/>
<path d="M322.655 192.827C322.651 192.807 322.87 192.839 323.242 192.689C323.593 192.553 324.147 192.126 324.211 191.343C324.208 189.748 324.203 187.43 324.197 184.454C324.197 182.955 324.196 181.292 324.195 179.472C324.196 179.016 324.196 178.552 324.196 178.077C324.209 177.591 324.208 177.14 323.916 176.767C323.653 176.396 323.203 176.159 322.733 176.157C322.22 176.156 321.698 176.155 321.167 176.154C316.912 176.146 312.071 176.136 306.723 176.126C285.3 176.046 255.736 175.937 223.082 175.816C222.651 175.813 222.23 176.024 221.98 176.373C221.702 176.727 221.714 177.144 221.72 177.68C221.716 178.695 221.711 179.706 221.707 180.715C221.698 182.732 221.689 184.735 221.681 186.723C221.677 187.718 221.672 188.708 221.667 189.695C221.683 190.168 221.621 190.734 221.709 191.101C221.808 191.502 222.112 191.842 222.49 192.002C222.687 192.082 222.871 192.11 223.109 192.108L223.841 192.112L225.3 192.119C226.271 192.124 227.238 192.129 228.201 192.134C235.902 192.175 243.331 192.215 250.409 192.252C264.558 192.338 277.302 192.416 288.011 192.481C298.7 192.565 307.357 192.634 313.361 192.681C316.339 192.716 318.658 192.743 320.253 192.762C321.027 192.777 321.622 192.788 322.045 192.796C322.448 192.808 322.655 192.827 322.655 192.827C322.655 192.827 322.448 192.844 322.044 192.85C321.621 192.854 321.026 192.86 320.252 192.868C318.656 192.872 316.337 192.878 313.359 192.885C307.354 192.877 298.698 192.865 288.008 192.851C277.299 192.817 264.555 192.777 250.405 192.733C243.328 192.705 235.899 192.676 228.198 192.646C227.235 192.642 226.268 192.638 225.297 192.634L223.837 192.628L223.105 192.625C222.855 192.63 222.545 192.591 222.289 192.479C221.766 192.259 221.349 191.791 221.209 191.234C221.13 190.951 221.148 190.665 221.147 190.434L221.15 189.695C221.154 188.708 221.158 187.717 221.162 186.723C221.17 184.734 221.178 182.731 221.186 180.715C221.19 179.707 221.194 178.695 221.198 177.68C221.206 177.42 221.183 177.192 221.224 176.881C221.268 176.589 221.381 176.306 221.558 176.068C221.901 175.585 222.491 175.29 223.083 175.297C255.736 175.477 285.3 175.641 306.722 175.759C312.072 175.798 316.912 175.833 321.167 175.864C321.698 175.868 322.221 175.872 322.733 175.877C323.293 175.882 323.826 176.17 324.132 176.61C324.475 177.041 324.472 177.631 324.452 178.079C324.448 178.554 324.445 179.019 324.441 179.474C324.424 181.294 324.41 182.957 324.397 184.455C324.36 187.435 324.332 189.756 324.312 191.352C324.225 192.186 323.626 192.614 323.257 192.739C322.87 192.877 322.655 192.827 322.655 192.827Z" fill="#E0E0E0"/>
<path d="M275.47 182.117L228.427 181.9L228.406 186.311L275.449 186.528L275.47 182.117Z" fill="#B357D4"/>
<path opacity="0.2" d="M275.47 182.117L228.427 181.9L228.406 186.311L275.449 186.528L275.47 182.117Z" fill="white"/>
<path d="M247.059 206.933L221.342 206.814L221.32 211.533L247.037 211.652L247.059 206.933Z" fill="#B357D4"/>
<path opacity="0.1" d="M247.059 206.933L221.342 206.814L221.32 211.533L247.037 211.652L247.059 206.933Z" fill="black"/>
<path d="M321.995 235.887C321.993 235.869 322.205 235.888 322.588 235.775C322.951 235.656 323.536 235.356 323.855 234.642C324.026 234.29 324.043 233.863 324.028 233.374C324.026 232.888 324.024 232.358 324.022 231.785C324.02 230.634 324.017 229.309 324.014 227.821C324.014 226.328 324.013 224.67 324.013 222.857C324.013 222.403 324.013 221.94 324.013 221.467C324.035 220.989 323.977 220.546 323.721 220.147C323.481 219.755 323.09 219.444 322.634 219.305C322.187 219.163 321.652 219.24 321.123 219.219C316.883 219.211 312.059 219.201 306.727 219.191C285.379 219.112 255.917 219.002 223.377 218.882C222.473 218.86 221.638 219.597 221.551 220.491C221.521 221.442 221.535 222.493 221.525 223.485C221.516 225.494 221.507 227.491 221.499 229.472C221.495 230.463 221.49 231.451 221.486 232.434C221.503 232.925 221.433 233.438 221.549 233.83C221.662 234.244 221.926 234.613 222.279 234.855C222.646 235.102 223.043 235.193 223.523 235.175L224.978 235.182C225.946 235.187 226.909 235.192 227.869 235.197C235.544 235.237 242.947 235.277 249.999 235.314C264.1 235.4 276.799 235.478 287.471 235.543C298.123 235.627 306.749 235.695 312.733 235.742C315.701 235.777 318.011 235.804 319.601 235.823C320.372 235.838 320.965 235.849 321.387 235.857C321.789 235.868 321.995 235.887 321.995 235.887C321.995 235.887 321.789 235.904 321.386 235.91C320.965 235.914 320.371 235.92 319.6 235.928C318.011 235.932 315.7 235.938 312.732 235.946C306.749 235.938 298.122 235.926 287.469 235.912C276.797 235.879 264.098 235.839 249.997 235.795C242.944 235.767 235.541 235.738 227.867 235.708C226.907 235.704 225.944 235.7 224.976 235.696L223.521 235.69C223.032 235.716 222.431 235.598 221.989 235.282C221.536 234.972 221.198 234.499 221.052 233.967C220.903 233.407 220.992 232.92 220.97 232.432C220.974 231.449 220.977 230.461 220.981 229.47C220.989 227.488 220.998 225.492 221.005 223.482C221.017 222.464 220.997 221.498 221.034 220.429C221.145 219.278 222.219 218.331 223.379 218.36C255.919 218.54 285.38 218.703 306.728 218.821C312.059 218.86 316.882 218.895 321.123 218.927C321.646 218.955 322.175 218.87 322.716 219.036C323.239 219.199 323.68 219.557 323.95 220.005C324.237 220.444 324.299 221.005 324.27 221.467C324.266 221.94 324.263 222.403 324.259 222.858C324.243 224.671 324.228 226.329 324.215 227.822C324.199 229.311 324.186 230.635 324.174 231.786C324.167 232.359 324.161 232.889 324.156 233.374C324.165 233.851 324.136 234.324 323.949 234.685C323.597 235.428 322.979 235.72 322.601 235.826C322.205 235.925 321.995 235.887 321.995 235.887Z" fill="#E0E0E0"/>
<path d="M246.865 251.851L221.148 251.732L221.127 256.451L246.844 256.57L246.865 251.851Z" fill="#B357D4"/>
<path opacity="0.1" d="M246.865 251.851L221.148 251.732L221.127 256.451L246.844 256.57L246.865 251.851Z" fill="black"/>
<path d="M321.804 280.8C321.803 280.782 322.015 280.801 322.397 280.689C322.761 280.57 323.345 280.269 323.664 279.555C323.835 279.203 323.852 278.776 323.837 278.287C323.835 277.801 323.833 277.271 323.831 276.698C323.829 275.547 323.827 274.222 323.824 272.734C323.823 271.241 323.823 269.583 323.822 267.769C323.822 267.316 323.823 266.852 323.823 266.378C323.844 265.9 323.787 265.458 323.531 265.059C323.29 264.667 322.9 264.356 322.444 264.216C321.997 264.075 321.462 264.152 320.932 264.13C316.693 264.121 311.868 264.112 306.537 264.102C285.188 264.023 255.727 263.914 223.187 263.793C222.282 263.771 221.448 264.508 221.361 265.402C221.331 266.353 221.345 267.404 221.336 268.396C221.327 270.405 221.318 272.402 221.31 274.383C221.306 275.374 221.301 276.36 221.297 277.345C221.314 277.835 221.243 278.348 221.359 278.741C221.472 279.155 221.736 279.524 222.089 279.766C222.456 280.013 222.853 280.105 223.333 280.086L224.788 280.093C225.756 280.098 226.719 280.103 227.679 280.108C235.353 280.149 242.756 280.188 249.809 280.225C263.91 280.312 276.609 280.389 287.281 280.454C297.933 280.538 306.559 280.606 312.543 280.653C315.511 280.688 317.822 280.716 319.411 280.734C320.182 280.749 320.776 280.759 321.197 280.768C321.598 280.782 321.804 280.8 321.804 280.8C321.804 280.8 321.598 280.817 321.196 280.823C320.774 280.827 320.181 280.833 319.41 280.841C317.82 280.845 315.509 280.851 312.541 280.859C306.558 280.85 297.932 280.839 287.278 280.825C276.606 280.792 263.907 280.752 249.806 280.708C242.753 280.68 235.35 280.651 227.676 280.621C226.716 280.617 225.753 280.612 224.785 280.608L223.33 280.602C222.841 280.628 222.24 280.509 221.798 280.194C221.345 279.883 221.007 279.411 220.861 278.879C220.713 278.319 220.801 277.831 220.779 277.344C220.783 276.361 220.787 275.373 220.791 274.383C220.799 272.401 220.807 270.404 220.815 268.395C220.827 267.378 220.807 266.412 220.844 265.342C220.955 264.191 222.029 263.244 223.189 263.274C255.729 263.454 285.189 263.617 306.538 263.735C311.868 263.774 316.692 263.809 320.933 263.84C321.456 263.867 321.985 263.783 322.526 263.949C323.048 264.112 323.489 264.47 323.76 264.919C324.047 265.358 324.109 265.919 324.08 266.381C324.076 266.854 324.072 267.317 324.068 267.771C324.052 269.585 324.038 271.243 324.025 272.735C324.009 274.224 323.996 275.549 323.984 276.7C323.977 277.272 323.97 277.803 323.964 278.288C323.973 278.766 323.944 279.238 323.757 279.599C323.405 280.341 322.787 280.634 322.41 280.74C322.015 280.837 321.804 280.8 321.804 280.8Z" fill="#E0E0E0"/>
<path d="M275.289 225.181L228.245 224.965L228.225 229.376L275.269 229.592L275.289 225.181Z" fill="#B357D4"/>
<path opacity="0.2" d="M275.289 225.181L228.245 224.965L228.225 229.376L275.269 229.592L275.289 225.181Z" fill="white"/>
<path d="M232.51 272.637C232.505 273.848 231.58 274.826 230.444 274.821C229.308 274.815 228.392 273.829 228.397 272.618C228.402 271.407 229.327 270.428 230.463 270.434C231.599 270.439 232.515 271.425 232.51 272.637Z" fill="#B357D4"/>
<path d="M238.884 272.666C238.879 273.877 237.954 274.855 236.818 274.85C235.682 274.845 234.766 273.859 234.771 272.647C234.776 271.436 235.701 270.458 236.837 270.463C237.973 270.467 238.889 271.454 238.884 272.666Z" fill="#B357D4"/>
<path d="M245.257 272.695C245.252 273.906 244.327 274.885 243.191 274.879C242.055 274.874 241.139 273.888 241.144 272.676C241.149 271.465 242.074 270.487 243.21 270.492C244.345 270.497 245.262 271.483 245.257 272.695Z" fill="#B357D4"/>
<path d="M251.629 272.725C251.624 273.936 250.699 274.914 249.564 274.908C248.428 274.903 247.511 273.917 247.517 272.705C247.522 271.494 248.447 270.517 249.583 270.522C250.718 270.528 251.635 271.514 251.629 272.725Z" fill="#B357D4"/>
<path d="M258.003 272.754C257.998 273.966 257.073 274.944 255.937 274.938C254.801 274.933 253.884 273.947 253.889 272.736C253.895 271.524 254.82 270.546 255.955 270.551C257.091 270.557 258.007 271.543 258.003 272.754Z" fill="#B357D4"/>
<path d="M264.375 272.783C264.37 273.995 263.445 274.973 262.309 274.967C261.173 274.962 260.257 273.976 260.262 272.765C260.267 271.553 261.192 270.576 262.327 270.58C263.464 270.585 264.38 271.572 264.375 272.783Z" fill="#B357D4"/>
<path d="M270.749 272.813C270.743 274.025 269.818 275.003 268.683 274.998C267.547 274.992 266.631 274.006 266.636 272.795C266.641 271.583 267.566 270.606 268.701 270.611C269.836 270.616 270.753 271.602 270.749 272.813Z" fill="#B357D4"/>
<path d="M277.121 272.841C277.116 274.053 276.191 275.031 275.056 275.026C273.92 275.02 273.003 274.035 273.009 272.823C273.014 271.612 273.939 270.634 275.074 270.639C276.21 270.644 277.126 271.63 277.121 272.841Z" fill="#B357D4"/>
<path d="M283.494 272.873C283.489 274.084 282.564 275.062 281.429 275.057C280.293 275.052 279.376 274.066 279.381 272.854C279.387 271.643 280.312 270.666 281.447 270.67C282.583 270.674 283.499 271.661 283.494 272.873Z" fill="#B357D4"/>
<g opacity="0.2">
<path d="M232.51 272.637C232.505 273.848 231.58 274.826 230.444 274.821C229.308 274.815 228.392 273.829 228.397 272.618C228.402 271.407 229.327 270.428 230.463 270.434C231.599 270.439 232.515 271.425 232.51 272.637Z" fill="white"/>
<path d="M238.884 272.666C238.879 273.877 237.954 274.855 236.818 274.85C235.682 274.845 234.766 273.859 234.771 272.647C234.776 271.436 235.701 270.458 236.837 270.463C237.973 270.467 238.889 271.454 238.884 272.666Z" fill="white"/>
<path d="M245.257 272.695C245.252 273.906 244.327 274.885 243.191 274.879C242.055 274.874 241.139 273.888 241.144 272.676C241.149 271.465 242.074 270.487 243.21 270.492C244.345 270.497 245.262 271.483 245.257 272.695Z" fill="white"/>
<path d="M251.629 272.725C251.624 273.936 250.699 274.914 249.564 274.908C248.428 274.903 247.511 273.917 247.517 272.705C247.522 271.494 248.447 270.517 249.583 270.522C250.718 270.528 251.635 271.514 251.629 272.725Z" fill="white"/>
<path d="M258.003 272.754C257.998 273.966 257.073 274.944 255.937 274.938C254.801 274.933 253.884 273.947 253.889 272.736C253.895 271.524 254.82 270.546 255.955 270.551C257.091 270.557 258.007 271.543 258.003 272.754Z" fill="white"/>
<path d="M264.375 272.783C264.37 273.995 263.445 274.973 262.309 274.967C261.173 274.962 260.257 273.976 260.262 272.765C260.267 271.553 261.192 270.576 262.327 270.58C263.464 270.585 264.38 271.572 264.375 272.783Z" fill="white"/>
<path d="M270.749 272.813C270.743 274.025 269.818 275.003 268.683 274.998C267.547 274.992 266.631 274.006 266.636 272.795C266.641 271.583 267.566 270.606 268.701 270.611C269.836 270.616 270.753 271.602 270.749 272.813Z" fill="white"/>
<path d="M277.121 272.841C277.116 274.053 276.191 275.031 275.056 275.026C273.92 275.02 273.003 274.035 273.009 272.823C273.014 271.612 273.939 270.634 275.074 270.639C276.21 270.644 277.126 271.63 277.121 272.841Z" fill="white"/>
<path d="M283.494 272.873C283.489 274.084 282.564 275.062 281.429 275.057C280.293 275.052 279.376 274.066 279.381 272.854C279.387 271.643 280.312 270.666 281.447 270.67C282.583 270.674 283.499 271.661 283.494 272.873Z" fill="white"/>
</g>
<path d="M274.442 128.506C275.788 127.941 276.745 126.554 276.753 124.919C276.762 122.777 275.141 121.033 273.132 121.023C271.124 121.014 269.488 122.743 269.48 124.885C269.473 126.535 270.437 127.94 271.797 128.506C266.2 129.349 266.454 135.432 266.454 135.432L279.688 135.493C279.688 135.493 279.99 129.344 274.442 128.506Z" fill="#B357D4"/>
<path opacity="0.1" d="M274.442 128.506C275.788 127.941 276.745 126.554 276.753 124.919C276.762 122.777 275.141 121.033 273.132 121.023C271.124 121.014 269.488 122.743 269.48 124.885C269.473 126.535 270.437 127.94 271.797 128.506C266.2 129.349 266.454 135.432 266.454 135.432L279.688 135.493C279.688 135.493 279.99 129.344 274.442 128.506Z" fill="black"/>
<path d="M295.955 139.473L248.762 139.256L248.736 144.899L295.929 145.116L295.955 139.473Z" fill="#B357D4"/>
<path opacity="0.2" d="M295.955 139.473L248.762 139.256L248.736 144.899L295.929 145.116L295.955 139.473Z" fill="white"/>
<path d="M122.465 168.678C122.465 168.688 122.307 168.705 122.001 168.73C121.67 168.754 121.219 168.787 120.64 168.829C120.039 168.839 119.308 168.97 118.446 169.122C118.017 169.209 117.543 169.244 117.059 169.387C116.573 169.522 116.056 169.665 115.509 169.817C113.351 170.498 110.752 171.58 108.135 173.475C105.525 175.355 102.914 178.044 100.879 181.552C99.8091 183.276 99.0331 185.267 98.3361 187.36C97.7691 189.49 97.2671 191.753 97.2291 194.138C97.1231 195.327 97.2431 196.535 97.2931 197.763C97.3251 198.377 97.4571 198.985 97.5361 199.604C97.6201 200.223 97.7111 200.845 97.8871 201.456C98.3931 203.942 99.4061 206.379 100.687 208.714C103.248 213.402 107.552 217.441 112.867 219.782C115.526 220.955 118.466 221.588 121.456 221.711C124.449 221.901 127.515 221.42 130.421 220.421L131.3 220.098L131.416 220.056L131.521 220.109C135.824 222.294 140.044 224.436 144.133 226.512L143.758 226.832C142.411 222.652 141.106 218.6 139.853 214.711L139.805 214.561L139.916 214.45C143.095 211.267 145.31 207.4 146.538 203.441C147.769 199.47 147.979 195.426 147.499 191.72C147.019 188.006 145.805 184.629 144.186 181.787C142.568 178.937 140.556 176.622 138.491 174.814C136.402 173.019 134.236 171.803 132.295 170.872C130.307 170.04 128.535 169.507 127.062 169.223C126.326 169.097 125.671 168.986 125.1 168.889C124.534 168.849 124.052 168.816 123.653 168.788C123.281 168.759 122.988 168.737 122.766 168.72C122.567 168.699 122.465 168.686 122.465 168.678C122.465 168.671 122.567 168.669 122.767 168.672C122.989 168.678 123.283 168.687 123.657 168.697C124.058 168.713 124.544 168.733 125.114 168.756C125.69 168.842 126.351 168.94 127.094 169.051C128.582 169.311 130.377 169.822 132.396 170.64C134.366 171.557 136.57 172.767 138.7 174.567C140.806 176.379 142.861 178.712 144.52 181.593C146.179 184.466 147.431 187.889 147.935 191.66C148.439 195.422 148.241 199.534 147.001 203.579C145.764 207.612 143.518 211.559 140.282 214.811L140.345 214.55C141.603 218.436 142.915 222.487 144.268 226.665L144.466 227.276L143.893 226.986C139.802 224.912 135.582 222.773 131.277 220.59L131.498 220.601L130.6 220.931C127.629 221.953 124.493 222.442 121.434 222.248C118.379 222.121 115.373 221.47 112.658 220.268C107.229 217.871 102.85 213.739 100.253 208.957C98.9531 206.575 97.9321 204.09 97.4231 201.559C97.2471 200.937 97.1571 200.304 97.0731 199.674C96.9951 199.045 96.8641 198.425 96.8331 197.801C96.7861 196.553 96.6691 195.324 96.7821 194.117C96.8311 191.694 97.3501 189.396 97.9381 187.237C98.6561 185.115 99.4561 183.1 100.551 181.357C102.636 177.812 105.302 175.107 107.961 173.228C110.626 171.334 113.265 170.27 115.451 169.614C116.004 169.47 116.528 169.333 117.02 169.205C117.509 169.069 117.988 169.041 118.421 168.963C119.292 168.826 120.028 168.712 120.633 168.72C121.215 168.7 121.669 168.686 122.002 168.674C122.308 168.668 122.465 168.669 122.465 168.678Z" fill="#B357D4"/>
<path d="M128.168 192.028H126.32L122.287 186.407V182.718C122.287 182.718 119.431 182.542 119.766 187.373C120.102 192.204 119.739 190.974 119.739 190.974C119.739 190.974 113.674 190.997 113.17 191.524C112.803 191.907 112.638 197.932 112.574 201.199C112.542 202.844 113.551 204.374 115.081 204.763C115.298 204.819 115.518 204.851 115.734 204.851C117.247 204.851 124.976 203.621 124.976 203.621H128.168V192.028Z" fill="#B357D4"/>
<path d="M133.458 191.014L132.322 203.654H129.157V191.269L133.458 191.014Z" fill="#B357D4"/>
<path d="M171.15 448.341V439.785L155.819 439.682L155.692 452.607L156.642 452.678C160.871 452.951 178.163 453.349 180.996 452.472C184.157 451.495 171.15 448.341 171.15 448.341Z" fill="#B357D4"/>
<path d="M181.359 451.67C181.359 451.815 175.624 451.931 168.552 451.931C161.477 451.931 155.744 451.815 155.744 451.67C155.744 451.526 161.477 451.41 168.552 451.41C175.624 451.411 181.359 451.527 181.359 451.67Z" fill="#263238"/>
<path d="M171.419 450.087C171.293 450.021 171.401 449.569 171.73 449.123C172.058 448.676 172.459 448.438 172.559 448.539C172.662 448.642 172.452 449.018 172.149 449.432C171.846 449.843 171.548 450.156 171.419 450.087Z" fill="#263238"/>
<path d="M172.398 450.651C172.265 450.601 172.334 450.094 172.635 449.561C172.935 449.026 173.334 448.706 173.445 448.793C173.56 448.883 173.367 449.319 173.088 449.816C172.809 450.312 172.535 450.704 172.398 450.651Z" fill="#263238"/>
<path d="M160.363 451.632C160.303 451.674 160.075 451.449 159.743 451.073C159.409 450.7 158.972 450.172 158.398 449.726C157.829 449.282 157.202 449.059 156.739 449.001C156.273 448.938 155.967 449.011 155.941 448.936C155.914 448.88 156.199 448.666 156.752 448.633C157.296 448.596 158.065 448.803 158.716 449.313C159.363 449.818 159.777 450.42 160.04 450.856C160.302 451.296 160.42 451.592 160.363 451.632Z" fill="#263238"/>
<path d="M171.466 448.479C171.541 448.6 171.278 448.897 170.84 449.057C170.403 449.219 170.009 449.162 169.989 449.022C169.966 448.878 170.277 448.711 170.66 448.569C171.044 448.428 171.39 448.355 171.466 448.479Z" fill="#263238"/>
<path d="M171.227 447.653C171.241 447.797 170.832 447.92 170.315 447.926C169.797 447.933 169.385 447.822 169.396 447.678C169.406 447.534 169.814 447.412 170.308 447.405C170.801 447.399 171.213 447.51 171.227 447.653Z" fill="#263238"/>
<path d="M208.901 448.341L208.902 439.785L193.571 439.682L193.444 452.476L194.394 452.546C198.623 452.819 215.915 453.349 218.749 452.472C221.909 451.495 208.901 448.341 208.901 448.341Z" fill="#B357D4"/>
<path d="M219.111 451.689C219.111 451.832 213.377 451.95 206.304 451.95C199.229 451.95 193.496 451.833 193.496 451.689C193.496 451.545 199.229 451.428 206.304 451.428C213.376 451.428 219.111 451.545 219.111 451.689Z" fill="#263238"/>
<path d="M209.171 450.087C209.045 450.021 209.153 449.569 209.483 449.123C209.811 448.676 210.212 448.438 210.312 448.539C210.415 448.642 210.205 449.018 209.902 449.432C209.598 449.843 209.299 450.156 209.171 450.087Z" fill="#263238"/>
<path d="M210.15 450.651C210.017 450.601 210.086 450.094 210.387 449.561C210.687 449.026 211.086 448.706 211.197 448.793C211.312 448.883 211.119 449.319 210.841 449.816C210.561 450.312 210.286 450.704 210.15 450.651Z" fill="#263238"/>
<path d="M198.114 451.632C198.054 451.674 197.826 451.449 197.494 451.073C197.161 450.7 196.723 450.172 196.149 449.726C195.58 449.282 194.954 449.059 194.49 449.001C194.024 448.938 193.718 449.011 193.692 448.936C193.665 448.88 193.95 448.666 194.502 448.633C195.046 448.596 195.816 448.803 196.466 449.313C197.114 449.818 197.526 450.42 197.79 450.856C198.054 451.296 198.172 451.592 198.114 451.632Z" fill="#263238"/>
<path d="M209.218 448.479C209.293 448.6 209.03 448.897 208.593 449.057C208.155 449.219 207.762 449.162 207.741 449.022C207.718 448.878 208.029 448.711 208.412 448.569C208.796 448.428 209.142 448.355 209.218 448.479Z" fill="#263238"/>
<path d="M208.978 447.653C208.992 447.797 208.583 447.92 208.066 447.926C207.548 447.933 207.137 447.822 207.147 447.678C207.157 447.534 207.566 447.412 208.06 447.405C208.553 447.399 208.964 447.51 208.978 447.653Z" fill="#263238"/>
<path d="M265.378 194.446C264.978 194.034 263.994 194.228 263.994 194.228C263.994 194.228 264.166 193.059 263.984 192.494C263.803 191.929 262.543 192.038 262.543 192.038C262.543 192.038 262.465 191.494 262.575 190.616C262.603 190.396 262.481 190.234 262.282 190.113C261.685 189.752 260.398 189.769 260.398 189.769C259.626 189.217 262.75 184.849 263.908 183.451C265.053 182.07 264.86 180.963 263.827 180.965C263.123 180.966 259.476 185.165 258.363 186.575C257.251 187.984 254.267 191.905 254.166 188.776C254.064 185.647 252.807 183.28 252.021 182.877C251.235 182.474 250.387 183.42 250.822 184.289C251.174 184.991 251.396 186.344 251.522 187.367C251.626 188.211 251.591 189.067 251.407 189.896C250.885 192.24 250.324 193.762 250.061 194.413L249.984 194.37C249.984 194.37 228.157 215.299 226.584 216.793C225.168 218.137 196.806 215.203 191.124 214.6C189.571 214.426 187.271 214.114 185.278 214.202C182.813 214.31 182.375 214.66 179.908 214.693C172.354 214.794 166.059 215.529 161.374 216.322C155.71 217.28 151.066 221.312 149.313 226.783C143.578 244.68 130.604 287.051 128.292 310.855C126.471 314.279 124.436 318.278 123.609 320.528C122.002 324.903 122.392 325.052 122.934 325.153C124.388 325.422 126.052 317.565 126.673 319.461C127.295 321.358 123.521 328.834 125.052 329.053C127.048 329.338 128.639 321.081 128.825 320.392C129.006 319.723 130.013 319.949 129.812 320.562C129.522 321.443 126.708 330.773 128.666 331.072C129.751 331.238 129.868 329.261 129.868 329.261C129.868 329.261 131.858 320.338 132.777 320.51C133.711 320.685 132.719 325.963 132.258 327.719C131.803 329.454 132.444 330.376 133.38 329.94C134.018 329.642 135.555 324.296 135.969 322.549C136.384 320.802 137.435 315.989 138.847 318.783C140.259 321.577 142.396 323.193 143.279 323.228C144.161 323.262 144.531 322.047 143.77 321.442C143.155 320.954 142.383 319.821 141.837 318.946C141.387 318.225 141.057 317.434 140.875 316.604C140.172 313.404 140.178 311.543 140.178 311.543L140.015 310.515C142.254 299.422 148.709 266.877 157.981 246.085L161.799 253.942L163.456 259.758L153.281 284.897L196.694 284.325L190.222 259.386L198.085 233.381H198.084C206.594 233.571 228.451 233.888 232.124 232.246C236.703 230.2 260.402 200.326 260.402 200.326H260.401C262.002 199.051 263.63 197.68 264.831 196.483C264.833 196.481 266.246 195.338 265.378 194.446Z" fill="#FFBE9D"/>
<path d="M151.392 266.388C152.649 262.089 159.121 240.831 159.121 240.831C159.121 240.831 162.297 258.162 161.462 260.249C160.5 262.654 158.732 265.406 158.732 265.406C151.392 276.585 152.355 282.172 152.355 282.172L196.695 280.82C196.803 274.619 193.132 260.202 192.365 257.905C191.597 255.608 194.143 248.069 194.143 248.069C194.143 248.069 199.154 242.98 198.96 240.361C198.569 235.085 198.086 233.381 198.086 233.381L225.066 234.374L224.218 216.067L185.435 212.186C184.093 216.005 171.88 214.134 171.88 214.134C158.695 214.567 157.897 216.992 152.398 221.249C146.9 225.506 137.845 262.068 137.845 262.068L151.392 266.388Z" fill="#B357D4"/>
<path d="M177.615 262.063C177.614 262.132 176.722 262.191 175.278 262.181C173.835 262.172 171.84 262.082 169.648 261.863C167.455 261.641 165.483 261.332 164.066 261.053C162.65 260.775 161.787 260.54 161.8 260.472C161.814 260.399 162.699 260.506 164.125 260.69C165.551 260.875 167.519 261.125 169.7 261.344C171.88 261.563 173.858 261.71 175.292 261.813C176.727 261.917 177.616 261.988 177.615 262.063Z" fill="#263238"/>
<path d="M180.65 258.292C180.669 258.356 179.754 258.703 178.229 259.117C176.705 259.53 174.564 259.987 172.168 260.273C169.771 260.556 167.582 260.615 166.003 260.569C164.423 260.524 163.453 260.399 163.457 260.334C163.46 260.257 164.434 260.25 166.002 260.201C167.57 260.152 169.732 260.037 172.106 259.756C174.478 259.473 176.608 259.078 178.144 258.759C179.68 258.439 180.629 258.217 180.65 258.292Z" fill="#263238"/>
<path d="M195.565 241.471C195.634 241.486 195.52 242.35 195.262 243.733C195.004 245.116 194.599 247.016 194.088 249.1C193.576 251.185 193.057 253.058 192.646 254.403C192.235 255.749 191.937 256.568 191.868 256.549C191.798 256.529 191.971 255.676 192.29 254.308C192.668 252.747 193.103 250.955 193.582 248.977C194.072 247.002 194.516 245.213 194.903 243.654C195.252 242.292 195.494 241.456 195.565 241.471Z" fill="#263238"/>
<path d="M151.856 263.84C151.818 263.979 148.76 263.266 145.026 262.247C141.291 261.227 138.295 260.29 138.333 260.15C138.371 260.011 141.428 260.725 145.163 261.744C148.897 262.763 151.894 263.702 151.856 263.84Z" fill="#263238"/>
<path d="M198.574 233.146C198.574 233.17 198.163 233.213 197.426 233.14C196.693 233.065 195.62 232.894 194.377 232.413C193.133 231.947 191.719 231.168 190.398 229.99C189.077 228.817 187.896 227.203 187.143 225.304C186.378 223.406 186.127 221.428 186.247 219.667C186.363 217.909 186.829 216.32 187.616 215.207C188.395 214.079 189.428 213.533 190.147 213.344C190.511 213.247 190.805 213.224 191.001 213.229C191.198 213.234 191.299 213.256 191.299 213.272C191.301 213.321 190.884 213.298 190.208 213.537C189.544 213.775 188.61 214.336 187.922 215.413C186.561 217.553 186.181 221.46 187.628 225.112C188.353 226.938 189.468 228.488 190.722 229.636C191.975 230.789 193.323 231.576 194.515 232.072C196.917 233.068 198.592 233.035 198.574 233.146Z" fill="#263238"/>
<path d="M221.883 234.008C221.74 234.008 221.631 229.882 221.641 224.793C221.651 219.702 221.776 215.578 221.919 215.578C222.063 215.579 222.171 219.704 222.161 224.794C222.152 229.883 222.027 234.009 221.883 234.008Z" fill="#263238"/>
<path d="M185.198 213.301C185.307 211.069 185.541 208.548 185.541 208.548C185.541 208.548 191.059 207.94 191.394 202.239C191.729 196.538 191.394 183.393 191.394 183.393L181.343 178.275L170.287 187L171.962 215.501L182.135 216.148C183.739 216.25 185.116 214.972 185.198 213.301Z" fill="#FFBE9D"/>
<path d="M186.192 197.729C186.208 197.733 186.209 197.836 186.105 197.974C186.003 198.108 185.78 198.26 185.47 198.254C184.829 198.223 184.213 197.515 183.986 196.651C183.872 196.212 183.873 195.767 183.959 195.384C184.027 195.007 184.245 194.628 184.559 194.525C184.709 194.469 184.865 194.475 184.984 194.535C185.101 194.594 185.173 194.683 185.21 194.765C185.285 194.935 185.227 195.038 185.212 195.03C185.189 195.029 185.195 194.935 185.111 194.828C185.032 194.719 184.844 194.62 184.636 194.728C184.424 194.824 184.279 195.095 184.225 195.442C184.162 195.786 184.17 196.181 184.271 196.572C184.471 197.346 185.008 197.98 185.485 198.037C185.721 198.067 185.917 197.976 186.023 197.89C186.133 197.8 186.171 197.719 186.192 197.729Z" fill="#EB996E"/>
<path d="M194.821 180.315C194.053 177.691 191.263 176.387 188.721 175.667C184.854 174.571 180.665 174.086 176.887 175.477C173.109 176.868 168.565 179.315 168.566 183.489C166.336 183.305 165.062 185.259 164.177 187.68C163.654 189.11 163.31 190.702 163.229 192.279L163.192 192.267C162.905 197.73 161.383 205.257 157.841 209.298C155.885 211.529 153.069 213.07 151.929 215.849C150.938 218.264 151.451 221.118 150.514 223.556C149.687 225.708 147.856 227.236 146.543 229.108C143.684 233.186 143.489 238.947 145.59 243.498C147.691 248.049 151.854 251.379 156.475 252.905C161.096 254.431 166.13 254.263 170.833 253.039C174.305 252.135 177.683 250.639 180.45 248.274C183.217 245.909 185.34 242.622 185.973 238.952C186.677 234.867 185.534 230.719 184.693 226.662C182.033 213.827 182.793 213.16 186.15 201.254C186.226 201.044 186.273 200.825 186.331 200.609C186.375 200.451 186.418 200.3 186.463 200.138L186.456 200.136C186.55 199.67 186.611 199.196 186.613 198.712C185.641 199.095 184.467 198.84 183.721 198.086C182.976 197.332 182.698 196.116 183.037 195.093C183.427 193.916 184.507 193.13 185.616 192.663C186.725 192.196 187.918 191.965 189.007 191.448C191.316 190.349 192.917 188.069 194.006 185.68C194.771 184.005 195.34 182.087 194.821 180.315Z" fill="#263238"/>
<path d="M186.587 197.973C186.622 197.958 186.816 198.33 187.113 198.961C187.41 199.592 187.808 200.483 188.251 201.507L188.334 201.701L188.122 201.719C187.789 201.748 187.452 201.777 187.104 201.807C186.406 201.852 185.824 201.936 185.148 201.929C185.041 201.91 184.922 201.812 184.89 201.702C184.854 201.594 184.864 201.503 184.875 201.424C184.904 201.267 184.939 201.151 184.969 201.018L185.146 200.31C185.367 199.446 185.525 198.916 185.567 198.926C185.609 198.936 185.527 199.483 185.361 200.358L185.222 201.073C185.171 201.315 185.083 201.676 185.213 201.648C185.711 201.627 186.42 201.544 187.078 201.495C187.426 201.467 187.763 201.441 188.096 201.414L187.968 201.626C187.54 200.597 187.177 199.69 186.929 199.038C186.684 198.387 186.552 197.988 186.587 197.973Z" fill="#B357D4"/>
<path d="M152.355 282.172L196.695 280.82L215.98 356.159L212.428 442.578H188.959L191.867 357.999L174.715 305.553L177.358 445.929L153.664 446.279L151.168 314.331C151.064 310.664 149.857 302.39 150.306 298.752L152.355 282.172Z" fill="#263238"/>
<path d="M180.621 306.617C180.612 306.686 179.78 306.645 178.446 306.488C177.112 306.331 175.277 306.049 173.267 305.646C171.257 305.241 169.456 304.791 168.165 304.419C166.874 304.047 166.091 303.766 166.109 303.697C166.149 303.552 169.368 304.333 173.37 305.135C177.369 305.944 180.64 306.468 180.621 306.617Z" fill="#455A64"/>
<path d="M212.214 437.838C212.214 437.983 206.9 438.099 200.348 438.099C193.793 438.099 188.481 437.983 188.481 437.838C188.481 437.695 193.793 437.578 200.348 437.578C206.9 437.579 212.214 437.695 212.214 437.838Z" fill="#455A64"/>
<path d="M177.146 442.281C177.146 442.426 171.992 442.542 165.634 442.542C159.275 442.542 154.121 442.426 154.121 442.281C154.121 442.137 159.275 442.021 165.634 442.021C171.992 442.021 177.146 442.137 177.146 442.281Z" fill="#455A64"/>
<path d="M174.094 441.92C173.95 441.922 173.327 411.248 172.702 373.417C172.077 335.572 171.687 304.9 171.831 304.898C171.975 304.896 172.598 335.563 173.223 373.408C173.848 411.24 174.238 441.917 174.094 441.92Z" fill="#455A64"/>
<path d="M209.062 437.837C209.053 437.837 209.05 437.698 209.051 437.429C209.056 437.134 209.064 436.738 209.073 436.231C209.104 435.15 209.149 433.604 209.206 431.627C209.346 427.602 209.546 421.824 209.794 414.696C210.341 400.379 211.096 380.644 211.93 358.846C211.938 358.645 211.946 358.444 211.953 358.258L211.961 358.332C206.706 337.289 201.956 318.269 198.512 304.479C196.822 297.61 195.453 292.044 194.499 288.166C194.041 286.26 193.684 284.769 193.434 283.727C193.322 283.238 193.235 282.855 193.17 282.57C193.113 282.308 193.088 282.174 193.097 282.172C193.105 282.17 193.147 282.301 193.221 282.558C193.298 282.839 193.402 283.219 193.535 283.703C193.808 284.74 194.197 286.223 194.695 288.119C195.687 291.986 197.11 297.538 198.867 304.391C202.349 318.171 207.152 337.178 212.465 358.206L212.474 358.242L212.473 358.28C212.466 358.465 212.457 358.666 212.45 358.868C211.557 380.663 210.748 400.394 210.161 414.711C209.844 421.836 209.587 427.61 209.408 431.635C209.308 433.611 209.231 435.155 209.177 436.236C209.146 436.742 209.122 437.138 209.104 437.432C209.085 437.701 209.071 437.838 209.062 437.837Z" fill="#455A64"/>
<path d="M201.414 356.5C201.438 356.642 199.117 357.158 196.229 357.654C194.073 358.025 192.211 358.279 191.398 358.325L191.397 358.122C191.667 358.196 191.812 358.254 191.806 358.29C191.801 358.326 191.644 358.337 191.365 358.325L190.759 358.299L191.364 358.122C192.146 357.893 193.986 357.512 196.142 357.142C199.028 356.645 201.389 356.357 201.414 356.5Z" fill="#455A64"/>
<path d="M200.964 359.376C200.944 359.521 198.861 359.36 196.296 359.163C193.731 358.961 191.648 358.797 191.651 358.65C191.654 358.508 193.755 358.44 196.337 358.643C198.917 358.842 200.983 359.236 200.964 359.376Z" fill="#455A64"/>
<path opacity="0.2" d="M152.158 283.763C153.23 285.272 154.759 285.801 156.536 286.092C158.312 286.383 160.125 286.189 161.913 285.99C173.358 284.72 185.486 283.549 196.695 280.818C182.186 281.631 166.864 281.357 152.355 282.17C152.355 282.17 152.231 283.168 152.202 283.408" fill="black"/>
<g opacity="0.2">
<path d="M167.113 304.215L175.287 335.948L174.715 305.552L167.113 304.215Z" fill="black"/>
</g>
</svg>
