<svg width="183" height="158" viewBox="0 0 183 158" fill="none" xmlns="http://www.w3.org/2000/svg">
<path d="M129.673 150.028H126.301C111.436 150.028 99.3857 137.978 99.3857 123.114V102.352C99.3857 87.4872 111.436 75.437 126.301 75.437H129.673C144.537 75.437 156.588 87.4872 156.588 102.352V123.114C156.588 137.978 144.537 150.028 129.673 150.028Z" fill="#545FAC"/>
<path d="M129.673 150.028H126.301C111.436 150.028 99.3857 137.978 99.3857 123.114V102.352C99.3857 87.4872 111.436 75.437 126.301 75.437H129.673C144.537 75.437 156.588 87.4872 156.588 102.352V123.114C156.588 137.978 144.537 150.028 129.673 150.028Z" fill="#545FAC"/>
<path d="M125.25 150.028H117.793C103.742 150.028 92.3521 138.638 92.3521 124.588V100.877C92.3521 86.8266 103.742 75.4365 117.793 75.4365H125.25C139.3 75.4365 150.69 86.8266 150.69 100.877V124.588C150.69 138.638 139.3 150.028 125.25 150.028Z" fill="#3F4781"/>
<path d="M98.8316 54.7031C98.8316 54.7031 90.7462 79.4005 88.2798 89.6911" stroke="black" stroke-width="0.471504" stroke-miterlimit="10" stroke-linecap="round"/>
<path d="M133.031 45.6383C133.031 45.6383 128.287 41.4871 128.06 41.3891C127.833 41.291 125.104 38.8779 121.878 39.2456L128.485 54.2036C128.485 54.2036 126.003 56.2938 126.486 57.5631C126.97 58.8324 128.728 56.7511 129.634 56.3659C130.539 55.9807 132.038 54.2234 132.474 53.4643C132.908 52.7052 133.031 45.6383 133.031 45.6383Z" fill="#BA6F4C"/>
<path d="M125.534 44.3359C125.534 44.3359 127.246 48.2235 129.56 49.1491" stroke="black" stroke-width="0.471504" stroke-miterlimit="10" stroke-linecap="round"/>
<path d="M122.85 43.1794C122.85 43.1794 140.066 65.9493 140.622 79.8332C140.622 79.8332 125.488 105.01 90.5005 85.9887L96.7484 55.2589L122.85 43.1794Z" fill="black"/>
<path d="M125.118 46.2341C125.118 46.2341 135.299 60.6735 142.519 75.1128" stroke="black" stroke-width="0.471504" stroke-miterlimit="10" stroke-linecap="round"/>
<path d="M125.349 75.2511C125.349 75.2511 147.008 71.0858 157.143 72.1967C157.143 72.1967 163.391 79.2777 165.751 83.8593L147.517 95.3367C147.517 95.3367 149.646 123.567 142.287 141.756H73.5615C73.5615 141.756 77.5585 102.854 80.9203 96.3551C83.0029 92.3289 84.854 87.886 94.6656 84.2761C104.477 80.6663 106.189 77.3342 106.189 77.3342L125.349 75.2511Z" fill="#9EC68A"/>
<path d="M124.648 75.6604C124.648 75.6604 127.088 75.3605 127.709 79.15" stroke="black" stroke-width="0.471504" stroke-miterlimit="10" stroke-linecap="round"/>
<path d="M106.107 80.6382C106.107 80.6382 103.308 83.1306 105.593 86.986" stroke="black" stroke-width="0.471504" stroke-miterlimit="10" stroke-linecap="round"/>
<path d="M87.7231 99.1318L92.1661 105.102" stroke="black" stroke-width="0.471504" stroke-miterlimit="10" stroke-linecap="round"/>
<path d="M113.13 85.9423C108.325 85.9423 107.021 79.2238 107.021 74.4187L107.16 64.0522H124.561V77.0606C124.562 81.8657 117.936 85.9423 113.13 85.9423Z" fill="#BA6F4C"/>
<path d="M122.937 64.0518H107.16L107.021 74.4187C107.021 77.3567 107.511 81.0075 108.988 83.4032C117.753 81.9548 121.6 73.3107 122.937 64.0518Z" fill="black"/>
<path d="M132.473 53.4644L162.905 85.7341C162.905 85.7341 169.176 83.4898 172.878 78.6762C176.581 73.8631 168.759 65.5326 158.393 58.8683C148.026 52.2041 132.406 45.123 132.406 45.123C132.406 45.123 132.103 47.3551 132.473 53.4644Z" fill="#BA6F4C"/>
<path d="M140.297 106.814C140.297 106.814 138.63 123.765 123.451 122.848" stroke="black" stroke-width="0.471504" stroke-miterlimit="10" stroke-linecap="round"/>
<path d="M100.397 71.9586C100.917 72.6804 101.161 73.8073 100.979 75.0153C100.686 76.9485 99.4141 78.3597 98.1368 78.1664C96.8595 77.9735 96.0608 76.2497 96.3526 74.3161C96.5266 73.1632 97.049 72.1967 97.7134 71.6445" stroke="white" stroke-width="0.471504" stroke-miterlimit="10" stroke-linecap="round"/>
<path d="M92.71 51.5913C92.71 51.5913 92.2922 79.3925 107.948 81.3125C121.565 82.9826 123.697 60.1373 122.72 51.4682C121.743 42.7991 117.886 38.2397 107.239 38.4047C91.4893 38.6485 92.71 51.5913 92.71 51.5913Z" fill="#BA6F4C"/>
<path d="M121.046 56.9243L121.451 59.0843C121.451 59.0843 130.311 60.2725 132.57 58.8683C132.57 58.8683 127.547 45.3258 124.1 41.2355C120.654 37.1452 115.756 33.3227 104.94 34.849C94.1246 36.3753 91.5191 46.7431 91.5191 46.7431C91.5191 46.7431 88.9272 53.8817 93.7408 62.1198C93.7408 62.1198 93.7899 52.6841 95.8697 49.9366C95.8697 49.9366 105.833 61.1367 121.046 56.9243Z" fill="black"/>
<path d="M125.315 65.101C124.639 68.2544 122.341 70.436 120.182 69.973C118.023 69.5105 116.82 66.5786 117.496 63.4252C118.172 60.2718 120.47 58.0902 122.629 58.5532C124.788 59.0157 125.99 61.9475 125.315 65.101Z" fill="#BA6F4C"/>
<path d="M123.098 62.3704C123.098 62.3704 121.032 60.5971 120.118 64.1065C120.118 64.1065 121.337 65.3993 120.66 66.5078C120.66 66.5078 121.811 66.7294 122.319 65.5842" stroke="black" stroke-width="0.471504" stroke-miterlimit="10" stroke-linecap="round" stroke-linejoin="round"/>
<path d="M122.306 63.7383C122.306 63.7383 122.159 62.9783 121.35 62.1479" stroke="black" stroke-width="0.471504" stroke-miterlimit="10" stroke-linecap="round" stroke-linejoin="round"/>
<path d="M109.147 65.9465C109.174 66.7292 108.814 67.377 108.345 67.3931C107.875 67.4091 107.473 66.7872 107.446 66.0045C107.42 65.2218 107.779 64.574 108.249 64.5579C108.718 64.5419 109.121 65.1638 109.147 65.9465Z" fill="black"/>
<path d="M98.9638 67.3276C98.9902 68.1103 98.6309 68.7581 98.1613 68.7742C97.6917 68.7902 97.289 68.1683 97.2626 67.3856C97.2362 66.6024 97.5955 65.9551 98.0651 65.939C98.5352 65.923 98.9374 66.5449 98.9638 67.3276Z" fill="black"/>
<path d="M97.6367 63.3186C97.6367 63.3186 97.2746 64.9095 95.8247 64.4686" stroke="black" stroke-width="0.471504" stroke-miterlimit="10" stroke-linecap="round"/>
<path d="M109.088 62.1779C109.088 62.1779 106.975 62.8711 105.749 61.4773" stroke="black" stroke-width="0.471504" stroke-miterlimit="10" stroke-linecap="round"/>
<path d="M100.811 69.7893C100.811 69.7893 100.451 71.1463 101.15 71.3481C101.849 71.5499 102.781 71.8191 103.658 71.2557C104.535 70.6922 105.421 70.9619 104.62 69.7888" stroke="black" stroke-width="0.471504" stroke-miterlimit="10" stroke-linecap="round"/>
<path d="M122.157 56.161C104.386 64.4915 95.6852 50.1677 95.6852 50.1677C95.6852 50.1677 95.0835 51.0471 99.1102 56.4618" stroke="black" stroke-width="0.471504" stroke-miterlimit="10" stroke-linecap="round"/>
<path d="M124.358 67.74C125.05 68.2134 125.628 69.1338 125.853 70.2635C126.215 72.0712 125.539 73.73 124.345 73.9681C123.15 74.2067 121.889 72.9345 121.528 71.1273C121.313 70.0499 121.466 69.0248 121.878 68.3228" stroke="white" stroke-width="0.471504" stroke-miterlimit="10" stroke-linecap="round"/>
<path d="M110.495 76.8946C110.495 76.8946 110.807 75.1128 112.369 75.1128" stroke="black" stroke-width="0.471504" stroke-miterlimit="10" stroke-linecap="round"/>
<path d="M150.109 72.012C150.109 72.012 148.721 87.6546 162.906 85.7341L150.109 72.012Z" fill="#BA6F4C"/>
<path d="M150.109 72.012C150.109 72.012 154.367 77.8897 158.81 78.7224" stroke="black" stroke-width="0.471504" stroke-miterlimit="10" stroke-linecap="round"/>
<path d="M140.899 141.895C140.899 141.895 146.957 121.911 146.313 95.2448C146.313 95.2448 146.009 95.0897 145.147 94.6092C143.896 93.9119 141.929 92.5879 140.065 90.3855" stroke="black" stroke-width="0.471504" stroke-miterlimit="10" stroke-linecap="round"/>
<path d="M159.457 86.0347C159.457 86.0347 148.951 93.856 146.313 95.2445" stroke="black" stroke-width="0.471504" stroke-miterlimit="10" stroke-linecap="round"/>
<path d="M127.559 76.1741C127.559 76.1741 130.214 87.6066 116.041 90.2612C103.849 92.5447 103.795 81.4408 103.795 81.4408" stroke="black" stroke-width="0.471504" stroke-miterlimit="10" stroke-linecap="round"/>
<path d="M119.98 83.8171C119.98 83.8171 121.629 84.6107 121.563 88.3346" stroke="black" stroke-width="0.471504" stroke-miterlimit="10" stroke-linecap="round"/>
<path d="M122.764 81.4194C122.764 81.4194 124.477 82.5114 124.412 86.4292" stroke="black" stroke-width="0.471504" stroke-miterlimit="10" stroke-linecap="round"/>
<path d="M124.648 78.2507C124.648 78.2507 126.562 79.3574 126.489 83.6457" stroke="black" stroke-width="0.471504" stroke-miterlimit="10" stroke-linecap="round"/>
<path d="M108.067 81.9651C108.067 81.9651 105.969 84.7055 107.682 88.9443" stroke="black" stroke-width="0.471504" stroke-miterlimit="10" stroke-linecap="round"/>
<path d="M109.852 84.4812C109.852 84.4812 108.782 86.8378 110.764 90.2722" stroke="black" stroke-width="0.471504" stroke-miterlimit="10" stroke-linecap="round"/>
<path d="M113.18 86.1614C113.18 86.1614 113.058 88.8933 113.749 90.4648" stroke="black" stroke-width="0.471504" stroke-miterlimit="10" stroke-linecap="round"/>
<path d="M116.897 85.519C116.897 85.519 117.837 87.0194 117.641 89.8225" stroke="black" stroke-width="0.471504" stroke-miterlimit="10" stroke-linecap="round"/>
<path d="M123.737 87.0283C123.737 87.0283 118.781 93.6011 110.046 93.6011" stroke="black" stroke-width="0.471504" stroke-miterlimit="10" stroke-linecap="round"/>
<path d="M162.029 154.645H0L20.6849 141.733H182.714L162.029 154.645Z" fill="#C6D3F7"/>
<path d="M43.7097 136.22C41.9312 134.968 39.5652 134.329 37.1261 134.306C33.9175 134.277 29.5382 134.932 28.0921 135.098C27.2014 135.2 27.1872 133.838 24.4893 137.401C23.4232 138.809 23.1399 139.165 22.9984 139.651C22.857 140.137 23.2483 145.674 24.6128 146.107C24.6553 146.121 24.6897 146.1 24.7307 146.096C24.8019 146.545 25.1626 147.264 25.4997 147.695C25.7152 147.97 26.968 148.537 27.3617 146.455C27.3617 146.455 27.6682 148.146 28.6126 148.746C29.5929 149.369 30.0361 148.212 30.1511 147.284C30.2765 148.089 30.8838 149.435 31.7241 149.132C33.3715 148.54 32.5487 143.71 32.5487 143.71L34.4805 140.223L37.2223 140.869C37.2223 140.869 42.9407 143.396 45.1515 140.075C46.1643 138.554 45.1289 137.219 43.7097 136.22Z" fill="#BA6F4C"/>
<path d="M27.0485 136.379L24.3359 140.275L24.9489 145.863" stroke="black" stroke-width="0.471504" stroke-miterlimit="10" stroke-linecap="round"/>
<path d="M29.1122 137.186L26.9678 141.565L27.3624 146.456" stroke="black" stroke-width="0.471504" stroke-miterlimit="10" stroke-linecap="round"/>
<path d="M32.0446 138.003L30.0034 142.146L30.1468 146.588" stroke="black" stroke-width="0.471504" stroke-miterlimit="10" stroke-linecap="round"/>
<path d="M40.0425 140.802C40.0425 140.802 36.9673 144.018 37.8335 145.365C38.6996 146.713 46.1334 140.511 44.6316 139.767C42.4321 138.677 40.0425 140.802 40.0425 140.802Z" fill="#BA6F4C"/>
<path d="M38.4775 139.5C38.4775 139.5 39.7544 140.263 39.2169 141.734" stroke="black" stroke-width="0.471504" stroke-miterlimit="10" stroke-linecap="round"/>
<path d="M109.384 142.936L124.076 143.266C124.514 143.276 124.865 143.634 124.865 144.073V145.261C124.865 145.579 124.679 145.867 124.389 145.997L113.133 151.058L109.885 151.197L109.384 142.936Z" fill="#8796FF"/>
<path d="M124.388 144.007L113.132 149.069L109.883 149.208V151.198L113.132 151.059L124.388 145.997C124.678 145.867 124.864 145.578 124.864 145.261V144.073C124.864 143.926 124.821 143.789 124.753 143.67C124.669 143.815 124.546 143.936 124.388 144.007Z" fill="#E1E7F7"/>
<path d="M111.272 151.198H43.7666C42.6887 151.198 41.7636 150.408 41.5666 149.32L32.6047 106.977C32.3482 105.564 34.5921 103.714 35.992 103.714H103.497C104.575 103.714 105.5 104.504 105.697 105.592L113.472 148.479C113.728 149.892 112.672 151.198 111.272 151.198Z" fill="white"/>
<path d="M100.359 106.699L103.765 103.738C103.677 103.728 103.589 103.714 103.497 103.714H35.992C34.5916 103.714 32.3482 105.563 32.6047 106.977L33.7872 112.565L60.2801 113.341L100.359 106.699Z" fill="#8796FF"/>
<path d="M113.472 148.479L105.855 106.461C105.224 106.784 104.273 107.478 103.829 108.851C103.298 110.499 103.662 138.269 103.861 151.198H111.272C112.672 151.198 113.728 149.892 113.472 148.479Z" fill="#E1E7F7"/>
<path d="M109.884 151.198H42.3784C41.3006 151.198 40.3755 150.429 40.1784 149.369L32.4038 107.612C32.1473 106.235 33.2039 104.964 34.6038 104.964H102.109C103.187 104.964 104.112 105.733 104.309 106.793L112.084 148.55C112.34 149.927 111.284 151.198 109.884 151.198Z" fill="#545FAC"/>
<path d="M72.1676 137.204C74.9038 135.9 75.7045 131.869 73.9562 128.2C72.2078 124.532 68.5723 122.615 65.8361 123.919C63.0999 125.223 62.2992 129.254 64.0476 132.923C65.796 136.591 69.4314 138.508 72.1676 137.204Z" fill="#7584F1"/>
<path d="M162.029 154.645H0V158H162.029V154.645Z" fill="#7584F1"/>
<path d="M162.03 158L182.714 145.088V141.733L162.03 154.645V158Z" fill="#8AA5EB"/>
<path d="M101.226 84.9517C101.226 84.9517 105.08 99.7239 113.301 99.9808" stroke="black" stroke-width="0.471504" stroke-miterlimit="10" stroke-linecap="round"/>
<path d="M169.375 120.602C169.375 120.602 167.972 120.066 169.765 116.565C171.468 113.239 173.328 110.122 177.462 107.572C177.462 107.572 177.071 114.435 174.515 117.075C171.959 119.715 169.375 120.602 169.375 120.602Z" fill="#7E9E6E"/>
<path d="M180.343 121.06C180.343 121.06 176.06 123.932 168.154 124.233C168.154 124.233 168.5 123.187 171.819 121.53C175.137 119.872 181.118 119.992 180.343 121.06Z" fill="#7E9E6E"/>
<path d="M180.343 121.06C180.343 121.06 174.589 120.126 168.154 124.233C168.154 124.233 167.498 124.699 166.948 126.005" stroke="black" stroke-width="0.471504" stroke-miterlimit="10" stroke-linecap="round"/>
<path d="M177.291 126.982C177.291 126.982 173.031 132.357 165.125 132.657C165.125 132.657 166.177 129.147 169.496 127.49C172.815 125.832 178.066 125.914 177.291 126.982Z" fill="#7E9E6E"/>
<path d="M177.291 126.982C177.291 126.982 171.809 126.439 165.125 132.657C165.125 132.657 164.342 133.412 163.791 134.718" stroke="black" stroke-width="0.471504" stroke-miterlimit="10" stroke-linecap="round"/>
<path d="M165.751 125.888C165.751 125.888 164.767 126.758 162.614 125.62C160.46 124.482 159.159 120.519 157.409 120.539C157.409 120.539 161.778 120.323 165.751 125.888Z" fill="#7E9E6E"/>
<path d="M162.417 139.523C163.881 133.935 166.08 127.368 169.375 120.602C169.375 120.602 170.161 118.777 173.07 113.689C175.979 108.602 177.462 107.572 177.462 107.572" stroke="black" stroke-width="0.471504" stroke-miterlimit="10" stroke-linecap="round"/>
<path d="M157.932 120.564C157.932 120.564 162.159 120.853 165.751 125.887C166.621 127.107 165.996 128.607 165.475 129.765" stroke="black" stroke-width="0.471504" stroke-miterlimit="10" stroke-linecap="round"/>
<path d="M157.083 136.613L159.135 147.929C159.135 148.622 161.325 149.185 164.026 149.185C166.728 149.185 168.917 148.622 168.917 147.929L170.97 136.613H157.083Z" fill="#545FAC"/>
<path d="M170.97 136.613C170.97 137.307 167.861 137.869 164.026 137.869C160.192 137.869 157.083 137.307 157.083 136.613C157.083 135.92 160.192 135.358 164.026 135.358C167.861 135.358 170.97 135.92 170.97 136.613Z" fill="black"/>
<path d="M144.236 0.00614727C135.936 0.232469 129.069 6.88067 128.591 15.1702C128.31 20.0446 130.199 24.48 133.378 27.6094C133.848 28.0719 134.066 28.7311 133.956 29.3808L132.762 36.4458L140.108 32.166C140.527 31.9222 141.019 31.8327 141.494 31.9284C143.29 32.2905 145.192 32.3574 147.153 32.0604C154.41 30.9608 160.071 24.9534 160.741 17.6446C161.633 7.90242 153.852 -0.256009 144.236 0.00614727Z" fill="#D3DDF7"/>
<path d="M144.243 23.3235C144.02 23.3235 143.849 23.2528 143.73 23.1118C143.611 22.9708 143.552 22.7742 143.552 22.521C143.552 22.2834 143.615 22.0901 143.742 21.9416C143.868 21.793 144.035 21.7185 144.243 21.7185C144.481 21.7185 144.656 21.7893 144.767 21.9302C144.879 22.0717 144.935 22.2683 144.935 22.521C144.935 22.7441 144.875 22.9336 144.756 23.0897C144.637 23.2453 144.467 23.3235 144.243 23.3235ZM144.106 17.7716C144.089 17.3109 144.072 16.8389 144.055 16.3556C144.038 15.8728 144.026 15.3895 144.017 14.9062C144.009 14.4234 144.012 13.9288 144.03 13.4234V7.53711H144.589L144.615 13.4238C144.615 13.9293 144.61 14.4234 144.602 14.9067C144.593 15.39 144.581 15.8733 144.564 16.3561C144.547 16.8394 144.53 17.3114 144.513 17.772L144.106 17.7716Z" fill="black"/>
<path d="M24.7251 53.6858C23.925 53.6872 23.1498 53.4076 22.5345 52.896L20.8277 51.4763C20.2133 50.9657 19.4844 50.6922 18.738 50.6936L10.2783 50.7068C9.51066 50.7082 8.88921 51.3311 8.89063 52.0987L8.89299 53.7108L8.93825 82.7252C8.94014 84.0497 10.0156 85.1219 11.3406 85.12L53.5114 85.054C54.5416 85.0521 55.3757 84.2156 55.3743 83.1854L55.3309 55.5039C55.3295 54.4737 54.4926 53.6396 53.4624 53.641L24.7251 53.6858Z" fill="#D3DDF7"/>
<path d="M50.3948 60.6956H41.8445C41.1891 60.6956 40.6582 60.1647 40.6582 59.5093C40.6582 58.8539 41.1891 58.323 41.8445 58.323H50.3948C51.0501 58.323 51.5811 58.8539 51.5811 59.5093C51.5811 60.1647 51.0497 60.6956 50.3948 60.6956Z" stroke="black" stroke-width="0.471504" stroke-miterlimit="10" stroke-linecap="round"/>
<path d="M22.0576 54.7427H53.6922" stroke="black" stroke-width="0.471504" stroke-miterlimit="10" stroke-linecap="round"/>
<path d="M37.5009 65.832L27.2212 76.1122" stroke="black" stroke-width="0.471504" stroke-miterlimit="10" stroke-linecap="round" stroke-linejoin="round"/>
<path d="M37.5009 76.1122L27.2212 65.832" stroke="black" stroke-width="0.471504" stroke-miterlimit="10" stroke-linecap="round" stroke-linejoin="round"/>
<path d="M124.562 77.0596C124.562 81.8647 117.936 85.9418 113.131 85.9418" stroke="black" stroke-width="0.471504" stroke-miterlimit="10" stroke-linecap="round"/>
</svg>
