<svg width="269" height="167" viewBox="0 0 269 167" fill="none" xmlns="http://www.w3.org/2000/svg">
<path d="M86.5464 147.57C75.1198 144.178 64.1215 139.768 54.5955 133.69C13.446 107.438 22.491 46.6268 54.7812 17.0788C64.9067 7.81318 78.0254 1.348 91.8017 0.202016C107.22 -1.08056 123.362 3.75754 134.967 14.1211C145.511 23.5376 151.705 36.4584 165.421 42.0386C181.329 48.511 198.972 45.976 215.647 47.8934C248.422 51.6623 269.841 80.3806 262.601 113.151C254.211 151.13 219.302 159.584 185.465 160.907C165.846 161.674 146.228 159.705 126.912 156.369C113.995 154.139 99.9749 151.557 86.5464 147.57Z" fill="#F6F9FF"/>
<path d="M48.4507 101.744C46.7734 103.216 44.2763 103.686 42.1785 102.923C40.0807 102.161 38.4686 100.197 38.129 97.9905C37.7295 95.3948 38.8344 92.2752 36.9996 90.3961C36.0776 89.452 34.612 89.1278 33.8306 88.0644C33.1746 87.1715 33.1602 85.9763 33.1724 84.8684C33.194 82.901 33.2158 80.9336 33.2374 78.9662C32.3621 77.8742 30.5958 77.9401 29.5505 77.0094C28.5165 76.0886 28.2922 74.586 28.1067 73.214C27.559 69.1615 26.7921 65.1385 25.8105 61.1687C28.8787 62.0704 31.9158 63.048 34.8241 64.3777C36.4472 65.1198 38.1439 66.0255 38.9584 67.6135C39.7779 69.2114 39.5156 71.1165 39.4907 72.9121C39.4827 73.4921 39.5059 74.0915 39.751 74.6172C40.3828 75.972 42.1217 76.284 43.4177 77.0291C44.8495 77.8524 45.8477 79.3874 46.0195 81.03C46.1756 82.521 45.6909 84.0423 45.9727 85.5147C46.5973 88.7788 50.5083 90.2856 52.0713 93.2184C53.7054 96.285 51.0618 99.4508 48.4507 101.744Z" fill="#D4DFFF"/>
<path d="M56.5014 130.911C56.4481 130.911 56.4008 130.873 56.3915 130.819C55.7762 127.255 53.625 117.621 49.8885 106.665C47.1461 98.6242 43.9704 91.0243 40.4496 84.0763C36.0496 75.3931 31.0954 67.7098 25.7245 61.2393C25.6851 61.1918 25.6916 61.1216 25.7391 61.0822C25.7865 61.0428 25.8569 61.0493 25.8964 61.0968C31.2784 67.5804 36.2423 75.2787 40.65 83.9776C44.1756 90.9355 47.3554 98.5457 50.1012 106.597C53.842 117.565 55.9956 127.212 56.6116 130.781C56.6221 130.842 56.5813 130.899 56.5205 130.91C56.5141 130.911 56.5077 130.911 56.5014 130.911Z" fill="#1C056D"/>
<path d="M0 92.5417C1.05447 93.3898 1.50111 94.7581 2.03728 96.0007C2.57344 97.2432 3.39035 98.5415 4.70549 98.86C6.13159 99.2056 7.62934 98.2637 9.06132 98.5836C10.2212 98.8427 11.0432 99.8624 11.656 100.881C12.2688 101.899 12.8016 103.018 13.7481 103.737C15.2174 104.852 17.2575 104.708 19.085 104.455C20.9124 104.203 22.9016 103.924 24.4956 104.853C26.435 105.983 27.158 108.556 29.0834 109.71C29.9024 110.201 30.8695 110.386 31.8217 110.457C34.6587 110.668 37.5591 109.906 39.9258 108.327C39.7893 105.74 38.8893 102.943 37.2632 100.926C35.637 98.9081 33.1942 97.5062 30.6067 97.3686C29.7812 97.3246 28.9465 97.405 28.1311 97.2692C24.7046 96.6987 22.9237 92.7208 19.7484 91.3123C18.3993 90.7139 16.8309 90.6263 15.4236 91.0709C14.0465 91.5058 12.8169 92.4279 11.3807 92.5805C9.97752 92.7295 8.62213 92.1209 7.2637 91.7391C4.65821 91.0067 2.54613 91.6235 0 92.5417Z" fill="#D4DFFF"/>
<path d="M55.541 129.997C55.4912 129.997 55.4458 129.963 55.4328 129.912C53.8017 123.536 50.1513 117.426 44.8763 112.244C40.3435 107.791 34.5224 103.935 27.5745 100.784C20.0986 97.3935 11.4746 94.8228 0.434288 92.6937C0.373664 92.6821 0.334052 92.6234 0.345819 92.5629C0.357587 92.5023 0.416427 92.4631 0.476631 92.4743C11.5347 94.6069 20.1746 97.1828 27.6669 100.581C34.6386 103.742 40.4814 107.613 45.0328 112.084C50.3369 117.295 54.008 123.441 55.6493 129.857C55.6646 129.917 55.6285 129.978 55.5687 129.993C55.5594 129.995 55.5501 129.997 55.541 129.997Z" fill="#1C056D"/>
<path d="M59.9337 92.4276C58.3047 92.7421 56.5457 92.3006 55.2583 91.2542C53.9709 90.2078 53.1792 88.5761 53.1541 86.9173C53.135 85.657 53.5322 84.4302 53.9656 83.2466C54.1139 82.8418 54.2694 82.4188 54.2157 81.9909C54.173 81.6515 54.0015 81.3425 53.8149 81.0556C53.1134 79.9772 52.1356 79.04 51.7658 77.8079C51.1093 75.6206 52.5699 73.2658 52.1121 71.0286C51.9526 70.249 51.5683 69.5366 51.2941 68.7895C50.3289 66.1588 50.8343 63.0406 52.5811 60.8494C55.0405 61.8361 56.6453 64.4583 56.6697 67.108C56.6818 68.4291 56.3191 69.8282 56.8808 71.0241C57.2165 71.739 57.8385 72.2695 58.4208 72.8029C59.4408 73.7374 60.4254 74.8078 60.7862 76.1434C61.353 78.2417 60.268 80.5569 60.9714 82.6135C61.6692 84.6542 63.9425 85.8682 64.5599 87.9347C64.7253 88.4882 64.7596 89.0752 64.7129 89.651C64.641 90.5366 64.3495 91.4509 63.6826 92.038C62.6439 92.9522 61.2923 92.1654 59.9337 92.4276Z" fill="#D4DFFF"/>
<path d="M60.8586 130.546C60.8013 130.546 60.7525 130.502 60.7475 130.444C60.265 124.774 60.3973 118.972 60.5252 113.361C60.7023 105.599 60.8852 97.5723 59.4338 89.8362C58.6831 85.8351 57.483 81.8543 56.3224 78.0046C54.7078 72.6489 53.0383 67.1108 52.5609 61.4499C52.5558 61.3884 52.6014 61.3344 52.6629 61.3292C52.7233 61.3242 52.7783 61.3696 52.7835 61.4312C53.2587 67.0688 54.9249 72.5955 56.5362 77.9402C57.6985 81.7955 58.9004 85.7823 59.6533 89.795C61.1091 97.5542 60.9258 105.593 60.7485 113.366C60.6207 118.971 60.4885 124.768 60.97 130.425C60.9753 130.486 60.9297 130.54 60.8682 130.546C60.865 130.546 60.8619 130.546 60.8586 130.546Z" fill="#1C056D"/>
<path d="M48.5708 166.244C48.5708 166.244 38.2513 131.373 39.9131 130.451C41.5748 129.528 82.3121 129.491 82.3121 129.491C82.3121 129.491 77.6405 166.166 76.3435 166.244C75.0463 166.323 52.0061 166.404 48.5708 166.244Z" fill="#1B3D9E"/>
<mask id="mask0_2046_18289" style="mask-type:luminance" maskUnits="userSpaceOnUse" x="39" y="129" width="44" height="38">
<path d="M48.5708 166.244C48.5708 166.244 38.2513 131.373 39.9131 130.451C41.5748 129.528 82.3121 129.491 82.3121 129.491C82.3121 129.491 77.6405 166.166 76.3435 166.244C75.0463 166.323 52.0061 166.404 48.5708 166.244Z" fill="white"/>
</mask>
<g mask="url(#mask0_2046_18289)">
<path d="M58.6282 126.793C58.6282 126.793 46.7105 142.019 47.3877 142.425C48.0648 142.831 81.5434 149.738 81.5295 149.332C81.5156 148.926 84.9338 129.491 84.9338 129.491L58.6282 126.793Z" fill="#1C056D"/>
</g>
<path d="M156.557 136.294H127.408V161.066H156.557V136.294Z" fill="#1B3D9E"/>
<path d="M166.168 166.336H118.502C117.292 166.336 116.311 165.355 116.311 164.145V163.258C116.311 162.048 117.292 161.067 118.502 161.067H166.168C167.378 161.067 168.359 162.048 168.359 163.258V164.145C168.359 165.355 167.378 166.336 166.168 166.336Z" fill="#1C056D"/>
<path d="M68.7436 49.9025C68.8054 49.7794 68.9306 49.7023 69.0684 49.7014C74.9471 49.6618 209.989 48.7632 215.971 49.7028C218.33 50.0733 217.744 139.86 215.971 143.291C214.668 145.813 70.5449 143.595 68.8706 143.291C66.8062 142.915 65.7838 55.801 68.7436 49.9025Z" fill="#6880E4"/>
<path d="M72.2984 54.0322C72.2984 54.0322 71.8363 130.696 73.6846 130.905C75.5328 131.115 210.222 131.952 211.377 130.905C212.532 129.858 212.994 53.4038 211.377 53.4038C209.76 53.4038 72.2984 54.0322 72.2984 54.0322Z" fill="#D4DFFF"/>
<mask id="mask1_2046_18289" style="mask-type:luminance" maskUnits="userSpaceOnUse" x="72" y="53" width="141" height="79">
<path d="M72.2984 54.0322C72.2984 54.0322 71.8363 130.696 73.6846 130.905C75.5328 131.115 210.222 131.952 211.377 130.905C212.532 129.858 212.994 53.4038 211.377 53.4038C209.76 53.4038 72.2984 54.0322 72.2984 54.0322Z" fill="white"/>
</mask>
<g mask="url(#mask1_2046_18289)">
<path opacity="0.46" d="M160.759 51.6646L108.415 132.932H69.7231L72.2986 54.0322L160.759 51.6646Z" fill="#6880E4"/>
</g>
<mask id="mask2_2046_18289" style="mask-type:luminance" maskUnits="userSpaceOnUse" x="72" y="53" width="141" height="79">
<path d="M72.2984 54.0322C72.2984 54.0322 71.8363 130.696 73.6846 130.905C75.5328 131.115 210.222 131.952 211.377 130.905C212.532 129.858 212.994 53.4038 211.377 53.4038C209.76 53.4038 72.2984 54.0322 72.2984 54.0322Z" fill="white"/>
</mask>
<g mask="url(#mask2_2046_18289)">
<path opacity="0.46" d="M120.365 133.596L170.675 51.2288H192.752L144.281 133.165L120.365 133.596Z" fill="#6880E4"/>
</g>
<mask id="mask3_2046_18289" style="mask-type:luminance" maskUnits="userSpaceOnUse" x="72" y="53" width="141" height="79">
<path d="M72.2984 54.0322C72.2984 54.0322 71.8363 130.696 73.6846 130.905C75.5328 131.115 210.222 131.952 211.377 130.905C212.532 129.858 212.994 53.4038 211.377 53.4038C209.76 53.4038 72.2984 54.0322 72.2984 54.0322Z" fill="white"/>
</mask>
<g mask="url(#mask3_2046_18289)">
<path opacity="0.46" d="M202.089 51.5344L153.379 133.666L183.552 133.284L215.955 73.6454L215.302 52.0526L202.089 51.5344Z" fill="#6880E4"/>
</g>
<path d="M143.345 141.894C145.152 141.145 146.011 139.073 145.262 137.265C144.513 135.458 142.441 134.599 140.633 135.348C138.826 136.097 137.967 138.169 138.716 139.977C139.465 141.784 141.537 142.643 143.345 141.894Z" fill="#1B3D9E"/>
<path d="M108.57 87.1567C108.744 86.3461 109.084 85.7303 109.591 85.3101C110.097 84.8906 110.655 84.6733 111.264 84.6584C111.872 84.6441 112.451 84.8253 113.002 85.2015C113.552 85.5782 113.943 86.1574 114.175 86.9394C114.203 88.8226 114.218 90.6835 114.218 92.5226C114.218 94.3625 114.247 96.2091 114.305 98.0625C115.579 98.0625 116.818 98.0482 118.02 98.019C119.222 97.9905 120.373 97.9756 121.474 97.9756C122.257 98.2078 122.836 98.5771 123.212 99.0835C123.588 99.5907 123.77 100.12 123.756 100.669C123.741 101.22 123.523 101.727 123.104 102.19C122.683 102.654 122.068 102.972 121.257 103.146C120.127 103.146 118.998 103.154 117.868 103.168C116.738 103.183 115.609 103.175 114.479 103.146C114.537 104.595 114.573 106.166 114.588 107.86C114.602 109.555 114.624 111.127 114.653 112.575C114.595 113.531 114.284 114.241 113.719 114.704C113.154 115.167 112.524 115.399 111.829 115.399C111.134 115.399 110.474 115.16 109.852 114.682C109.228 114.204 108.859 113.502 108.744 112.575C108.714 111.097 108.736 109.541 108.809 107.904C108.881 106.268 108.888 104.71 108.831 103.233C107.585 103.205 106.245 103.139 104.812 103.038C103.378 102.936 101.987 102.727 100.64 102.408C99.2935 102.089 98.055 101.64 96.9254 101.061C95.7957 100.482 94.8833 99.7137 94.1882 98.7578C93.5506 97.8603 93.1888 96.8895 93.1019 95.8467C93.015 94.8039 93.1161 93.7326 93.406 92.6314C93.6952 91.5309 94.1298 90.4155 94.7095 89.2858C95.2886 88.1561 95.9186 87.0699 96.5995 86.0271C97.2798 84.9843 97.9608 84.0067 98.6416 83.0942C99.3219 82.1818 99.9234 81.3779 100.445 80.6828C101.603 79.1186 102.791 77.5979 104.008 76.1206C105.224 74.6433 106.441 73.1518 107.657 71.6453C108.294 71.124 108.953 70.8564 109.634 70.8414C110.315 70.8271 110.901 70.9936 111.394 71.3411C111.886 71.6887 112.227 72.1816 112.415 72.8184C112.603 73.4558 112.552 74.1653 112.263 74.9474C111.278 76.164 110.119 77.5475 108.787 79.0968C107.455 80.6467 106.144 82.2686 104.855 83.9631C103.566 85.6577 102.393 87.3814 101.336 89.1337C100.278 90.8866 99.5324 92.5879 99.0979 94.2389C98.9241 94.8187 98.9893 95.3184 99.2934 95.7379C99.5974 96.1582 100.046 96.5058 100.64 96.7808C101.234 97.0563 101.922 97.2804 102.704 97.4542C103.486 97.628 104.261 97.7584 105.029 97.8453C105.796 97.9322 106.506 97.9974 107.158 98.0408C107.809 98.0842 108.309 98.1209 108.657 98.1495C108.598 96.3245 108.57 94.4929 108.57 92.653C108.57 90.8139 108.57 88.9815 108.57 87.1567Z" fill="white"/>
<path d="M129.643 107.187C129.266 105.942 128.889 104.384 128.513 102.516C128.136 100.648 127.854 98.6273 127.666 96.4549C127.477 94.2824 127.412 92.0522 127.47 89.7637C127.528 87.4758 127.781 85.2884 128.231 83.2028C128.679 81.1172 129.367 79.2204 130.295 77.5109C131.221 75.8021 132.452 74.4552 133.988 73.4701C135.9 72.2535 137.869 71.3845 139.897 70.8631C141.924 70.3418 143.909 70.1394 145.85 70.2548C147.79 70.3709 149.636 70.7837 151.389 71.4931C153.142 72.2033 154.677 73.1659 155.995 74.3825C157.313 75.5991 158.37 77.0622 159.167 78.7709C159.963 80.4804 160.39 82.3922 160.449 84.5063C160.477 86.505 160.55 88.6415 160.666 90.9151C160.781 93.1894 160.789 95.4705 160.688 97.7584C160.586 100.047 160.289 102.255 159.797 104.384C159.304 106.513 158.493 108.433 157.364 110.141C156.408 111.59 155.126 112.763 153.518 113.661C151.911 114.559 150.173 115.189 148.304 115.551C146.436 115.913 144.517 116.007 142.547 115.833C140.577 115.66 138.731 115.218 137.007 114.508C135.284 113.799 133.763 112.835 132.445 111.619C131.127 110.402 130.193 108.925 129.643 107.187ZM136.899 78.4667C136.145 79.0465 135.472 79.8938 134.879 81.0086C134.285 82.124 133.944 83.3046 133.858 84.5497C133.741 86.2877 133.625 88.0473 133.51 89.8289C133.394 91.6103 133.35 93.37 133.379 95.1079C133.408 96.846 133.553 98.5554 133.814 100.235C134.075 101.915 134.553 103.523 135.248 105.058C135.682 106.072 136.327 106.926 137.181 107.621C138.035 108.317 138.991 108.853 140.049 109.229C141.106 109.606 142.228 109.816 143.416 109.859C144.604 109.903 145.763 109.787 146.892 109.511C148.022 109.236 149.087 108.794 150.086 108.186C151.085 107.578 151.932 106.796 152.628 105.84C153.12 105.232 153.518 104.384 153.823 103.298C154.127 102.212 154.351 101.003 154.496 99.6701C154.641 98.3382 154.728 96.962 154.757 95.5424C154.785 94.1234 154.785 92.7766 154.757 91.5015C154.728 90.2273 154.698 89.0901 154.67 88.0907C154.641 87.0914 154.626 86.3601 154.626 85.8965C154.655 84.5061 154.431 83.2101 153.953 82.0077C153.475 80.806 152.816 79.7558 151.976 78.8576C151.135 77.9601 150.143 77.2358 149 76.6851C147.855 76.1353 146.624 75.8162 145.306 75.7292C143.988 75.6423 142.613 75.8161 141.179 76.2505C139.745 76.6853 138.318 77.4239 136.899 78.4667Z" fill="white"/>
<path d="M180.957 87.1567C181.131 86.3461 181.471 85.7303 181.978 85.3101C182.485 84.8906 183.043 84.6733 183.651 84.6584C184.259 84.6441 184.838 84.8253 185.389 85.2015C185.939 85.5782 186.33 86.1574 186.562 86.9394C186.591 88.8226 186.605 90.6835 186.605 92.5226C186.605 94.3625 186.634 96.2091 186.692 98.0625C187.967 98.0625 189.205 98.0482 190.407 98.019C191.609 97.9905 192.76 97.9756 193.862 97.9756C194.644 98.2078 195.223 98.5771 195.599 99.0835C195.976 99.5907 196.157 100.12 196.143 100.669C196.128 101.22 195.91 101.727 195.491 102.19C195.071 102.654 194.455 102.972 193.644 103.146C192.515 103.146 191.385 103.154 190.255 103.168C189.125 103.183 187.996 103.175 186.866 103.146C186.924 104.595 186.96 106.166 186.975 107.86C186.989 109.555 187.011 111.127 187.04 112.575C186.982 113.531 186.671 114.241 186.106 114.704C185.541 115.167 184.911 115.399 184.216 115.399C183.521 115.399 182.861 115.16 182.239 114.682C181.616 114.204 181.246 113.502 181.131 112.575C181.102 111.097 181.123 109.541 181.196 107.904C181.268 106.268 181.275 104.71 181.218 103.233C179.972 103.205 178.633 103.139 177.199 103.038C175.765 102.936 174.374 102.727 173.028 102.408C171.681 102.089 170.442 101.64 169.313 101.061C168.183 100.482 167.271 99.7137 166.575 98.7578C165.938 97.8603 165.576 96.8895 165.489 95.8467C165.402 94.8039 165.503 93.7326 165.793 92.6314C166.082 91.5309 166.517 90.4155 167.097 89.2858C167.676 88.1561 168.306 87.0699 168.987 86.0271C169.667 84.9843 170.348 84.0067 171.029 83.0942C171.709 82.1818 172.311 81.3779 172.832 80.6828C173.99 79.1186 175.178 77.5979 176.395 76.1206C177.611 74.6433 178.828 73.1518 180.045 71.6453C180.681 71.124 181.341 70.8564 182.022 70.8414C182.702 70.8271 183.288 70.9936 183.781 71.3411C184.274 71.6887 184.614 72.1816 184.803 72.8184C184.99 73.4558 184.94 74.1653 184.65 74.9474C183.665 76.164 182.506 77.5475 181.175 79.0968C179.842 80.6467 178.531 82.2686 177.242 83.9631C175.953 85.6577 174.78 87.3814 173.723 89.1337C172.665 90.8866 171.92 92.5879 171.485 94.2389C171.311 94.8187 171.377 95.3184 171.681 95.7379C171.985 96.1582 172.434 96.5058 173.028 96.7808C173.621 97.0563 174.309 97.2804 175.091 97.4542C175.873 97.628 176.648 97.7584 177.416 97.8453C178.183 97.9322 178.893 97.9974 179.545 98.0408C180.197 98.0842 180.696 98.1209 181.044 98.1495C180.986 96.3245 180.957 94.4929 180.957 92.653C180.957 90.8139 180.957 88.9815 180.957 87.1567Z" fill="white"/>
<path opacity="0.54" d="M100.094 143.886L86.1636 104.721L89.701 105.29C89.9008 105.322 90.0675 105.459 90.1367 105.65L104.078 143.923C104.082 143.932 104.075 143.941 104.066 143.941L100.094 143.886Z" fill="#1B3D9E"/>
<path d="M55.3093 145.551C55.8976 145.446 84.8003 104.422 86.1641 104.722C87.5278 105.022 103.41 153.235 102.82 153.141C102.23 153.048 53.8477 145.809 55.3093 145.551Z" fill="#FC476A"/>
<path d="M81.6703 138.916C81.4458 139.117 81.2181 139.247 80.9867 139.306C80.7553 139.366 80.5336 139.364 80.3217 139.301C80.1098 139.237 79.9178 139.118 79.7459 138.943C79.574 138.768 79.4437 138.54 79.3551 138.259C79.4957 136.536 79.6036 134.784 79.679 133.006C79.7542 131.227 79.8501 129.459 79.9665 127.702C80.0825 125.945 80.2503 124.214 80.4694 122.51C80.6879 120.806 81.0115 119.167 81.4392 117.592C81.4739 117.465 81.592 117.35 81.7933 117.249C81.9942 117.148 82.2387 117.076 82.5268 117.033C82.8147 116.99 83.1281 116.973 83.4672 116.982C83.8059 116.992 84.1324 117.032 84.4465 117.105C84.7605 117.177 85.0395 117.284 85.2833 117.426C85.5271 117.568 85.705 117.752 85.8173 117.977C85.9995 118.228 86.1084 118.66 86.1444 119.272C86.1803 119.885 86.1664 120.622 86.1036 121.485C86.0403 122.348 85.9253 123.307 85.7579 124.36C85.5905 125.414 85.3926 126.496 85.1645 127.606C84.9361 128.717 84.6852 129.831 84.4116 130.95C84.1375 132.068 83.8477 133.124 83.5419 134.119C83.2358 135.113 82.9294 136.019 82.622 136.836C82.3147 137.653 82.0175 138.312 81.7307 138.814C81.7284 138.829 81.7081 138.863 81.6703 138.916ZM78.6784 145.454C78.3617 145.212 78.1067 144.931 77.9133 144.611C77.7197 144.292 77.6085 143.967 77.5797 143.637C77.5506 143.307 77.6201 142.985 77.7886 142.672C77.9568 142.358 78.237 142.084 78.6293 141.851C79.1698 141.522 79.7112 141.397 80.2536 141.476C80.796 141.555 81.2134 141.884 81.5064 142.463C81.7817 142.965 81.9137 143.508 81.9026 144.091C81.8913 144.673 81.6375 145.177 81.141 145.601C80.7783 145.928 80.3685 146.063 79.9116 146.005C79.4546 145.947 79.0433 145.764 78.6784 145.454Z" fill="white"/>
<path d="M241.738 166.179H206.763C206.062 166.179 205.494 165.611 205.494 164.91V124.056C205.494 123.356 206.062 122.787 206.763 122.787H241.738C242.439 122.787 243.007 123.356 243.007 124.056V164.91C243.007 165.611 242.439 166.179 241.738 166.179Z" fill="#1B3D9E"/>
<mask id="mask4_2046_18289" style="mask-type:luminance" maskUnits="userSpaceOnUse" x="205" y="122" width="39" height="45">
<path d="M241.738 166.179H206.763C206.062 166.179 205.494 165.611 205.494 164.91V124.056C205.494 123.356 206.062 122.787 206.763 122.787H241.738C242.439 122.787 243.007 123.356 243.007 124.056V164.91C243.007 165.611 242.439 166.179 241.738 166.179Z" fill="white"/>
</mask>
<g mask="url(#mask4_2046_18289)">
<path d="M244.063 128.932C244.063 128.932 229.37 149.62 202.779 155.346V168.009H244.99C244.99 168.009 246.092 129.673 244.063 128.932Z" fill="#1C056D"/>
</g>
<path d="M215.41 122.787C215.41 122.787 214.912 87.0668 215.576 86.6519C216.239 86.2371 221.3 85.8221 221.715 86.8178C222.13 87.8134 221.715 122.787 221.715 122.787H215.41V122.787Z" fill="#FC476A"/>
<mask id="mask5_2046_18289" style="mask-type:luminance" maskUnits="userSpaceOnUse" x="215" y="86" width="7" height="37">
<path d="M215.41 122.787C215.41 122.787 214.912 87.067 215.576 86.6521C216.239 86.2373 221.3 85.8224 221.715 86.818C222.13 87.8137 221.715 122.787 221.715 122.787H215.41V122.787Z" fill="white"/>
</mask>
<g mask="url(#mask5_2046_18289)">
<path d="M219.75 91.7471V123.491H217.38V91.8109L219.75 91.7471Z" fill="#D40221"/>
</g>
<mask id="mask6_2046_18289" style="mask-type:luminance" maskUnits="userSpaceOnUse" x="215" y="86" width="7" height="37">
<path d="M215.41 122.787C215.41 122.787 214.912 87.067 215.576 86.6521C216.239 86.2373 221.3 85.8224 221.715 86.818C222.13 87.8137 221.715 122.787 221.715 122.787H215.41V122.787Z" fill="white"/>
</mask>
<g mask="url(#mask6_2046_18289)">
<path d="M214.247 93.1198C214.247 93.1198 221.611 92.5611 222.637 93.0744C222.637 93.0744 222.586 85.7347 222.175 85.5807C221.764 85.4267 214.733 85.387 214.579 86.2025C214.425 87.0178 214.247 93.1198 214.247 93.1198Z" fill="#D4DFFF"/>
</g>
<path d="M240.082 122.788H225.427V71.2332C225.427 71.0165 225.603 70.8408 225.82 70.8408H239.69C239.907 70.8408 240.083 71.0165 240.083 71.2332V122.788H240.082Z" fill="#D4DFFF"/>
<mask id="mask7_2046_18289" style="mask-type:luminance" maskUnits="userSpaceOnUse" x="225" y="70" width="16" height="53">
<path d="M240.082 122.788H225.427V71.2332C225.427 71.0165 225.603 70.8408 225.82 70.8408H239.69C239.907 70.8408 240.083 71.0165 240.083 71.2332V122.788H240.082Z" fill="white"/>
</mask>
<g mask="url(#mask7_2046_18289)">
<path opacity="0.46" d="M229.278 68.9414H224.251V124.678H229.278V68.9414Z" fill="#6880E4"/>
</g>
<mask id="mask8_2046_18289" style="mask-type:luminance" maskUnits="userSpaceOnUse" x="225" y="70" width="16" height="53">
<path d="M240.082 122.788H225.427V71.2332C225.427 71.0165 225.603 70.8408 225.82 70.8408H239.69C239.907 70.8408 240.083 71.0165 240.083 71.2332V122.788H240.082Z" fill="white"/>
</mask>
<g mask="url(#mask8_2046_18289)">
<path d="M227.274 74.8252H225.427V75.4684H227.274V74.8252Z" fill="#6880E4"/>
</g>
<mask id="mask9_2046_18289" style="mask-type:luminance" maskUnits="userSpaceOnUse" x="225" y="70" width="16" height="53">
<path d="M240.082 122.788H225.427V71.2332C225.427 71.0165 225.603 70.8408 225.82 70.8408H239.69C239.907 70.8408 240.083 71.0165 240.083 71.2332V122.788H240.082Z" fill="white"/>
</mask>
<g mask="url(#mask9_2046_18289)">
<path d="M227.274 77.7871H225.427V78.4303H227.274V77.7871Z" fill="#6880E4"/>
</g>
<mask id="mask10_2046_18289" style="mask-type:luminance" maskUnits="userSpaceOnUse" x="225" y="70" width="16" height="53">
<path d="M240.082 122.788H225.427V71.2332C225.427 71.0165 225.603 70.8408 225.82 70.8408H239.69C239.907 70.8408 240.083 71.0165 240.083 71.2332V122.788H240.082Z" fill="white"/>
</mask>
<g mask="url(#mask10_2046_18289)">
<path d="M227.274 80.748H225.427V81.3913H227.274V80.748Z" fill="#6880E4"/>
</g>
<mask id="mask11_2046_18289" style="mask-type:luminance" maskUnits="userSpaceOnUse" x="225" y="70" width="16" height="53">
<path d="M240.082 122.788H225.427V71.2332C225.427 71.0165 225.603 70.8408 225.82 70.8408H239.69C239.907 70.8408 240.083 71.0165 240.083 71.2332V122.788H240.082Z" fill="white"/>
</mask>
<g mask="url(#mask11_2046_18289)">
<path d="M227.274 83.709H225.427V84.3522H227.274V83.709Z" fill="#6880E4"/>
</g>
<mask id="mask12_2046_18289" style="mask-type:luminance" maskUnits="userSpaceOnUse" x="225" y="70" width="16" height="53">
<path d="M240.082 122.788H225.427V71.2332C225.427 71.0165 225.603 70.8408 225.82 70.8408H239.69C239.907 70.8408 240.083 71.0165 240.083 71.2332V122.788H240.082Z" fill="white"/>
</mask>
<g mask="url(#mask12_2046_18289)">
<path d="M227.274 86.6707H225.427V87.3139H227.274V86.6707Z" fill="#6880E4"/>
</g>
<mask id="mask13_2046_18289" style="mask-type:luminance" maskUnits="userSpaceOnUse" x="225" y="70" width="16" height="53">
<path d="M240.082 122.788H225.427V71.2332C225.427 71.0165 225.603 70.8408 225.82 70.8408H239.69C239.907 70.8408 240.083 71.0165 240.083 71.2332V122.788H240.082Z" fill="white"/>
</mask>
<g mask="url(#mask13_2046_18289)">
<path d="M227.274 89.6318H225.427V90.2751H227.274V89.6318Z" fill="#6880E4"/>
</g>
<mask id="mask14_2046_18289" style="mask-type:luminance" maskUnits="userSpaceOnUse" x="225" y="70" width="16" height="53">
<path d="M240.082 122.788H225.427V71.2332C225.427 71.0165 225.603 70.8408 225.82 70.8408H239.69C239.907 70.8408 240.083 71.0165 240.083 71.2332V122.788H240.082Z" fill="white"/>
</mask>
<g mask="url(#mask14_2046_18289)">
<path d="M227.274 92.5928H225.427V93.236H227.274V92.5928Z" fill="#6880E4"/>
</g>
<mask id="mask15_2046_18289" style="mask-type:luminance" maskUnits="userSpaceOnUse" x="225" y="70" width="16" height="53">
<path d="M240.082 122.788H225.427V71.2332C225.427 71.0165 225.603 70.8408 225.82 70.8408H239.69C239.907 70.8408 240.083 71.0165 240.083 71.2332V122.788H240.082Z" fill="white"/>
</mask>
<g mask="url(#mask15_2046_18289)">
<path d="M227.274 95.5537H225.427V96.1969H227.274V95.5537Z" fill="#6880E4"/>
</g>
<mask id="mask16_2046_18289" style="mask-type:luminance" maskUnits="userSpaceOnUse" x="225" y="70" width="16" height="53">
<path d="M240.082 122.788H225.427V71.2332C225.427 71.0165 225.603 70.8408 225.82 70.8408H239.69C239.907 70.8408 240.083 71.0165 240.083 71.2332V122.788H240.082Z" fill="white"/>
</mask>
<g mask="url(#mask16_2046_18289)">
<path d="M227.274 98.5154H225.427V99.1586H227.274V98.5154Z" fill="#6880E4"/>
</g>
<mask id="mask17_2046_18289" style="mask-type:luminance" maskUnits="userSpaceOnUse" x="225" y="70" width="16" height="53">
<path d="M240.082 122.788H225.427V71.2332C225.427 71.0165 225.603 70.8408 225.82 70.8408H239.69C239.907 70.8408 240.083 71.0165 240.083 71.2332V122.788H240.082Z" fill="white"/>
</mask>
<g mask="url(#mask17_2046_18289)">
<path d="M227.274 101.477H225.427V102.12H227.274V101.477Z" fill="#6880E4"/>
</g>
<mask id="mask18_2046_18289" style="mask-type:luminance" maskUnits="userSpaceOnUse" x="225" y="70" width="16" height="53">
<path d="M240.082 122.788H225.427V71.2332C225.427 71.0165 225.603 70.8408 225.82 70.8408H239.69C239.907 70.8408 240.083 71.0165 240.083 71.2332V122.788H240.082Z" fill="white"/>
</mask>
<g mask="url(#mask18_2046_18289)">
<path d="M227.274 104.438H225.427V105.082H227.274V104.438Z" fill="#6880E4"/>
</g>
<mask id="mask19_2046_18289" style="mask-type:luminance" maskUnits="userSpaceOnUse" x="225" y="70" width="16" height="53">
<path d="M240.082 122.788H225.427V71.2332C225.427 71.0165 225.603 70.8408 225.82 70.8408H239.69C239.907 70.8408 240.083 71.0165 240.083 71.2332V122.788H240.082Z" fill="white"/>
</mask>
<g mask="url(#mask19_2046_18289)">
<path d="M227.274 107.399H225.427V108.043H227.274V107.399Z" fill="#6880E4"/>
</g>
<mask id="mask20_2046_18289" style="mask-type:luminance" maskUnits="userSpaceOnUse" x="225" y="70" width="16" height="53">
<path d="M240.082 122.788H225.427V71.2332C225.427 71.0165 225.603 70.8408 225.82 70.8408H239.69C239.907 70.8408 240.083 71.0165 240.083 71.2332V122.788H240.082Z" fill="white"/>
</mask>
<g mask="url(#mask20_2046_18289)">
<path d="M227.274 110.36H225.427V111.004H227.274V110.36Z" fill="#6880E4"/>
</g>
<mask id="mask21_2046_18289" style="mask-type:luminance" maskUnits="userSpaceOnUse" x="225" y="70" width="16" height="53">
<path d="M240.082 122.788H225.427V71.2332C225.427 71.0165 225.603 70.8408 225.82 70.8408H239.69C239.907 70.8408 240.083 71.0165 240.083 71.2332V122.788H240.082Z" fill="white"/>
</mask>
<g mask="url(#mask21_2046_18289)">
<path d="M227.274 113.321H225.427V113.965H227.274V113.321Z" fill="#6880E4"/>
</g>
<mask id="mask22_2046_18289" style="mask-type:luminance" maskUnits="userSpaceOnUse" x="225" y="70" width="16" height="53">
<path d="M240.082 122.788H225.427V71.2332C225.427 71.0165 225.603 70.8408 225.82 70.8408H239.69C239.907 70.8408 240.083 71.0165 240.083 71.2332V122.788H240.082Z" fill="white"/>
</mask>
<g mask="url(#mask22_2046_18289)">
<path d="M227.274 116.283H225.427V116.926H227.274V116.283Z" fill="#6880E4"/>
</g>
<mask id="mask23_2046_18289" style="mask-type:luminance" maskUnits="userSpaceOnUse" x="225" y="70" width="16" height="53">
<path d="M240.082 122.788H225.427V71.2332C225.427 71.0165 225.603 70.8408 225.82 70.8408H239.69C239.907 70.8408 240.083 71.0165 240.083 71.2332V122.788H240.082Z" fill="white"/>
</mask>
<g mask="url(#mask23_2046_18289)">
<path d="M227.274 119.244H225.427V119.887H227.274V119.244Z" fill="#6880E4"/>
</g>
<mask id="mask24_2046_18289" style="mask-type:luminance" maskUnits="userSpaceOnUse" x="225" y="70" width="16" height="53">
<path d="M240.082 122.788H225.427V71.2332C225.427 71.0165 225.603 70.8408 225.82 70.8408H239.69C239.907 70.8408 240.083 71.0165 240.083 71.2332V122.788H240.082Z" fill="white"/>
</mask>
<g mask="url(#mask24_2046_18289)">
<path opacity="0.17" d="M236.913 68.8806C232.846 72.3643 231.42 78.5951 233.566 83.501C234.588 85.8357 236.334 87.918 236.661 90.4454C236.979 92.8971 235.901 95.2819 235.048 97.6023C234.207 99.889 233.56 102.305 233.731 104.735C234.01 108.71 236.448 112.428 236.05 116.392C235.668 120.2 232.706 123.515 232.876 127.338C232.925 127.338 232.825 127.506 232.874 127.506H242.395L242.391 68.6367L243.562 68.6484L236.913 68.8806Z" fill="#6880E4"/>
</g>
<path d="M268.553 166.782H27.9979C27.7512 166.782 27.5513 166.582 27.5513 166.335C27.5513 166.089 27.7512 165.889 27.9979 165.889H268.553C268.8 165.889 269 166.089 269 166.335C269 166.582 268.8 166.782 268.553 166.782Z" fill="#1C056D"/>
<path d="M101.346 43.7033L95.7803 44.4233C92.7156 42.9874 89.7481 42.0576 86.9814 42.3466C84.2021 42.637 82.6055 45.5469 83.2913 47.5062C83.8944 49.2294 88.895 50.9967 91.0521 51.0382C93.2091 51.0797 96.4862 50.5819 97.6892 49.5146C97.6909 49.513 97.6921 49.5111 97.6939 49.5096H101.346V43.7033H101.346Z" fill="#FE8E9C"/>
<mask id="mask25_2046_18289" style="mask-type:luminance" maskUnits="userSpaceOnUse" x="83" y="42" width="19" height="10">
<path d="M101.346 43.7042L95.7798 44.4243C92.7151 42.9884 89.7476 42.0585 86.9809 42.3476C84.2016 42.638 82.605 45.5479 83.2908 47.5072C83.8939 49.2304 88.8945 50.9977 91.0516 51.0392C93.2087 51.0807 96.4857 50.5829 97.6887 49.5156C97.6905 49.514 97.6916 49.5121 97.6934 49.5105H101.346V43.7042H101.346Z" fill="white"/>
</mask>
<g mask="url(#mask25_2046_18289)">
<path d="M89.1146 51.3044C89.1146 51.3044 90.1857 49.2109 90.137 47.6043C90.0884 45.9977 87.8801 43.4941 87.8801 43.4941L86.0474 43.5878C86.0474 43.5878 86.6451 49.4544 86.115 50.489L89.1146 51.3044Z" fill="#E57492"/>
</g>
<path d="M97.6889 49.5141C97.6889 49.5141 98.7915 47.8217 96.229 46.1133C96.229 46.1133 98.5145 46.4827 99.2994 48.0063C100.084 49.53 99.9227 49.553 99.9227 49.553L97.6889 49.5141Z" fill="#E57492"/>
<path d="M95.78 44.4225C95.78 44.4225 93.9959 44.5809 93.6509 44.5893C92.4013 44.6195 91.1491 44.6884 91.1491 44.6884C91.1491 44.6884 90.3708 42.1617 89.226 42.6794C87.5449 43.4399 89.4664 44.6196 89.4664 44.6196C89.4664 44.6196 86.4788 44.1217 86.1869 44.1045C85.895 44.0874 88.4233 49.4201 85.7261 51.0399C83.0289 52.6596 80.0244 51.806 79.6489 47.6066C79.2734 43.4073 83.5752 39.3785 87.5357 39.5151C91.496 39.6516 95.78 44.4225 95.78 44.4225Z" fill="#1B3D9E"/>
<mask id="mask26_2046_18289" style="mask-type:luminance" maskUnits="userSpaceOnUse" x="79" y="39" width="17" height="13">
<path d="M95.78 44.4225C95.78 44.4225 93.9959 44.5809 93.6509 44.5893C92.4013 44.6195 91.1491 44.6884 91.1491 44.6884C91.1491 44.6884 90.3708 42.1617 89.226 42.6794C87.5449 43.4399 89.4664 44.6196 89.4664 44.6196C89.4664 44.6196 86.4788 44.1217 86.1869 44.1045C85.895 44.0874 88.4233 49.4201 85.7261 51.0399C83.0289 52.6596 80.0244 51.806 79.6489 47.6066C79.2734 43.4073 83.5752 39.3785 87.5357 39.5151C91.496 39.6516 95.78 44.4225 95.78 44.4225Z" fill="white"/>
</mask>
<g mask="url(#mask26_2046_18289)">
<path d="M83.4331 51.807C83.4331 51.807 85.4864 50.0871 85.385 48.1858C85.2836 46.2847 84.6707 43.3085 84.9718 43.1109C85.273 42.9134 88.4355 44.1757 88.4355 44.1757C88.4355 44.1757 87.8532 43.322 88.8678 42.8849C88.8678 42.8849 90.4751 44.6445 90.3615 44.8291C90.2478 45.0137 86.555 44.6445 86.555 44.6445C86.555 44.6445 88.0038 48.2026 86.9669 50.3047C85.93 52.4068 83.4331 51.807 83.4331 51.807Z" fill="#1C056D"/>
</g>
<path d="M95.6625 49.553C95.6625 49.553 94.8125 49.3087 94.8125 47.8331C94.8125 46.3574 94.8125 47.6856 94.8125 47.6856C94.8125 47.6856 95.6763 49.256 95.6625 49.553Z" fill="#F6F9FF"/>
<path d="M88.752 47.753C88.752 47.753 92.142 49.5968 92.4601 49.401C92.7783 49.2053 92.2031 47.1371 92.2031 47.1371C92.2031 47.1371 92.5702 47.1126 92.6559 47.4431C92.7415 47.7735 93.2188 49.7192 92.6559 49.756C92.093 49.7926 89.3023 48.4179 88.752 47.753Z" fill="#E57492"/>
<path d="M108.357 82.7786C108.357 82.7786 107.526 83.8969 107.251 84.4502C106.976 85.0034 106.888 87.7704 106.945 87.7609C107.003 87.7515 107.618 87.7189 107.745 87.3528L108.425 85.0169C108.425 85.0169 108.472 87.5217 108.389 87.699C108.306 87.8765 106.863 90.7513 106.99 90.8425C107.117 90.9337 107.664 91.2665 108.089 90.5502C108.515 89.8337 109.521 87.9789 109.645 87.6826C109.768 87.3865 107.674 91.5917 107.758 91.6251C107.842 91.6585 108.379 91.9368 108.591 91.6626C108.804 91.3885 110.679 88.4036 110.741 88.1635C110.802 87.9233 109.572 91.0234 109.636 91.022C109.7 91.0207 109.946 91.3392 110.281 90.9162C110.617 90.4932 111.743 88.2198 111.797 88.1006C111.851 87.9813 111.834 86.5332 111.834 86.5332C111.834 86.5332 112.115 88.234 112.05 88.4556C111.984 88.6772 111.468 89.9653 111.707 90.0103C111.889 90.0446 112.205 89.6953 112.454 89.2388C112.703 88.7824 113.019 88.0987 112.995 87.4494C112.971 86.8001 111.776 83.1653 111.776 83.1653L108.357 82.7786Z" fill="#FE8E9C"/>
<mask id="mask27_2046_18289" style="mask-type:luminance" maskUnits="userSpaceOnUse" x="106" y="82" width="7" height="10">
<path d="M108.357 82.7795C108.357 82.7795 107.525 83.8979 107.25 84.4512C106.976 85.0044 106.887 87.7714 106.945 87.7619C107.003 87.7524 107.617 87.7199 107.745 87.3538L108.424 85.0179C108.424 85.0179 108.471 87.5227 108.388 87.7C108.305 87.8775 106.863 90.7522 106.99 90.8434C107.117 90.9346 107.663 91.2675 108.089 90.5512C108.514 89.8347 109.52 87.9799 109.644 87.6836C109.768 87.3874 107.673 91.5927 107.757 91.6261C107.842 91.6595 108.378 91.9377 108.591 91.6636C108.804 91.3895 110.678 88.4046 110.74 88.1645C110.802 87.9243 109.572 91.0244 109.636 91.023C109.7 91.0216 109.945 91.3402 110.281 90.9172C110.616 90.4942 111.743 88.2208 111.797 88.1016C111.851 87.9823 111.834 86.5342 111.834 86.5342C111.834 86.5342 112.115 88.235 112.049 88.4566C111.984 88.6782 111.467 89.9662 111.707 90.0113C111.889 90.0456 112.205 89.6963 112.454 89.2398C112.702 88.7834 113.018 88.0997 112.995 87.4504C112.971 86.801 111.775 83.1663 111.775 83.1663L108.357 82.7795Z" fill="white"/>
</mask>
<g mask="url(#mask27_2046_18289)">
<path d="M106.624 85.4212C106.676 85.6105 109.225 84.1967 112.696 84.7395C112.696 84.7395 112.229 82.6313 111.85 82.442C111.472 82.2526 108.492 82.2526 108.038 82.4672C107.583 82.6817 106.384 84.5501 106.624 85.4212Z" fill="#E57492"/>
</g>
<path d="M139.508 41.2923C139.508 41.0693 139.348 40.8785 139.129 40.839L121.069 37.591C105.918 36.2952 101.346 43.0013 101.346 43.0013V49.5123L103.118 49.5053C104.431 53.3373 108.164 64.3191 108.544 66.3141C109.006 68.7392 106.026 83.3419 106.335 83.5354C106.644 83.7289 113.334 84.5523 113.952 84.4495C114.569 84.3465 117.657 68.2649 117.452 66.3212C117.294 64.829 116.832 54.596 115.695 49.4553L139.508 49.3605V41.2923Z" fill="#FC476A"/>
<path d="M115.695 49.4551C115.695 49.4551 115.244 47.0671 113.241 45.4094C113.241 45.4094 123.947 47.5505 127.055 47.7577C130.163 47.9649 139.508 47.1428 139.508 47.1428V49.3602L115.695 49.4551Z" fill="#D40221"/>
<path d="M193.21 55.8823C193.21 55.8823 196.975 54.9883 197.069 55.1608C197.163 55.3333 197.696 57.0585 197.492 57.6859C197.288 58.3133 193.587 59.6621 193.587 59.6621L193.21 55.8823Z" fill="#E57492"/>
<path d="M196.144 44.4352C196.144 44.4352 160.488 41.5096 153.083 39.9554C145.677 38.4012 139.508 41.7797 139.508 41.7797V49.3592C139.508 49.3592 158.669 65.6842 167.261 65.8989C175.854 66.1137 193.825 61.3165 193.968 60.5289C194.112 59.7413 193.968 55.0872 193.253 54.8008C192.537 54.5144 168.765 57.2353 168.335 56.7341C168.056 56.4086 164.032 52.3678 160.499 49.3594H196.144V44.4352H196.144Z" fill="#1B3D9E"/>
<mask id="mask28_2046_18289" style="mask-type:luminance" maskUnits="userSpaceOnUse" x="139" y="39" width="58" height="27">
<path d="M196.144 44.4345C196.144 44.4345 160.488 41.5088 153.083 39.9547C145.678 38.4005 139.509 41.779 139.509 41.779V49.3585C139.509 49.3585 158.67 65.6834 167.262 65.8982C175.854 66.113 193.826 61.3157 193.969 60.5281C194.112 59.7405 193.969 55.0864 193.253 54.8001C192.537 54.5137 168.766 57.2346 168.336 56.7334C168.057 56.4079 164.032 52.367 160.5 49.3586H196.144V44.4345H196.144Z" fill="white"/>
</mask>
<g mask="url(#mask28_2046_18289)">
<path d="M169.013 61.5967C168.887 61.5967 168.787 61.5922 168.706 61.5834C168.687 61.5812 168.666 61.5784 168.645 61.5746C168.554 61.5587 168.493 61.4719 168.509 61.3808C168.525 61.2896 168.612 61.2283 168.703 61.2447C168.717 61.2471 168.73 61.2491 168.743 61.2506C168.849 61.2623 169.015 61.2647 169.226 61.2581C169.319 61.2552 169.396 61.3277 169.399 61.4201C169.402 61.5126 169.329 61.5899 169.237 61.5929C169.156 61.5954 169.081 61.5967 169.013 61.5967ZM169.791 61.5628C169.704 61.5628 169.631 61.4954 169.624 61.4071C169.618 61.3149 169.688 61.2347 169.78 61.2283C169.95 61.2163 170.135 61.2014 170.336 61.1835C170.426 61.1752 170.509 61.2432 170.517 61.3355C170.525 61.4276 170.457 61.5089 170.365 61.5171C170.163 61.5352 169.975 61.5503 169.803 61.5624C169.799 61.5626 169.795 61.5628 169.791 61.5628ZM170.908 61.4646C170.823 61.4646 170.75 61.4003 170.742 61.3139C170.732 61.2219 170.799 61.1397 170.892 61.1304C171.069 61.1124 171.254 61.093 171.447 61.0718C171.539 61.0621 171.622 61.1283 171.632 61.2203C171.642 61.3122 171.575 61.3949 171.483 61.4049C171.289 61.426 171.103 61.4457 170.925 61.4636C170.919 61.4644 170.914 61.4646 170.908 61.4646ZM168.143 61.4014C168.122 61.4014 168.1 61.3971 168.078 61.3881C167.927 61.324 167.753 61.2427 167.56 61.1462C167.478 61.1047 167.444 61.0041 167.486 60.9214C167.527 60.8386 167.628 60.8054 167.71 60.8467C167.896 60.94 168.064 61.0184 168.209 61.0796C168.294 61.1157 168.334 61.214 168.298 61.2992C168.271 61.363 168.209 61.4014 168.143 61.4014ZM172.021 61.3435C171.937 61.3435 171.865 61.2806 171.855 61.1952C171.845 61.1033 171.91 61.0202 172.002 61.0096C172.182 60.9888 172.367 60.9671 172.557 60.9443C172.649 60.9329 172.733 60.9988 172.744 61.0906C172.754 61.1825 172.689 61.2659 172.597 61.2769C172.407 61.2997 172.221 61.3216 172.041 61.3424C172.034 61.3432 172.028 61.3435 172.021 61.3435ZM173.133 61.2104C173.049 61.2104 172.977 61.1483 172.967 61.0635C172.955 60.9717 173.021 60.8881 173.112 60.8767C173.294 60.8542 173.478 60.831 173.667 60.8071C173.758 60.7952 173.843 60.8603 173.854 60.9521C173.866 61.0438 173.801 61.1276 173.709 61.1394C173.52 61.1634 173.335 61.1867 173.154 61.2092C173.147 61.21 173.14 61.2104 173.133 61.2104ZM174.242 61.0693C174.16 61.0693 174.088 61.0079 174.077 60.9234C174.065 60.8317 174.129 60.7476 174.221 60.7357C174.403 60.7121 174.588 60.6878 174.775 60.663C174.867 60.6511 174.951 60.7154 174.963 60.8071C174.976 60.8988 174.911 60.983 174.819 60.9951C174.632 61.0199 174.447 61.0442 174.264 61.0679C174.257 61.0689 174.25 61.0693 174.242 61.0693ZM175.352 60.9225C175.269 60.9225 175.197 60.8615 175.186 60.7773C175.174 60.6856 175.238 60.6013 175.33 60.589L175.883 60.514C175.975 60.5009 176.06 60.5657 176.072 60.6573C176.084 60.7491 176.02 60.8334 175.929 60.8459L175.374 60.9211C175.367 60.9221 175.359 60.9225 175.352 60.9225ZM167.139 60.9039C167.112 60.9039 167.084 60.8973 167.059 60.8837C166.903 60.7991 166.739 60.7075 166.566 60.6094C166.486 60.5636 166.458 60.4614 166.504 60.381C166.549 60.3006 166.651 60.2724 166.732 60.3183C166.902 60.4151 167.065 60.5055 167.219 60.5892C167.3 60.6333 167.33 60.735 167.286 60.8163C167.256 60.8722 167.198 60.9039 167.139 60.9039ZM176.46 60.7715C176.378 60.7715 176.306 60.7107 176.294 60.6268C176.282 60.5351 176.346 60.4506 176.437 60.438L176.991 60.3612C177.082 60.3489 177.167 60.4123 177.18 60.5039C177.193 60.5956 177.129 60.6803 177.037 60.693L176.483 60.7698C176.475 60.7709 176.468 60.7715 176.46 60.7715ZM177.568 60.6169C177.485 60.6169 177.414 60.5564 177.402 60.4727C177.389 60.3811 177.453 60.2964 177.544 60.2835L178.098 60.2051C178.189 60.1914 178.274 60.2558 178.287 60.3474C178.3 60.439 178.237 60.5238 178.145 60.5368L177.591 60.6152C177.583 60.6164 177.575 60.6169 177.568 60.6169ZM178.675 60.4594C178.593 60.4594 178.521 60.3992 178.509 60.3157C178.496 60.224 178.56 60.1392 178.651 60.1261L179.204 60.0465C179.297 60.0336 179.381 60.0967 179.394 60.1883C179.408 60.2798 179.344 60.3648 179.252 60.3781L178.699 60.4578C178.691 60.4589 178.683 60.4594 178.675 60.4594ZM166.164 60.3508C166.136 60.3508 166.106 60.3433 166.08 60.3275C165.924 60.2358 165.763 60.1399 165.597 60.0399C165.518 59.9921 165.493 59.8891 165.541 59.8099C165.588 59.7307 165.691 59.7051 165.77 59.753C165.935 59.8523 166.095 59.9477 166.25 60.0388C166.329 60.0858 166.356 60.1884 166.309 60.2682C166.278 60.3212 166.222 60.3508 166.164 60.3508ZM179.781 60.2995C179.699 60.2995 179.628 60.2395 179.616 60.1561C179.602 60.0645 179.666 59.9795 179.757 59.9662L180.311 59.8855C180.403 59.8722 180.487 59.9354 180.501 60.0269C180.514 60.1186 180.451 60.2036 180.359 60.217L179.806 60.2978C179.797 60.299 179.789 60.2995 179.781 60.2995ZM180.888 60.1374C180.806 60.1374 180.734 60.0775 180.722 59.9943C180.709 59.9027 180.772 59.8176 180.864 59.8042L181.417 59.7225C181.508 59.7089 181.593 59.7722 181.607 59.8637C181.62 59.9552 181.557 60.0404 181.466 60.0539L180.912 60.1356C180.904 60.1368 180.896 60.1374 180.888 60.1374ZM181.996 59.9732C181.914 59.9732 181.843 59.9136 181.83 59.8305C181.817 59.7389 181.88 59.6537 181.972 59.6401L182.525 59.5574C182.617 59.5434 182.702 59.6068 182.716 59.6983C182.729 59.7898 182.666 59.875 182.575 59.8888L182.021 59.9715C182.012 59.9727 182.004 59.9732 181.996 59.9732ZM183.102 59.8078C183.02 59.8078 182.949 59.7482 182.936 59.6652C182.923 59.5737 182.986 59.4884 183.077 59.4746L183.63 59.3914C183.722 59.3774 183.807 59.4405 183.82 59.532C183.834 59.6235 183.771 59.7088 183.68 59.7225L183.127 59.806C183.118 59.8071 183.11 59.8078 183.102 59.8078ZM165.206 59.7727C165.176 59.7727 165.146 59.7647 165.118 59.7479C164.963 59.6523 164.804 59.5537 164.642 59.4523C164.563 59.4032 164.539 59.3 164.588 59.2215C164.637 59.1431 164.74 59.119 164.819 59.1682C164.981 59.2691 165.139 59.3672 165.294 59.4625C165.373 59.511 165.397 59.6142 165.349 59.6929C165.317 59.7444 165.262 59.7727 165.206 59.7727ZM184.208 59.6408C184.126 59.6408 184.055 59.5814 184.042 59.4984C184.028 59.4069 184.091 59.3215 184.183 59.3077L184.735 59.2237C184.827 59.2103 184.912 59.2725 184.926 59.3641C184.94 59.4556 184.877 59.541 184.786 59.555L184.233 59.639C184.224 59.6402 184.216 59.6408 184.208 59.6408ZM185.313 59.4724C185.232 59.4724 185.16 59.413 185.148 59.3301C185.134 59.2387 185.197 59.1532 185.288 59.1393L185.84 59.0546C185.933 59.0408 186.018 59.1034 186.031 59.1947C186.045 59.2862 185.983 59.3716 185.891 59.3857L185.339 59.4704C185.33 59.4718 185.321 59.4724 185.313 59.4724ZM186.418 59.3027C186.337 59.3027 186.266 59.2434 186.253 59.1606C186.239 59.0691 186.302 58.9836 186.393 58.9696L186.946 58.8844C187.037 58.8705 187.123 58.933 187.137 59.0245C187.151 59.1159 187.088 59.2014 186.997 59.2156L186.444 59.3008C186.435 59.3021 186.427 59.3027 186.418 59.3027ZM164.257 59.1799C164.226 59.1799 164.195 59.1715 164.167 59.1539C164.012 59.0558 163.854 58.9554 163.695 58.853C163.617 58.8031 163.594 58.6995 163.644 58.6215C163.694 58.5437 163.798 58.5208 163.875 58.5709C164.035 58.6729 164.192 58.7729 164.346 58.8708C164.425 58.9202 164.448 59.0237 164.398 59.1019C164.367 59.1523 164.312 59.1799 164.257 59.1799ZM187.524 59.1319C187.443 59.1319 187.371 59.0727 187.359 58.99C187.344 58.8986 187.407 58.813 187.498 58.7989L188.051 58.7131C188.143 58.6989 188.228 58.7615 188.242 58.8528C188.256 58.9442 188.194 59.0298 188.102 59.044L187.55 59.1299C187.541 59.1312 187.532 59.1319 187.524 59.1319ZM188.629 58.9599C188.548 58.9599 188.477 58.9008 188.464 58.8181C188.449 58.7267 188.512 58.641 188.603 58.6268L189.156 58.5404C189.247 58.5267 189.333 58.5888 189.347 58.6801C189.362 58.7715 189.299 58.8571 189.208 58.8714L188.655 58.9578C188.646 58.9592 188.638 58.9599 188.629 58.9599ZM189.734 58.7869C189.653 58.7869 189.582 58.728 189.569 58.6454C189.555 58.554 189.617 58.4683 189.709 58.454L190.261 58.3671C190.354 58.3528 190.438 58.4152 190.453 58.5065C190.467 58.5979 190.405 58.6836 190.313 58.698L189.761 58.785C189.752 58.7862 189.743 58.7869 189.734 58.7869ZM190.84 58.6128C190.759 58.6128 190.688 58.554 190.675 58.4714C190.66 58.38 190.723 58.2942 190.814 58.2799L191.367 58.1924C191.457 58.1778 191.544 58.2402 191.558 58.3317C191.573 58.4231 191.511 58.5088 191.419 58.5233L190.866 58.6108C190.857 58.6122 190.849 58.6128 190.84 58.6128ZM163.314 58.5769C163.283 58.5769 163.252 58.5683 163.224 58.5501C163.069 58.4502 162.912 58.3485 162.754 58.2453C162.676 58.1949 162.655 58.091 162.705 58.0135C162.755 57.9362 162.859 57.914 162.937 57.9647C163.095 58.0675 163.251 58.169 163.405 58.2687C163.483 58.3189 163.505 58.4225 163.455 58.5003C163.423 58.5499 163.369 58.5769 163.314 58.5769ZM191.946 58.4376C191.865 58.4376 191.793 58.3788 191.78 58.2963C191.766 58.2049 191.828 58.1191 191.92 58.1046L192.473 58.0167C192.564 58.0013 192.65 58.0644 192.664 58.1557C192.679 58.2471 192.617 58.3329 192.525 58.3474L191.972 58.4355C191.963 58.4369 191.954 58.4376 191.946 58.4376ZM193.052 58.2613C192.971 58.2613 192.9 58.2025 192.887 58.1201C192.872 58.0287 192.935 57.9429 193.026 57.9283L193.58 57.8396C193.67 57.8251 193.757 57.8872 193.772 57.9785C193.786 58.0698 193.724 58.1558 193.633 58.1705L193.079 58.2592C193.07 58.2605 193.061 58.2613 193.052 58.2613ZM194.161 58.0833C194.08 58.0833 194.009 58.0247 193.996 57.9424C193.981 57.8511 194.043 57.765 194.134 57.7504L194.693 57.6602C194.784 57.6457 194.87 57.7073 194.885 57.7986C194.9 57.8899 194.838 57.976 194.747 57.9908L194.188 58.0811C194.179 58.0826 194.17 58.0833 194.161 58.0833ZM162.377 57.9664C162.346 57.9664 162.314 57.9576 162.285 57.939C162.131 57.8376 161.975 57.735 161.818 57.6312C161.741 57.5802 161.719 57.4762 161.771 57.3991C161.821 57.3218 161.925 57.3007 162.003 57.3517C162.16 57.4553 162.315 57.5577 162.469 57.6589C162.546 57.7096 162.568 57.8136 162.517 57.8908C162.485 57.9399 162.432 57.9664 162.377 57.9664ZM161.444 57.35C161.412 57.35 161.38 57.341 161.352 57.3219C161.197 57.2195 161.042 57.1161 160.886 57.0117C160.809 56.9603 160.788 56.8563 160.84 56.7794C160.891 56.7026 160.995 56.6817 161.072 56.7331C161.228 56.8374 161.383 56.9406 161.537 57.043C161.614 57.0942 161.635 57.1982 161.584 57.2752C161.551 57.3237 161.498 57.35 161.444 57.35ZM160.514 56.7289C160.482 56.7289 160.449 56.7198 160.421 56.7005L159.956 56.3882C159.88 56.3365 159.859 56.2324 159.911 56.1557C159.963 56.0792 160.067 56.0585 160.144 56.1104L160.607 56.4222C160.684 56.4738 160.705 56.5778 160.653 56.6547C160.621 56.703 160.568 56.7289 160.514 56.7289ZM159.587 56.1039C159.554 56.1039 159.522 56.0946 159.493 56.0751L159.03 55.7611C158.953 55.7091 158.934 55.6049 158.986 55.5284C159.038 55.4518 159.142 55.4322 159.218 55.484L159.681 55.7976C159.757 55.8495 159.777 55.9536 159.726 56.0302C159.693 56.0781 159.64 56.1039 159.587 56.1039ZM158.662 55.4756C158.629 55.4756 158.596 55.4661 158.568 55.4465L158.107 55.1318C158.03 55.0796 158.011 54.9753 158.063 54.899C158.115 54.8226 158.219 54.8029 158.296 54.8551L158.756 55.1696C158.833 55.2217 158.852 55.326 158.8 55.4023C158.768 55.4499 158.715 55.4756 158.662 55.4756ZM157.74 54.845C157.707 54.845 157.674 54.8355 157.645 54.8156L157.183 54.498C157.107 54.4456 157.087 54.3413 157.14 54.2651C157.192 54.1887 157.297 54.1698 157.373 54.222L157.835 54.5393C157.911 54.5916 157.93 54.696 157.878 54.7722C157.845 54.8195 157.793 54.845 157.74 54.845ZM156.817 54.2102C156.784 54.2102 156.751 54.2007 156.722 54.1806L156.262 53.8628C156.186 53.8101 156.167 53.7058 156.219 53.6297C156.272 53.5536 156.377 53.5347 156.452 53.5872L156.912 53.9048C156.989 53.9573 157.008 54.0617 156.955 54.1378C156.923 54.185 156.87 54.2102 156.817 54.2102ZM155.897 53.5744C155.865 53.5744 155.831 53.5647 155.802 53.5445L155.343 53.2257C155.267 53.173 155.248 53.0686 155.301 52.9926C155.353 52.9165 155.458 52.8979 155.534 52.9507L155.993 53.2692C156.069 53.322 156.088 53.4263 156.035 53.5024C156.003 53.5492 155.95 53.5744 155.897 53.5744ZM154.979 52.9364C154.946 52.9364 154.913 52.9266 154.883 52.9063L154.424 52.5866C154.348 52.5338 154.33 52.4293 154.383 52.3535C154.436 52.2775 154.54 52.259 154.616 52.3119L155.075 52.6314C155.151 52.6842 155.169 52.7887 155.116 52.8645C155.084 52.9114 155.032 52.9364 154.979 52.9364ZM154.062 52.2967C154.029 52.2967 153.995 52.287 153.966 52.2665L153.511 51.9481C153.435 51.8952 153.415 51.7896 153.468 51.7138C153.521 51.6379 153.624 51.6184 153.7 51.6715L154.158 51.9918C154.234 52.0448 154.252 52.1492 154.199 52.2251C154.167 52.2718 154.115 52.2967 154.062 52.2967ZM153.145 51.6555C153.112 51.6555 153.079 51.6456 153.049 51.6251L152.592 51.3038C152.516 51.2507 152.497 51.1461 152.551 51.0705C152.604 50.9946 152.709 50.9766 152.784 51.0296L153.242 51.3507C153.317 51.4039 153.336 51.5083 153.283 51.584C153.25 51.6306 153.198 51.6555 153.145 51.6555ZM152.23 51.0128C152.197 51.0128 152.163 51.0029 152.134 50.9823L151.676 50.6604C151.601 50.6071 151.583 50.5026 151.636 50.427C151.689 50.3514 151.794 50.3332 151.869 50.3866L152.327 50.7083C152.402 50.7615 152.421 50.8659 152.367 50.9417C152.335 50.988 152.283 51.0128 152.23 51.0128ZM151.316 50.3688C151.282 50.3688 151.248 50.3589 151.219 50.3381L150.762 50.0158C150.686 49.9624 150.668 49.8579 150.722 49.7823C150.775 49.7067 150.88 49.6889 150.955 49.742L151.412 50.0643C151.488 50.1176 151.506 50.2221 151.453 50.2977C151.42 50.344 151.368 50.3688 151.316 50.3688ZM150.402 49.7237C150.368 49.7237 150.334 49.7137 150.305 49.693L149.848 49.3699C149.772 49.3166 149.755 49.212 149.808 49.1365C149.861 49.061 149.966 49.0432 150.042 49.0964L150.498 49.4193C150.574 49.4727 150.592 49.5772 150.538 49.6528C150.506 49.699 150.454 49.7237 150.402 49.7237ZM149.488 49.0776C149.454 49.0776 149.421 49.0677 149.391 49.047L148.934 48.7236C148.859 48.6702 148.841 48.5655 148.894 48.4901C148.948 48.4145 149.052 48.3966 149.128 48.4502L149.585 48.7735C149.66 48.8268 149.678 48.9314 149.625 49.0069C149.592 49.053 149.54 49.0776 149.488 49.0776ZM148.574 48.4308C148.54 48.4308 148.507 48.4208 148.477 48.4L148.02 48.0765C147.945 48.0231 147.927 47.9185 147.98 47.8431C148.034 47.7674 148.138 47.7499 148.214 47.8032L148.671 48.1267C148.746 48.1801 148.764 48.2847 148.711 48.3601C148.678 48.4062 148.626 48.4308 148.574 48.4308ZM147.659 47.7839C147.626 47.7839 147.592 47.7739 147.563 47.7532L147.105 47.4301C147.029 47.3768 147.011 47.2723 147.064 47.1967C147.117 47.1212 147.222 47.103 147.298 47.1562L147.756 47.4798C147.832 47.5331 147.85 47.6377 147.796 47.7132C147.763 47.7592 147.712 47.7839 147.659 47.7839ZM146.741 47.1379C146.708 47.1379 146.674 47.1281 146.645 47.1077C146.436 46.9611 146.28 46.8537 146.184 46.7905C146.107 46.7393 146.086 46.6354 146.137 46.5583C146.188 46.4813 146.292 46.4602 146.369 46.5113C146.466 46.5753 146.624 46.6844 146.837 46.8331C146.913 46.886 146.931 46.9904 146.879 47.0663C146.846 47.1129 146.794 47.1379 146.741 47.1379Z" fill="#1C056D"/>
</g>
<mask id="mask29_2046_18289" style="mask-type:luminance" maskUnits="userSpaceOnUse" x="139" y="39" width="58" height="27">
<path d="M196.144 44.4345C196.144 44.4345 160.488 41.5088 153.083 39.9547C145.678 38.4005 139.509 41.779 139.509 41.779V49.3585C139.509 49.3585 158.67 65.6834 167.262 65.8982C175.854 66.113 193.826 61.3157 193.969 60.5281C194.112 59.7405 193.969 55.0864 193.253 54.8001C192.537 54.5137 168.766 57.2346 168.336 56.7334C168.057 56.4079 164.032 52.367 160.5 49.3586H196.144V44.4345H196.144Z" fill="white"/>
</mask>
<g mask="url(#mask29_2046_18289)">
<path d="M140.768 40.7844C140.768 40.7844 141.082 50.7897 140.925 50.9467C140.768 51.1036 139.002 49.8088 139.002 49.8088C139.002 49.8088 138.796 41.8299 138.963 41.3337C139.129 40.8376 140.768 40.7844 140.768 40.7844Z" fill="#1C056D"/>
</g>
<mask id="mask30_2046_18289" style="mask-type:luminance" maskUnits="userSpaceOnUse" x="139" y="39" width="58" height="27">
<path d="M196.144 44.4345C196.144 44.4345 160.488 41.5088 153.083 39.9547C145.678 38.4005 139.509 41.779 139.509 41.779V49.3585C139.509 49.3585 158.67 65.6834 167.262 65.8982C175.854 66.113 193.826 61.3157 193.969 60.5281C194.112 59.7405 193.969 55.0864 193.253 54.8001C192.537 54.5137 168.766 57.2346 168.336 56.7334C168.057 56.4079 164.032 52.367 160.5 49.3586H196.144V44.4345H196.144Z" fill="white"/>
</mask>
<g mask="url(#mask30_2046_18289)">
<path d="M160.5 49.3583C160.5 49.3583 152.835 43.0473 151.654 42.7412C151.654 42.7412 159.395 44.4905 165.386 46.1962C171.377 47.9018 196.743 47.5519 196.743 47.5519V50.0884L160.5 49.3583Z" fill="#1C056D"/>
</g>
<path d="M196.93 55.1406C196.93 55.1406 197.54 54.1681 198.679 54.0091C199.818 53.8502 200.189 54.0091 200.189 54.0091C200.189 54.0091 203.248 62.299 202.694 62.4743C202.139 62.6495 200.883 62.6788 200.503 62.3282C200.124 61.9777 197.243 57.9699 197.243 57.9699C197.243 57.9699 197.429 55.8026 196.93 55.1406Z" fill="#1B3D9E"/>
<mask id="mask31_2046_18289" style="mask-type:luminance" maskUnits="userSpaceOnUse" x="196" y="53" width="7" height="10">
<path d="M196.931 55.1406C196.931 55.1406 197.54 54.1681 198.68 54.0091C199.819 53.8502 200.19 54.0091 200.19 54.0091C200.19 54.0091 203.249 62.299 202.694 62.4743C202.139 62.6495 200.884 62.6788 200.504 62.3282C200.124 61.9777 197.244 57.9699 197.244 57.9699C197.244 57.9699 197.429 55.8026 196.931 55.1406Z" fill="white"/>
</mask>
<g mask="url(#mask31_2046_18289)">
<path d="M197.79 59.0735C197.79 59.0735 198.603 58.147 198.994 58.1676C199.237 58.1803 199.341 58.3471 199.385 58.4723C199.413 58.5504 199.394 58.637 199.339 58.6994C199.111 58.9601 198.449 59.7001 198.305 59.6634C198.13 59.6191 197.79 59.0735 197.79 59.0735Z" fill="#1C056D"/>
</g>
<mask id="mask32_2046_18289" style="mask-type:luminance" maskUnits="userSpaceOnUse" x="196" y="53" width="7" height="10">
<path d="M196.931 55.1406C196.931 55.1406 197.54 54.1681 198.68 54.0091C199.819 53.8502 200.19 54.0091 200.19 54.0091C200.19 54.0091 203.249 62.299 202.694 62.4743C202.139 62.6495 200.884 62.6788 200.504 62.3282C200.124 61.9777 197.244 57.9699 197.244 57.9699C197.244 57.9699 197.429 55.8026 196.931 55.1406Z" fill="white"/>
</mask>
<g mask="url(#mask32_2046_18289)">
<path d="M198.608 60.2746C198.608 60.2746 199.422 59.3482 199.813 59.3687C200.055 59.3815 200.159 59.5483 200.203 59.6734C200.231 59.7516 200.212 59.8382 200.158 59.9006C199.93 60.1613 199.267 60.9013 199.123 60.8646C198.948 60.8203 198.608 60.2746 198.608 60.2746Z" fill="#1C056D"/>
</g>
<mask id="mask33_2046_18289" style="mask-type:luminance" maskUnits="userSpaceOnUse" x="196" y="53" width="7" height="10">
<path d="M196.931 55.1406C196.931 55.1406 197.54 54.1681 198.68 54.0091C199.819 53.8502 200.19 54.0091 200.19 54.0091C200.19 54.0091 203.249 62.299 202.694 62.4743C202.139 62.6495 200.884 62.6788 200.504 62.3282C200.124 61.9777 197.244 57.9699 197.244 57.9699C197.244 57.9699 197.429 55.8026 196.931 55.1406Z" fill="white"/>
</mask>
<g mask="url(#mask33_2046_18289)">
<path d="M199.36 53.8048C199.36 53.8048 202.23 62.3956 202.21 62.7544C202.21 62.7544 203.167 62.6947 203.167 62.4554C203.167 62.2162 200.815 53.8446 200.516 53.8048C200.217 53.765 199.36 53.8048 199.36 53.8048Z" fill="#1C056D"/>
</g>
<path d="M196.143 46.1436C196.143 46.1436 199.667 46.6336 199.733 46.8098C199.799 46.986 199.812 49.3645 199.812 49.3645L196.143 49.3711V46.1436Z" fill="#E57492"/>
<path d="M199.587 46.7389C199.587 46.7389 200.002 45.6967 201.214 45.6301C202.426 45.5635 205.262 47.0727 205.515 47.1792C205.768 47.2857 209.183 48.2047 209.243 48.2347C209.973 48.6048 209.323 49.4763 209.323 49.4763L199.812 49.3642L199.587 46.7389Z" fill="#1B3D9E"/>
<mask id="mask34_2046_18289" style="mask-type:luminance" maskUnits="userSpaceOnUse" x="199" y="45" width="11" height="5">
<path d="M199.587 46.7389C199.587 46.7389 200.002 45.6967 201.214 45.6301C202.426 45.5635 205.262 47.0727 205.515 47.1792C205.768 47.2857 209.183 48.2047 209.243 48.2347C209.973 48.6048 209.323 49.4763 209.323 49.4763L199.812 49.3642L199.587 46.7389Z" fill="white"/>
</mask>
<g mask="url(#mask34_2046_18289)">
<path d="M200.559 45.6282C200.675 45.7351 204.764 47.6791 205.372 47.7575C205.979 47.8358 209.721 48.8431 209.721 48.8431C209.721 48.8431 209.923 48.3314 209.59 48.1396C209.257 47.9477 205.644 47.0843 205.356 46.9245C205.068 46.7646 201.582 45.3576 201.294 45.4055C201.007 45.4534 200.559 45.6282 200.559 45.6282Z" fill="#1C056D"/>
</g>
<mask id="mask35_2046_18289" style="mask-type:luminance" maskUnits="userSpaceOnUse" x="199" y="45" width="11" height="5">
<path d="M199.587 46.7389C199.587 46.7389 200.002 45.6967 201.214 45.6301C202.426 45.5635 205.262 47.0727 205.515 47.1792C205.768 47.2857 209.183 48.2047 209.243 48.2347C209.973 48.6048 209.323 49.4763 209.323 49.4763L199.812 49.3642L199.587 46.7389Z" fill="white"/>
</mask>
<g mask="url(#mask35_2046_18289)">
<path d="M201.592 49.5573C201.667 49.2877 201.934 47.9845 202.137 47.9396C202.341 47.8947 202.835 48.0295 202.82 48.1044C202.805 48.1793 202.7 49.6022 202.371 49.6022C202.041 49.6022 201.592 49.5573 201.592 49.5573Z" fill="#1C056D"/>
</g>
<mask id="mask36_2046_18289" style="mask-type:luminance" maskUnits="userSpaceOnUse" x="199" y="45" width="11" height="5">
<path d="M199.587 46.7389C199.587 46.7389 200.002 45.6967 201.214 45.6301C202.426 45.5635 205.262 47.0727 205.515 47.1792C205.768 47.2857 209.183 48.2047 209.243 48.2347C209.973 48.6048 209.323 49.4763 209.323 49.4763L199.812 49.3642L199.587 46.7389Z" fill="white"/>
</mask>
<g mask="url(#mask36_2046_18289)">
<path d="M203.528 49.9323C203.603 49.6627 203.87 48.3595 204.074 48.3146C204.277 48.2697 204.772 48.4045 204.757 48.4794C204.742 48.5543 204.637 49.9772 204.307 49.9772C203.978 49.9772 203.528 49.9323 203.528 49.9323Z" fill="#1C056D"/>
</g>
</svg>
