<svg width="500" height="500" viewBox="0 0 500 500" fill="none" xmlns="http://www.w3.org/2000/svg">
<path d="M500 382.398H0V382.648H500V382.398Z" fill="#EBEBEB"/>
<path d="M315.667 389.208H290.208V389.458H315.667V389.208Z" fill="#EBEBEB"/>
<path d="M455.444 394.619H395.111V394.869H455.444V394.619Z" fill="#EBEBEB"/>
<path d="M284.792 389.333H222.459V389.583H284.792V389.333Z" fill="#EBEBEB"/>
<path d="M182.041 396.814H169V397.064H182.041V396.814Z" fill="#EBEBEB"/>
<path d="M254.084 396.814H194.708V397.064H254.084V396.814Z" fill="#EBEBEB"/>
<path d="M90.913 392.592H52.459V392.842H90.913V392.592Z" fill="#EBEBEB"/>
<path d="M237.014 337.8H43.915C40.768 337.8 38.207 335.239 38.207 332.092V60.6601C38.207 57.5131 40.768 54.9521 43.915 54.9521H237.014C240.16 54.9521 242.721 57.5131 242.721 60.6601V332.092C242.721 335.239 240.16 337.8 237.014 337.8ZM43.915 55.2031C40.905 55.2031 38.457 57.6511 38.457 60.6611V332.093C38.457 335.103 40.905 337.551 43.915 337.551H237.014C240.023 337.551 242.471 335.103 242.471 332.093V60.6601C242.471 57.6511 240.023 55.2021 237.014 55.2021L43.915 55.2031Z" fill="#EBEBEB"/>
<path d="M453.31 337.8H260.212C257.065 337.8 254.505 335.239 254.505 332.092V60.6601C254.505 57.5131 257.066 54.9521 260.212 54.9521H453.31C456.458 54.9521 459.018 57.5131 459.018 60.6601V332.092C459.019 335.239 456.458 337.8 453.31 337.8ZM260.212 55.2031C257.203 55.2031 254.755 57.6511 254.755 60.6611V332.093C254.755 335.103 257.203 337.551 260.212 337.551H453.31C456.32 337.551 458.768 335.103 458.768 332.093V60.6601C458.768 57.6511 456.32 55.2021 453.31 55.2021L260.212 55.2031Z" fill="#EBEBEB"/>
<path d="M195.962 295.667H129.561L125.53 249.167H191.931L195.962 295.667Z" fill="#E6E6E6"/>
<path d="M199.402 295.667H133.002L128.971 249.167H195.371L199.402 295.667Z" fill="#F0F0F0"/>
<path d="M142.077 285.681L139.863 259.152H186.293L188.506 285.681H142.077Z" fill="white"/>
<path d="M210.891 295.667H203.1V382.397H210.891V295.667Z" fill="#E6E6E6"/>
<path d="M213.349 295.667H207.938V382.397H213.349V295.667Z" fill="#F0F0F0"/>
<path d="M137.94 305.239H213.349V295.666H137.94V305.239Z" fill="#F0F0F0"/>
<path d="M140.605 305.239H132.814V382.396H140.605V305.239Z" fill="#E6E6E6"/>
<path d="M143.064 305.239H137.653V382.396H143.064V305.239Z" fill="#F0F0F0"/>
<path d="M85.1484 305.239H77.3574V382.396H85.1484V305.239Z" fill="#E6E6E6"/>
<path d="M87.6073 305.239H82.1963V382.396H87.6073V305.239Z" fill="#F0F0F0"/>
<path d="M161.588 305.239H153.797V382.396H161.588V305.239Z" fill="#E6E6E6"/>
<path d="M164.047 305.239H158.636V382.396H164.047V305.239Z" fill="#F0F0F0"/>
<path d="M137.939 295.667H77.3574V305.24H137.939V295.667Z" fill="#E6E6E6"/>
<path d="M363.838 79.4141H129.508V209.87H363.838V79.4141Z" fill="#E0E0E0"/>
<path d="M376.705 79.4141H130.69V209.87H376.705V79.4141Z" fill="#F5F5F5"/>
<path d="M372.688 205.85V83.4326L134.712 83.4326L134.712 205.85L372.688 205.85Z" fill="white"/>
<path d="M231.066 205.85L275.996 83.4326H201.846L156.916 205.85H231.066Z" fill="#F5F5F5"/>
<path d="M302.441 205.85L347.37 83.4326H291.434L246.505 205.85H302.441Z" fill="#F5F5F5"/>
<path d="M438.111 257.803H418.192V382.398H438.111V257.803Z" fill="#E6E6E6"/>
<path d="M432.874 382.398H438.111V372.805H427.382L432.874 382.398Z" fill="#FAFAFA"/>
<path d="M254.454 257.803H234.535V382.398H254.454V257.803Z" fill="#E6E6E6"/>
<path d="M438.111 257.803H249.883V379.81H438.111V257.803Z" fill="#FAFAFA"/>
<path d="M434.548 297.169H253.446V262.711H434.548V297.169ZM254.446 296.169H433.548V263.711H254.446V296.169Z" fill="#E6E6E6"/>
<path d="M402.667 279.44H288.845C283.559 279.44 278.47 275.176 274.885 267.742L274.539 267.025H416.974L416.628 267.742C413.043 275.176 407.954 279.44 402.667 279.44ZM276.141 268.025C279.525 274.656 284.125 278.44 288.845 278.44H402.667C407.387 278.44 411.988 274.656 415.372 268.025H276.141Z" fill="#E6E6E6"/>
<path d="M255.121 382.398H249.883V372.805H260.612L255.121 382.398Z" fill="#FAFAFA"/>
<path d="M434.548 336.036H253.446V301.578H434.548V336.036ZM254.446 335.036H433.548V302.578H254.446V335.036Z" fill="#E6E6E6"/>
<path d="M402.667 318.307H288.845C283.559 318.307 278.47 314.043 274.885 306.609L274.539 305.892H416.974L416.628 306.609C413.043 314.044 407.954 318.307 402.667 318.307ZM276.141 306.892C279.525 313.523 284.125 317.307 288.845 317.307H402.667C407.388 317.307 411.988 313.523 415.372 306.892H276.141Z" fill="#E6E6E6"/>
<path d="M434.548 374.901H253.446V340.442H434.548V374.901ZM254.446 373.901H433.548V341.442H254.446V373.901Z" fill="#E6E6E6"/>
<path d="M402.667 357.173H288.845C283.559 357.173 278.47 352.909 274.885 345.475L274.539 344.758H416.974L416.628 345.475C413.043 352.91 407.954 357.173 402.667 357.173ZM276.141 345.758C279.525 352.389 284.125 356.173 288.845 356.173H402.667C407.388 356.173 411.988 352.389 415.372 345.758H276.141Z" fill="#E6E6E6"/>
<path d="M120.983 274.283V276.701H119.435L118.157 295.667H99.3221L98.0451 276.701H96.4971V274.283H120.983Z" fill="#E6E6E6"/>
<path d="M114.784 227.211C113.236 215.914 97.989 212.687 78.642 212.273C60.231 211.88 54.334 205.365 54.334 205.365C54.334 205.365 54.392 231.744 80.921 241.295C106.112 250.364 116.335 238.528 114.784 227.211Z" fill="#E6E6E6"/>
<path d="M105.379 252.825C105.702 248.178 113.121 239.639 130.966 243.521C143.87 246.328 148.667 239.639 148.667 239.639C148.667 239.639 147.472 258.518 128.066 264.194C109.638 269.584 104.81 260.997 105.379 252.825Z" fill="#E6E6E6"/>
<path d="M109.45 281.404C109.645 281.404 109.839 281.321 109.976 281.16C111.27 279.631 110.211 275.97 108.747 270.902C106.867 264.398 104.528 256.305 106.509 250.427C107.627 247.109 109.011 244.184 110.348 241.354C113.149 235.43 115.568 230.314 113.55 224.971C113.416 224.615 113.019 224.436 112.663 224.57C112.308 224.704 112.128 225.101 112.262 225.457C114.073 230.253 111.88 234.892 109.103 240.765C107.811 243.496 106.348 246.592 105.204 249.986C103.085 256.272 105.491 264.595 107.424 271.283C108.564 275.227 109.742 279.304 108.925 280.27C108.68 280.56 108.716 280.994 109.006 281.24C109.135 281.35 109.293 281.404 109.45 281.404Z" fill="#E6E6E6"/>
<path d="M250 427.561C357.082 427.561 443.889 422.492 443.889 416.238C443.889 409.985 357.082 404.915 250 404.915C142.918 404.915 56.1113 409.985 56.1113 416.238C56.1113 422.492 142.918 427.561 250 427.561Z" fill="#F5F5F5"/>
<path d="M249.96 361.048H107.96L100.188 132.681H242.188L249.96 361.048Z" fill="#B357D4"/>
<path d="M257.047 353.961H115.047L107.274 125.594H249.274L257.047 353.961Z" fill="#B357D4"/>
<path opacity="0.3" d="M257.047 353.961H115.047L107.274 125.594H249.274L257.047 353.961Z" fill="white"/>
<path d="M209.483 219.581C224.689 204.115 224.043 178.825 208.042 163.093C192.041 147.361 166.744 147.145 151.538 162.611C136.333 178.076 136.978 203.366 152.979 219.098C168.98 234.83 194.278 235.046 209.483 219.581Z" fill="#B357D4"/>
<path d="M213.47 191.089C213.664 196.782 212.402 202.127 210.021 206.792C204.81 217.067 194.159 224.055 181.626 224.055C169.094 224.055 157.967 217.067 152.056 206.792C149.358 202.128 147.732 196.783 147.538 191.089C146.918 172.879 161.173 158.123 179.382 158.123C197.591 158.123 212.85 172.879 213.47 191.089Z" fill="white"/>
<path opacity="0.6" d="M210.02 206.792C204.809 217.067 194.158 224.055 181.625 224.055C169.093 224.055 157.966 217.067 152.055 206.792C160.166 201.248 170.015 198.011 180.738 198.011C191.463 198.011 201.532 201.247 210.02 206.792Z" fill="#B357D4"/>
<path opacity="0.6" d="M190.778 190.283C196.369 184.598 196.131 175.3 190.249 169.516C184.366 163.732 175.065 163.653 169.475 169.339C163.885 175.025 164.122 184.322 170.005 190.106C175.888 195.89 185.188 195.969 190.778 190.283Z" fill="#B357D4"/>
<path d="M228.524 271.261H137.94L137.327 253.261H227.912L228.524 271.261Z" fill="white"/>
<path d="M229.621 303.434H139.036L138.423 285.434H229.008L229.621 303.434Z" fill="white"/>
<path d="M194.659 287.908L172.83 290.876C171.933 290.998 171.343 291.815 171.513 292.683L174.379 307.311C174.55 308.185 175.421 308.797 176.318 308.676L198.147 305.708C199.044 305.586 199.635 304.775 199.464 303.901L196.598 289.273C196.428 288.404 195.556 287.786 194.659 287.908ZM188.387 302.727L184.435 303.265L184.037 298.544C183.196 298.173 182.587 297.427 182.415 296.548C182.135 295.118 183.101 293.793 184.568 293.593C186.03 293.394 187.451 294.395 187.732 295.825C187.904 296.704 187.611 297.572 186.956 298.147L188.387 302.727Z" fill="#B357D4"/>
<path d="M192.505 287.124C191.707 287.232 190.937 286.69 190.785 285.913L190.504 284.481C189.732 280.54 185.964 277.565 181.885 277.92C177.525 278.3 174.602 282.15 175.418 286.314L175.74 287.959C175.892 288.736 175.369 289.454 174.571 289.562C173.773 289.67 173.003 289.128 172.851 288.351L172.578 286.955C171.502 281.463 174.959 276.183 180.552 275.21C186.432 274.186 192.23 278.152 193.351 283.875L193.673 285.52C193.825 286.297 193.302 287.015 192.505 287.124Z" fill="#B357D4"/>
<path d="M214.668 328.639H155.704L155.306 316.922H214.269L214.668 328.639Z" fill="#B357D4"/>
<path d="M186.219 262.261C186.281 264.079 184.857 265.553 183.039 265.553C181.221 265.553 179.697 264.079 179.635 262.261C179.573 260.443 180.997 258.969 182.815 258.969C184.633 258.969 186.157 260.443 186.219 262.261Z" fill="#263238"/>
<path d="M172.046 262.261C172.108 264.079 170.684 265.553 168.866 265.553C167.048 265.553 165.524 264.079 165.462 262.261C165.4 260.443 166.824 258.969 168.642 258.969C170.46 258.969 171.984 260.443 172.046 262.261Z" fill="#263238"/>
<path d="M157.872 262.261C157.934 264.079 156.51 265.553 154.692 265.553C152.874 265.553 151.35 264.079 151.288 262.261C151.226 260.443 152.65 258.969 154.468 258.969C156.286 258.969 157.81 260.443 157.872 262.261Z" fill="#263238"/>
<path d="M200.392 262.261C200.454 264.079 199.03 265.553 197.212 265.553C195.394 265.553 193.87 264.079 193.808 262.261C193.746 260.443 195.17 258.969 196.988 258.969C198.806 258.969 200.33 260.443 200.392 262.261Z" fill="#263238"/>
<path d="M214.564 262.261C214.626 264.079 213.202 265.553 211.384 265.553C209.566 265.553 208.042 264.079 207.98 262.261C207.918 260.443 209.342 258.969 211.16 258.969C212.978 258.969 214.503 260.443 214.564 262.261Z" fill="#263238"/>
<path d="M333.91 174.281C335.243 176.416 336.345 178.465 337.489 180.592C338.628 182.698 339.658 184.865 340.669 187.048C342.658 191.431 344.438 195.953 345.768 200.779C345.946 201.371 346.082 201.999 346.23 202.614L346.449 203.539L346.558 204.001L346.688 204.763C346.974 206.795 346.723 208.452 346.376 209.914C345.659 212.828 344.503 215.152 343.264 217.37C340.735 221.761 337.783 225.501 334.378 229.043L330.167 225.855C332.243 221.915 334.295 217.787 335.804 213.818C336.535 211.844 337.15 209.835 337.33 208.186C337.417 207.375 337.359 206.678 337.247 206.419L336.852 205.197C336.688 204.695 336.542 204.196 336.344 203.69C334.903 199.655 333.07 195.602 331.075 191.606C329.108 187.625 326.928 183.572 324.782 179.789L333.91 174.281Z" fill="#FF8B7B"/>
<path d="M331.237 224.425L326.646 226.862L331.924 233.042C331.924 233.042 335.219 230.813 335.368 227.409L331.237 224.425Z" fill="#FF8B7B"/>
<path d="M320.467 230.672L326.123 235.159L331.924 233.042L326.645 226.862L320.467 230.672Z" fill="#FF8B7B"/>
<path d="M301.151 141.564C301.038 142.12 300.652 142.511 300.288 142.437C299.925 142.363 299.722 141.853 299.835 141.297C299.948 140.741 300.334 140.35 300.698 140.424C301.061 140.498 301.264 141.009 301.151 141.564Z" fill="#263238"/>
<path d="M300.703 142.521C300.703 142.521 298.787 145.471 297.081 146.736C297.878 147.854 299.636 147.774 299.636 147.774L300.703 142.521Z" fill="#FF5652"/>
<path d="M298.901 162.138L298.944 155.584L307.624 156.633C307.624 156.633 307.475 162.269 302.628 163.926L298.901 162.138Z" fill="#FF8B7B"/>
<path d="M301.396 150.863L307.508 152.619L307.625 156.632L298.944 155.583L301.396 150.863Z" fill="#FF8B7B"/>
<path opacity="0.2" d="M307.51 152.619L301.4 150.859L300.21 153.139C300.36 157.009 302.72 160.189 305.85 161.619C307.55 159.389 307.62 156.629 307.62 156.629L307.51 152.619Z" fill="black"/>
<path d="M303.814 138.89C303.895 138.89 303.976 138.861 304.04 138.801C304.175 138.676 304.183 138.465 304.058 138.33C302.807 136.976 301.289 137.217 301.223 137.228C301.042 137.259 300.92 137.431 300.951 137.612C300.982 137.793 301.156 137.914 301.334 137.885C301.384 137.877 302.571 137.703 303.569 138.783C303.635 138.854 303.724 138.89 303.814 138.89Z" fill="#263238"/>
<path d="M316.591 151.683C315.582 156.829 314.973 163.958 318.573 167.392C318.573 167.392 317.166 172.612 307.605 172.612C297.091 172.612 302.547 168.031 302.547 168.031C306.917 166.675 306.879 161.697 305.879 157.698L316.591 151.683Z" fill="#FF8B7B"/>
<path d="M320.542 170.832C321.478 169.506 321.441 165.317 320.441 164.578C318.827 163.385 311.924 163.111 302.625 165.249C303.626 169.307 301.482 171.434 301.482 171.434L320.542 170.832Z" fill="#B357D4"/>
<path d="M351.795 408.236C351.089 408.389 350.384 408.429 350.044 408.14C349.901 408.018 349.758 407.786 349.883 407.366C349.949 407.145 350.093 406.98 350.312 406.876C351.262 406.423 353.444 407.312 353.537 407.35C353.598 407.375 353.638 407.433 353.64 407.499C353.642 407.565 353.605 407.625 353.546 407.654C353.212 407.815 352.504 408.083 351.795 408.236ZM350.651 407.112C350.579 407.128 350.514 407.149 350.456 407.177C350.324 407.24 350.241 407.333 350.203 407.461C350.114 407.761 350.225 407.855 350.262 407.886C350.64 408.208 352.045 407.911 353.034 407.515C352.362 407.279 351.276 406.977 350.651 407.112Z" fill="#B357D4"/>
<path d="M353.509 407.667C353.482 407.673 353.454 407.672 353.427 407.664C352.632 407.432 350.931 406.223 350.91 405.426C350.906 405.281 350.957 405.019 351.336 404.887C351.582 404.801 351.83 404.821 352.074 404.946C353.014 405.426 353.608 407.374 353.633 407.457C353.651 407.516 353.635 407.579 353.592 407.622C353.568 407.645 353.54 407.66 353.509 407.667ZM351.518 405.181C351.494 405.186 351.469 405.193 351.445 405.201C351.239 405.273 351.242 405.374 351.243 405.417C351.255 405.889 352.378 406.837 353.201 407.221C352.995 406.659 352.525 405.55 351.923 405.243C351.785 405.172 351.652 405.152 351.518 405.181Z" fill="#B357D4"/>
<path d="M299.865 409.417C298.962 409.417 298.09 409.293 297.798 408.887C297.696 408.745 297.615 408.503 297.812 408.159C297.922 407.966 298.1 407.835 298.34 407.769C299.511 407.451 301.969 408.851 302.073 408.911C302.133 408.946 302.165 409.014 302.154 409.082C302.143 409.15 302.09 409.205 302.022 409.219C301.573 409.309 300.706 409.417 299.865 409.417ZM298.749 408.053C298.632 408.053 298.523 408.065 298.427 408.091C298.273 408.133 298.167 408.209 298.101 408.324C297.983 408.531 298.026 408.634 298.069 408.692C298.396 409.147 300.174 409.157 301.482 408.972C300.829 408.638 299.571 408.053 298.749 408.053Z" fill="#B357D4"/>
<path d="M301.99 409.223C301.967 409.223 301.944 409.218 301.922 409.208C301.073 408.827 299.391 407.306 299.52 406.51C299.55 406.323 299.683 406.091 300.14 406.044C300.482 406.009 300.791 406.106 301.064 406.33C301.959 407.065 302.148 408.959 302.156 409.04C302.162 409.099 302.135 409.157 302.087 409.191C302.059 409.212 302.024 409.223 301.99 409.223ZM300.274 406.371C300.241 406.371 300.208 406.373 300.174 406.376C299.874 406.406 299.855 406.524 299.849 406.563C299.772 407.04 300.914 408.236 301.781 408.756C301.691 408.203 301.44 407.069 300.853 406.587C300.676 406.443 300.485 406.371 300.274 406.371Z" fill="#B357D4"/>
<path d="M309.724 409.056H302.69L301.99 392.768H309.023L309.724 409.056Z" fill="#FF8B7B"/>
<path d="M361.349 405.8L354.475 407.288L347.573 392.117L354.447 390.628L361.349 405.8Z" fill="#FF8B7B"/>
<path d="M353.814 406.598L361.537 404.926C361.818 404.865 362.104 405.008 362.224 405.269L364.905 411.086C365.183 411.689 364.815 412.397 364.163 412.526C361.457 413.063 360.113 413.189 356.716 413.924C354.626 414.376 349.909 415.526 347.024 416.15C344.202 416.761 343.144 414.003 344.269 413.489C349.315 411.184 351.423 409.154 352.789 407.262C353.036 406.921 353.403 406.687 353.814 406.598Z" fill="#263238"/>
<path d="M302.736 408.242H310.417C310.705 408.242 310.953 408.442 311.016 408.722L312.405 414.974C312.549 415.622 312.057 416.236 311.393 416.225C308.622 416.178 304.618 416.015 301.136 416.015C297.064 416.015 293.547 416.237 288.771 416.237C285.883 416.237 285.082 413.318 286.291 413.053C291.794 411.849 296.286 411.72 301.041 408.789C301.559 408.471 302.129 408.242 302.736 408.242Z" fill="#263238"/>
<path d="M331.167 168.981C337.759 170.492 343.195 187.322 343.195 187.322L329.957 197.412C329.957 197.412 325.098 192.831 322.936 184.413C320.669 175.592 324.426 167.436 331.167 168.981Z" fill="#B357D4"/>
<path opacity="0.4" d="M331.167 168.981C337.759 170.492 343.195 187.322 343.195 187.322L329.957 197.412C329.957 197.412 325.098 192.831 322.936 184.413C320.669 175.592 324.426 167.436 331.167 168.981Z" fill="black"/>
<path d="M296.502 189.066C294.857 190.841 293.217 192.421 291.518 194.046C290.675 194.854 289.813 195.646 288.932 196.423L287.604 197.585L287.27 197.874C287.108 198.013 286.911 198.178 286.7 198.339C286.26 198.664 285.778 199.043 284.768 199.48C284.233 199.687 283.545 199.959 282.336 199.983C281.761 199.992 280.981 199.892 280.236 199.61C279.475 199.328 278.739 198.84 278.235 198.339C277.189 197.288 276.873 196.365 276.667 195.748C276.476 195.112 276.421 194.658 276.382 194.261C276.319 193.485 276.359 192.961 276.402 192.475C276.449 191.995 276.515 191.579 276.588 191.188C276.882 189.646 277.298 188.402 277.749 187.156C278.206 185.923 278.712 184.739 279.303 183.542C279.938 182.268 280.551 181.344 281.162 180.279C283.633 176.149 286.533 172.377 289.614 168.822C292.762 165.291 296.066 162.062 299.865 159.104L303.546 162.891C300.96 166.35 298.418 170.058 296.069 173.714C293.722 177.397 291.545 181.147 289.671 184.96C289.239 185.902 288.706 186.933 288.406 187.721C288.055 188.582 287.733 189.508 287.468 190.419C287.206 191.319 286.995 192.257 286.9 192.945C286.878 193.111 286.867 193.255 286.867 193.339C286.864 193.416 286.884 193.459 286.874 193.246C286.864 193.13 286.853 192.957 286.745 192.591C286.623 192.243 286.433 191.584 285.591 190.732C285.185 190.333 284.575 189.915 283.943 189.689C283.332 189.45 282.693 189.38 282.259 189.382C281.334 189.403 280.921 189.592 280.647 189.69C280.157 189.902 280.147 189.959 280.152 189.938L280.536 189.587L281.737 188.488L284.128 186.248C285.71 184.757 287.302 183.167 288.805 181.691L296.502 189.066Z" fill="#FF8B7B"/>
<path opacity="0.2" d="M325.517 181.357C329.098 184.9 330.266 191.353 330.544 196.963L329.96 197.413C329.96 197.413 325.096 192.827 322.932 184.411C322.798 183.885 322.683 183.358 322.587 182.841L325.517 181.357Z" fill="black"/>
<path d="M289.508 176.035C288.07 183.634 287.17 199.238 291.345 230.14H328.966C329.225 224.365 325.596 196.193 331.167 168.982C331.167 168.982 324.718 167.688 318.573 167.392C313.766 167.16 306.806 167.007 302.58 167.393C300.816 167.554 299.085 167.809 297.542 168.082C293.474 168.801 290.276 171.976 289.508 176.035Z" fill="#B357D4"/>
<path opacity="0.4" d="M289.508 176.035C288.07 183.634 287.17 199.238 291.345 230.14H328.966C329.225 224.365 325.596 196.193 331.167 168.982C331.167 168.982 324.718 167.688 318.573 167.392C313.766 167.16 306.806 167.007 302.58 167.393C300.816 167.554 299.085 167.809 297.542 168.082C293.474 168.801 290.276 171.976 289.508 176.035Z" fill="black"/>
<path opacity="0.2" d="M295.265 187.266L288.467 185.638C288.256 189.755 288.237 194.858 288.544 201.168C291.675 197.606 295.667 192.053 295.265 187.266Z" fill="black"/>
<path opacity="0.2" d="M301.991 392.771L302.351 401.167H309.388L309.028 392.771H301.991Z" fill="black"/>
<path opacity="0.2" d="M354.451 390.632L347.573 392.121L351.134 399.941L358.012 398.452L354.451 390.632Z" fill="black"/>
<path d="M319.934 144.155C318.127 150.898 317.412 154.936 313.251 157.74C306.992 161.957 299.2 157.117 298.956 149.97C298.737 143.537 301.729 133.591 308.964 132.232C316.093 130.894 321.741 137.412 319.934 144.155Z" fill="#FF8B7B"/>
<path d="M304.147 144.413C303.813 143.509 302.255 136.541 303.717 134.732C305.18 132.923 321.828 134.224 324.29 136.647C328.374 140.666 325.541 144.253 321.07 148.881C317.707 152.361 317.578 156.284 315.882 156.859C312.91 157.868 308.301 156.92 307.377 153.747C306.453 150.575 304.147 144.413 304.147 144.413Z" fill="#263238"/>
<path d="M322.274 128.722C316.389 126.216 305.357 128.988 299.399 127.552C299.186 130.637 301.048 135.584 307.005 136.914C307.005 136.914 315.462 138.563 322.005 138.297C328.548 138.031 327.271 130.85 322.274 128.722Z" fill="#263238"/>
<path d="M323.194 136.861C323.194 136.861 326.833 137.271 329.416 135.667C330.521 138.326 324.472 139.056 323.194 136.861Z" fill="#263238"/>
<path d="M307.355 144.691C307.246 146.516 306.399 148.233 305.379 149.357C303.846 151.046 302.246 149.995 301.974 147.937C301.729 146.085 302.232 142.974 304.107 142.043C305.954 141.124 307.479 142.604 307.355 144.691Z" fill="#FF8B7B"/>
<path d="M304.69 230.14C304.69 230.14 312.672 283.893 317.055 304.031C321.854 326.084 347.586 399.045 347.586 399.045L360.177 396.319C360.177 396.319 342.184 336.861 338.156 306.03C335.062 282.348 328.966 230.14 328.966 230.14H304.69Z" fill="#B357D4"/>
<path d="M344.571 394.841C344.517 394.853 346.918 399.394 346.918 399.394L361.084 396.327L359.89 392.068L344.571 394.841Z" fill="#263238"/>
<path opacity="0.3" d="M309.735 249.291C318.965 251.101 317.988 285.521 316.878 303.224C314.216 290.71 310.32 266.63 307.658 249.54C308.27 249.234 308.96 249.138 309.735 249.291Z" fill="black"/>
<path d="M291.346 230.14C291.346 230.14 290.377 282.73 291.142 304.179C291.938 326.49 299.731 399.542 299.731 399.542H311.646C311.646 399.542 312.083 327.794 312.613 305.882C313.191 281.995 316.075 230.14 316.075 230.14H291.346Z" fill="#B357D4"/>
<path d="M297.438 394.796C297.383 394.796 298.11 399.743 298.11 399.743H312.604L312.996 395.328L297.438 394.796Z" fill="#263238"/>
<path d="M304.252 178.341C307.625 187.43 287.81 198.136 287.81 198.136L279.232 187.108C279.232 187.108 284.955 175.718 291.978 170.583C300.653 164.24 301.684 171.422 304.252 178.341Z" fill="#B357D4"/>
<path opacity="0.4" d="M304.252 178.341C307.625 187.43 287.81 198.136 287.81 198.136L279.232 187.108C279.232 187.108 284.955 175.718 291.978 170.583C300.653 164.24 301.684 171.422 304.252 178.341Z" fill="black"/>
<path d="M381.875 109.333C401.805 109.333 417.962 99.0356 417.962 86.333C417.962 73.6305 401.805 63.333 381.875 63.333C361.945 63.333 345.788 73.6305 345.788 86.333C345.788 99.0356 361.945 109.333 381.875 109.333Z" fill="#B357D4"/>
<path d="M368.845 97.9098C366.84 97.9098 364.883 97.3098 363.183 96.1508C360.903 94.5968 359.388 92.2408 358.917 89.5168C358.019 84.3098 361.477 79.1218 366.626 77.9518C370.866 76.9908 375.172 78.7978 377.449 82.4688L400.616 77.6878C402.493 77.3008 404.4 78.4198 404.862 80.1848C405.107 81.1228 404.962 82.0918 404.452 82.9138C403.941 83.7358 403.139 84.2948 402.192 84.4908L401.584 84.6168C401.402 84.6538 401.254 84.7638 401.166 84.9258C401.078 85.0858 401.065 85.2748 401.131 85.4448L401.539 86.5068C401.816 87.2258 401.558 88.0348 400.923 88.4298C400.429 88.7378 400.093 89.2658 400.026 89.8438C399.944 90.5518 399.471 91.0968 398.822 91.2308L398.345 91.3288C397.698 91.4608 397.048 91.1508 396.691 90.5328C396.273 89.8108 395.443 89.4388 394.623 89.6088C393.8 89.7788 393.181 90.4498 393.081 91.2788C392.996 91.9878 392.523 92.5318 391.876 92.6648L391.409 92.7608C390.768 92.8938 390.112 92.5818 389.755 91.9648C389.462 91.4608 388.942 91.1088 388.363 91.0228C387.624 90.9128 387.065 90.2728 387.034 89.5008L386.988 88.3638C386.981 88.1788 386.897 88.0148 386.752 87.9018C386.607 87.7878 386.433 87.7468 386.245 87.7828L378.863 89.3068C378.237 93.4898 375.084 96.8388 370.912 97.6998C370.223 97.8388 369.531 97.9098 368.845 97.9098ZM366.847 78.9268C362.208 79.9808 359.093 84.6558 359.904 89.3468C360.327 91.8018 361.692 93.9238 363.747 95.3248C365.802 96.7258 368.274 97.2208 370.711 96.7178C374.576 95.9198 377.473 92.7498 377.917 88.8298L377.958 88.4698L386.043 86.8008C386.51 86.7038 386.993 86.8178 387.368 87.1118C387.743 87.4048 387.968 87.8458 387.988 88.3218L388.034 89.4588C388.045 89.7468 388.25 89.9938 388.51 90.0318C389.401 90.1648 390.169 90.6858 390.62 91.4618C390.73 91.6518 390.939 91.8348 391.208 91.7798L391.675 91.6838C391.94 91.6288 392.063 91.3768 392.089 91.1588C392.238 89.9028 393.176 88.8858 394.422 88.6288C395.664 88.3728 396.923 88.9368 397.557 90.0308C397.667 90.2208 397.875 90.4058 398.144 90.3488L398.622 90.2508C398.887 90.1958 399.009 89.9448 399.033 89.7278C399.137 88.8358 399.635 88.0538 400.397 87.5808C400.621 87.4418 400.71 87.1348 400.607 86.8668L400.199 85.8038C400.028 85.3588 400.061 84.8648 400.29 84.4468C400.519 84.0298 400.917 83.7348 401.384 83.6388L401.992 83.5128C402.668 83.3738 403.24 82.9738 403.604 82.3888C403.968 81.8028 404.072 81.1108 403.897 80.4408C403.567 79.1828 402.184 78.3868 400.819 78.6708L376.95 83.5968L376.77 83.2828C374.767 79.7838 370.785 78.0318 366.847 78.9268ZM368.858 94.2128C367.62 94.2128 366.409 93.8528 365.35 93.1568C363.92 92.2158 362.943 90.7758 362.598 89.1008C362.251 87.4228 362.578 85.7118 363.519 84.2838C364.459 82.8568 365.9 81.8808 367.576 81.5348C369.254 81.1878 370.965 81.5138 372.392 82.4528C373.819 83.3908 374.795 84.8328 375.141 86.5118C375.488 88.1868 375.161 89.8968 374.223 91.3248C373.284 92.7548 371.842 93.7328 370.163 94.0788C369.729 94.1688 369.292 94.2128 368.858 94.2128ZM368.888 82.3998C368.519 82.3998 368.148 82.4378 367.778 82.5138C366.364 82.8058 365.148 83.6298 364.355 84.8338C363.562 86.0388 363.286 87.4818 363.578 88.8988C363.87 90.3118 364.694 91.5268 365.901 92.3208C367.107 93.1138 368.55 93.3908 369.964 93.0988C371.38 92.8068 372.596 91.9808 373.389 90.7748C374.181 89.5698 374.456 88.1278 374.164 86.7128C373.871 85.2958 373.048 84.0788 371.844 83.2868C370.953 82.7038 369.932 82.3998 368.888 82.3998Z" fill="white"/>
<path opacity="0.6" d="M352.495 122.818C359.045 122.818 364.356 119.434 364.356 115.258C364.356 111.083 359.045 107.698 352.495 107.698C345.944 107.698 340.634 111.083 340.634 115.258C340.634 119.434 345.944 122.818 352.495 122.818Z" fill="#B357D4"/>
<path opacity="0.3" d="M333.629 125.92C336.318 125.92 338.498 124.531 338.498 122.817C338.498 121.103 336.318 119.714 333.629 119.714C330.94 119.714 328.76 121.103 328.76 122.817C328.76 124.531 330.94 125.92 333.629 125.92Z" fill="#B357D4"/>
</svg>
