<svg width="208" height="250" viewBox="0 0 208 250" fill="none" xmlns="http://www.w3.org/2000/svg">
<path d="M135.049 103.899C134.644 94.1648 133.333 88.1952 129.121 83.9936C123.027 77.8992 113.209 77.8992 93.5533 77.8992H72.7325C53.0869 77.8992 43.2693 77.8992 37.1645 83.9936C31.0597 90.088 31.0493 99.8848 31.0493 119.499V176.699C31.0493 186.371 31.0493 191.197 31.8501 195.211C33.4568 203.29 37.4258 210.711 43.2542 216.532C49.0827 222.353 56.5081 226.312 64.5893 227.909C67.8133 228.543 71.5781 228.678 77.9325 228.699M119.449 77.8992V57.0992C119.449 42.4976 119.449 35.1864 115.945 29.9448C114.427 27.6727 112.476 25.722 110.204 24.204C104.962 20.6992 97.6509 20.6992 83.0493 20.6992C68.4477 20.6992 61.1365 20.6992 55.8949 24.204C53.6228 25.722 51.6721 27.6727 50.1541 29.9448C46.6493 35.1864 46.6493 42.4976 46.6493 57.0992V77.8992" stroke="#474747" stroke-width="15.6" stroke-linecap="round" stroke-linejoin="round"/>
<path d="M119.444 171.509V155.909C119.444 150.393 121.636 145.102 125.536 141.202C129.437 137.301 134.728 135.109 140.244 135.109C145.761 135.109 151.051 137.301 154.952 141.202C158.853 145.102 161.044 150.393 161.044 155.909V171.509M132.444 228.709H148.044C160.243 228.709 166.348 228.709 170.539 225.485C171.622 224.655 172.59 223.687 173.42 222.605C176.644 218.403 176.644 212.309 176.644 200.109C176.644 187.91 176.644 181.805 173.42 177.614C172.59 176.532 171.622 175.564 170.539 174.733C166.338 171.509 160.243 171.509 148.044 171.509H132.444C120.245 171.509 114.14 171.509 109.949 174.733C108.867 175.564 107.898 176.532 107.068 177.614C103.844 181.816 103.844 187.91 103.844 200.109C103.844 212.309 103.844 218.413 107.068 222.605C107.898 223.687 108.867 224.655 109.949 225.485C114.151 228.709 120.245 228.709 132.444 228.709Z" stroke="#474747" stroke-width="15.6" stroke-linejoin="round"/>
<path d="M77.8442 46.6992H88.2442" stroke="#474747" stroke-width="15.6" stroke-linecap="round" stroke-linejoin="round"/>
</svg>
