<svg width="260" height="260" viewBox="0 0 260 260" fill="none" xmlns="http://www.w3.org/2000/svg">
<g clip-path="url(#clip0_5631_1301)">
<path fill-rule="evenodd" clip-rule="evenodd" d="M230 130C230 185.167 185.167 230 130 230C74.8333 230 30 185.167 30 130C30 74.8333 74.8333 30 130 30C185.167 30 230 74.8333 230 130ZM213.333 130C213.333 176 176 213.333 130 213.333C84 213.333 46.6667 176 46.6667 130C46.6667 84 84 46.6667 130 46.6667C176 46.6667 213.333 84 213.333 130Z" fill="#43A047"/>
<path d="M164.041 116.266C165.129 115.139 165.731 113.631 165.718 112.065C165.704 110.499 165.076 109.001 163.969 107.894C162.861 106.786 161.363 106.158 159.797 106.145C158.232 106.131 156.723 106.733 155.597 107.821L123.944 139.474L104.235 119.765C103.109 118.678 101.6 118.076 100.035 118.089C98.4687 118.103 96.9708 118.731 95.8635 119.838C94.7562 120.945 94.1281 122.443 94.1145 124.009C94.1009 125.575 94.7028 127.084 95.7907 128.21L119.68 152.099C120.8 153.219 122.318 153.848 123.902 153.848C125.486 153.848 127.004 153.219 128.124 152.099L163.958 116.266H164.041Z" fill="#43A047"/>
</g>
<defs>
<clipPath id="clip0_5631_1301">
<rect width="200" height="200" fill="white" transform="translate(30 30)"/>
</clipPath>
</defs>
</svg>
