<svg width="692" height="645" viewBox="0 0 692 645" fill="none" xmlns="http://www.w3.org/2000/svg">
<path d="M0 0C-8.02234e-06 91.7649 36.4535 179.771 101.341 244.659C166.229 309.547 254.235 346 346 346C437.765 346 525.771 309.547 590.659 244.659C655.546 179.771 692 91.765 692 0.00012207L346 3.05176e-05L0 0Z" fill="white" fill-opacity="0.1"/>
<path d="M692 0C604.479 -1.01996e-06 520.542 33.9776 458.655 94.4581C396.768 154.939 362 236.968 362 322.5C362 408.032 396.768 490.061 458.655 550.542C520.542 611.022 604.479 645 692 645L692 322.5V0Z" fill="white" fill-opacity="0.04"/>
</svg>
