<svg width="561" height="602" viewBox="0 0 561 602" fill="none" xmlns="http://www.w3.org/2000/svg">
<g clip-path="url(#clip0_1393_13480)">
<path d="M601.448 459.984H0V460.285H601.448V459.984Z" fill="#EBEBEB"/>
<path d="M541.184 479.344H515.106V479.645H541.184V479.344Z" fill="#EBEBEB"/>
<path d="M414.599 473.104H373.569V473.404H414.599V473.104Z" fill="#EBEBEB"/>
<path d="M530.611 468.174H477.052V468.475H530.611V468.174Z" fill="#EBEBEB"/>
<path d="M208.119 474.24H194.721V474.541H208.119V474.24Z" fill="#EBEBEB"/>
<path d="M184.012 474.24H137.834V474.541H184.012V474.24Z" fill="#EBEBEB"/>
<path d="M113.075 469.161H79.7607V469.462H113.075V469.161Z" fill="#EBEBEB"/>
<path d="M285.103 406.336H52.8251C49.0396 406.336 45.959 403.256 45.959 399.47V72.9657C45.959 69.1802 49.0396 66.0996 52.8251 66.0996H285.103C288.887 66.0996 291.968 69.1802 291.968 72.9657V399.47C291.968 403.256 288.887 406.336 285.103 406.336ZM52.8251 66.4015C49.2044 66.4015 46.2597 69.3462 46.2597 72.9669V399.471C46.2597 403.092 49.2044 406.037 52.8251 406.037H285.103C288.723 406.037 291.667 403.092 291.667 399.471V72.9657C291.667 69.3462 288.723 66.4003 285.103 66.4003L52.8251 66.4015Z" fill="#EBEBEB"/>
<path d="M545.285 406.336H313.008C309.223 406.336 306.144 403.256 306.144 399.47V72.9657C306.144 69.1802 309.224 66.0996 313.008 66.0996H545.285C549.072 66.0996 552.151 69.1802 552.151 72.9657V399.47C552.153 403.256 549.072 406.336 545.285 406.336ZM313.008 66.4015C309.389 66.4015 306.444 69.3462 306.444 72.9669V399.471C306.444 403.092 309.389 406.037 313.008 406.037H545.285C548.906 406.037 551.851 403.092 551.851 399.471V72.9657C551.851 69.3462 548.906 66.4003 545.285 66.4003L313.008 66.4015Z" fill="#EBEBEB"/>
<path d="M138.306 210.056C152.198 210.056 163.46 198.794 163.46 184.902C163.46 171.01 152.198 159.748 138.306 159.748H135.221V210.054L138.306 210.056Z" fill="#E0E0E0"/>
<path d="M135.221 210.056C149.113 210.056 160.375 198.794 160.375 184.902C160.375 171.01 149.113 159.748 135.221 159.748C121.329 159.748 110.067 171.01 110.067 184.902C110.067 198.794 121.329 210.056 135.221 210.056Z" fill="#F5F5F5"/>
<path d="M161.165 379.938H179.457V309.051H161.165V379.938Z" fill="#E6E6E6"/>
<path d="M111.569 379.937H172.28L181.448 296.97H120.738L111.569 379.937Z" fill="#F0F0F0"/>
<path d="M104.994 379.937H167.702L176.871 296.97H114.163L104.994 379.937Z" fill="#F5F5F5"/>
<path d="M163.172 373.4L170.894 303.509H118.692L110.97 373.4H163.172Z" fill="white"/>
<path d="M152.391 356.459L152.706 353.611C154.644 336.076 143.696 320.449 129.475 320.449L129.159 323.298C127.221 340.831 138.17 356.459 152.391 356.459Z" fill="#F5F5F5"/>
<path d="M76.4964 459.984H71.0713V444.552H82.1848L76.4964 459.984Z" fill="#F0F0F0"/>
<path d="M222.238 459.985H276.175V379.938H222.238V459.985Z" fill="#E6E6E6"/>
<path d="M71.0711 450.514H226.974V379.937H71.0711V450.514Z" fill="#F0F0F0"/>
<path d="M221.549 459.984H226.974V444.552H215.86L221.549 459.984Z" fill="#F0F0F0"/>
<path d="M75.28 412.831H222.765V384.352H75.28V412.831Z" fill="#E6E6E6"/>
<path d="M139.187 402.919H158.858C167.402 402.919 175.571 399.405 181.447 393.203H116.597C122.474 399.405 130.643 402.919 139.187 402.919Z" fill="#F0F0F0"/>
<path d="M75.28 445.912H222.765V417.434H75.28V445.912Z" fill="#E6E6E6"/>
<path d="M139.187 435.999H158.858C167.402 435.999 175.571 432.485 181.447 426.283H116.597C122.474 432.485 130.643 435.999 139.187 435.999Z" fill="#F0F0F0"/>
<path d="M217.098 376.672H218.491C218.476 373.802 218.498 366.521 218.638 349.833C218.888 319.588 219.369 317.744 219.369 317.744L216.051 331.707C213.948 347.169 216.659 362.706 217.098 376.672Z" fill="#E6E6E6"/>
<path d="M214.344 329.627C209.568 323.936 199.366 322.28 188.92 320.863C184.82 320.307 199.697 329.678 206.969 336.335C212.617 341.505 216.23 342.934 217.78 348.087C218.589 341.66 218.457 334.53 214.344 329.627Z" fill="#E6E6E6"/>
<path d="M220.678 339.799C225.452 334.108 235.655 332.45 246.101 331.034C250.202 330.479 235.325 339.849 228.053 346.506C222.404 351.676 218.792 353.105 217.241 358.258C216.432 351.832 216.563 344.703 220.678 339.799Z" fill="#E6E6E6"/>
<path d="M218.633 316.406C222.213 309.604 231.222 303.199 241.331 300.77C245.3 299.816 232.138 313.33 227.135 322.045C223.248 328.815 218.094 336.767 217.293 342.48C216.084 331.163 215.053 323.208 218.633 316.406Z" fill="#E6E6E6"/>
<path d="M218.211 379.937C213.946 379.937 210.421 377.799 210.176 375.064L209.465 370.391H226.956L226.245 375.064C226.001 377.799 222.477 379.937 218.211 379.937Z" fill="#F0F0F0"/>
<path d="M228.09 372.189H208.333L207.767 366.982H228.655L228.09 372.189Z" fill="#F0F0F0"/>
<path d="M203.938 272.722H396.649V96.9405L203.938 96.9405L203.938 272.722Z" fill="#E6E6E6"/>
<path d="M199.602 272.722H394.766V96.9405L199.602 96.9405L199.602 272.722Z" fill="#F5F5F5"/>
<path d="M386.979 264.846L386.979 104.813L207.386 104.813L207.386 264.846H386.979Z" fill="#FAFAFA"/>
<path d="M364.943 264.848L294.259 104.815H270.25L340.935 264.848H364.943Z" fill="white"/>
<path d="M334.129 264.848L263.444 104.815H246.913L317.596 264.848H334.129Z" fill="white"/>
<path d="M274.071 264.849L274.071 104.815H264.784L264.784 264.849H274.071Z" fill="#E6E6E6"/>
<path d="M335.804 264.849L335.804 104.815H326.516L326.516 264.849H335.804Z" fill="#E6E6E6"/>
<path d="M272.396 269.844L272.396 98.9609H260.657L260.657 269.844H272.396Z" fill="#F5F5F5"/>
<path d="M334.129 269.843L334.129 98.96H322.39L322.39 269.843H334.129Z" fill="#F5F5F5"/>
<path d="M208.212 264.848L208.212 104.815H207.386L207.386 264.848H208.212Z" fill="#E6E6E6"/>
<path d="M196.333 86.8154H405.113C405.665 86.8154 406.118 87.2677 406.118 87.8199C406.118 88.372 405.665 88.8243 405.113 88.8243H196.333C195.78 88.8243 195.328 88.372 195.328 87.8199C195.329 87.2665 195.78 86.8154 196.333 86.8154Z" fill="#E6E6E6"/>
<path d="M396.65 93.4407C397.395 93.4407 398.005 92.8308 398.005 92.085V89.174C398.005 88.4282 397.395 87.8184 396.65 87.8184C395.904 87.8184 395.294 88.4282 395.294 89.174V92.085C395.294 92.8308 395.904 93.4407 396.65 93.4407Z" fill="#E6E6E6"/>
<path d="M211.474 93.4407C212.22 93.4407 212.829 92.8308 212.829 92.085V89.174C212.829 88.4282 212.22 87.8184 211.474 87.8184C210.728 87.8184 210.118 88.4282 210.118 89.174V92.085C210.119 92.8308 210.729 93.4407 211.474 93.4407Z" fill="#E6E6E6"/>
<path opacity="0.6" d="M196.654 225.476L391.675 225.476V87.8202L196.654 87.8202L196.654 225.476Z" fill="#E0E0E0"/>
<path d="M313.251 439.653H159.793C154.723 439.653 150.401 435.543 150.14 430.472L136.405 163.97C136.144 158.899 140.043 154.789 145.113 154.789H298.571C303.641 154.789 307.963 158.899 308.224 163.97L321.959 430.472C322.22 435.543 318.321 439.653 313.251 439.653Z" fill="#B357D4"/>
<path opacity="0.8" d="M313.251 439.653H159.793C154.723 439.653 150.401 435.543 150.14 430.472L136.405 163.97C136.144 158.899 140.043 154.789 145.113 154.789H298.571C303.641 154.789 307.963 158.899 308.224 163.97L321.959 430.472C322.22 435.543 318.321 439.653 313.251 439.653Z" fill="white"/>
<path d="M283.424 146.097H266.45V147.3H283.424V146.097Z" fill="#B357D4"/>
<path d="M260.57 146.097H254.354V147.3H260.57V146.097Z" fill="#B357D4"/>
<path d="M319.849 422.75H173.083C168.234 422.75 164.1 418.819 163.851 413.97L150.715 159.088C150.465 154.239 154.194 150.308 159.043 150.308H305.81C310.659 150.308 314.794 154.239 315.043 159.088L328.178 413.97C328.427 418.819 324.698 422.75 319.849 422.75Z" fill="#B357D4"/>
<path d="M319.849 416.884H173.083C171.372 416.884 169.795 415.381 169.706 413.667L156.57 158.784C156.523 157.854 156.899 157.253 157.222 156.912C157.544 156.573 158.121 156.17 159.044 156.17H305.81C307.521 156.17 309.099 157.674 309.188 159.388L322.323 414.271C322.37 415.202 321.995 415.803 321.672 416.143C321.348 416.481 320.771 416.884 319.849 416.884ZM159.041 156.471C158.226 156.471 157.719 156.823 157.439 157.119C157.156 157.417 156.828 157.945 156.87 158.768L170.006 413.651C170.086 415.212 171.524 416.584 173.081 416.584H319.848C320.664 416.584 321.169 416.231 321.45 415.935C321.733 415.637 322.062 415.109 322.02 414.285L308.885 159.402C308.804 157.84 307.367 156.469 305.808 156.469H159.041V156.471Z" fill="white"/>
<path opacity="0.3" d="M268.526 249.055C285.216 231.927 284.127 203.798 266.094 186.226C248.061 168.654 219.913 168.293 203.223 185.421C186.534 202.548 187.622 230.678 205.655 248.25C223.688 265.822 251.836 266.182 268.526 249.055Z" fill="white"/>
<path d="M271.822 217.259C272.142 223.467 270.868 229.295 268.36 234.381C262.874 245.585 251.393 253.205 237.727 253.205C224.061 253.205 211.795 245.585 205.154 234.381C202.123 229.295 200.248 223.467 199.928 217.259C198.904 197.403 214.166 181.312 234.021 181.312C253.876 181.312 270.799 197.403 271.822 217.259Z" fill="white"/>
<path d="M268.36 234.382C262.874 245.585 251.394 253.206 237.728 253.206C224.061 253.206 211.795 245.585 205.154 234.382C213.892 228.336 224.57 224.807 236.264 224.807C247.957 224.807 259 228.337 268.36 234.382Z" fill="#B357D4"/>
<path d="M247.009 216.409C253.024 210.237 252.631 200.099 246.132 193.766C239.633 187.433 229.489 187.303 223.474 193.476C217.459 199.648 217.851 209.786 224.35 216.119C230.849 222.452 240.994 222.582 247.009 216.409Z" fill="#B357D4"/>
<path d="M298.816 323.603H183.898C181.846 323.603 180.097 321.939 179.991 319.887L179.12 303.001C179.014 300.949 180.593 299.285 182.645 299.285H297.562C299.614 299.285 301.363 300.949 301.469 303.001L302.34 319.887C302.445 321.939 300.868 323.603 298.816 323.603Z" fill="white"/>
<path opacity="0.3" d="M263.624 290.012H215.629C213.577 290.012 211.828 288.349 211.722 286.296L211.537 282.712C211.431 280.66 213.01 278.996 215.062 278.996H263.056C265.108 278.996 266.857 280.66 266.963 282.712L267.148 286.296C267.253 288.349 265.676 290.012 263.624 290.012Z" fill="black"/>
<path opacity="0.3" d="M281.471 404.541H209.585C206.091 404.541 203.111 401.708 202.932 398.213L202.505 389.923C202.324 386.429 205.012 383.596 208.506 383.596H280.392C283.887 383.596 286.866 386.429 287.045 389.923L287.472 398.213C287.653 401.708 284.966 404.541 281.471 404.541Z" fill="black"/>
<path d="M300.913 364.303H185.996C183.943 364.303 182.194 362.64 182.089 360.587L181.219 343.701C181.113 341.649 182.691 339.985 184.743 339.985H299.661C301.713 339.985 303.462 341.649 303.568 343.701L304.439 360.587C304.542 362.64 302.965 364.303 300.913 364.303Z" fill="white"/>
<path d="M198.512 311.445C198.629 313.717 196.882 315.557 194.611 315.557C192.34 315.557 190.404 313.716 190.286 311.445C190.169 309.174 191.916 307.332 194.187 307.332C196.458 307.332 198.395 309.174 198.512 311.445Z" fill="#263238"/>
<path d="M211.151 311.445C211.268 313.717 209.521 315.557 207.25 315.557C204.979 315.557 203.042 313.716 202.924 311.445C202.808 309.174 204.554 307.332 206.825 307.332C209.097 307.332 211.034 309.174 211.151 311.445Z" fill="#263238"/>
<path d="M223.79 311.445C223.906 313.717 222.16 315.557 219.889 315.557C217.618 315.557 215.681 313.716 215.563 311.445C215.446 309.174 217.193 307.332 219.464 307.332C221.735 307.332 223.673 309.174 223.79 311.445Z" fill="#263238"/>
<path d="M236.428 311.445C236.545 313.717 234.798 315.557 232.527 315.557C230.256 315.557 228.32 313.716 228.202 311.445C228.085 309.174 229.832 307.332 232.103 307.332C234.375 307.332 236.312 309.174 236.428 311.445Z" fill="#263238"/>
<path d="M200.609 352.145C200.726 354.417 198.979 356.258 196.708 356.258C194.437 356.258 192.5 354.416 192.382 352.145C192.266 349.874 194.012 348.032 196.283 348.032C198.555 348.032 200.492 349.873 200.609 352.145Z" fill="#263238"/>
<path d="M213.249 352.145C213.365 354.417 211.619 356.258 209.348 356.258C207.075 356.258 205.14 354.416 205.022 352.145C204.905 349.874 206.652 348.032 208.923 348.032C211.194 348.032 213.131 349.873 213.249 352.145Z" fill="#263238"/>
<path d="M225.887 352.145C226.004 354.417 224.257 356.258 221.986 356.258C219.715 356.258 217.779 354.416 217.661 352.145C217.544 349.874 219.291 348.032 221.562 348.032C223.834 348.031 225.771 349.873 225.887 352.145Z" fill="#263238"/>
<path d="M238.526 352.145C238.643 354.417 236.896 356.258 234.625 356.258C232.354 356.258 230.417 354.416 230.299 352.145C230.183 349.874 231.929 348.032 234.2 348.032C236.473 348.031 238.409 349.873 238.526 352.145Z" fill="#263238"/>
<path d="M251.166 352.145C251.282 354.417 249.536 356.258 247.265 356.258C244.994 356.258 243.057 354.416 242.939 352.145C242.822 349.874 244.569 348.032 246.84 348.032C249.111 348.032 251.049 349.873 251.166 352.145Z" fill="#263238"/>
<path d="M263.805 352.145C263.922 354.417 262.175 356.258 259.904 356.258C257.632 356.258 255.697 354.416 255.579 352.145C255.462 349.874 257.209 348.032 259.48 348.032C261.751 348.032 263.687 349.873 263.805 352.145Z" fill="#263238"/>
<path d="M400.601 212.461C400.903 212.907 401.056 213.153 401.255 213.474L401.792 214.374C402.141 214.969 402.447 215.563 402.755 216.157C403.356 217.347 403.925 218.537 404.434 219.741C405.465 222.145 406.31 224.603 407.041 227.076C408.524 232.019 409.428 237.085 409.893 242.154L409.985 243.104C410.002 243.239 410.014 243.455 410.024 243.677L410.05 244.324C410.066 245.179 410.024 246.025 409.905 246.825C409.679 248.438 409.244 249.928 408.711 251.305C407.63 254.047 406.144 256.377 404.551 258.498C401.288 262.722 397.585 266.102 393.353 269.098L390.04 265.216C393.012 261.778 395.893 257.968 398.027 254.163C399.116 252.266 399.948 250.309 400.467 248.485C400.71 247.573 400.841 246.697 400.861 245.906C400.889 245.507 400.86 245.138 400.822 244.788L400.785 244.53C400.777 244.452 400.767 244.365 400.736 244.203L400.585 243.356C399.798 238.84 398.724 234.405 397.315 230.119C396.623 227.971 395.768 225.895 394.901 223.856C394.471 222.832 393.998 221.84 393.512 220.87L392.765 219.457L392.394 218.787L392.089 218.263L400.601 212.461Z" fill="#803E3C"/>
<path d="M389.372 269.175L393.728 278.371L397.181 270.595C397.181 270.595 394.12 263.858 389.977 264.474L389.372 269.175Z" fill="#7F3E3B"/>
<path d="M396.85 278.83L400.308 273.158L397.183 270.597L393.729 278.374L396.85 278.83Z" fill="#7F3E3B"/>
<path d="M377.269 491.044C378.2 491.044 379.217 490.852 379.929 490.683C380.022 490.662 380.093 490.586 380.11 490.493C380.127 490.4 380.086 490.305 380.006 490.253C379.661 490.025 376.601 488.05 375.429 488.581C375.244 488.665 375.011 488.849 374.954 489.252C374.878 489.786 375.012 490.213 375.35 490.521C375.778 490.912 376.494 491.044 377.269 491.044ZM379.255 490.343C377.501 490.694 376.181 490.633 375.671 490.167C375.453 489.97 375.374 489.691 375.427 489.318C375.455 489.117 375.548 489.05 375.625 489.016C376.244 488.731 378.007 489.589 379.255 490.343Z" fill="#B357D4"/>
<path d="M379.874 490.688C379.915 490.688 379.957 490.677 379.994 490.656C380.068 490.612 380.113 490.534 380.113 490.45C380.113 490.326 380.1 487.426 379.004 486.456C378.713 486.198 378.373 486.091 377.994 486.138C377.396 486.21 377.234 486.586 377.19 486.803C376.963 487.938 378.795 490.112 379.756 490.657C379.793 490.679 379.834 490.688 379.874 490.688ZM378.16 486.604C378.356 486.604 378.529 486.673 378.688 486.814C379.341 487.393 379.566 489.021 379.621 489.987C378.664 489.222 377.521 487.59 377.659 486.897C377.682 486.784 377.747 486.648 378.052 486.612C378.089 486.607 378.125 486.604 378.16 486.604Z" fill="#B357D4"/>
<path d="M365.909 486.135C365.966 486.073 365.987 485.987 365.962 485.905C365.933 485.807 365.847 485.74 365.746 485.734C365.246 485.71 360.922 485.53 359.949 486.583C359.927 486.606 359.908 486.63 359.89 486.654C359.727 486.873 359.693 487.131 359.788 487.4C359.948 487.85 360.243 488.145 360.664 488.276C362.065 488.71 364.529 487.14 365.874 486.166C365.887 486.156 365.898 486.145 365.909 486.135ZM360.308 486.897C360.845 486.316 363.224 486.159 365.012 486.189C363.138 487.459 361.591 488.064 360.806 487.821C360.532 487.736 360.346 487.546 360.237 487.241C360.195 487.123 360.206 487.03 360.272 486.941C360.283 486.925 360.295 486.91 360.308 486.897Z" fill="#B357D4"/>
<path d="M365.908 486.136C365.92 486.123 365.93 486.109 365.94 486.093C365.982 486.02 365.983 485.931 365.942 485.856C365.885 485.755 364.541 483.389 362.949 482.96C362.462 482.829 362 482.888 361.575 483.138C361.003 483.473 360.97 483.861 361.043 484.124C361.35 485.239 364.418 486.221 365.735 486.212C365.801 486.211 365.864 486.182 365.908 486.136ZM361.589 483.724C361.638 483.671 361.71 483.612 361.817 483.549C362.131 483.365 362.46 483.323 362.824 483.421C363.869 483.702 364.853 485.04 365.289 485.709C363.867 485.546 361.686 484.667 361.502 483.998C361.491 483.957 361.465 483.858 361.589 483.724Z" fill="#B357D4"/>
<path d="M379.152 177.223C377.98 183.201 375.347 196.244 379.529 200.234C379.529 200.234 377.895 206.299 366.786 206.299C354.571 206.299 360.948 200.235 360.948 200.235C367.616 198.643 367.444 193.696 366.282 189.051L379.152 177.223Z" fill="#7F3E3B"/>
<path d="M358.794 163.122C358.866 163.122 358.938 163.106 359.007 163.072C359.243 162.954 359.338 162.668 359.22 162.431C358.037 160.071 355.85 159.796 355.758 159.786C355.497 159.754 355.26 159.944 355.23 160.207C355.2 160.468 355.387 160.703 355.647 160.735C355.719 160.743 357.421 160.975 358.366 162.859C358.451 163.026 358.619 163.122 358.794 163.122Z" fill="#263238"/>
<path d="M355.151 168.349C355.151 168.349 353.353 171.652 351.639 173.141C352.581 174.267 354.447 174.036 354.447 174.036L355.151 168.349Z" fill="#630F0F"/>
<path d="M356.045 167.051C355.945 167.858 355.438 168.458 354.91 168.393C354.383 168.328 354.036 167.621 354.136 166.815C354.236 166.008 354.744 165.408 355.272 165.473C355.797 165.538 356.145 166.244 356.045 167.051Z" fill="#263238"/>
<path d="M355.498 165.546L353.63 164.748C353.63 164.748 354.437 166.383 355.498 165.546Z" fill="#263238"/>
<path d="M376.526 483.85L366.714 486.142L360.751 463.573L370.563 461.281L376.526 483.85Z" fill="#7F3E3B"/>
<path d="M391.592 490.451H381.517L382.307 467.118H392.382L391.592 490.451Z" fill="#7F3E3B"/>
<path d="M380.718 489.283H392.037C392.449 489.283 392.783 489.569 392.841 489.971L394.13 498.926C394.264 499.855 393.465 500.734 392.515 500.719C388.568 500.651 386.666 500.419 381.689 500.419C378.626 500.419 374.151 500.737 369.923 500.737C365.786 500.737 365.469 496.554 367.23 496.176C375.126 494.478 376.373 492.136 379.034 489.902C379.514 489.5 380.115 489.283 380.718 489.283Z" fill="#263238"/>
<path d="M365.844 484.637L376.127 479.906C376.501 479.734 376.925 479.855 377.145 480.195L382.06 487.793C382.57 488.581 382.211 489.714 381.34 490.095C377.727 491.683 375.902 492.267 371.379 494.347C368.597 495.627 362.975 498.563 359.133 500.33C355.375 502.059 353.338 498.393 354.779 497.312C361.244 492.469 363.088 489.044 364.571 485.902C364.84 485.338 365.296 484.89 365.844 484.637Z" fill="#263238"/>
<path opacity="0.2" d="M360.754 463.577L363.946 475.669L373.642 472.919L370.571 461.285L360.754 463.577Z" fill="black"/>
<path opacity="0.2" d="M392.384 467.124H382.304L381.902 479.151H391.981L392.384 467.124Z" fill="black"/>
<path d="M396.908 202.523C401.094 203.441 405.564 218.499 405.564 218.499L393.728 231.082C393.728 231.082 383.909 216.94 385.909 211.74C387.993 206.323 391.96 201.439 396.908 202.523Z" fill="#263238"/>
<path opacity="0.4" d="M390.272 212.107C388.155 210.17 386.723 210.747 385.749 212.287C384.787 216.762 390.488 226.132 392.786 229.681C393.844 225.447 395.059 216.509 390.272 212.107Z" fill="black"/>
<path d="M343.916 202.816C343.916 202.816 339.116 204.506 348.731 263.628C364.969 263.628 381.752 263.628 389.652 263.628C388.965 246.973 388.946 236.704 396.906 202.523C396.906 202.523 388.331 200.658 379.529 200.234C372.642 199.902 367 199.682 360.946 200.235C352.966 200.963 343.916 202.816 343.916 202.816Z" fill="#263238"/>
<path opacity="0.4" d="M343.552 225.507C343.816 228.382 344.165 231.618 344.622 235.274C347.974 232.256 350.713 223.672 349.711 218.664C347.365 220.407 345.2 223.101 343.552 225.507Z" fill="black"/>
<path d="M347.92 216.543C345.693 222.167 343.241 227.511 340.482 232.849C337.728 238.179 334.787 243.416 330.877 248.48L330.108 249.427L329.724 249.9C329.592 250.058 329.488 250.199 329.275 250.417C328.531 251.239 327.724 251.941 326.899 252.53C325.243 253.712 323.53 254.464 321.87 255.042C318.545 256.161 315.331 256.557 312.199 256.745C305.911 257 299.963 256.417 293.964 255.126L294.631 250.067C297.396 250.081 300.296 250.02 303.091 249.843C305.901 249.696 308.683 249.396 311.351 248.921C314.013 248.474 316.587 247.796 318.735 246.861C319.795 246.386 320.716 245.817 321.394 245.241C321.735 244.955 322.002 244.66 322.216 244.38C322.261 244.339 322.369 244.18 322.46 244.051L322.742 243.654L323.305 242.864C326.269 238.479 328.871 233.385 331.356 228.293C333.797 223.177 336.152 217.874 338.362 212.698L347.92 216.543Z" fill="#803E3C"/>
<path d="M343.916 202.816C338.909 204.037 332.746 217.786 332.746 217.786L343.142 233.056C343.142 233.056 356.981 215.635 355.335 210.311C353.62 204.767 349.992 201.334 343.916 202.816Z" fill="#263238"/>
<path d="M297.513 250.82L288.843 246.816L287.971 255.435C287.971 255.435 295.217 257.568 298.791 255.382L297.513 250.82Z" fill="#7F3E3B"/>
<path d="M283.65 245.945L282.822 252.509L287.972 255.436L288.843 246.816L283.65 245.945Z" fill="#7F3E3B"/>
<path d="M383.506 167.637C381.672 177.467 381.106 181.667 375.474 186.132C367.002 192.849 355.329 188.447 354.189 178.267C353.163 169.103 356.334 154.567 366.518 151.825C376.551 149.123 385.339 157.807 383.506 167.637Z" fill="#7F3E3B"/>
<path d="M361.913 169.709C361.351 174.721 361.134 187.744 372.146 188.153C385.641 188.654 389.68 177.126 388.477 172.515C395.494 166.801 396.509 156.977 388.619 149.459C380.729 141.941 363.358 146.144 358.505 153.468C352.49 162.548 361.913 169.709 361.913 169.709Z" fill="#263238"/>
<path d="M375.425 152.38C374.773 147.094 375.279 143.445 380.224 143.445C385.169 143.445 391.935 145.241 394.416 150.308C396.897 155.374 397.097 163.293 390.18 162.491C383.264 161.69 376.205 158.709 375.425 152.38Z" fill="#B357D4"/>
<path d="M383.095 151.111C381.916 144.804 387.535 127.057 401.242 125.904C407.591 125.369 410.531 132.202 407.206 133.328C413.203 133.255 417.069 141.206 411.459 142.403C415.894 145.236 414.79 151.065 408.475 153.922C403.82 156.027 384.726 159.838 383.095 151.111Z" fill="#263238"/>
<path d="M397.738 157.883C393.328 157.883 388.716 157.235 385.859 155.322C384.124 154.16 383.173 152.62 383.031 150.744C383.019 150.578 383.143 150.433 383.308 150.421C383.483 150.408 383.618 150.533 383.631 150.698C383.758 152.381 384.62 153.768 386.193 154.821C391.637 158.466 404.216 157.286 408.16 155.999C411.551 154.892 413.847 152.748 414.303 150.263C414.637 148.439 413.921 146.712 412.289 145.397C412.16 145.292 412.139 145.103 412.243 144.973C412.347 144.843 412.537 144.824 412.667 144.928C414.453 146.366 415.265 148.35 414.896 150.371C414.4 153.077 411.952 155.395 408.348 156.572C406.282 157.245 402.109 157.883 397.738 157.883Z" fill="#263238"/>
<path d="M358.843 168.381C357.635 170.055 357.287 172.134 357.554 173.812C357.955 176.335 360.415 176.503 362.195 174.885C363.797 173.43 365.521 170.362 364.209 168.272C362.916 166.21 360.225 166.469 358.843 168.381Z" fill="#7F3E3B"/>
<path d="M359.538 263.627C359.538 263.627 365.385 332.783 371.453 371.758C376.353 403.238 380.217 476.821 380.217 476.821H393.957C393.957 476.821 398.844 405.436 396.356 374.301C390.062 295.513 404.098 289.096 389.653 263.627H359.538Z" fill="#B357D4"/>
<path opacity="0.4" d="M376.835 289.765C371.289 295.43 367.067 302.203 363.855 309.348C365.455 324.889 367.356 342.139 369.377 357.247C375.632 341.453 380.986 317.155 376.835 289.765Z" fill="black"/>
<path d="M349.921 263.191C349.921 263.191 337.237 338.72 335.231 372.764C340.214 404.245 360.592 470.784 360.592 470.784L373.09 466.256C373.09 466.256 366.176 393.698 358.616 373.834C375.541 316.85 387.978 302.448 384.36 263.628C375.728 263.628 349.921 263.191 349.921 263.191Z" fill="#B357D4"/>
<path d="M358.915 474.109L375.804 469.524L374.848 462.791L356.765 467.681L358.915 474.109Z" fill="#263238"/>
<path d="M378.337 477.094H395.838L396.757 470.955L378.237 470.328L378.337 477.094Z" fill="#263238"/>
<path d="M390.266 261.226L392.111 264.889C392.255 265.173 391.918 265.463 391.445 265.463H348.529C348.16 265.463 347.854 265.282 347.832 265.05L347.462 261.387C347.437 261.133 347.757 260.918 348.16 260.918H389.599C389.904 260.919 390.174 261.043 390.266 261.226Z" fill="#B357D4"/>
<path opacity="0.5" d="M390.266 261.226L392.111 264.889C392.255 265.173 391.918 265.463 391.445 265.463H348.529C348.16 265.463 347.854 265.282 347.832 265.05L347.462 261.387C347.437 261.133 347.757 260.918 348.16 260.918H389.599C389.904 260.919 390.174 261.043 390.266 261.226Z" fill="black"/>
<path d="M384.7 265.859H385.811C386.032 265.859 386.2 265.745 386.185 265.605L385.664 260.847C385.648 260.707 385.456 260.594 385.234 260.594H384.124C383.903 260.594 383.734 260.709 383.75 260.847L384.271 265.605C384.285 265.746 384.479 265.859 384.7 265.859Z" fill="#B357D4"/>
<path d="M369.803 230.805C369.532 230.805 369.293 230.623 369.223 230.361C365.298 215.861 357.141 203.936 353.251 202.097C352.816 201.891 352.455 201.832 352.237 201.929C351.931 202.066 351.578 201.931 351.441 201.627C351.305 201.324 351.439 200.968 351.741 200.832C352.303 200.578 352.983 200.639 353.765 201.008C357.917 202.971 366.145 214.761 370.261 229.598C373.211 229.561 377.761 229.193 378.858 229.1C380.233 227.467 390.321 214.859 386.546 201.067C386.458 200.747 386.647 200.416 386.968 200.328C387.286 200.24 387.619 200.428 387.707 200.749C391.907 216.101 379.726 229.941 379.603 230.079C379.501 230.194 379.359 230.265 379.207 230.278C379.147 230.284 373.148 230.805 369.803 230.805Z" fill="#B357D4"/>
<path d="M389.729 239.308C383.172 227.017 380.491 226.158 379.318 222.207C379.318 222.207 380.374 219.223 383.057 216.203C382.252 215.979 380.55 215.639 379.481 215.433C379.603 214.895 379.727 214.364 379.848 213.854C378.962 213.607 377.123 213.861 376.182 214.018L376.14 212.806C376.14 212.806 372.815 212.138 371.479 212.51C371.612 213.069 371.747 213.652 371.882 214.242C370.711 214.468 368.844 214.841 367.963 215.087C370.516 217.963 371.438 221.034 371.636 221.792C368.104 227.86 354.364 266.912 376.708 269.849C399.065 272.786 396.285 251.599 389.729 239.308Z" fill="#B357D4"/>
<path opacity="0.4" d="M389.729 239.308C383.172 227.017 380.491 226.158 379.318 222.207C379.318 222.207 380.374 219.223 383.057 216.203C382.252 215.979 380.55 215.639 379.481 215.433C379.603 214.895 379.727 214.364 379.848 213.854C378.962 213.607 377.123 213.861 376.182 214.018L376.14 212.806C376.14 212.806 372.815 212.138 371.479 212.51C371.612 213.069 371.747 213.652 371.882 214.242C370.711 214.468 368.844 214.841 367.963 215.087C370.516 217.963 371.438 221.034 371.636 221.792C368.104 227.86 354.364 266.912 376.708 269.849C399.065 272.786 396.285 251.599 389.729 239.308Z" fill="white"/>
<path d="M370.801 220.629C370.635 220.927 370.651 222.058 370.625 222.509C370.6 222.96 371.803 223.261 373.156 223.386C374.51 223.511 380.098 223.737 379.923 223.11C379.747 222.484 380.198 221.632 380.223 221.105C380.249 220.578 377.993 220.554 376.113 220.629C374.233 220.703 371.178 219.952 370.801 220.629Z" fill="#B357D4"/>
<path d="M357.799 265.859H358.909C359.131 265.859 359.299 265.745 359.283 265.605L358.762 260.847C358.747 260.707 358.554 260.594 358.333 260.594H357.223C357.001 260.594 356.833 260.709 356.849 260.847L357.37 265.605C357.385 265.746 357.578 265.859 357.799 265.859Z" fill="#B357D4"/>
</g>
<defs>
<clipPath id="clip0_1393_13480">
<rect width="560.828" height="602" fill="white"/>
</clipPath>
</defs>
</svg>
