<svg xmlns="http://www.w3.org/2000/svg" width="51" height="38" viewBox="0 0 51 38">
  <g id="Group_415" data-name="Group 415" transform="translate(-76 -307)">
    <rect id="Rectangle_1615" data-name="Rectangle 1615" width="51" height="38" transform="translate(76 307)" fill="currentColor" opacity="0.002"/>
    <path id="Path_7" data-name="Path 7" d="M24.613,17.711a6.8,6.8,0,0,0,6.747-6.856,6.748,6.748,0,1,0-13.493,0A6.8,6.8,0,0,0,24.613,17.711ZM9.433,14.284V9.142H6.06v5.142H1v3.428H6.06v5.142H9.433V17.711h5.06V14.284Zm15.18,6.856c-4.5,0-13.493,2.3-13.493,6.856v3.428H38.107V28C38.107,23.436,29.117,21.139,24.613,21.139Z" transform="translate(81.85 308.289)" fill="currentColor"/>
  </g>
</svg>
