<svg xmlns="http://www.w3.org/2000/svg" fill="currentColor" width="22" height="22" viewBox="0 0 33.282 36.035">
  <g transform="translate(0 0)">
    <rect width="32.471" height="36.035" transform="translate(0.405 0)" fill="none" />
    <g transform="translate(0 9.697)">
      <path d="M16.641,15.361a14.714,14.714,0,0,1,5.88,1.248,4.139,4.139,0,0,1,2.441,3.786v2.247H8.32V20.408a4.11,4.11,0,0,1,2.441-3.786A14.478,14.478,0,0,1,16.641,15.361Zm-11.094.347a2.773,2.773,0,1,0-2.773-2.773A2.782,2.782,0,0,0,5.547,15.707Zm1.567,1.525a9.683,9.683,0,0,0-1.567-.139,9.639,9.639,0,0,0-3.855.8A2.789,2.789,0,0,0,0,20.464v2.177H6.24V20.408A6.239,6.239,0,0,1,7.114,17.233Zm20.621-1.525a2.773,2.773,0,1,0-2.773-2.773A2.782,2.782,0,0,0,27.735,15.707Zm5.547,4.757A2.789,2.789,0,0,0,31.59,17.9a9.427,9.427,0,0,0-5.422-.666,6.239,6.239,0,0,1,.874,3.176v2.233h6.24ZM16.641,6a4.16,4.16,0,1,1-4.16,4.16A4.155,4.155,0,0,1,16.641,6Z" transform="translate(0 -6)" />
    </g>
  </g>
</svg>