<svg xmlns="http://www.w3.org/2000/svg" width="24" height="18" viewBox="0 0 34.227 32.088" fill="currentColor">
    <g transform="translate(0 0)">
        <g transform="translate(0 0)">
            <rect width="34.227" height="32.088" fill="none" />
        </g>
        <g transform="translate(3.038 4.278)">
            <g transform="translate(0 0)">
                <g transform="translate(16.893 12.718)">
                    <path d="M16.67,13.13a6.163,6.163,0,0,1,2.512,4.933v3.824h4.312V18.063C23.494,15.284,19.645,13.64,16.67,13.13Z" transform="translate(-16.67 -13.13)" fill-rule="evenodd" />
                </g>
                <g transform="translate(2.858)">
                    <ellipse cx="5.427" cy="5.348" rx="5.427" ry="5.348" />
                </g>
                <g transform="translate(13.659 1.079)">
                    <path d="M15.1,14.2c2.382,0,4.312-2.282,4.312-5.1S17.486,4,15.1,4a3.891,3.891,0,0,0-1.434.306A8.525,8.525,0,0,1,15.1,9.1a8.525,8.525,0,0,1-1.434,4.793A3.891,3.891,0,0,0,15.1,14.2Z" transform="translate(-13.67 -4)" fill-rule="evenodd" />
                </g>
                <g transform="translate(0 12.552)">
                    <path d="M9.624,13C6.746,13,1,14.708,1,18.1v3.824H18.249V18.1C18.249,14.708,12.5,13,9.624,13Z" transform="translate(-1 -13)" fill-rule="evenodd" />
                </g>
            </g>
        </g>
    </g>
</svg>
