<svg width="24" height="24" fill="none" viewBox="0 0 24 24" stroke-width="1.5" stroke="currentColor"
    xmlns="http://www.w3.org/2000/svg">
    <path d="M10.4 12L14 15.6L12.6 17L9 13.4L5.4 17L4 15.6L7.6 12L4 8.40002L5.4 7.00002L9 10.6L12.6 7.00002L14 8.40002L10.4 12ZM19.3123 8.67402L20.3805 7.52752C20.5765 7.32611 20.7514 7.12013 20.9173 6.91872C21.077 6.72455 21.2214 6.51826 21.3493 6.30172C21.469 6.10155 21.567 5.88923 21.6418 5.66832C21.7128 5.45341 21.7488 5.22846 21.7484 5.00211C21.7514 4.72074 21.6994 4.44149 21.5953 4.18005C21.4968 3.93431 21.3427 3.71471 21.1451 3.53845C20.9353 3.3549 20.6899 3.21654 20.4242 3.13199C19.7861 2.94194 19.1044 2.95756 18.4757 3.17664C18.1887 3.28509 17.9282 3.45384 17.712 3.67151C17.5032 3.88009 17.3413 4.13084 17.2372 4.40699C17.1371 4.67348 17.0844 4.95537 17.0813 5.23999L17.0777 5.47699H18.617L18.6234 5.25002C18.625 5.12336 18.643 4.99744 18.6772 4.87544C18.7105 4.76837 18.7637 4.66851 18.8339 4.58107C18.905 4.50071 18.9935 4.43772 19.0928 4.39697C19.3173 4.30798 19.5665 4.3028 19.7946 4.38239C19.8768 4.41847 19.9501 4.47197 20.0096 4.53918C20.0704 4.61092 20.1171 4.69347 20.1473 4.78251C20.1829 4.89075 20.2014 5.00393 20.202 5.11789C20.2008 5.20748 20.1901 5.2967 20.17 5.38401C20.1409 5.48829 20.0993 5.58866 20.046 5.68294C19.9687 5.81915 19.8807 5.94897 19.7827 6.07117C19.6483 6.24582 19.505 6.41343 19.3534 6.57334L17.1971 8.92644V10H22V8.67402H19.3123Z" fill="currentColor"/>
</svg>
